<?xml version="1.0" encoding="UTF-8"?>
<svg width="182px" height="182px" viewBox="0 0 182 182" version="1.1" xmlns="http://www.w3.org/2000/svg" xmlns:xlink="http://www.w3.org/1999/xlink">
    <title>SG/Icons/Responsive/Abstract/3</title>
    <g id="SG/Icons/Responsive/Abstract/3" stroke="none" stroke-width="1" fill="none" fill-rule="evenodd">
        <path d="M124.589054,44.8729537 L115.7301,15 L91,33.9637212 L66.2710257,15 L57.4109461,44.8719924 L26.2784734,44.0803882 L36.6355299,73.4496056 L11,91.1160636 L36.6364912,108.78156 L26.2769912,138.152127 L57.4099848,137.358212 L66.2695868,167.232199 L91,148.267445 L115.73032,167.232199 L124.589054,137.359173 L155.721527,138.151739 L145.363509,108.78156 L171,91.1160636 L145.362547,73.4496056 L155.723012,44.0799908 L124.589054,44.8729537 Z M90.9998986,52.1351474 L107.866627,39.2010757 L113.90781,59.5697981 L135.159896,59.0276541 L128.093814,79.0614685 L145.586539,91.1160636 L128.093977,103.170546 L135.157974,123.203512 L113.906648,122.663488 L107.865666,143.03009 L91,130.097058 L74.1333729,143.03009 L68.0933537,122.662329 L46.8391423,123.203512 L53.9061858,103.170659 L36.4125001,91.1160636 L53.9060229,79.0615808 L46.841065,59.0276541 L68.0931509,59.568634 L74.1333729,39.2010757 L90.9998986,52.1351474 Z" id="Path" fill="#000000" fill-rule="nonzero"></path>
    </g>
</svg>