<?xml version="1.0" encoding="UTF-8"?>
<svg width="182px" height="182px" viewBox="0 0 182 182" version="1.1" xmlns="http://www.w3.org/2000/svg" xmlns:xlink="http://www.w3.org/1999/xlink">
    <title>SG/Icons/Responsive/Abstract/7</title>
    <g id="SG/Icons/Responsive/Abstract/7" stroke="none" stroke-width="1" fill="none" fill-rule="evenodd">
        <path d="M96.350733,23.9179752 L91,11 L85.649267,23.9179752 C70.883983,59.5649741 59.5649741,70.883983 23.9179752,85.649267 L11,91 L23.9179752,96.350733 C59.5649741,111.116017 70.883983,122.435026 85.649267,158.082025 L91,171 L96.350733,158.082025 C111.116017,122.435026 122.435026,111.116017 158.082025,96.350733 L171,91 L158.082025,85.649267 C122.435026,70.883983 111.116017,59.5649741 96.350733,23.9179752 Z M91,40.4765645 L91.3328786,41.1762673 C103.314772,66.1797664 115.820234,78.685228 140.823733,90.6671214 L141.522663,91 L140.823733,91.3328786 C115.820234,103.314772 103.314772,115.820234 91.3328786,140.823733 L91,141.522663 L90.6671214,140.823733 C78.685228,115.820234 66.1797664,103.314772 41.1762673,91.3328786 L40.4765645,91 L41.1762673,90.6671214 C66.1797664,78.685228 78.685228,66.1797664 90.6671214,41.1762673 L91,40.4765645 Z" id="Path" fill="#000000" fill-rule="nonzero"></path>
    </g>
</svg>