<?xml version="1.0" encoding="UTF-8"?>
<svg width="182px" height="182px" viewBox="0 0 182 182" version="1.1" xmlns="http://www.w3.org/2000/svg" xmlns:xlink="http://www.w3.org/1999/xlink">
    <title>SG/Icons/Responsive/Abstract/4</title>
    <g id="SG/Icons/Responsive/Abstract/4" stroke="none" stroke-width="1" fill="none" fill-rule="evenodd">
        <path d="M122.741397,21.7009052 C112.73197,24.5277171 102.176212,30.779276 91.7168319,40.2122269 L90.9990099,40.8632354 L90.9506511,40.8186483 C80.0553092,30.8474257 69.0404504,24.3256097 58.6334598,21.5286181 C46.2901394,18.211217 35.0292309,20.3090499 27.6691404,27.6691404 C20.3090499,35.0292309 18.211217,46.2901394 21.5286181,58.6334598 L21.7009052,59.2586029 C24.5277171,69.2680304 30.779276,79.8237875 40.2122269,90.2831681 L40.8632354,90.9990099 L40.8186483,91.0493489 C30.8474257,101.944691 24.3256097,112.95955 21.5286181,123.36654 C18.211217,135.709861 20.3090499,146.970769 27.6691404,154.33086 C35.0292309,161.69095 46.2901394,163.788783 58.6334598,160.471382 L59.2586029,160.299095 C69.2680304,157.472283 79.8237875,151.220724 90.2831681,141.787773 L90.9990099,141.135863 L91.0493489,141.181352 C101.944691,151.152574 112.95955,157.67439 123.36654,160.471382 C135.709861,163.788783 146.970769,161.69095 154.33086,154.33086 C161.69095,146.970769 163.788783,135.709861 160.471382,123.36654 L160.299095,122.741397 C157.472283,112.73197 151.220724,102.176212 141.787773,91.7168319 L141.135863,90.9990099 L141.181352,90.9506511 C151.152574,80.0553092 157.67439,69.0404504 160.471382,58.6334598 C163.788783,46.2901394 161.69095,35.0292309 154.33086,27.6691404 C146.970769,20.3090499 135.709861,18.211217 123.36654,21.5286181 L122.741397,21.7009052 Z M142.887559,39.1124413 C145.778053,42.002936 146.762794,47.2889043 144.842718,54.433087 C142.370837,63.630414 135.467768,74.3073607 124.216487,85.1817235 L118.196542,91 L124.216487,96.8182765 C135.467768,107.692639 142.370837,118.369586 144.842718,127.566913 C146.762794,134.711096 145.778053,139.997064 142.887559,142.887559 C139.997064,145.778053 134.711096,146.762794 127.566913,144.842718 C118.369586,142.370837 107.692639,135.467768 96.8182765,124.216487 L91,118.196542 L85.1817235,124.216487 C74.3073607,135.467768 63.630414,142.370837 54.433087,144.842718 C47.2889043,146.762794 42.002936,145.778053 39.1124413,142.887559 C36.2219466,139.997064 35.2372056,134.711096 37.1572821,127.566913 C39.6291634,118.369586 46.5322325,107.692639 57.7835132,96.8182765 L63.8034578,91 L57.7835132,85.1817235 C46.5322325,74.3073607 39.6291634,63.630414 37.1572821,54.433087 C35.2372056,47.2889043 36.2219466,42.002936 39.1124413,39.1124413 C42.002936,36.2219466 47.2889043,35.2372056 54.433087,37.1572821 C63.630414,39.6291634 74.3073607,46.5322325 85.1817235,57.7835132 L91,63.8034578 L96.8182765,57.7835132 C107.692639,46.5322325 118.369586,39.6291634 127.566913,37.1572821 C134.711096,35.2372056 139.997064,36.2219466 142.887559,39.1124413 Z" id="Path" fill="#000000" fill-rule="nonzero"></path>
    </g>
</svg>