<?xml version="1.0" encoding="UTF-8"?>
<svg width="182px" height="182px" viewBox="0 0 182 182" version="1.1" xmlns="http://www.w3.org/2000/svg" xmlns:xlink="http://www.w3.org/1999/xlink">
    <title>SG/Icons/Responsive/Abstract/6</title>
    <g id="SG/Icons/Responsive/Abstract/6" stroke="none" stroke-width="1" fill="none" fill-rule="evenodd">
        <path d="M121.524036,20.7841067 C119.357221,21.5614414 117.240354,22.8673321 114.966125,24.6804025 L114.280237,25.2354989 L113.609678,25.7960347 L113.109856,26.2265311 L112.607265,26.6707644 L112.097021,27.1333104 L111.396353,27.7864339 L110.661829,28.491095 L110.081755,29.0599373 L109.044917,30.0984165 L107.657282,31.5198656 L106.354875,32.8753252 L103.935312,35.4230669 L101.78107,37.6975503 L100.434899,39.100437 L99.5039728,40.0561753 L98.9173084,40.6505813 L98.3556135,41.212754 L97.8170081,41.7443811 L97.2996128,42.2471505 L96.5591766,42.9508884 L96.0865826,43.3888974 L95.6286196,43.8039559 L95.1834081,44.1977516 L94.7490682,44.5719723 L94.3237204,44.9283057 L94.113831,45.1002921 C93.0135248,45.9951089 92.0818898,46.6326011 91.3551454,47.0069299 L91.2270896,47.0711849 C91.1452081,47.1111293 91.0703781,47.1453328 91,47.1748375 C90.8959521,47.1309708 90.7780893,47.0755559 90.6448546,47.0069299 C89.9181102,46.6326011 88.9864752,45.9951089 87.886169,45.1002921 L87.478325,44.7637513 L87.0629879,44.4112908 L86.6384453,44.0413714 L86.2029849,43.6524544 L85.7548942,43.2430008 L85.2924609,42.8114716 L84.5681726,42.1194197 L84.0623909,41.6259688 L83.5362731,41.1050561 L82.7052206,40.2688298 L82.1207711,39.6725298 L81.1941941,38.7160088 L79.8566161,37.3167021 L76.2087483,33.4661564 L74.3427178,31.5198656 L73.3985553,30.5494057 L72.5287558,29.6684466 L71.7217461,28.8661417 L70.7836514,27.9573438 L70.249804,27.4541078 L69.9029791,27.1333104 L69.3927353,26.6707644 L68.8901437,26.2265311 L68.390322,25.7960347 L68.0562352,25.514409 L67.3794584,24.9579487 L67.033875,24.6804025 C64.759646,22.8673321 62.6427786,21.5614414 60.475964,20.7841067 C57.2580266,19.6296866 53.9501923,19.6808234 50.9760134,21.4017764 C48.1326545,23.0467155 46.4163487,25.7280911 45.7130679,28.9214428 C45.2257926,31.1339896 45.2185291,33.5550239 45.5649187,36.3212315 L45.6020286,36.609924 L45.6822764,37.1890259 L45.7709299,37.772346 L45.868431,38.3621986 L45.9752219,38.9608979 L46.0917445,39.5707584 L46.2857425,40.511539 L46.4285285,41.1594276 L46.5825934,41.8265776 L46.7483792,42.5153033 L47.0200016,43.5939089 L47.3204825,44.734078 L47.5375724,45.53225 L47.8894662,46.7923826 L48.2741969,48.1349079 L48.6932563,49.5676367 L49.1481364,51.09838 L50.4396157,55.420361 L51.1262551,57.7748567 L51.6074836,59.4855117 L51.881115,60.499272 L52.1221668,61.4321199 L52.335071,62.3015658 L52.5242594,63.1251201 L52.6532533,63.723203 L52.8116033,64.5085811 L52.8492164,64.7045951 C53.1556651,66.3173733 53.2976895,67.6074287 53.2854268,68.5413134 L53.2814581,68.7078113 L53.2738286,68.8616947 L53.1408587,68.9437354 C52.585622,69.2747157 51.814884,69.6341695 50.8402182,70.0093861 L50.2310399,70.236306 L49.7019965,70.4226391 L49.2850716,70.5641676 L48.6440666,70.7733951 L47.9768366,70.9810878 L47.2749624,71.1896573 L46.7836417,71.3303815 L46.0053173,71.545771 L45.1698972,71.7684678 L43.9526362,72.0809318 L42.2368691,72.5045167 L39.4024566,73.1791513 L36.2634348,73.9119819 L34.3805562,74.3580905 L32.6600486,74.7751024 L31.0857352,75.1682785 L29.9912088,75.450683 L28.6338102,75.8148054 L27.6833921,76.0814614 L26.7833604,76.345067 L26.2079616,76.5202054 L25.3767416,76.7836592 L24.5777094,77.049981 L23.8040403,77.3213903 L23.2989814,77.5062523 L22.5524186,77.7910728 L22.0591116,77.9869306 L21.8130203,78.0868993 C19.0770047,79.2066341 16.8543203,80.4665377 15.0840656,82.0522464 C12.539469,84.3315733 11,87.2634795 11,90.6804842 C11,94.0974816 12.5393829,97.0294521 15.0839089,99.3088565 C16.7435439,100.795569 18.8008405,101.995895 21.3059611,103.062796 L22.0590677,103.374415 L22.5523872,103.570282 L23.0488927,103.761256 L23.8040476,104.039984 L24.5777433,104.311404 L25.3768032,104.577735 L26.2080505,104.841196 L27.0783085,105.104006 L27.9944004,105.368384 L28.6339611,105.546603 L29.9913789,105.910721 L31.085912,106.193119 L32.6602218,106.586279 L34.835566,107.111854 L39.8426847,108.285523 L42.2376995,108.856899 L43.6285294,109.198961 L45.1705619,109.592872 L46.2713009,109.888033 L46.7842334,110.030922 L47.5138504,110.2414 L47.9773778,110.380189 L48.8607341,110.657314 L49.4948356,110.867573 L49.908715,111.010236 L50.542101,111.238794 C51.6588716,111.654817 52.5303055,112.053308 53.1409986,112.417347 L53.2738286,112.498723 L53.2831441,112.706891 L53.2854268,112.819655 C53.2976895,113.75354 53.1556651,115.043595 52.8492164,116.656373 L52.7341463,117.244265 L52.6102282,117.841036 L52.4741002,118.459827 L52.3258211,119.098301 L52.1057203,119.994019 L51.855633,120.957855 L51.6455068,121.736821 L51.1584825,123.473589 L50.7778511,124.789539 L49.4972934,129.097912 L48.8418912,131.290814 L48.2749576,133.22352 L47.8900428,134.56666 L47.6517859,135.41577 L47.3208227,136.625754 L47.0202371,137.766273 L46.8359848,138.49189 L46.6641263,139.192426 L46.5042185,139.870201 L46.3558186,140.52753 C46.3320196,140.63551 46.3086817,140.742734 46.2857956,140.849252 L46.1538268,141.480259 L46.0322585,142.096615 L45.9206475,142.700637 L45.818551,143.294643 L45.6822769,144.171941 L45.6020286,144.751044 C45.5893299,144.847338 45.576963,144.943553 45.5649187,145.039737 C45.2185291,147.805944 45.2257926,150.226979 45.7130679,152.439526 C46.4163487,155.632877 48.1326545,158.314253 50.97651,159.959479 C53.8283213,161.609627 57.0105802,161.725541 60.1162408,160.700746 C62.2364397,160.00113 64.297183,158.792345 66.4879228,157.108125 L66.9080075,156.781335 L67.3258995,156.448439 L67.9522056,155.934478 L68.3717745,155.579981 L68.7948774,155.21431 L69.2231505,154.836018 L69.6582299,154.443655 L70.3271902,153.825565 L71.0206683,153.167674 L71.4993349,152.704555 L71.9929888,152.220128 L73.0318031,151.181557 L73.5802358,150.624517 L74.7433331,149.427689 L75.3612701,148.785005 L77.3802686,146.662503 L80.5072333,143.363819 L81.9578117,141.856171 L82.6103934,141.18694 L83.6082558,140.179604 L84.1615667,139.631886 L84.6871663,139.120572 L85.1902444,138.640665 L85.8349523,138.041006 L86.305664,137.614945 L86.7711544,137.203631 L87.2366136,136.802067 C88.5178967,135.709525 89.6031239,134.923927 90.4597602,134.4527 L90.6188532,134.367453 L90.8120634,134.270736 L91,134.184666 L91.0997162,134.229508 C91.2277616,134.287829 91.3752298,134.36193 91.5402398,134.4527 C92.330981,134.887678 93.3164979,135.590524 94.4712008,136.555394 L94.9188564,136.935147 L95.2288454,137.203631 L95.6943343,137.614943 L96.324001,138.187159 L96.8097383,138.640647 L97.4852361,139.287233 L98.2038347,139.9926 L99.1814305,140.975015 L100.502631,142.332147 L102.024584,143.921468 L105.660374,147.760129 L107.255754,149.426723 L108.41913,150.623845 L109.234383,151.449872 L109.753678,151.969076 L110.500406,152.704281 L111.213386,153.391515 L111.672686,153.825434 L112.341698,154.443579 L112.991698,155.026793 L113.62821,155.579964 L114.047787,155.93447 L114.674099,156.448438 L115.091992,156.781335 L115.512077,157.108125 C117.702817,158.792345 119.76356,160.00113 121.883759,160.700746 C124.98942,161.725541 128.171679,161.609627 131.023987,159.959192 C133.867346,158.314253 135.583651,155.632877 136.286932,152.439526 C136.774207,150.226979 136.781471,147.805944 136.435081,145.039737 L136.397971,144.751044 L136.317724,144.171942 L136.22907,143.588622 L136.131569,142.99877 L136.024778,142.40007 L135.908255,141.79021 L135.781559,141.166874 C135.759571,141.061733 135.73714,140.955934 135.714257,140.849429 L135.571472,140.201541 L135.417407,139.534391 L135.251621,138.845665 L134.979998,137.767059 L134.679517,136.62689 L134.462428,135.828718 L134.110534,134.568586 L133.725803,133.22606 L133.306744,131.793332 L131.431046,125.502044 L130.932217,123.789684 L130.429232,122.008738 L130.015276,120.466239 L129.78078,119.538828 L129.674179,119.098301 L129.479273,118.25177 L129.346747,117.637765 L129.265854,117.244265 C129.226312,117.048102 129.18806,116.852549 129.150784,116.656373 C128.844335,115.043595 128.702311,113.75354 128.714573,112.819655 L128.718542,112.653157 L128.725257,112.498723 L128.859001,112.417347 C129.469694,112.053308 130.341128,111.654817 131.457899,111.238794 L132.091285,111.010236 L132.714449,110.797079 L133.139266,110.657314 L134.022622,110.380189 L134.724467,110.171636 L135.215767,110.030922 L136.544115,109.668059 L137.730327,109.360479 L139.047964,109.031339 L140.910219,108.580891 L147.164434,107.111854 L149.339778,106.586279 L150.914088,106.193119 L152.008621,105.910721 L153.366039,105.546603 L154.0056,105.368384 L154.921692,105.104006 L155.506535,104.928762 L156.350028,104.665764 L156.892789,104.489386 L157.422257,104.311404 L158.195952,104.039984 L158.701028,103.855114 L159.447613,103.570282 L159.940932,103.374415 L160.187029,103.274442 C162.923086,102.154666 165.145814,100.894683 166.916091,99.3088565 C169.460617,97.0294521 171,94.0974816 171,90.6804842 C171,87.2634795 169.460531,84.3315733 166.915934,82.0522464 C165.256321,80.5656445 163.199064,79.3653947 160.693982,78.2985375 L159.940888,77.9869306 L159.447581,77.7910728 L158.95109,77.6001066 L158.19596,77.3213903 L157.422291,77.049981 L156.623258,76.7836592 L155.792038,76.5202054 L155.21664,76.345067 L154.62188,76.1695592 L153.689016,75.9041666 L152.701215,75.6342441 L151.651654,75.3575721 L150.144371,74.9743411 L148.498983,74.5699047 L147.164578,74.2494967 L140.911127,72.7805575 L139.048749,72.3300569 L138.047364,72.0809318 L136.830103,71.7684678 L135.729313,71.4732817 L135.216358,71.3303815 L134.252856,71.0503945 L133.79732,70.9118786 L132.926203,70.6342295 L132.298003,70.4226391 L131.76896,70.236306 L131.159782,70.0093861 C130.185116,69.6341695 129.414378,69.2747157 128.859141,68.9437354 L128.725257,68.8616947 L128.716856,68.654077 L128.714573,68.5413134 C128.703254,67.679266 128.823398,66.5137358 129.082979,65.0710307 L129.188397,64.5085811 L129.346747,63.723203 L129.475741,63.1251201 L129.664929,62.3015658 L129.877833,61.4321199 L130.184065,60.2541014 L130.466534,59.2173771 L130.873745,57.7748567 L131.560384,55.420361 L133.158109,50.0701548 L133.725042,48.1374482 L133.985378,47.2324685 L134.348214,45.9451979 L134.679177,44.735214 L134.979763,43.5946953 L135.164015,42.8690788 L135.335874,42.1685421 L135.495781,41.4907678 L135.644181,40.8334384 C135.66798,40.7254585 135.691318,40.6182339 135.714204,40.5117163 L135.846173,39.880709 L135.967742,39.264353 L136.079352,38.6603309 L136.181449,38.0663251 L136.317723,37.1890277 L136.397971,36.609924 C136.41067,36.5136299 136.423037,36.4174151 136.435081,36.3212315 C136.781471,33.5550239 136.774207,31.1339896 136.286932,28.9214428 C135.607902,25.8382067 133.984507,23.2322467 131.314111,21.5756182 L131.023987,21.4017764 C128.049808,19.6808234 124.741973,19.6296866 121.524036,20.7841067 Z M122.5904,36.1631804 L122.49992,36.6596658 L122.399459,37.1666485 L122.228987,37.9644426 L122.101577,38.523899 L121.962697,39.1076012 L121.732009,40.0326858 L121.473294,41.0227905 L121.185221,42.0841952 L120.753155,43.6211673 L120.263374,45.3109459 L119.712723,47.1684173 L118.378656,51.6334561 L117.841504,53.4686117 L117.554503,54.4680655 L117.208874,55.6988333 L116.974851,56.5559951 L116.692628,57.6263394 L116.500735,58.3851579 L116.323577,59.1152829 L116.159162,59.8247865 L115.956321,60.7526657 L115.767871,61.6773693 L115.677566,62.1445097 C114.587085,67.8834933 114.643683,72.1938446 116.752776,75.8395171 C118.786703,79.3545816 122.32167,81.4617994 127.561871,83.2955687 L128.308901,83.5518622 L129.061933,83.7996669 L129.830266,84.0417255 L130.6232,84.2807805 L131.734783,84.5995885 L132.928673,84.9244333 L134.226912,85.2618157 L136.030029,85.7110786 L138.515065,86.3073385 L143.466303,87.4671745 L145.552463,87.9681738 L147.046651,88.3381266 L148.401249,88.6855253 L149.030741,88.8521705 L150.203188,89.174159 L150.749775,89.3306253 L151.525216,89.5612434 L152.252776,89.7886483 L152.714241,89.939402 L153.158966,90.0901311 L153.798634,90.3174064 L154.209449,90.4705299 L154.747657,90.6802089 L154.228033,90.8837714 L153.836857,91.0299627 L153.434727,91.1748519 L152.807543,91.3908106 L152.146845,91.606581 L151.685134,91.7511355 L150.956759,91.9702469 L150.180685,92.1935559 L149.062528,92.5006735 L148.154471,92.7401729 L146.84103,93.0748473 L145.398661,93.4306291 L142.965788,94.012406 L138.012505,95.1729787 L135.923284,95.6762432 L134.085586,96.1354293 L132.765122,96.4803031 L131.846394,96.7304787 L130.977841,96.9766937 L130.421695,97.1401066 L129.614335,97.3863357 L128.830233,97.6365424 L128.315434,97.8070267 L127.561501,98.0656347 C122.32153,99.89929 118.786667,102.006448 116.753064,105.520955 C114.643683,109.167124 114.587085,113.477475 115.677566,119.216459 L115.767871,119.683599 L115.956321,120.608303 L116.164737,121.560817 L116.276225,122.044793 L116.45435,122.787676 L116.647462,123.55862 L116.857716,124.36635 L117.16844,125.515632 L117.61286,127.097528 L118.241481,129.262233 L120.137642,135.622592 L120.657727,137.406871 L121.115439,139.024719 L121.419889,140.138818 L121.692685,141.175553 L121.857689,141.82717 L122.009715,142.449563 L122.149197,143.044796 L122.27657,143.614933 L122.392272,144.162038 L122.496736,144.688176 L122.5904,145.195409 L122.202102,144.859048 L121.651105,144.366966 L121.073641,143.834624 L120.464881,143.257604 L120.03927,142.845921 L119.134162,141.951856 L118.147668,140.954796 L117.347504,140.13311 L115.884748,138.609798 L114.585435,137.240911 L112.11255,134.628054 L110.65728,133.105079 L109.362074,131.767576 L108.420542,130.811518 L107.759287,130.151148 L107.12915,129.532356 L106.325921,128.761093 L105.550526,128.037624 L104.977799,127.517408 L104.415347,127.018225 C104.16672,126.800061 103.916319,126.583583 103.661727,126.366495 C99.1569455,122.525298 95.2838897,120.39477 91,120.39477 C86.7161103,120.39477 82.8430545,122.525298 78.3382728,126.366495 C78.0836814,126.583583 77.8332803,126.800061 77.5846523,127.018225 L77.0221986,127.517411 L76.4494655,128.037633 L75.8699058,128.576347 L75.2768918,129.139853 L74.663796,129.734449 L74.0239907,130.366435 L73.1179137,131.278131 L71.8780414,132.54972 L70.1923543,134.307675 L68.5867461,136.000228 L66.7470409,137.94565 L64.8735917,139.904448 L63.7655151,141.043341 L62.9994587,141.818055 L62.2832059,142.530074 L61.6114361,143.184268 L60.9788289,143.785505 C60.9105179,143.849547 60.8428335,143.912699 60.7757431,143.974991 L60.1870764,144.513192 L59.8098205,144.848584 L59.4086857,145.195409 L59.5000797,144.701303 L59.600541,144.19432 L59.7710128,143.396526 L59.8984227,142.837069 L60.0373025,142.253367 L60.2679912,141.328282 L60.5267061,140.338178 L60.8147789,139.276773 L61.133541,138.137788 L61.6085972,136.487607 L62.1437352,134.673454 L63.5231068,130.059593 L64.189898,127.783786 L64.6617394,126.127078 L64.9915291,124.929584 L65.2144064,124.092481 L65.4187068,123.297982 L65.5456502,122.787676 L65.7237752,122.044793 L65.8352626,121.560817 L66.0436785,120.608303 L66.1394074,120.14675 C66.2021588,119.838781 66.2629053,119.529747 66.3224341,119.216459 C67.4129151,113.477475 67.3563168,109.167124 65.2472236,105.521451 C63.2133327,102.006448 59.67847,99.89929 54.4384987,98.0656347 L53.6845655,97.8070267 L52.9103611,97.5525144 L52.3856651,97.3863357 L51.5783049,97.1401066 L51.0221592,96.9766937 L50.1536057,96.7304787 L49.2348781,96.4803031 L47.9144139,96.1354293 L46.0767159,95.6762432 L43.9874953,95.1729787 L38.5336871,93.894133 L36.4475871,93.3931719 L35.3133148,93.1134345 L33.9251977,92.7608348 L32.6657644,92.4274148 L31.7969026,92.1872354 L31.2503117,92.0307708 L30.4748629,91.8001534 L29.7472936,91.5727476 L29.2858218,91.4219924 L28.8410917,91.2712615 L28.4112882,91.1199936 L27.994596,90.9676273 L27.3901707,90.7357908 L27.2514286,90.6802089 L27.7719191,90.4776153 L28.1630923,90.3314263 L28.7708825,90.1144317 L29.1923952,89.9705835 L29.8530844,89.7548151 L30.3147895,89.6102613 L31.0431566,89.3911495 L31.5549067,89.2428436 L32.365731,89.0158189 L33.2331234,88.781853 L34.4868375,88.4562578 L35.506913,88.1996983 L37.7752939,87.6476601 L43.4849354,86.3073385 L45.9699709,85.7110786 L47.0779503,85.4372401 L48.7574108,85.0073495 L49.9753216,84.6799798 L50.8299194,84.4398362 L51.6444189,84.20126 L52.1697339,84.0417255 L52.6841154,83.8808562 L53.4412147,83.6352715 L53.940317,83.4675097 L54.4381291,83.2955687 C59.6783295,81.4617994 63.2132972,79.3545816 65.2469363,75.8400136 C67.2993065,72.2923897 67.4083563,68.1160001 66.4083199,62.6067171 L66.2321292,61.6773693 L66.0436785,60.7526657 L65.8408379,59.8247865 L65.6764231,59.1152829 L65.4370365,58.1358052 L65.170273,57.1005333 L64.9493935,56.2759541 L64.623357,55.097001 L64.1584963,53.4686117 L63.3841748,50.8331281 L62.1468786,46.6980876 L61.5942991,44.8243952 L61.2221222,43.5346469 L60.8845266,42.3361607 L60.5800366,41.2219566 L60.3947065,40.5225301 L60.2229968,39.8553918 L59.9900143,38.9107004 L59.7852182,38.0270236 L59.663618,37.4683557 L59.553452,36.931635 L59.454283,36.4147931 C59.4386469,36.3301944 59.4234509,36.2463379 59.4086857,36.1631804 L59.9849363,36.6631408 L60.5534165,37.1743376 L61.1498528,37.7289545 L61.6214927,38.179105 L62.4662671,39.0063062 L63.2060818,39.7479698 L64.4457086,41.015819 L66.1289193,42.7687249 L69.9079737,46.756304 L71.070641,47.9742473 L72.1596532,49.101613 L72.8489111,49.8064929 L73.8339263,50.7992022 L74.46167,51.4211051 L75.0691856,52.0136221 L75.6589746,52.5789271 C75.7559346,52.6709977 75.8522601,52.7620251 75.9480034,52.8520545 L76.5158929,53.3806181 C76.6095156,53.4668369 76.7026603,53.5521484 76.795379,53.6365978 L77.3469973,54.1333117 L77.8908951,54.6115102 L78.4295737,55.0733673 L78.9655347,55.5210573 C79.0547741,55.5946124 79.1440044,55.6676679 79.2332778,55.740269 C83.3463818,59.0852237 86.9982193,60.9661984 91,60.9661984 C95.0017807,60.9661984 98.6536182,59.0852237 102.766722,55.740269 L103.302261,55.298849 C103.391569,55.22425 103.480939,55.1491064 103.570421,55.0733731 L104.10908,54.6115368 L104.652933,54.1333849 L105.204473,53.6367533 L105.766192,53.1194783 L106.340581,52.5793959 L106.930131,52.0143422 C107.029791,51.9179655 107.130187,51.8204581 107.231371,51.721775 L107.848336,51.1152072 L108.486693,50.4782586 L109.489788,49.4611378 L110.555029,48.3634881 L111.690828,47.1780064 L115.871081,42.7687249 L116.866955,41.7283038 L117.986474,40.5709114 L118.793918,39.7479698 L119.709282,38.8324808 L120.378507,38.179105 L121.00242,37.5857121 L121.446584,37.1743376 L122.015064,36.6631408 L122.5904,36.1631804 Z" id="Path" fill="#000000" fill-rule="nonzero"></path>
    </g>
</svg>