<?xml version="1.0" encoding="UTF-8"?>
<svg width="182px" height="182px" viewBox="0 0 182 182" version="1.1" xmlns="http://www.w3.org/2000/svg" xmlns:xlink="http://www.w3.org/1999/xlink">
    <title>SG/Icons/Responsive/Abstract/5</title>
    <g id="SG/Icons/Responsive/Abstract/5" stroke="none" stroke-width="1" fill="none" fill-rule="evenodd">
        <path d="M66.277677,14.4415438 C62.7400518,15.5899715 61.0066867,18.3504506 60.3255122,21.6882632 C59.9879475,23.3423584 59.9088708,25.2034818 60.012931,27.4115055 L60.052638,28.1355895 L60.0851401,28.628702 L60.1424463,29.3775981 L60.1867112,29.8863764 L60.2361117,30.405456 L60.2908938,30.9371429 L60.3513035,31.4837427 L60.4899894,32.6309044 L60.6106056,33.5475715 L60.8457149,35.205638 L61.0666903,36.6701023 L61.4575787,39.1400509 L62.6389255,46.3559913 L63.0045802,48.7096721 L63.2132347,50.1434935 L63.3523453,51.1713313 L63.4694079,52.1142912 L63.5412571,52.7568608 L62.7812253,52.4119086 L61.8113027,51.9563916 L60.7521417,51.4443597 L59.5869327,50.8680749 L57.6035083,49.8662472 L54.86445,48.4578842 L51.4592017,46.6987847 L49.387541,45.6408825 L47.5878752,44.7375964 L46.2576782,44.0853823 L45.2823913,43.6192524 L44.3690827,43.1947573 L43.9307613,42.9958659 L43.5020436,42.8046749 L42.6655651,42.4417829 L41.8439382,42.098859 L41.2280147,41.8504255 C38.9295229,40.9365491 36.9741165,40.3498405 35.165128,40.1201375 C31.7228303,39.683039 28.5175353,40.4357011 26.2873707,43.5005965 C24.0485873,46.5755663 24.3342892,49.8577556 25.8257446,52.9975056 C26.6046363,54.637196 27.7659673,56.3069803 29.3440814,58.2039975 L29.8990429,58.8626148 L30.3661871,59.4036874 L30.9391472,60.0512716 L31.5438507,60.7174131 L31.9699934,61.1776191 L32.6517753,61.9007988 L33.1393754,62.4099092 L33.9284515,63.2227637 L35.1051353,64.4166656 L36.5907137,65.9043343 L41.3269587,70.5974472 L42.6413733,71.913703 L43.8139461,73.1041949 L44.6080696,73.9232543 L45.3351342,74.6858457 L45.7852827,75.1658898 L46.4127037,75.847962 L46.5821714,76.0345751 L45.9041999,76.1719173 L44.847272,76.3720558 L43.9847667,76.5267107 L42.3927933,76.7974431 L40.1861816,77.1520176 L37.601584,77.5499667 L32.8655201,78.2726673 L30.547124,78.6417682 L29.5068496,78.8138905 L28.2263472,79.0339342 L27.3361767,79.1938594 L26.2286769,79.40319 L25.1956689,79.6113824 L24.4591378,79.76896 L23.5138488,79.9838816 L22.822755,80.1506684 L22.1386742,80.3239504 C19.7187652,80.95115 17.769919,81.6463526 16.1546741,82.5518048 C13.1289931,84.2479004 11,86.7731027 11,90.5413056 C11,94.3095086 13.1289931,96.8347108 16.1546741,98.5308064 C17.662236,99.3758952 19.4604017,100.037833 21.6609325,100.632272 L22.3663834,100.817238 L23.0519712,100.988185 L23.9821659,101.207068 L24.9469796,101.418934 L25.9641335,101.627408 L26.7720077,101.783718 L27.3361767,101.888752 L28.5358896,102.102845 L30.1922028,102.38268 L32.4552519,102.745748 L36.4814049,103.363159 L39.4379817,103.813938 L41.8388505,104.194321 L43.5598829,104.481992 L44.4873627,104.645189 L45.345951,104.803329 L45.8840959,104.906753 L46.5821714,105.046689 L46.2193464,105.446442 L45.605977,106.108494 L44.9386093,106.814094 L44.2125145,107.568545 L43.1448615,108.659629 L41.9531887,109.859546 L40.6262868,111.180863 L36.9080589,114.861699 L35.4997178,116.268367 L34.2492376,117.531706 L33.4140992,118.387435 L32.6540962,119.178447 L32.1834308,119.676032 L31.7375511,120.15415 L31.1076726,120.842962 L30.5141941,121.508893 L30.0390505,122.055411 L29.3438892,122.877624 C27.7657336,124.774528 26.6043464,126.4442 25.8253641,128.083755 C24.3337051,131.223309 24.0476256,134.505227 26.2870376,137.581899 C28.447598,140.551138 31.5664866,141.352468 34.8990968,140.992759 C36.6650074,140.802153 38.5555372,140.263951 40.760304,139.414257 L41.2456565,139.224564 L41.7348216,139.028032 L42.4807033,138.718223 L43.2479838,138.387398 L44.0443553,138.032176 L44.5952301,137.780141 L45.4571809,137.376754 L46.68494,136.786358 L47.6745994,136.299772 L49.1005572,135.586182 L50.6648427,134.791185 L52.842501,133.670759 L56.2925123,131.888206 L58.5756149,130.722354 L60.2191911,129.898657 L61.1850101,129.424995 L62.4823783,128.80712 L63.2717513,128.444939 L63.5412571,128.323489 L63.4695167,128.967399 L63.3202044,130.15596 L63.1756,131.205467 L62.9110183,132.989516 L62.6992685,134.346964 L62.3904857,136.266884 L61.4835822,141.778595 L61.1694305,143.749758 L60.9608268,145.107989 L60.7744844,146.373452 L60.6096022,147.555334 L60.5112075,148.301359 L60.3803121,149.364359 L60.2687407,150.368279 L60.2046996,151.009276 L60.1235545,151.93515 L60.0595971,152.826447 L60.0120262,153.692355 C59.9049599,156.004858 59.9961681,157.939141 60.3821461,159.658781 C61.1026151,162.868671 62.8527783,165.529234 66.2788354,166.641444 C69.9169142,167.822573 72.9381804,166.512367 75.4532972,164.100963 C76.6681252,162.936229 77.8076939,161.448922 79.0155324,159.560158 L79.4965691,158.793716 L80.0354045,157.90651 L80.5610387,157.009542 L80.9897964,156.254242 L81.321383,155.656356 L81.7832188,154.805802 L82.4033622,153.63668 L83.2308298,152.041426 L84.8812807,148.791089 L87.020916,144.532109 L87.9981293,142.610481 L88.7012533,141.24937 L89.3446196,140.02701 L89.9375977,138.926909 L90.4895571,137.932578 L90.7530828,137.469922 L90.9990857,137.044861 L91.3683584,137.681951 L91.6144448,138.116954 L92.1288157,139.047942 L92.6806161,140.074245 L93.5990549,141.82918 L94.6545737,143.893119 L95.8788908,146.322788 L97.3623492,149.278644 L98.2296092,150.989597 L99.0228034,152.533532 L99.7528128,153.928996 L100.430518,155.194535 L100.911019,156.069583 L101.220675,156.622007 L101.523376,157.152383 L101.820482,157.663029 L102.258624,158.397075 L102.691829,159.099769 L102.980155,159.554678 L103.124685,159.778936 C104.373156,161.705388 105.552913,163.209084 106.837527,164.373005 C109.288327,166.593545 112.250305,167.768412 115.719975,166.642744 C119.14769,165.529431 120.897508,162.869003 121.61788,159.659289 C122.003833,157.939623 122.095038,156.005298 121.987974,153.692768 L121.958042,153.117845 L121.920946,152.533004 L121.87645,151.935528 L121.824318,151.322702 L121.731284,150.368735 L121.659026,149.705645 L121.578305,149.017693 L121.488883,148.302165 L121.33792,147.171223 L121.166051,145.96295 L120.902993,144.215779 L120.517029,141.782452 L119.36107,134.726656 L118.995415,132.372949 L118.786761,130.939122 L118.647651,129.911285 L118.53059,128.968328 L118.457829,128.324404 L119.218768,128.670687 L120.188682,129.126197 L121.247841,129.638224 L122.722903,130.369525 L124.044335,131.037014 L126.713185,132.406295 L130.907305,134.571887 L132.929958,135.602313 L134.689485,136.482202 L135.487141,136.873311 L136.717832,137.463339 L137.181277,137.680346 L137.631192,137.887848 L138.28499,138.183251 L138.919389,138.462343 L139.541013,138.728171 L140.15649,138.983781 L140.772446,139.232219 C143.071,140.146085 145.026486,140.732787 146.835543,140.962482 C150.277649,141.399523 153.482704,140.64701 155.713025,137.582727 C157.812766,134.697373 157.67273,131.552542 156.395667,128.573354 C155.71679,126.98964 154.685871,125.411235 153.284909,123.650313 L152.922621,123.200529 L152.547643,122.746083 L151.957549,122.051215 L151.543181,121.576199 L151.109992,121.089389 L150.65623,120.588748 L149.93318,119.807395 L149.420321,119.26326 L148.600414,118.407116 L147.71451,117.496927 L146.420424,116.187386 L144.984485,114.75324 L140.849482,110.659751 L139.120561,108.928091 L138.118577,107.909678 L137.437031,107.207334 L136.611253,106.341608 L135.86849,105.54389 L135.416,105.046689 L136.611863,104.811312 L137.433133,104.659527 L138.317465,104.503195 L139.951189,104.228591 L141.421368,103.992388 L143.938938,103.602475 L147.841406,103.009981 L150.335811,102.620741 L151.807797,102.38268 L153.46411,102.102845 L154.663823,101.888752 L155.771323,101.679421 L156.804331,101.471229 L157.780568,101.26055 L158.252936,101.153146 L158.948029,100.988185 L159.633617,100.817238 L159.861326,100.758661 C162.281235,100.131461 164.230081,99.4362586 165.845326,98.5308064 C168.871007,96.8347108 171,94.3095086 171,90.5413056 C171,86.7731027 168.871007,84.2479004 165.845326,82.5518048 C164.337764,81.7067161 162.539598,81.0447781 160.339067,80.4503392 L159.633617,80.2653737 L158.717756,80.0388499 L157.780568,79.8220609 L157.05302,79.6636774 L156.035866,79.4552033 L155.227992,79.2988935 L154.373232,79.1409242 L153.147697,78.925074 L152.154463,78.757286 L150.335811,78.4618701 L146.924696,77.9324992 L143.001987,77.336648 L140.917939,77.0102554 L139.100736,76.713034 L137.81374,76.4911786 L136.654049,76.2792818 L135.8562,76.1245656 L135.416914,76.0345751 L136.203946,75.1758378 L136.954447,74.3789501 L137.570739,73.7367862 L138.47293,72.8111679 L140.022075,71.2485269 L141.51734,69.7596596 L145.091941,66.2209124 L146.874407,64.4380414 L147.744408,63.5573734 L148.785307,62.4889277 L149.489393,61.7531687 L150.138752,61.0618239 L150.74321,60.4042795 L151.312595,59.769922 L151.677552,59.3546571 L151.960949,59.0272006 C152.19534,58.7545247 152.4258,58.4818154 152.656111,58.2049872 C154.234266,56.3080836 155.395654,54.6384115 156.174636,52.9988564 C157.666295,49.859302 157.952374,46.5773846 155.712962,43.5007122 C153.587356,40.5795108 150.513229,39.7546934 147.23523,40.0760519 C145.490317,40.2471145 143.631405,40.7613731 141.472267,41.5795887 L140.952803,41.7796998 L140.160874,42.0970891 L139.346452,42.4382297 L138.501422,42.806591 L137.917055,43.0690012 L137.313072,43.3460796 L136.03664,43.9483528 L135.009938,44.4462073 L133.533068,45.1781427 L131.48646,46.2141206 L124.604173,49.760425 L122.74609,50.7027397 L121.1639,51.4880325 L120.01062,52.0440558 L119.169831,52.4369275 L118.457829,52.7586894 L118.50443,52.3395052 L118.586284,51.6541142 L118.713735,50.6734034 L118.864364,49.5985454 L119.139133,47.7673981 L119.300732,46.7356477 L119.74773,43.9705848 L120.469784,39.5882636 L120.933224,36.6706227 L121.154229,35.2059767 L121.300578,34.1900483 L121.471416,32.9307504 L121.5824,32.0476402 L121.648688,31.4837956 L121.709101,30.9371762 L121.813287,29.8863863 L121.877837,29.1263539 L121.91486,28.6287025 L121.961995,27.8900141 C122.101107,25.4704128 122.036164,23.4605081 121.674488,21.6882632 C121.012235,18.4431676 119.355434,15.7437769 116.012965,14.5409555 L115.722323,14.4415438 C112.083964,13.2597002 109.062241,14.5697597 106.546893,16.9812003 C105.331984,18.1459217 104.192371,19.6332337 102.984497,21.5220244 L102.503447,22.2884768 L101.964595,23.1757034 L101.43894,24.0727042 L101.010165,24.8280351 L100.678565,25.4259443 L100.096904,26.5001985 L99.3319839,27.9520459 L98.4687725,29.6270963 L96.738961,33.0461809 L95.4042874,35.7064526 L94.3787223,37.7342021 L93.8199197,38.8261629 L93.1326091,40.1510725 L92.5027189,41.3413431 L91.920878,42.4134685 L91.5103923,43.1499516 L91.2468697,43.6126104 L91,44.0382322 L90.513811,43.1926891 L90.1277064,42.5016125 L89.5823978,41.4999648 L89.1456979,40.6799817 L88.5193728,39.4824119 L87.8345796,38.1512939 L86.8828806,36.2756703 L84.0341265,30.6144737 L82.9600719,28.5144935 L82.2887055,27.2262191 L81.6785519,26.0805908 L81.1131698,25.0478027 L80.6820512,24.2827874 L80.155826,23.3780003 L79.5212406,22.3284189 L79.3043973,21.979059 C77.9946765,19.8816585 76.776689,18.2549507 75.4736281,17.0008741 C72.9535776,14.5755567 69.9280211,13.2558071 66.277677,14.4415438 Z M53.048,62.9319465 L54.2433545,63.527642 L55.1072466,63.9509587 L55.9231544,64.3438533 L56.6979162,64.709418 L57.4383707,65.0507448 L58.1513562,65.3709259 C58.268278,65.4226991 58.3843401,65.47372 58.4996852,65.5240532 L59.1842896,65.8183135 C59.297336,65.8661531 59.4099502,65.9134337 59.5222746,65.9602197 L60.1938845,66.2355166 C62.2731733,67.074142 64.0704883,67.64729 65.7212417,67.9409445 C68.5797178,68.4494423 71.159557,68.2253938 73.5488234,66.4868492 C75.981252,64.7163619 76.9719149,62.293189 77.3459454,59.3519629 C77.5436652,57.7971727 77.5527631,56.0405393 77.4153284,53.9795594 L77.3603053,53.2318972 L77.3031405,52.554413 L77.2037069,51.5257168 L77.1268818,50.8200214 L76.9934199,49.711772 L76.890884,48.9282166 L76.7143182,47.6659407 L76.5800212,46.7548767 L76.4710857,46.0423465 L77.1013382,47.2430984 L77.7789542,48.5073755 L78.2075898,49.2883387 L78.6222075,50.0275874 L79.0266379,50.7318041 L79.4247115,51.4076711 C79.4907402,51.5183244 79.5566636,51.6280749 79.6225615,51.7370618 L80.018282,52.3829339 L80.2171101,52.7010859 C81.4313799,54.6314381 82.5754364,56.1764721 83.7672506,57.4018272 C85.8022625,59.4941098 88.0469613,60.8270199 91,60.8270199 C93.9308925,60.8270199 96.1668682,59.5107025 98.1903633,57.4455045 C99.2859853,56.3273025 100.339201,54.9408885 101.442088,53.236029 L101.867226,52.5673904 L102.273724,51.9088747 C102.409169,51.6863839 102.544771,51.4605421 102.681165,51.2302529 L103.093355,50.5249463 L103.514102,49.7863761 L103.947213,49.0079635 L104.396497,48.1831298 C104.472936,48.0414322 104.550208,47.8975091 104.628392,47.7512492 L105.109072,46.8444486 L105.528,46.0414322 L105.285674,47.6659891 L105.109112,48.9282423 L105.006578,49.7117872 L104.915053,50.4582336 L104.833571,51.1755246 L104.761162,51.8716034 L104.696859,52.5544132 L104.622059,53.4579146 C104.44703,55.7463654 104.439858,57.6676069 104.654055,59.3519629 C105.028085,62.293189 106.018748,64.7163619 108.450378,66.486268 C110.90509,68.2729166 113.544697,68.4658632 116.497015,67.9009388 C118.062658,67.6013538 119.767709,67.0546665 121.724152,66.2691073 L122.624404,65.8988622 L123.431704,65.5545233 L123.742444,65.4188825 L124.371395,65.139035 L125.016675,64.8447863 L126.031918,64.3685883 L126.751433,64.0226915 L127.91383,63.4522592 L128.951086,62.9328608 L128.297655,63.5992858 L127.241321,64.6907973 L126.595497,65.3705114 L125.990007,66.0189073 L125.419381,66.642028 L124.878148,67.2459164 C124.790088,67.3452975 124.703024,67.444129 124.616844,67.5425369 L124.109441,68.1289073 C123.94323,68.3233409 123.779639,68.5170871 123.617754,68.7111528 C122.179076,70.4358286 121.079561,71.9763283 120.292319,73.4648066 C118.938088,76.0253222 118.363451,78.550241 119.271976,81.3488702 C120.177008,84.1355283 122.106341,85.8056266 124.676396,87.0514925 C126.031817,87.7085494 127.617646,88.2487926 129.513585,88.742803 L130.253975,88.9297254 L130.562962,89.0046646 L131.189244,89.151451 L131.830669,89.2949606 L132.492117,89.4362081 L133.178467,89.5762085 L133.894599,89.7159767 L135.035314,89.9274134 L136.270487,90.1440362 L137.616587,90.3692703 L138.680914,90.5406322 L136.693672,90.8667188 L135.415266,91.0873655 L134.620262,91.2307067 L133.865246,91.3722536 L133.145226,91.5130441 L132.455211,91.6541163 L131.790209,91.7965082 L131.145227,91.9412576 L130.515275,92.0894026 L129.994077,92.2172279 C127.88355,92.7445894 126.144768,93.3193071 124.676396,94.0311187 C122.106341,95.2769846 120.177008,96.9470829 119.272246,99.7329107 C118.363451,102.53237 118.938087,105.057286 120.292317,107.617803 C121.079557,109.106278 122.179068,110.646777 123.617745,112.371459 L123.790427,112.577576 C123.944565,112.760763 124.100513,112.943982 124.25904,113.128084 L124.74313,113.683885 L125.247313,114.250079 L125.776206,114.831768 L126.334427,115.434052 L126.92659,116.062031 L127.888581,117.063336 L128.952914,118.151147 L127.756583,117.554917 L126.892692,117.131605 L126.07679,116.738716 C125.944425,116.675598 125.813775,116.613619 125.684698,116.552714 L124.927955,116.199662 L124.202101,115.869303 C124.08332,115.815962 123.965541,115.763438 123.848621,115.711666 L123.156277,115.409545 C123.042225,115.360524 122.928749,115.312127 122.815704,115.264288 L122.14148,114.983448 C122.029593,114.937587 121.917854,114.892156 121.806119,114.847091 C119.726825,114.008467 117.92951,113.43532 116.278758,113.141666 C113.420281,112.633169 110.840443,112.857217 108.451177,114.595762 C106.018747,116.36625 105.028085,118.789423 104.654054,121.730651 C104.456335,123.285442 104.447237,125.042077 104.584672,127.103061 L104.639694,127.850725 L104.696859,128.528207 L104.796291,129.556897 L104.873115,130.262588 L105.006575,131.370831 L105.10911,132.154384 L105.285674,133.416659 L105.419971,134.327726 L105.528,135.039832 L104.933131,133.904063 L104.263002,132.651551 L103.839911,131.879076 L103.430948,131.148163 C103.363736,131.029405 103.296941,130.912076 103.230478,130.796026 L102.834988,130.113855 L102.443336,129.455112 L102.051405,128.812541 C101.985831,128.70639 101.920074,128.600611 101.854049,128.495053 C100.628767,126.536138 99.4769286,124.970023 98.279529,123.729075 C96.2317076,121.606777 93.9773734,120.255591 91,120.255591 C88.0691544,120.255591 85.8331863,121.571871 83.8096958,123.637013 C82.622763,124.848378 81.4856001,126.374514 80.2811391,128.279286 L79.9294373,128.842197 L79.522937,129.50994 C79.4550555,129.622998 79.3870554,129.73703 79.3188573,129.852175 L78.9066595,130.55748 L78.4859047,131.29605 L78.0527862,132.07446 L77.6034971,132.899289 L77.1342306,133.777114 L76.4710857,135.038918 L76.5800327,134.327665 L76.7143262,133.416622 L76.8908883,132.154369 L76.9934224,131.370824 L77.0849468,130.624378 L77.1664292,129.907087 L77.2388378,129.211008 L77.3031405,128.528198 L77.3779413,127.624697 C77.5529696,125.336246 77.5601419,123.415004 77.3459454,121.730648 C76.9719149,118.789422 75.981252,116.366249 73.549622,114.596343 C71.0941958,112.809657 68.4548754,112.616959 65.5027733,113.181971 C63.9372516,113.481601 62.2323089,114.028293 60.2759745,114.813829 L59.4769407,115.141707 L58.7704505,115.441171 L57.8559669,115.842 L56.9122278,116.271069 L56.2548959,116.578387 L55.5666823,116.906627 L54.4608145,117.445544 L53.0489143,118.148404 L54.0886587,117.085253 L54.7898684,116.357251 L55.4480037,115.663656 L56.0668333,115.000146 L56.6501256,114.362401 L57.2016492,113.746098 L57.7251728,113.146916 L58.2244648,112.560533 C58.3872756,112.366726 58.5466759,112.174331 58.7032937,111.982629 C60.0537382,110.329671 61.0875589,108.840954 61.8258887,107.390004 C63.0875493,104.910616 63.6075109,102.44292 62.7280237,99.7337411 C61.822992,96.9470829 59.8936594,95.2769846 57.3236041,94.0311187 C55.8552317,93.3193071 54.1164495,92.7445894 52.0059235,92.2172279 L51.4847258,92.0894027 L50.8547769,91.9412583 L50.209807,91.7965106 L49.5448282,91.6541223 L48.8548529,91.5130561 L48.1348932,91.3722746 L47.3799613,91.2307404 L46.17108,91.0147589 L45.3068962,90.8668048 L43.9107569,90.6363309 L43.32,90.5406322 L45.2815496,90.2200681 L46.5449122,90.0022898 L47.3311893,89.8608155 L48.078279,89.7211492 L48.7909677,89.5822955 L49.8059694,89.3733617 L50.4535965,89.2321854 L51.0835753,89.0883385 L51.7006924,88.9408255 L52.0059235,88.8653833 C54.1164495,88.3380219 55.8552317,87.7633042 57.3236041,87.0514925 C59.8936594,85.8056266 61.822992,84.1355283 62.7277541,81.3497005 C63.6075057,78.6397076 63.0875567,76.1720331 61.8259196,73.6926328 C61.0876048,72.2416784 60.0538019,70.7529433 58.7033762,69.0999524 L58.4662899,68.811787 L57.9777202,68.2301853 L57.4668227,67.6379627 C57.3796037,67.5381344 57.2912978,67.4376839 57.2018267,67.3365214 L56.6503913,66.720284 L56.0672329,66.0826476 L55.4485936,65.4193009 L54.7907152,64.7259326 L54.0898397,63.9982313 C53.9692352,63.8738471 53.8466826,63.7478528 53.7221036,63.6201585 L53.048,62.9319465 Z" id="Path" fill="#000000" fill-rule="nonzero"></path>
    </g>
</svg>