<svg viewBox="0 0 24 24" width="24" height="24" xmlns="http://www.w3.org/2000/svg">
  <g fill="none" fill-rule="evenodd">
    <path d="M0 0h24v24H0z"/>
    <path d="m8.251 4.749.116.09 3.155 3.151c.472.472.491 1.079.133 1.589l-.09.115-.043.047-.785.785.007.028c.092.376.357.79.847 1.318l.172.18.092.093c.601.601 1.062.94 1.471 1.077l.149.041.785-.784.047-.043c.494-.416 1.102-.46 1.593-.058l.111.1 3.109 3.11.043.046c.416.494.46 1.102.058 1.594l-.101.11-1.408 1.407c-2.006 1.82-5.986.174-9.32-3.13-3.23-3.2-4.888-7.128-3.255-9.185l.144-.167 1.381-1.381c.473-.472 1.079-.491 1.589-.133Zm-.715 1.804-.936.935-.053.06c-.79.995.247 3.846 2.882 6.557l.23.232c2.83 2.803 5.72 3.89 6.703 3.197l.078-.062 1.01-1.008-2.314-2.317-1.13 1.131-1.012-.28-.241-.07c-.655-.22-1.256-.634-1.945-1.29l-.233-.227-.114-.116-.188-.197c-.61-.657-1.012-1.252-1.222-1.924l-.064-.226-.223-.995 1.089-1.087-2.317-2.313Z" fill="currentColor" fill-rule="nonzero"/>
  </g>
</svg>
