<svg xmlns="http://www.w3.org/2000/svg" viewBox="0 0 300 137.76">
  <path class="cls-1" d="M291.45,8.55V87.91a27.63,27.63,0,0,1-27.79,27.4H177.33A40.62,40.62,0,0,0,150,125.77a40.62,40.62,0,0,0-27.33-10.46H36.12A27.52,27.52,0,0,1,8.55,87.91V8.55ZM154.5,133.28a32.13,32.13,0,0,1,22.83-9.42h86.33A36.19,36.19,0,0,0,300,87.91V0H0V87.91a36.08,36.08,0,0,0,36.12,36h86.55a32.13,32.13,0,0,1,22.83,9.42l4.5,4.49Z"/>
  <path class="cls-1" d="M258.87,44.67a4.77,4.77,0,1,1-4.77-4.6,4.58,4.58,0,0,1,4.77,4.6M250,82.06h8.26V52.75H250ZM234,64.38l10.75,17.68h-9l-7.21-11.75-3.9,5v6.8h-8.2V40h8.2V59.38c0,3.61-.41,7.21-.41,7.21h.18s1.92-3.2,3.55-5.47l6.28-8.37h9.59Zm-25.8-1.1c0-7.27-3.54-11.23-9.19-11.23-4.82,0-7.32,2.85-8.78,5.53h-.17l.41-4.83h-8.2V82.06h8.2V64.67c0-3.37,2-5.7,5.06-5.7S200,61,200,64.91V82.06h8.26ZM174.31,44.67a4.77,4.77,0,1,1-4.77-4.6,4.57,4.57,0,0,1,4.77,4.6m-8.9,37.39h8.26V52.75h-8.26Zm-14.92-8.14c0-2.33-3.25-2.85-7-3.9-4.42-1.16-10-3.37-10-8.95s5.3-9,11.58-9c5.81,0,11.16,2.79,13.43,6.69l-7,4a6.12,6.12,0,0,0-6.1-4.66c-2.1,0-3.84.93-3.84,2.62,0,2.21,3.84,2.44,8.2,3.84,4.59,1.45,8.78,3.55,8.78,8.9,0,5.87-5.47,9.36-11.81,9.36-6.86,0-12.27-2.91-14.65-7.56l7.15-4a7.4,7.4,0,0,0,7.39,5.58c2.27,0,3.89-1,3.89-2.85M123.38,40.25h-8.26V74q0,4.53,1.95,6.6t6.2,2.06a13.82,13.82,0,0,0,3-.32,7.42,7.42,0,0,0,2.44-.9l.7-5.52a13.9,13.9,0,0,1-1.71.49,8.67,8.67,0,0,1-1.72.15,2.05,2.05,0,0,1-2-.82,5.11,5.11,0,0,1-.61-2.91ZM95.36,58c-3,0-5.47,2.16-6.11,6.17h11.57c0-3.55-2.27-6.17-5.46-6.17M108,69.62h-19c.35,4.76,3,7.09,6.46,7.09a5.51,5.51,0,0,0,5.64-4.83l6.92,3.9a14,14,0,0,1-12.56,7c-8.2,0-14.19-5.7-14.19-15.35s6.11-15.36,14-15.36,13.08,5.59,13.08,13.55a18.14,18.14,0,0,1-.41,4M66.28,82.06h8.55V41.82H66.28V57.75H50.23V41.82H41.68V82.06h8.55V65.37H66.28Z"/>
</svg>
