<?xml version="1.0" encoding="utf-8"?>
<!-- Generator: Adobe Illustrator 23.0.4, SVG Export Plug-In . SVG Version: 6.00 Build 0)  -->
<svg version="1.1" id="Layer_1" xmlns="http://www.w3.org/2000/svg" xmlns:xlink="http://www.w3.org/1999/xlink" x="0px" y="0px"
	 viewBox="0 0 78 28" style="enable-background:new 0 0 78 28;" xml:space="preserve" fill="currentColor">
<path d="M39.9,27.1c1.2-1.2,2.8-1.9,4.5-1.9l26.4,0c4,0,7.2-3.3,7.2-7.3L78,0L0,0v17.9c0,4,3.2,7.3,7.2,7.3h26.4
	c1.7,0,3.3,0.7,4.5,1.9L39,28L39.9,27.1z M76.3,1.7l0,16.1c0,3.1-2.5,5.6-5.5,5.6l-26.4,0c-2,0-3.9,0.8-5.4,2.1
	c-1.5-1.4-3.4-2.1-5.4-2.1H7.2c-3,0-5.5-2.5-5.5-5.6V1.7L76.3,1.7z"/>
<path d="M42.7,12.6c0,0.9,0.5,1.4,1.2,1.7v0c-0.7,0.1-1.3,0.5-1.3,1.2c0,0.5,0.4,0.8,0.8,0.9v0c-0.6,0.1-1.2,0.5-1.2,1.1
	c0,1.1,1.5,1.5,3,1.5c1.7,0,3.2-0.6,3.2-2c0-1.2-0.8-1.7-2.1-1.7c-0.6,0-1.2,0.1-1.7,0.1c-0.5,0-0.7-0.1-0.7-0.4
	c0-0.3,0.5-0.5,1.2-0.5c1.4,0,2.5-0.7,2.5-1.9c0-0.7-0.4-1.1-0.7-1.4v0c0.1,0,0.3,0.1,0.5,0.1c0.7,0,1-0.4,1-1.1l-1.5-0.9
	c0,0.1,0.1,0.4,0.1,0.6c0,0.4-0.2,0.7-0.7,0.7c-0.4,0-0.7-0.1-1.2-0.1C43.7,10.6,42.7,11.4,42.7,12.6 M43.5,17.4
	c0-0.6,1.4-0.6,2.1-0.6c0.7,0,1.3,0.1,1.3,0.5c0,0.5-0.6,0.7-1.7,0.7C44.2,18,43.5,17.9,43.5,17.4 M44.2,12.7c0-0.6,0.4-0.9,1-0.9
	c0.6,0,1,0.4,1,0.9c0,0.6-0.4,0.9-1,0.9C44.6,13.6,44.2,13.2,44.2,12.7 M52.2,9.2c0.4,0,0.6,0.4,0.6,0.7l1.4-0.9
	c-0.4-0.5-1-1.1-2.1-1.1C50.8,8,50,8.7,50,10.1v0.6h-0.9V12H50v4.7h1.6V12h1.3v-1.3h-1.3v-0.7C51.6,9.6,51.8,9.2,52.2,9.2
	 M56.4,16.8c1.6,0,2.8-1.2,2.8-3.1s-1.2-3.1-2.8-3.1c-1.6,0-2.8,1.2-2.8,3.1S54.9,16.8,56.4,16.8 M55.3,13.7c0-1.1,0.4-1.8,1.2-1.8
	c0.8,0,1.2,0.8,1.2,1.8s-0.4,1.8-1.2,1.8C55.6,15.6,55.3,14.8,55.3,13.7 M60.2,16.7h1.6v-3.4c0-0.8,0.2-1.3,0.7-1.3
	c0.4,0,0.5,0.4,0.5,0.8c0,0.4-0.1,0.8-0.1,1l1.5-0.9c0,0,0.1-0.3,0.1-0.7c0-0.9-0.4-1.6-1.3-1.6c-0.7,0-1.2,0.5-1.5,1.1h0l0.1-1
	h-1.6V16.7z M67.8,15.6c-0.8,0-1.3-0.5-1.5-1.1L65,15.3c0.5,0.9,1.5,1.5,2.9,1.5c1.3,0,2.3-0.7,2.3-1.9c0-1.1-0.8-1.5-1.7-1.8
	c-0.9-0.3-1.6-0.3-1.6-0.8c0-0.3,0.3-0.5,0.8-0.5c0.6,0,1.1,0.4,1.2,0.9l1.4-0.8c-0.4-0.8-1.5-1.4-2.7-1.4c-1.2,0-2.3,0.7-2.3,1.8
	c0,1.1,1.1,1.6,2,1.8c0.7,0.2,1.4,0.3,1.4,0.8C68.6,15.4,68.3,15.6,67.8,15.6"/>
<path d="M41.3,12.9c0-1.5-0.7-2.3-1.8-2.3c-1,0-1.5,0.6-1.7,1.1h0l0.1-1h-1.6v6h1.6v-3.5c0-0.7,0.4-1.2,1-1.2c0.6,0,0.9,0.4,0.9,1.2
	v3.5h1.6V12.9z M34.5,9.1c0,0.5-0.4,0.9-0.9,0.9c-0.5,0-0.9-0.4-0.9-0.9c0-0.5,0.4-0.9,0.9-0.9C34.1,8.2,34.5,8.5,34.5,9.1
	 M32.8,16.7h1.6v-6h-1.6V16.7z M29.8,15c0-0.5-0.6-0.6-1.4-0.8c-0.9-0.2-2-0.7-2-1.8c0-1.1,1-1.8,2.3-1.8c1.2,0,2.2,0.6,2.7,1.4
	L30,12.8c-0.1-0.5-0.6-0.9-1.2-0.9c-0.4,0-0.8,0.2-0.8,0.5c0,0.4,0.8,0.5,1.6,0.8c0.9,0.3,1.7,0.7,1.7,1.8c0,1.2-1.1,1.9-2.3,1.9
	c-1.4,0-2.4-0.6-2.9-1.5l1.4-0.8c0.2,0.7,0.7,1.1,1.5,1.1C29.5,15.6,29.8,15.4,29.8,15 M24.4,8.2h-1.6V15c0,0.6,0.1,1.1,0.4,1.3
	s0.7,0.4,1.2,0.4c0.2,0,0.4,0,0.6-0.1c0.2,0,0.4-0.1,0.5-0.2l0.1-1.1c-0.1,0-0.2,0.1-0.3,0.1c-0.1,0-0.2,0-0.3,0
	c-0.2,0-0.3-0.1-0.4-0.2c-0.1-0.1-0.1-0.3-0.1-0.6V8.2z M18.9,11.8c-0.6,0-1.1,0.4-1.2,1.3H20C20,12.3,19.5,11.8,18.9,11.8
	 M21.4,14.2h-3.8c0.1,1,0.6,1.4,1.3,1.4c0.6,0,1-0.4,1.1-1l1.4,0.8c-0.4,0.8-1.3,1.4-2.5,1.4c-1.6,0-2.8-1.2-2.8-3.1
	c0-1.9,1.2-3.1,2.8-3.1c1.6,0,2.6,1.1,2.6,2.8C21.5,13.8,21.4,14.2,21.4,14.2 M13.1,16.7h1.7V8.5h-1.7v3.2H9.9V8.5H8.2v8.2h1.7v-3.4
	h3.2V16.7z"/>
</svg>
