<svg xmlns="http://www.w3.org/2000/svg" width="24" height="24" viewBox="0 0 24 24">
  <g fill="none" fill-rule="evenodd">
    <rect width="24" height="24"/>
    <path fill="currentColor" d="M19.7928932,2.79289322 L21.2071068,4.20710678 L4.70710678,20.7071068 L3.29289322,19.2928932 L19.7928932,2.79289322 Z M19.6464536,7.88775164 C20.8055307,8.98968288 21.9233795,10.3604323 23,12 C19.7167548,17 16.0500882,19.5 12,19.5 C10.8495351,19.5 9.73000827,19.2982759 8.64141962,18.8948276 L10.2433176,17.2930962 C10.7683445,17.4185135 11.298216,17.4864928 11.8330988,17.4981791 L12,17.5 C14.9514618,17.5 17.7504041,15.796277 20.4247078,12.1975619 L20.5695,12 L20.4247078,11.8024381 C19.7033132,10.8316831 18.9728492,9.9988177 18.2327685,9.3000877 L19.6464536,7.88775164 Z M12,4.5 C13.1504649,4.5 14.2699917,4.70172412 15.3585804,5.10517236 L13.7576844,6.7071432 C13.2323296,6.58157303 12.7021243,6.51351468 12.1669012,6.50182085 L12,6.5 C9.0485382,6.5 6.24959586,8.20372297 3.57529219,11.8024381 L3.43,12 L3.57529219,12.1975619 C4.29668683,13.1683169 5.02715083,14.0011823 5.76723147,14.6999123 L4.3535464,16.1122484 C3.19446932,15.0103171 2.07662053,13.6395677 1,12 C4.28324517,7 7.94991183,4.5 12,4.5 Z M15.9759831,11.5591516 C15.991854,11.7039177 16,11.8510076 16,12 C16,14.209139 14.209139,16 12,16 C11.8510076,16 11.7039177,15.991854 11.5591516,15.9759831 L15.9759831,11.5591516 Z M12,8 C12.1489924,8 12.2960823,8.008146 12.4408484,8.02401691 L8.02401691,12.4408484 C8.008146,12.2960823 8,12.1489924 8,12 C8,9.790861 9.790861,8 12,8 Z"/>
  </g>
</svg>
