<svg xmlns="http://www.w3.org/2000/svg" width="24" height="24" viewBox="0 0 24 24">
  <g fill="none" fill-rule="evenodd">
    <rect width="24" height="24"/>
    <path fill="currentColor" d="M12,2 C17.5228475,2 22,6.4771525 22,12 C22,17.5228475 17.5228475,22 12,22 C6.4771525,22 2,17.5228475 2,12 C2,6.4771525 6.4771525,2 12,2 Z M12,4 C7.581722,4 4,7.581722 4,12 C4,16.418278 7.581722,20 12,20 C16.418278,20 20,16.418278 20,12 C20,7.581722 16.418278,4 12,4 Z M13,10 L13,16.5 L15,16.5 L15,18 L9,18 L9,16.5 L11,16.5 L11,11.5 L9,11.5 L9,10 L13,10 Z M11.8125239,6 C12.5373649,6 13.125,6.58759799 13.125,7.3125 C13.125,8.03735415 12.5373649,8.625 11.8125239,8.625 C11.0876351,8.625 10.5,8.03735415 10.5,7.3125 C10.5,6.58759799 11.0876351,6 11.8125239,6 Z"/>
  </g>
</svg>
