<svg xmlns="http://www.w3.org/2000/svg" width="24" height="24" viewBox="0 0 24 24">
  <g fill="none" fill-rule="evenodd">
    <rect width="24" height="24"/>
    <path fill="currentColor" d="M15,2 C17.1421954,2 18.8910789,3.68396847 18.9951047,5.80035966 L19,6 L19,18 C19,20.1421954 17.3160315,21.8910789 15.1996403,21.9951047 L15,22 L9,22 C6.85780461,22 5.10892112,20.3160315 5.00489531,18.1996403 L5,18 L5,6 C5,3.85780461 6.68396847,2.10892112 8.80035966,2.00489531 L9,2 L15,2 Z M15,4 L9,4 C7.9456382,4 7.08183488,4.81587779 7.00548574,5.85073766 L7,6 L7,18 C7,19.0543618 7.81587779,19.9181651 8.85073766,19.9945143 L9,20 L15,20 C16.0543618,20 16.9181651,19.1841222 16.9945143,18.1492623 L17,18 L17,6 C17,4.9456382 16.1841222,4.08183488 15.1492623,4.00548574 L15,4 Z M12,15.5 C12.8284271,15.5 13.5,16.1715729 13.5,17 C13.5,17.8284271 12.8284271,18.5 12,18.5 C11.1715729,18.5 10.5,17.8284271 10.5,17 C10.5,16.1715729 11.1715729,15.5 12,15.5 Z"/>
  </g>
</svg>
