<svg xmlns="http://www.w3.org/2000/svg" width="24" height="24" viewBox="0 0 24 24">
  <g fill="none" fill-rule="evenodd">
    <rect width="24" height="24"/>
    <path fill="currentColor" d="M16,7 L18,7 L18,16 C18,19.3137085 15.3137085,22 12,22 C8.76160306,22 6.12242824,19.4344251 6.00413847,16.2249383 L6,16 L6,6.5 C6,4.01471863 8.01471863,2 10.5,2 C12.9142733,2 14.8844891,3.90123652 14.995102,6.2881643 L15,6.5 L15,15 C15,16.6568542 13.6568542,18 12,18 C10.4023191,18 9.09633912,16.75108 9.00509269,15.1762728 L9,15 L9,7 L11,7 L11,15 C11,15.5522847 11.4477153,16 12,16 C12.5128358,16 12.9355072,15.6139598 12.9932723,15.1166211 L13,15 L13,6.5 C13,5.11928813 11.8807119,4 10.5,4 C9.1745166,4 8.08996133,5.03153594 8.00531768,6.33562431 L8,6.5 L8,16 C8,18.209139 9.790861,20 12,20 C14.1421954,20 15.8910789,18.3160315 15.9951047,16.1996403 L16,16 L16,7 Z"/>
  </g>
</svg>
