<svg xmlns="http://www.w3.org/2000/svg" width="24" height="24" viewBox="0 0 24 24">
  <g fill="none" fill-rule="evenodd">
    <rect width="24" height="24"/>
    <path fill="currentColor" d="M11,18 L11,22 L13,22 L13,18 L15,18 L15,24 L9,24 L9,18 L11,18 Z M13.047619,7 C14.9713006,7 16.1733083,8.17451423 16.6361501,10.0048433 L18.4694835,17.2548433 L16.5305165,17.7451567 L14.6971832,10.4951567 C14.4499795,9.51757843 13.987739,9.03760196 13.1499648,9.00212681 L13.047619,9 L10.952381,9 C10.0495843,9 9.55990865,9.4784753 9.30281679,10.4951567 L7.46948346,17.7451567 L5.53051654,17.2548433 L7.36384988,10.0048433 C7.81512066,8.22027245 8.96906095,7.0591356 10.8094582,7.00219411 L10.952381,7 L13.047619,7 Z M12,0 C13.6568542,0 15,1.34314575 15,3 C15,4.65685425 13.6568542,6 12,6 C10.3431458,6 9,4.65685425 9,3 C9,1.34314575 10.3431458,0 12,0 Z M12,2 C11.4477153,2 11,2.44771525 11,3 C11,3.55228475 11.4477153,4 12,4 C12.5522847,4 13,3.55228475 13,3 C13,2.44771525 12.5522847,2 12,2 Z"/>
  </g>
</svg>
