<svg xmlns="http://www.w3.org/2000/svg" width="24" height="24" viewBox="0 0 24 24">
  <g fill="none" fill-rule="evenodd">
    <rect width="24" height="24"/>
    <path fill="currentColor" d="M20,2 L20,22 L4,22 L4,2 L20,2 Z M16,15 C15.1401438,15 14.7159295,15.2222839 13.8800274,16.0363036 L13.7071068,16.2071068 C12.4113038,17.5029097 11.5828201,18 10,18 C8.50048627,18 7.67799456,17.553858 6.49378826,16.4051137 L6,15.92 L6,20 L18,20 L18,15.922 L17.9580303,15.88128 C17.2255724,15.193634 16.8025325,15 16,15 Z M18,4 L6,4 L6.00113961,13.4397416 C6.50286956,13.6830613 6.92886459,14.0298102 7.51077528,14.5986306 L7.70710678,14.7928932 C8.66130383,15.7470903 9.08282005,16 10,16 C10.8598562,16 11.2840705,15.7777161 12.1199726,14.9636964 L12.2928932,14.7928932 C13.5886962,13.4970903 14.4171799,13 16,13 C16.8098125,13 17.4221687,13.1301191 18.0006779,13.4307519 L18,4 Z M10,6 C11.6568542,6 13,7.34314575 13,9 C13,10.6568542 11.6568542,12 10,12 C8.34314575,12 7,10.6568542 7,9 C7,7.34314575 8.34314575,6 10,6 Z M10,8 C9.44771525,8 9,8.44771525 9,9 C9,9.55228475 9.44771525,10 10,10 C10.5522847,10 11,9.55228475 11,9 C11,8.44771525 10.5522847,8 10,8 Z"/>
  </g>
</svg>
