<svg xmlns="http://www.w3.org/2000/svg" width="24" height="24" viewBox="0 0 24 24">
  <g fill="none" fill-rule="evenodd">
    <rect width="24" height="24"/>
    <path fill="currentColor" d="M18.5,2.25 C20.4329966,2.25 22,3.81700338 22,5.75 C22,7.68299662 20.4329966,9.25 18.5,9.25 C17.4601325,9.25 16.5261822,8.79651412 15.885126,8.07651902 L8.96926103,11.5340921 C8.98953519,11.6865136 9,11.8420347 9,12 C9,12.1579653 8.98953519,12.3134864 8.96926103,12.4659079 L15.885126,15.923481 C16.5261822,15.2034859 17.4601325,14.75 18.5,14.75 C20.4329966,14.75 22,16.3170034 22,18.25 C22,20.1829966 20.4329966,21.75 18.5,21.75 C16.5670034,21.75 15,20.1829966 15,18.25 C15,18.1135124 15.0078126,17.9788496 15.0230149,17.8464342 L8.07394088,14.3716988 C7.43439151,15.0654334 6.51794499,15.5 5.5,15.5 C3.56700338,15.5 2,13.9329966 2,12 C2,10.0670034 3.56700338,8.5 5.5,8.5 C6.51794499,8.5 7.43439151,8.93456662 8.07394088,9.62830117 L15.0230149,6.15356576 C15.0078126,6.02115043 15,5.88648758 15,5.75 C15,3.81700338 16.5670034,2.25 18.5,2.25 Z M18.5,16.75 C17.6715729,16.75 17,17.4215729 17,18.25 C17,19.0784271 17.6715729,19.75 18.5,19.75 C19.3284271,19.75 20,19.0784271 20,18.25 C20,17.4215729 19.3284271,16.75 18.5,16.75 Z M5.5,10.5 C4.67157288,10.5 4,11.1715729 4,12 C4,12.8284271 4.67157288,13.5 5.5,13.5 C6.32842712,13.5 7,12.8284271 7,12 C7,11.1715729 6.32842712,10.5 5.5,10.5 Z M18.5,4.25 C17.6715729,4.25 17,4.92157288 17,5.75 C17,6.57842712 17.6715729,7.25 18.5,7.25 C19.3284271,7.25 20,6.57842712 20,5.75 C20,4.92157288 19.3284271,4.25 18.5,4.25 Z"/>
  </g>
</svg>
