<svg xmlns="http://www.w3.org/2000/svg" width="24" height="24" viewBox="0 0 24 24">
  <g fill="none" fill-rule="evenodd">
    <rect width="24" height="24"/>
    <path fill="currentColor" d="M19,4 L5,4 C2.790861,4 1,5.790861 1,8 L1,16 C1,18.209139 2.790861,20 5,20 L11,20 C12.0636046,20 12.9774228,20.3916364 13.7928932,21.2071068 L14.5,21.9142136 L15.2071068,21.2071068 C16.0225772,20.3916364 16.9363954,20 18,20 L19,20 C21.209139,20 23,18.209139 23,16 L23,8 C23,5.790861 21.209139,4 19,4 Z M5,6 L19,6 C20.1045695,6 21,6.8954305 21,8 L21,16 C21,17.1045695 20.1045695,18 19,18 L18,18 L17.8158488,18.002698 C16.5936434,18.0386592 15.4812164,18.4338661 14.4995,19.175 C13.4698219,18.3968763 12.2947809,18 11,18 L5,18 C3.8954305,18 3,17.1045695 3,16 L3,8 C3,6.8954305 3.8954305,6 5,6 Z"/>
  </g>
</svg>
