<svg xmlns="http://www.w3.org/2000/svg" width="24" height="24" viewBox="0 0 24 24">
  <g fill="none" fill-rule="evenodd">
    <rect width="24" height="24"/>
    <path fill="currentColor" d="M18,9 L6,9 L7.08678536,22 L16.9132146,22 L18,9 Z M15.905,11 L15.087,20 L8.912,20 L8.094,11 L15.905,11 Z M12,2 C13.609024,2 14.9044711,3.21958169 14.9949507,4.82058383 L15,5 L15,6 L18,6 L18,8 L6,8 L6,6 L9,6 L9,5 C9,3.31159403 10.3313825,2 12,2 Z M12,4 C11.4700677,4 11.0620505,4.36466311 11.0064661,4.87879807 L11,5 L11,6 L13,6 L13,5 C13,4.4229229 12.5706963,4 12,4 Z"/>
  </g>
</svg>
