<svg xmlns="http://www.w3.org/2000/svg" width="24" height="24" viewBox="0 0 24 24">
  <g fill="none" fill-rule="evenodd">
    <rect width="24" height="24"/>
    <path fill="currentColor" d="M12,17.5338354 C12.8284271,17.5338354 13.5,18.2054082 13.5,19.0338354 C13.5,19.8622625 12.8284271,20.5338354 12,20.5338354 C11.1715729,20.5338354 10.5,19.8622625 10.5,19.0338354 C10.5,18.2054082 11.1715729,17.5338354 12,17.5338354 Z M16.1404214,15.5228594 L16.2516758,15.6315208 L14.8374622,17.0457344 C13.2089625,15.4172347 10.6706267,15.3288115 9.11001538,16.7932524 L9.02273578,16.8778038 L7.60852221,15.4635902 C9.92085496,13.1512575 13.7088209,13.2034039 16.1404214,15.5228594 Z M19.265876,12.3712848 L19.3899021,12.4932944 L17.9756886,13.907508 C14.7280343,10.6598536 9.48052346,10.6266047 6.17967342,13.8055246 L6.06398755,13.9190556 L4.64977399,12.504842 C8.68191837,8.47269764 15.1893793,8.42636515 19.265876,12.3712848 Z M22.3528507,9.18260732 L22.5281285,9.35506802 L21.113915,10.7692816 C16.1384633,5.79382989 8.10257576,5.74407538 3.06591535,10.620018 L2.91421356,10.7692816 L1.5,9.35506802 C7.24868978,3.60637823 16.5334397,3.54889134 22.3528507,9.18260732 Z"/>
  </g>
</svg>
