<svg xmlns="http://www.w3.org/2000/svg" width="24" height="24" viewBox="0 0 24 24">
  <g fill="none" fill-rule="evenodd">
    <rect width="24" height="24"/>
    <path fill="currentColor" d="M15,2 C19.418278,2 23,5.581722 23,10 C23,14.418278 19.418278,18 15,18 C13.1298125,18 11.4095103,17.3582644 10.0472859,16.2829857 L4.41421356,21.9142136 L3,20.5 L8.6421731,14.856407 C7.61202544,13.5098196 7,11.8263829 7,10 C7,5.581722 10.581722,2 15,2 Z M15,4 C11.6862915,4 9,6.6862915 9,10 C9,13.3137085 11.6862915,16 15,16 C18.3137085,16 21,13.3137085 21,10 C21,6.6862915 18.3137085,4 15,4 Z M16.0645743,6.5 L18.25,13 L16.4491342,13 L16.0551948,11.7601156 L13.8603896,11.7601156 L13.4758297,13 L11.75,13 L13.9354257,6.5 L16.0645743,6.5 Z M4.65079365,7.5 L6.5,13 L4.97619048,13 L4.64285714,11.9508671 L2.78571429,11.9508671 L2.46031746,13 L1,13 L2.84920635,7.5 L4.65079365,7.5 Z M3.73809524,8.91473988 L3.70634921,8.91473988 L3.65164282,9.15923012 C3.6375988,9.21679571 3.62107257,9.28129534 3.60232543,9.34906575 L3.53968254,9.55852601 L3.16666667,10.7427746 L4.26984127,10.7427746 L3.8968254,9.55852601 C3.79365079,9.24060694 3.73809524,8.91473988 3.73809524,8.91473988 Z M14.9859307,8.17196532 L14.9484127,8.17196532 L14.8734517,8.5026763 C14.857469,8.56669942 14.8391602,8.63665896 14.8187504,8.70939884 L14.751443,8.93280347 L14.3106061,10.3323699 L15.6143579,10.3323699 L15.1735209,8.93280347 C15.0515873,8.55708092 14.9859307,8.17196532 14.9859307,8.17196532 Z"/>
  </g>
</svg>
