<?xml version="1.0" encoding="UTF-8"?>
<svg xmlns="http://www.w3.org/2000/svg" xmlns:xlink="http://www.w3.org/1999/xlink" version="1.2" >
<font id="HelsinkiGrotesk-Bold">
<font-face  font-family="Helsinki Grotesk" units-per-em="1000" ascent="996" descent="-284" font-style="normal" font-weight="700" font-stretch="normal" cap-height="692" x-height="504" underline-position="-175" underline-thickness="50" />
<missing-glyph  horiz-adv-x="600" d="M61 692 L539 692 L539 0 L61 0 L61 692 Z M174 102 L350 102 L174 461 L174 102 Z M250 588 L426 230 L426 588 L250 588 Z " />
<glyph glyph-name="space" unicode="&#x20;" horiz-adv-x="224" d="" />
<glyph glyph-name="at" unicode="&#x40;" horiz-adv-x="847" d="M433 374 Q400 374 380.5 355 Q361 336 352 310 L259 361 Q285 403 328.5 431.5 Q372 460 438 460 Q469 460 496 451.5 Q523 443 542.5 425.5 Q562 408 573.5 382 Q585 356 585 320 L585 214 Q585 161 628 161 Q663 161 682 196 Q701 231 701 287 Q701 347 681 395.5 Q661 444 625 478.5 Q589 513 539.5 531.5 Q490 550 431 550 Q369 550 317 528.5 Q265 507 227 468.5 Q189 430 168 376 Q147 322 147 257 Q147 190 168 135.5 Q189 81 226.5 42 Q264 3 316 -18.5 Q368 -40 429 -40 Q502 -40 556 -20 Q610 0 638 41 L747 -20 Q724 -44 691.5 -64.5 Q659 -85 618 -100.5 Q577 -116 529 -125 Q481 -134 429 -134 Q348 -134 277 -106 Q206 -78 153.5 -27 Q101 24 71 96 Q41 168 41 257 Q41 342 71 413.5 Q101 485 153.5 537 Q206 589 277.5 617.5 Q349 646 431 646 Q511 646 579.5 620 Q648 594 698.5 547 Q749 500 777.5 434 Q806 368 806 288 Q806 233 790 193 Q774 153 748.5 127 Q723 101 689.5 88.5 Q656 76 622 76 Q582 76 550.5 89 Q519 102 503 129 L501 129 Q495 121 485 112 Q475 103 461.5 95 Q448 87 429.5 81.5 Q411 76 389 76 Q364 76 342 84 Q320 92 303.5 106 Q287 120 277 140 Q267 160 267 183 Q267 212 278.5 231.5 Q290 251 308 264 Q326 277 349 285 Q372 293 395 298 Q431 306 455 314 Q479 322 479 340 Q479 357 465 365.5 Q451 374 433 374 Z M481 257 Q474 249 459.5 244 Q445 239 425 234 Q406 229 389.5 221 Q373 213 373 193 Q373 176 386 168.5 Q399 161 416 161 Q439 161 460 176 Q481 191 481 223 L481 257 Z " />
<glyph glyph-name="A" unicode="A" horiz-adv-x="670" d="M460 158 L204 158 L151 0 L5 0 L246 692 L424 692 L665 0 L513 0 L460 158 Z M244 279 L420 279 L360 461 Q355 475 350.5 491 Q346 507 342 521 Q338 537 334 552 L331 552 Q327 537 323 521 Q319 507 314.5 491 Q310 475 305 461 L244 279 Z " />
<glyph glyph-name="B" unicode="B" horiz-adv-x="637" d="M63 692 L336 692 Q391 692 437.5 680.5 Q484 669 517.5 647 Q551 625 569.5 592 Q588 559 588 516 Q588 484 578.5 459 Q569 434 554 415.5 Q539 397 520.5 385 Q502 373 485 366 L485 362 Q507 356 529.5 344.5 Q552 333 571 313 Q590 293 602 265 Q614 237 614 198 Q614 153 596.5 116.5 Q579 80 546 54 Q513 28 466.5 14 Q420 0 362 0 L63 0 L63 692 Z M442 494 Q442 532 417 552 Q392 572 345 572 L209 572 L209 413 L345 413 Q392 413 417 434.5 Q442 456 442 494 Z M466 208 Q466 249 440.5 271 Q415 293 366 293 L209 293 L209 120 L366 120 Q415 120 440.5 143.5 Q466 167 466 208 Z " />
<glyph glyph-name="C" unicode="C" horiz-adv-x="658" d="M351 -12 Q285 -12 227 12.5 Q169 37 126 83.5 Q83 130 58.5 197 Q34 264 34 348 Q34 432 58.5 498 Q83 564 126 610 Q169 656 227 680 Q285 704 351 704 Q406 704 454 686 Q502 668 539.5 637.5 Q577 607 602 568 Q627 529 637 487 L500 401 Q498 436 488.5 467.5 Q479 499 460.5 522.5 Q442 546 414.5 560 Q387 574 351 574 Q308 574 276.5 556.5 Q245 539 224.5 508.5 Q204 478 194 436.5 Q184 395 184 348 Q184 301 194 259 Q204 217 224.5 185.5 Q245 154 276.5 136 Q308 118 351 118 Q387 118 414.5 132.5 Q442 147 460.5 171.5 Q479 196 488.5 228 Q498 260 500 295 L637 209 Q627 167 602 127 Q577 87 539.5 56.5 Q502 26 454 7 Q406 -12 351 -12 Z " />
<glyph glyph-name="D" unicode="D" horiz-adv-x="693" d="M323 692 Q397 692 459 669 Q521 646 565.5 602 Q610 558 635 494 Q660 430 660 348 Q660 266 635 201.5 Q610 137 565.5 92 Q521 47 459 23.5 Q397 0 323 0 L63 0 L63 692 L323 692 Z M510 348 Q510 392 499.5 431.5 Q489 471 468 500.5 Q447 530 415 547.5 Q383 565 339 565 L210 565 L210 127 L339 127 Q383 127 415 144.5 Q447 162 468 192 Q489 222 499.5 262.5 Q510 303 510 348 Z " />
<glyph glyph-name="E" unicode="E" horiz-adv-x="574" d="M63 692 L534 692 L534 566 L209 566 L209 415 L516 415 L516 291 L209 291 L209 126 L542 126 L542 0 L63 0 L63 692 Z " />
<glyph glyph-name="F" unicode="F" horiz-adv-x="550" d="M63 692 L524 692 L524 565 L210 565 L210 407 L505 407 L505 282 L210 282 L210 0 L63 0 L63 692 Z " />
<glyph glyph-name="G" unicode="G" horiz-adv-x="693" d="M357 575 Q313 575 280 557 Q247 539 225.5 508.5 Q204 478 193 436.5 Q182 395 182 348 Q182 301 192.5 258.5 Q203 216 224.5 184 Q246 152 278.5 133 Q311 114 355 114 Q391 114 418 127.5 Q445 141 463 163.5 Q481 186 490.5 214 Q500 242 500 272 L500 273 L302 273 L302 395 L637 395 L637 0 L507 0 L517 91 L514 91 Q503 72 486.5 53.5 Q470 35 446.5 20.5 Q423 6 393 -3 Q363 -12 324 -12 Q262 -12 209 12.5 Q156 37 117 83.5 Q78 130 56 197 Q34 264 34 348 Q34 432 59.5 498 Q85 564 128.5 610 Q172 656 231 680 Q290 704 357 704 Q410 704 455.5 691 Q501 678 538 654.5 Q575 631 602 598 Q629 565 646 525 L509 439 Q506 467 494 492 Q482 517 462.5 535.5 Q443 554 416.5 564.5 Q390 575 357 575 Z " />
<glyph glyph-name="H" unicode="H" horiz-adv-x="696" d="M486 287 L210 287 L210 0 L63 0 L63 692 L210 692 L210 418 L486 418 L486 692 L633 692 L633 0 L486 0 L486 287 Z " />
<glyph glyph-name="I" unicode="I" horiz-adv-x="275" d="M63 692 L212 692 L212 0 L63 0 L63 692 Z " />
<glyph glyph-name="J" unicode="J" horiz-adv-x="572" d="M515 692 L515 274 Q515 199 497.5 144.5 Q480 90 448.5 55.5 Q417 21 372 4.5 Q327 -12 273 -12 Q218 -12 173.5 4.5 Q129 21 97 53 Q65 85 47.5 132 Q30 179 30 240 Q30 248 30 253 Q30 258 31 263 L180 356 Q178 339 177 322 Q175 307 174.5 290 Q174 273 174 257 Q174 194 197.5 156 Q221 118 272 118 Q323 118 345.5 156 Q368 194 368 263 L368 692 L515 692 Z " />
<glyph glyph-name="K" unicode="K" horiz-adv-x="646" d="M63 692 L209 692 L209 480 Q209 456 208.5 432.5 Q208 409 207 390 Q206 368 205 348 L208 348 Q218 367 231 387 Q242 404 257 426.5 Q272 449 290 473 L456 692 L627 692 L409 416 L652 0 L488 0 L313 299 L209 165 L209 0 L63 0 L63 692 Z " />
<glyph glyph-name="L" unicode="L" horiz-adv-x="528" d="M63 692 L211 692 L211 131 L513 131 L513 0 L63 0 L63 692 Z " />
<glyph glyph-name="M" unicode="M" horiz-adv-x="854" d="M430 173 Q434 193 439 213 Q444 230 449 250 Q454 270 460 289 L585 692 L790 692 L790 0 L650 0 L650 376 Q650 399 650.5 423.5 Q651 448 652 468 Q653 491 654 513 L651 513 Q646 495 641 477 Q636 461 630.5 442 Q625 423 620 405 L493 0 L358 0 L233 405 Q227 423 221.5 442.5 Q216 462 211 479 Q206 498 201 518 L198 518 Q198 496 199 471 Q200 450 200.5 424.5 Q201 399 201 376 L201 0 L63 0 L63 692 L275 692 L398 289 Q403 270 408.5 250 Q414 230 418 213 Q422 193 427 173 L430 173 Z " />
<glyph glyph-name="N" unicode="N" horiz-adv-x="709" d="M450 0 L257 385 Q248 402 238 426 Q228 450 219 471 Q208 496 199 521 L195 520 Q195 519 196 505 Q197 491 198 469.5 Q199 448 200 422.5 Q201 397 201 373 L201 0 L63 0 L63 692 L258 692 L452 307 Q460 289 471 265.5 Q482 242 491 221 Q502 196 512 171 L516 171 Q514 195 512 221 Q510 243 509 269 Q508 295 508 319 L508 692 L645 692 L645 0 L450 0 Z " />
<glyph glyph-name="O" unicode="O" horiz-adv-x="710" d="M355 -12 Q288 -12 229.5 12.5 Q171 37 127.5 83.5 Q84 130 59 197 Q34 264 34 348 Q34 432 59 498 Q84 564 127.5 610 Q171 656 229.5 680 Q288 704 355 704 Q422 704 480.5 680 Q539 656 582.5 610 Q626 564 651 498 Q676 432 676 348 Q676 264 651 197 Q626 130 582.5 83.5 Q539 37 480.5 12.5 Q422 -12 355 -12 Z M526 348 Q526 395 515.5 436.5 Q505 478 484 508.5 Q463 539 430.5 556.5 Q398 574 355 574 Q311 574 279 556.5 Q247 539 226 508.5 Q205 478 194.5 436.5 Q184 395 184 348 Q184 301 194.5 259 Q205 217 226 185.5 Q247 154 279 136 Q311 118 355 118 Q398 118 430.5 136 Q463 154 484 185.5 Q505 217 515.5 259 Q526 301 526 348 Z " />
<glyph glyph-name="P" unicode="P" horiz-adv-x="631" d="M63 692 L360 692 Q478 692 546 636.5 Q614 581 614 477 Q614 373 546 315.5 Q478 258 360 258 L210 258 L210 0 L63 0 L63 692 Z M467 477 Q467 566 362 566 L210 566 L210 384 L362 384 Q415 384 441 408.5 Q467 433 467 477 Z " />
<glyph glyph-name="Q" unicode="Q" horiz-adv-x="712" d="M355 -12 Q288 -12 229.5 12.5 Q171 37 127.5 83.5 Q84 130 59 197 Q34 264 34 348 Q34 432 59 498 Q84 564 127.5 610 Q171 656 229.5 680 Q288 704 355 704 Q422 704 480.5 680 Q539 656 582.5 610 Q626 564 651 498 Q676 432 676 348 Q676 245 637 170.5 Q598 96 535 52 L535 50 Q540 51 547.5 52 Q555 53 564 53 Q608 53 649.5 37 Q691 21 719 -16 L615 -126 Q602 -105 581 -85 Q560 -65 529 -48.5 Q498 -32 455 -22 Q412 -12 355 -12 Z M526 348 Q526 395 515.5 436.5 Q505 478 484 508.5 Q463 539 430.5 556.5 Q398 574 355 574 Q311 574 279 556.5 Q247 539 226 508.5 Q205 478 194.5 436.5 Q184 395 184 348 Q184 301 194.5 259 Q205 217 226 185.5 Q247 154 279 136 Q311 118 355 118 Q398 118 430.5 136 Q463 154 484 185.5 Q505 217 515.5 259 Q526 301 526 348 Z " />
<glyph glyph-name="R" unicode="R" horiz-adv-x="641" d="M63 692 L358 692 Q475 692 543 637.5 Q611 583 611 482 Q611 410 573 361 Q535 312 472 289 L626 0 L470 0 L328 270 L209 270 L209 0 L63 0 L63 692 Z M464 482 Q464 524 437.5 546.5 Q411 569 359 569 L209 569 L209 391 L359 391 Q411 391 437.5 415.5 Q464 440 464 482 Z " />
<glyph glyph-name="S" unicode="S" horiz-adv-x="614" d="M248 306 Q209 318 173.5 332.5 Q138 347 110 369.5 Q82 392 65.5 423 Q49 454 49 499 Q49 542 66.5 579.5 Q84 617 116.5 645 Q149 673 194.5 688.5 Q240 704 296 704 Q341 704 384 693 Q427 682 465 660.5 Q503 639 533.5 608 Q564 577 584 537 L454 455 Q443 515 398 549 Q353 583 292 583 Q249 583 221 563.5 Q193 544 193 512 Q193 489 208.5 474.5 Q224 460 249.5 450 Q275 440 308 431.5 Q341 423 376 412 Q417 400 456 384 Q495 368 525.5 344.5 Q556 321 574.5 287 Q593 253 593 204 Q593 157 574 117.5 Q555 78 520 49 Q485 20 436.5 4 Q388 -12 330 -12 Q224 -12 141.5 38.5 Q59 89 21 183 L154 267 Q161 233 176 204 Q191 175 213.5 154 Q236 133 266.5 121 Q297 109 335 109 Q388 109 418.5 132 Q449 155 449 193 Q449 221 431.5 238 Q414 255 386 266 Q358 277 321.5 286 Q285 295 248 306 Z " />
<glyph glyph-name="T" unicode="T" horiz-adv-x="564" d="M6 692 L558 692 L558 561 L356 561 L356 0 L208 0 L208 561 L6 561 L6 692 Z " />
<glyph glyph-name="U" unicode="U" horiz-adv-x="679" d="M339 -12 Q278 -12 226.5 4.5 Q175 21 137.5 57 Q100 93 79 149 Q58 205 58 284 L58 692 L204 692 L204 275 Q204 199 237 158.5 Q270 118 339 118 Q408 118 441 158.5 Q474 199 474 275 L474 692 L621 692 L621 284 Q621 205 599.5 149 Q578 93 540.5 57 Q503 21 451.5 4.5 Q400 -12 339 -12 Z " />
<glyph glyph-name="V" unicode="V" horiz-adv-x="650" d="M299 258 Q304 243 308 225 Q312 207 316 190 Q320 171 325 152 L329 152 Q334 171 338 190 Q342 207 346.5 225 Q351 243 356 258 L489 692 L645 692 L414 0 L236 0 L5 692 L164 692 L299 258 Z " />
<glyph glyph-name="W" unicode="W" horiz-adv-x="857" d="M594 270 Q597 254 600 234.5 Q603 215 606 197 Q609 176 612 154 L615 154 Q616 173 618 192 Q620 208 622 226.5 Q624 245 626 261 L691 692 L845 692 L715 0 L534 0 L449 397 Q444 418 440.5 439.5 Q437 461 435 478 Q432 498 430 518 L427 518 Q424 498 421 478 Q418 461 415 439.5 Q412 418 407 397 L323 0 L142 0 L13 692 L168 692 L233 261 Q235 245 237 226.5 Q239 208 241 192 Q243 173 244 154 L247 154 Q249 176 253 197 Q255 215 258.5 234.5 Q262 254 265 270 L352 692 L507 692 L594 270 Z " />
<glyph glyph-name="X" unicode="X" horiz-adv-x="636" d="M364 183 Q356 198 347.5 214 Q339 230 332 244 L317 274 L314 274 L299 244 Q292 230 283.5 214 Q275 198 267 183 L167 0 L10 0 L210 354 L23 692 L186 692 L271 530 Q279 513 287.5 496.5 Q296 480 302 466 Q309 450 316 436 L319 436 Q326 451 334 467 Q341 481 349 497 Q357 513 366 530 L453 692 L606 692 L422 359 L626 0 L464 0 L364 183 L364 183 Z " />
<glyph glyph-name="Y" unicode="Y" horiz-adv-x="608" d="M229 256 L-5 692 L155 692 L265 474 Q274 457 281 440.5 Q288 424 293 411 Q299 396 304 383 L307 383 Q312 396 318 411 Q323 424 330 440.5 Q337 457 346 474 L457 692 L612 692 L377 258 L377 0 L229 0 L229 256 Z " />
<glyph glyph-name="Z" unicode="Z" horiz-adv-x="575" d="M26 90 L355 562 L33 562 L33 692 L546 692 L546 596 L221 130 L554 130 L554 0 L26 0 L26 90 Z " />
<glyph glyph-name="ampersand" unicode="&#x26;" horiz-adv-x="674" d="M332 346 Q356 304 384 265.5 Q412 227 441 195 Q467 235 481.5 287.5 Q496 340 502 407 L626 338 Q610 276 582.5 224 Q555 172 517 126 Q528 115 542 109 Q556 103 571 103 Q590 103 599 114 Q608 125 613 136 L671 31 Q654 16 628 2 Q602 -12 564 -12 Q519 -12 488.5 3 Q458 18 434 37 Q400 15 359.5 1.5 Q319 -12 273 -12 Q219 -12 174 2 Q129 16 97 41 Q65 66 47.5 101.5 Q30 137 30 180 Q30 215 42 244 Q54 273 74 297 Q94 321 120 340.5 Q146 360 174 376 Q157 415 147.5 451.5 Q138 488 138 519 Q138 561 152 595 Q166 629 191 653.5 Q216 678 251 691 Q286 704 328 704 Q365 704 396.5 693.5 Q428 683 451.5 663 Q475 643 488 615 Q501 587 501 553 Q501 520 486.5 491.5 Q472 463 448 437.5 Q424 412 393.5 389.5 Q363 367 332 346 Z M354 110 Q318 149 284 194.5 Q250 240 221 288 Q199 269 185.5 246 Q172 223 172 194 Q172 146 205 119 Q238 92 285 92 Q303 92 320 97 Q337 102 354 110 Z M269 525 Q269 481 291 426 Q308 436 325 449 Q342 462 355.5 476.5 Q369 491 377.5 507.5 Q386 524 386 543 Q386 568 371 584 Q356 600 332 600 Q303 600 286 578 Q269 556 269 525 Z " />
<glyph glyph-name="AE" unicode="&#xc6;" horiz-adv-x="886" d="M430 161 L227 161 L147 0 L-11 0 L345 692 L846 692 L846 569 L572 569 L572 413 L828 413 L828 292 L572 292 L572 123 L854 123 L854 0 L430 0 L430 161 Z M286 279 L430 279 L430 569 L427 569 Q421 556 416 543 Q411 532 405 518 Q399 504 392 491 L286 279 Z " />
<glyph glyph-name="OE" unicode="&#x152;" horiz-adv-x="903" d="M449 0 Q405 -12 357 -12 Q289 -12 230 12.5 Q171 37 127.5 83.5 Q84 130 59 197 Q34 264 34 348 Q34 432 59 498 Q84 564 127.5 610 Q171 656 230 680 Q289 704 357 704 Q403 704 447 692 L863 692 L863 569 L589 569 L589 413 L845 413 L845 292 L589 292 L589 123 L871 123 L871 0 L449 0 Z M447 561 Q427 569 405 574 Q383 579 357 579 Q312 579 279.5 561 Q247 543 225 511.5 Q203 480 192.5 438 Q182 396 182 348 Q182 300 192.5 257.5 Q203 215 225 182.5 Q247 150 279.5 131.5 Q312 113 357 113 Q408 113 447 131 L447 561 Z " />
<glyph glyph-name="Eth" unicode="&#xd0;" horiz-adv-x="743" d="M113 0 L113 300 L23 300 L23 405 L113 405 L113 692 L373 692 Q447 692 509 669 Q571 646 615.5 602 Q660 558 685 494 Q710 430 710 348 Q710 266 685 201.5 Q660 137 615.5 92 Q571 47 509 23.5 Q447 0 373 0 L113 0 Z M257 300 L257 126 L389 126 Q433 126 465.5 143.5 Q498 161 519 191.5 Q540 222 550.5 262.5 Q561 303 561 348 Q561 393 550.5 433 Q540 473 519 502.5 Q498 532 465.5 549 Q433 566 389 566 L257 566 L257 405 L400 405 L400 300 L257 300 Z " />
<glyph glyph-name="Dcroat" unicode="&#x110;" horiz-adv-x="743" d="M113 0 L113 300 L23 300 L23 405 L113 405 L113 692 L373 692 Q447 692 509 669 Q571 646 615.5 602 Q660 558 685 494 Q710 430 710 348 Q710 266 685 201.5 Q660 137 615.5 92 Q571 47 509 23.5 Q447 0 373 0 L113 0 Z M257 300 L257 126 L389 126 Q433 126 465.5 143.5 Q498 161 519 191.5 Q540 222 550.5 262.5 Q561 303 561 348 Q561 393 550.5 433 Q540 473 519 502.5 Q498 532 465.5 549 Q433 566 389 566 L257 566 L257 405 L400 405 L400 300 L257 300 Z " />
<glyph glyph-name="Hbar" unicode="&#x126;" horiz-adv-x="789" d="M678 488 L678 0 L535 0 L535 278 L253 278 L253 0 L109 0 L109 488 L23 488 L23 593 L109 593 L109 692 L253 692 L253 593 L535 593 L535 692 L678 692 L678 593 L765 593 L765 488 L678 488 Z M535 403 L535 488 L253 488 L253 403 L535 403 Z " />
<glyph glyph-name="IJ" unicode="&#x132;" horiz-adv-x="596" d="M204 217 Q204 200 208 182.5 Q212 165 222.5 150.5 Q233 136 250.5 126.5 Q268 117 295 117 Q348 117 369.5 152 Q391 187 391 250 L391 692 L538 692 L538 280 Q538 199 519.5 143 Q501 87 468.5 52.5 Q436 18 391.5 3 Q347 -12 296 -12 Q240 -12 198 3 Q156 18 127 42 Q98 66 82 97 Q66 128 62 160 L204 221 L204 217 Z M58 692 L204 692 L204 270 L58 270 L58 692 Z " />
<glyph glyph-name="Lslash" unicode="&#x141;" horiz-adv-x="586" d="M120 230 L45 193 L-2 291 L120 352 L120 692 L264 692 L264 424 L406 495 L454 397 L264 302 L264 129 L570 129 L570 0 L120 0 L120 230 Z " />
<glyph glyph-name="Ldot" unicode="&#x13f;" horiz-adv-x="532" d="M63 692 L211 692 L211 131 L513 131 L513 0 L63 0 L63 692 Z M363 433 Q398 433 421.5 411 Q445 389 445 354 Q445 319 421.5 297 Q398 275 363 275 Q328 275 304.5 297 Q281 319 281 354 Q281 389 304.5 411 Q328 433 363 433 Z " />
<glyph glyph-name="Lcaron" unicode="&#x13d;" horiz-adv-x="540" d="M63 692 L211 692 L211 131 L513 131 L513 0 L63 0 L63 692 Z M303 528 Q315 531 328 535 Q341 539 352.5 546 Q364 553 372 563.5 Q380 574 383 589 L376 589 Q351 589 333 603.5 Q315 618 315 645 Q315 673 333 687 Q351 701 378 701 Q411 701 432.5 677 Q454 653 454 613 Q454 568 433.5 534.5 Q413 501 382 484 L303 528 L303 528 Z " />
<glyph glyph-name="Eng" unicode="&#x14a;" horiz-adv-x="721" d="M354 -9 Q360 -40 379 -63 Q398 -86 433 -86 Q468 -86 488 -63.5 Q508 -41 508 2 L273 393 Q262 410 249.5 433.5 Q237 457 226 479 Q213 505 199 531 L195 530 Q195 529 196 515 Q197 501 198 479.5 Q199 458 200 432.5 Q201 407 201 383 L201 0 L63 0 L63 692 L252 692 L452 359 Q462 342 472.5 323.5 Q483 305 491 288 L510 250 L513 250 Q511 274 510 300 Q509 322 508.5 348 Q508 374 508 398 L508 692 L645 692 L645 37 Q645 -26 628 -72.5 Q611 -119 582 -149 Q553 -179 514 -194 Q475 -209 431 -209 Q362 -209 310 -177.5 Q258 -146 232 -100 L354 -9 Z " />
<glyph glyph-name="Oslash" unicode="&#xd8;" horiz-adv-x="725" d="M362 -12 Q274 -12 200 33 L139 -47 L42 28 L110 118 Q78 163 59.5 221 Q41 279 41 348 Q41 432 66 498 Q91 564 134.5 610 Q178 656 236.5 680 Q295 704 362 704 Q406 704 446.5 692.5 Q487 681 522 660 L586 744 L683 669 L614 577 Q647 532 665.5 474.5 Q684 417 684 348 Q684 264 659 197 Q634 130 590.5 83.5 Q547 37 488 12.5 Q429 -12 362 -12 Z M541 348 Q541 415 521 469 L271 135 Q308 110 362 110 Q407 110 441 129 Q475 148 497 181 Q519 214 530 257 Q541 300 541 348 Z M452 558 Q433 569 410.5 575.5 Q388 582 362 582 Q317 582 283.5 563.5 Q250 545 228 513 Q206 481 195 438.5 Q184 396 184 348 Q184 279 203 226 L452 558 Z " />
<glyph glyph-name="Tbar" unicode="&#x166;" horiz-adv-x="575" d="M12 692 L563 692 L563 563 L361 563 L361 384 L479 384 L479 279 L361 279 L361 0 L213 0 L213 279 L96 279 L96 384 L213 384 L213 563 L12 563 L12 692 Z " />
<glyph glyph-name="Thorn" unicode="&#xde;" horiz-adv-x="631" d="M63 692 L210 692 L210 588 L360 588 Q478 588 546 532.5 Q614 477 614 373 Q614 270 546 212 Q478 154 360 154 L210 154 L210 0 L63 0 L63 692 Z M467 373 Q467 462 362 462 L210 462 L210 281 L362 281 Q415 281 441 305.5 Q467 330 467 373 Z " />
<glyph glyph-name="Uogonek" unicode="&#x172;" horiz-adv-x="679" d="M583 -137 Q563 -166 529.5 -187 Q496 -208 446 -208 Q392 -208 357.5 -182.5 Q323 -157 323 -112 Q323 -82 342.5 -56 Q362 -30 380 -13 L380 -9 Q359 -12 339 -12 Q278 -12 226.5 4.5 Q175 21 137.5 57 Q100 93 79 149 Q58 205 58 284 L58 692 L203 692 L203 275 Q203 199 236.5 158 Q270 117 339 117 Q408 117 441.5 158 Q475 199 475 275 L475 692 L621 692 L621 284 Q621 214 606 168 Q591 122 570.5 92 Q550 62 528 43.5 Q506 25 491 12 Q460 -15 438.5 -42 Q417 -69 417 -92 Q417 -109 426.5 -118 Q436 -127 452 -127 Q471 -127 482 -113.5 Q493 -100 497 -85 L583 -137 Z " />
<glyph glyph-name="a" unicode="a" horiz-adv-x="523" d="M262 408 Q218 408 189.5 380.5 Q161 353 150 308 L26 374 Q55 437 117.5 476.5 Q180 516 264 516 Q307 516 344 504.5 Q381 493 408.5 469.5 Q436 446 452 410.5 Q468 375 468 328 L468 127 Q468 87 470 58 Q472 29 480 0 L374 0 Q362 17 356.5 31 Q351 45 346 63 L343 63 Q335 51 323 38 Q311 25 293 14 Q275 3 252 -4.5 Q229 -12 200 -12 Q167 -12 138 -2 Q109 8 87.5 27 Q66 46 53.5 73.5 Q41 101 41 136 Q41 178 58.5 206 Q76 234 103 251.5 Q130 269 163 278.5 Q196 288 226 294 Q278 305 306 316 Q334 327 334 353 Q334 378 313.5 393 Q293 408 262 408 Z M338 247 Q327 233 307.5 224.5 Q288 216 259 208 Q243 204 228 199.5 Q213 195 202 188 Q191 181 184 171 Q177 161 177 146 Q177 123 193.5 108.5 Q210 94 243 94 Q281 94 309.5 118.5 Q338 143 338 190 L338 247 Z " />
<glyph glyph-name="b" unicode="b" horiz-adv-x="572" d="M194 0 L58 0 L58 724 L199 724 L199 545 Q199 521 198 498.5 Q197 476 195 459 Q193 439 192 421 L195 421 Q204 439 218 456.5 Q232 474 250 487 Q268 500 291 508 Q314 516 343 516 Q383 516 419 497.5 Q455 479 482 444.5 Q509 410 524.5 361 Q540 312 540 252 Q540 192 524.5 143 Q509 94 482 59.5 Q455 25 419 6.5 Q383 -12 343 -12 Q314 -12 291.5 -4 Q269 4 251 16.5 Q233 29 220 45 Q207 61 198 78 L194 78 L194 0 Z M195 252 Q195 184 221 142.5 Q247 101 296 101 Q345 101 371 142.5 Q397 184 397 252 Q397 320 371 361.5 Q345 403 296 403 Q247 403 221 361.5 Q195 320 195 252 Z " />
<glyph glyph-name="c" unicode="c" horiz-adv-x="511" d="M272 408 Q246 408 228 396.5 Q210 385 198 364 Q186 343 180.5 314.5 Q175 286 175 252 Q175 218 180.5 189.5 Q186 161 198 140 Q210 119 228 107.5 Q246 96 272 96 Q295 96 312 105.5 Q329 115 339.5 131.5 Q350 148 355 170.5 Q360 193 360 218 L489 152 Q483 122 466 92.5 Q449 63 421.5 39.5 Q394 16 356.5 2 Q319 -12 272 -12 Q220 -12 176 6 Q132 24 100 58.5 Q68 93 50 141.5 Q32 190 32 252 Q32 313 50 362 Q68 411 100 445.5 Q132 480 176 498 Q220 516 272 516 Q319 516 356.5 502 Q394 488 421.5 464.5 Q449 441 466 411.5 Q483 382 489 352 L360 286 Q360 311 355 333.5 Q350 356 339.5 372.5 Q329 389 312 398.5 Q295 408 272 408 Z " />
<glyph glyph-name="d" unicode="d" horiz-adv-x="571" d="M376 83 Q358 46 321.5 17 Q285 -12 228 -12 Q188 -12 152.5 6.5 Q117 25 90 59.5 Q63 94 47.5 143 Q32 192 32 252 Q32 312 47.5 361 Q63 410 90 444.5 Q117 479 152.5 497.5 Q188 516 228 516 Q256 516 279 508.5 Q302 501 319 489 Q336 477 348.5 462.5 Q361 448 369 435 L372 435 L372 724 L513 724 L513 0 L372 0 L380 83 L376 83 Z M276 101 Q324 101 350 142.5 Q376 184 376 252 Q376 320 350 361.5 Q324 403 276 403 Q227 403 201 361.5 Q175 320 175 252 Q175 184 201 142.5 Q227 101 276 101 Z " />
<glyph glyph-name="e" unicode="e" horiz-adv-x="528" d="M165 214 Q170 152 200.5 122 Q231 92 276 92 Q316 92 341.5 115.5 Q367 139 373 175 L492 108 Q479 84 458.5 62 Q438 40 410.5 23.5 Q383 7 349 -2.5 Q315 -12 276 -12 Q223 -12 178.5 6 Q134 24 101.5 58 Q69 92 50.5 141 Q32 190 32 252 Q32 313 50.5 362 Q69 411 101.5 445.5 Q134 480 178 498 Q222 516 273 516 Q324 516 365.5 499 Q407 482 436.5 451 Q466 420 482 377 Q498 334 498 283 Q498 267 497 254.5 Q496 242 494 233 Q492 222 491 214 L165 214 Z M273 414 Q234 414 205 387 Q176 360 168 308 L367 308 Q367 354 341 384 Q315 414 273 414 Z " />
<glyph glyph-name="f" unicode="f" horiz-adv-x="363" d="M286 630 Q260 630 247 611 Q234 592 234 559 L234 504 L344 504 L344 396 L234 396 L234 0 L94 0 L94 396 L17 396 L17 504 L94 504 L94 558 Q94 602 108 635.5 Q122 669 146.5 691.5 Q171 714 205 725 Q239 736 279 736 Q313 736 341 728 Q369 720 391.5 707 Q414 694 430.5 677.5 Q447 661 459 644 L337 569 Q335 592 323.5 611 Q312 630 286 630 Z " />
<glyph glyph-name="g" unicode="g" horiz-adv-x="540" d="M47 349 Q47 386 62.5 417 Q78 448 105.5 470 Q133 492 170.5 504 Q208 516 253 516 Q287 516 309.5 511.5 Q332 507 358 507 Q390 507 403 523.5 Q416 540 416 569 Q416 583 414.5 595.5 Q413 608 411 617 L540 543 Q537 446 451 446 Q441 446 429.5 448 Q418 450 411 452 L411 448 Q432 431 452.5 403.5 Q473 376 473 332 Q473 294 456 264 Q439 234 410 213 Q381 192 342 180.5 Q303 169 258 169 Q237 169 218.5 166 Q200 163 186 157 Q172 151 164 143 Q156 135 156 125 Q156 109 170 102 Q184 95 216 95 Q248 95 283.5 99 Q319 103 361 103 Q443 103 492.5 69 Q542 35 542 -39 Q542 -83 519 -114.5 Q496 -146 457.5 -166 Q419 -186 368 -195 Q317 -204 261 -204 Q209 -204 161.5 -196.5 Q114 -189 77.5 -173.5 Q41 -158 19 -133.5 Q-3 -109 -3 -76 Q-3 -56 6.5 -40 Q16 -24 31 -12 Q46 0 65 8 Q84 16 103 19 L103 22 Q74 31 52.5 50.5 Q31 70 31 102 Q31 123 41 140 Q51 157 67.5 169 Q84 181 105 189 Q126 197 148 202 L148 205 Q107 221 77 255.5 Q47 290 47 349 Z M118 -62 Q118 -89 157.5 -101.5 Q197 -114 259 -114 Q329 -114 367.5 -100 Q406 -86 406 -54 Q406 -29 374 -19.5 Q342 -10 297 -10 Q274 -10 243 -11.5 Q212 -13 184.5 -18.5 Q157 -24 137.5 -34 Q118 -44 118 -62 Z M175 342 Q175 306 200 284.5 Q225 263 261 263 Q297 263 322 284.5 Q347 306 347 342 Q347 378 322 399.5 Q297 421 261 421 Q225 421 200 399.5 Q175 378 175 342 Z " />
<glyph glyph-name="h" unicode="h" horiz-adv-x="559" d="M504 0 L362 0 L362 295 Q362 346 344 371.5 Q326 397 286 397 Q246 397 222.5 370 Q199 343 199 299 L199 0 L58 0 L58 724 L199 724 L199 545 Q199 521 198 498.5 Q197 476 195 459 Q193 439 192 421 L195 421 Q204 438 217.5 455 Q231 472 249 485.5 Q267 499 291 507.5 Q315 516 346 516 Q419 516 461.5 466.5 Q504 417 504 323 L504 0 Z " />
<glyph glyph-name="i" unicode="i" horiz-adv-x="258" d="M58 504 L200 504 L200 0 L58 0 L58 504 Z M130 722 Q165 722 188.5 700 Q212 678 212 643 Q212 608 188.5 586 Q165 564 130 564 Q95 564 71.5 586 Q48 608 48 643 Q48 678 71.5 700 Q95 722 130 722 Z " />
<glyph glyph-name="j" unicode="j" horiz-adv-x="266" d="M-60 -114 Q-25 -107 -1 -96 Q23 -85 38 -67 Q53 -49 59.5 -22.5 Q66 4 66 43 L66 504 L208 504 L208 30 Q208 -64 175.5 -124.5 Q143 -185 63 -208 L-60 -114 Z M138 722 Q173 722 196.5 700 Q220 678 220 643 Q220 608 196.5 586 Q173 564 138 564 Q103 564 79.5 586 Q56 608 56 643 Q56 678 79.5 700 Q103 722 138 722 Z " />
<glyph glyph-name="k" unicode="k" horiz-adv-x="538" d="M359 304 L544 0 L390 0 L266 202 L199 117 L199 0 L58 0 L58 724 L199 724 L199 390 Q199 367 198 344.5 Q197 322 195 305 Q193 285 192 266 L195 266 Q204 281 215 298 Q224 312 234.5 328.5 Q245 345 256 360 L364 504 L529 504 L359 304 Z " />
<glyph glyph-name="l" unicode="l" horiz-adv-x="258" d="M58 724 L200 724 L200 0 L58 0 L58 724 Z " />
<glyph glyph-name="m" unicode="m" horiz-adv-x="828" d="M58 504 L197 504 L190 421 L193 421 Q202 437 215 454 Q228 471 245 485 Q262 499 285 507.5 Q308 516 337 516 Q435 516 465 423 L468 423 Q490 460 526 488 Q562 516 621 516 Q693 516 733 468.5 Q773 421 773 333 L773 0 L634 0 L634 308 Q634 397 564 397 Q526 397 505.5 369.5 Q485 342 485 294 L485 0 L346 0 L346 308 Q346 397 276 397 Q240 397 218.5 372.5 Q197 348 197 303 L197 0 L58 0 L58 504 Z " />
<glyph glyph-name="n" unicode="n" horiz-adv-x="559" d="M504 0 L362 0 L362 295 Q362 346 344 371.5 Q326 397 286 397 Q246 397 222.5 370 Q199 343 199 299 L199 0 L58 0 L58 504 L199 504 L192 421 L195 421 Q204 438 217.5 455 Q231 472 249 485.5 Q267 499 291 507.5 Q315 516 346 516 Q419 516 461.5 466.5 Q504 417 504 323 L504 0 Z " />
<glyph glyph-name="o" unicode="o" horiz-adv-x="551" d="M276 -12 Q224 -12 179.5 6 Q135 24 102 58.5 Q69 93 50.5 141.5 Q32 190 32 252 Q32 313 50.5 362 Q69 411 102 445.5 Q135 480 179.5 498 Q224 516 276 516 Q327 516 371.5 498 Q416 480 449 445.5 Q482 411 500.5 362 Q519 313 519 252 Q519 190 500.5 141.5 Q482 93 449 58.5 Q416 24 371.5 6 Q327 -12 276 -12 Z M175 252 Q175 218 181 189.5 Q187 161 199.5 140 Q212 119 231 107.5 Q250 96 276 96 Q302 96 321 107.5 Q340 119 352 140 Q364 161 370 189.5 Q376 218 376 252 Q376 286 370 314.5 Q364 343 352 364 Q340 385 321 396.5 Q302 408 276 408 Q250 408 231 396.5 Q212 385 199.5 364 Q187 343 181 314.5 Q175 286 175 252 Z " />
<glyph glyph-name="p" unicode="p" horiz-adv-x="572" d="M195 421 Q204 439 218 456.5 Q232 474 250 487 Q268 500 291 508 Q314 516 343 516 Q383 516 419 497.5 Q455 479 482 444.5 Q509 410 524.5 361 Q540 312 540 252 Q540 192 524.5 143 Q509 94 482 59.5 Q455 25 419 6.5 Q383 -12 343 -12 Q314 -12 291.5 -4 Q269 4 252 16 Q235 28 222.5 42.5 Q210 57 201 71 L199 71 L199 -196 L58 -196 L58 504 L199 504 L193 421 L195 421 Z M195 252 Q195 184 221 142.5 Q247 101 296 101 Q345 101 371 142.5 Q397 184 397 252 Q397 320 371 361.5 Q345 403 296 403 Q247 403 221 361.5 Q195 320 195 252 Z " />
<glyph glyph-name="q" unicode="q" horiz-adv-x="572" d="M377 504 L514 504 L514 -196 L372 -196 L372 -41 Q372 -18 373 5 Q374 28 376 45 Q378 65 380 83 L376 83 Q358 46 321.5 17 Q285 -12 228 -12 Q188 -12 152.5 6.5 Q117 25 90 59.5 Q63 94 47.5 143 Q32 192 32 252 Q32 312 47.5 361 Q63 410 90 444.5 Q117 479 152.5 497.5 Q188 516 228 516 Q256 516 279 508 Q302 500 320 487.5 Q338 475 351.5 458.5 Q365 442 374 426 L377 426 L377 504 Z M376 252 Q376 320 350 361.5 Q324 403 276 403 Q227 403 201 361.5 Q175 320 175 252 Q175 184 201 142.5 Q227 101 276 101 Q324 101 350 142.5 Q376 184 376 252 Z " />
<glyph glyph-name="r" unicode="r" horiz-adv-x="445" d="M58 504 L199 504 L192 421 L195 421 Q214 458 244 486 Q274 514 322 514 Q349 514 369.5 503.5 Q390 493 404 475 Q418 457 425 432.5 Q432 408 432 380 Q432 367 431 356.5 Q430 346 429 338 Q428 328 427 321 L300 248 Q302 259 305 282 Q308 305 308 331 Q308 356 297.5 375.5 Q287 395 261 395 Q228 395 213.5 366 Q199 337 199 288 L199 0 L58 0 L58 504 Z " />
<glyph glyph-name="s" unicode="s" horiz-adv-x="504" d="M271 91 Q300 91 319 103.5 Q338 116 338 140 Q338 155 328 165 Q318 175 301.5 182 Q285 189 263 194.5 Q241 200 217 207 Q188 214 158 225.5 Q128 237 103 255 Q78 273 62 299 Q46 325 46 361 Q46 397 62 425.5 Q78 454 105 474 Q132 494 168 505 Q204 516 245 516 Q282 516 317.5 507.5 Q353 499 383.5 483.5 Q414 468 437.5 447 Q461 426 476 401 L355 333 Q346 367 319 390 Q292 413 250 413 Q223 413 203.5 401.5 Q184 390 184 368 Q184 354 195.5 345 Q207 336 226.5 329.5 Q246 323 271.5 317 Q297 311 325 302 Q355 293 382 280.5 Q409 268 430 250.5 Q451 233 463.5 208 Q476 183 476 149 Q476 111 459.5 81 Q443 51 415.5 30.5 Q388 10 351 -1 Q314 -12 273 -12 Q184 -12 118 23 Q52 58 21 118 L144 187 Q156 145 188 118 Q220 91 271 91 Z " />
<glyph glyph-name="t" unicode="t" horiz-adv-x="362" d="M357 32 Q344 20 311.5 4 Q279 -12 235 -12 Q169 -12 129.5 23.5 Q90 59 90 140 L90 396 L9 396 L9 504 L90 504 L90 606 L230 684 L230 504 L344 504 L344 396 L230 396 L230 154 Q230 125 239 113.5 Q248 102 265 102 Q281 102 290 113 Q299 124 304 134 L357 32 Z " />
<glyph glyph-name="u" unicode="u" horiz-adv-x="553" d="M55 504 L196 504 L196 209 Q196 158 213 132.5 Q230 107 270 107 Q310 107 332 133.5 Q354 160 354 204 L354 504 L496 504 L496 0 L354 0 L361 83 L358 83 Q349 66 336 49 Q323 32 305.5 18.5 Q288 5 264.5 -3.5 Q241 -12 210 -12 Q137 -12 96 37.5 Q55 87 55 181 L55 504 Z " />
<glyph glyph-name="v" unicode="v" horiz-adv-x="498" d="M212 284 Q218 260 225 234 Q232 208 237 185 Q243 159 249 133 L252 133 Q258 159 264 185 Q269 208 275.5 234 Q282 260 289 284 L350 504 L495 504 L333 0 L164 0 L2 504 L151 504 L212 284 L212 284 Z " />
<glyph glyph-name="w" unicode="w" horiz-adv-x="746" d="M373 375 Q367 351 362 325 Q357 303 352 277 Q347 251 342 228 L294 0 L122 0 L17 504 L161 504 L191 321 Q195 295 199.5 262.5 Q204 230 209 201 Q214 168 219 134 L222 134 Q228 169 234 202 Q239 231 245 263 Q251 295 257 321 L296 504 L456 504 L495 321 Q500 295 507 263 Q514 231 519 202 Q525 169 531 134 L534 134 Q539 168 544 201 Q549 230 553 262.5 Q557 295 562 321 L591 504 L729 504 L624 0 L456 0 L408 228 Q403 251 397.5 277 Q392 303 387 325 Q382 351 376 375 L373 375 L373 375 Z " />
<glyph glyph-name="x" unicode="x" horiz-adv-x="498" d="M350 259 L495 0 L341 0 L286 107 Q276 125 269.5 140 Q263 155 258 166 Q253 179 249 190 L246 190 Q242 180 237 167 Q232 156 225 140.5 Q218 125 209 107 L154 0 L4 0 L148 260 L16 504 L166 504 L207 414 Q215 394 223 377.5 Q231 361 237 348 Q244 333 249 320 L252 320 Q258 333 264 348 Q269 361 276.5 377.5 Q284 394 293 413 L335 504 L483 504 L350 259 Z " />
<glyph glyph-name="y" unicode="y" horiz-adv-x="495" d="M255 159 Q260 181 266 206 Q271 226 277 251.5 Q283 277 290 300 L347 504 L493 504 L320 -19 Q310 -50 296.5 -79.5 Q283 -109 264 -133.5 Q245 -158 220 -177.5 Q195 -197 162 -208 L48 -116 Q94 -105 131 -79.5 Q168 -54 183 -7 L185 1 L2 504 L154 504 L213 305 Q220 282 226.5 256.5 Q233 231 239 209 Q245 183 252 159 L255 159 Z " />
<glyph glyph-name="z" unicode="z" horiz-adv-x="479" d="M39 504 L439 504 L439 425 L212 108 L450 108 L450 0 L35 0 L35 79 L262 396 L39 396 L39 504 Z " />
<glyph glyph-name="ae" unicode="&#xe6;" horiz-adv-x="804" d="M257 408 Q215 408 187.5 381 Q160 354 150 309 L26 375 Q55 437 115 476.5 Q175 516 257 516 Q304 516 342.5 500 Q381 484 407 452 Q437 483 476 499.5 Q515 516 561 516 Q610 516 649 499 Q688 482 716 451 Q744 420 759 377 Q774 334 774 283 Q774 267 773 254.5 Q772 242 770 233 Q768 222 767 214 L456 214 Q460 152 488 122 Q516 92 560 92 Q598 92 620.5 115.5 Q643 139 649 175 L768 108 Q755 84 735.5 62 Q716 40 690 23.5 Q664 7 631.5 -2.5 Q599 -12 560 -12 Q505 -12 460.5 9 Q416 30 386 71 Q363 38 319 13 Q275 -12 212 -12 Q176 -12 144 -2 Q112 8 88.5 27 Q65 46 51.5 73.5 Q38 101 38 136 Q38 178 55.5 206 Q73 234 99.5 251.5 Q126 269 158 278.5 Q190 288 220 294 Q271 305 297 316 Q323 327 323 353 Q323 378 304.5 393 Q286 408 257 408 Z M556 414 Q518 414 492 387 Q466 360 458 308 L643 308 Q643 354 620 384 Q597 414 556 414 Z M327 245 Q318 234 298.5 225.5 Q279 217 251 209 Q236 205 222 200.5 Q208 196 197 189 Q186 182 179.5 172 Q173 162 173 147 Q173 124 190 109 Q207 94 239 94 Q274 94 300.5 119 Q327 144 327 191 L327 245 Z " />
<glyph glyph-name="oe" unicode="&#x153;" horiz-adv-x="836" d="M268 -12 Q218 -12 174.5 6 Q131 24 99.5 58.5 Q68 93 50 141.5 Q32 190 32 252 Q32 313 50 362 Q68 411 99.5 445.5 Q131 480 174.5 498 Q218 516 268 516 Q317 516 358 496 Q399 476 428 438 Q458 475 500.5 495.5 Q543 516 594 516 Q642 516 681.5 499 Q721 482 749 451 Q777 420 792 377 Q807 334 807 283 Q807 267 806 254.5 Q805 242 803 233 Q801 222 799 214 L488 214 Q492 152 520.5 122 Q549 92 592 92 Q630 92 653 115.5 Q676 139 681 175 L801 108 Q788 84 768 62 Q748 40 722 23.5 Q696 7 663.5 -2.5 Q631 -12 592 -12 Q487 -12 425 62 Q396 26 356 7 Q316 -12 268 -12 Z M175 252 Q175 218 180.5 189.5 Q186 161 197.5 140 Q209 119 226.5 107.5 Q244 96 268 96 Q292 96 309.5 107.5 Q327 119 338 140 Q349 161 354.5 189.5 Q360 218 360 252 Q360 286 354.5 314.5 Q349 343 338 364 Q327 385 309.5 396.5 Q292 408 268 408 Q244 408 226.5 396.5 Q209 385 197.5 364 Q186 343 180.5 314.5 Q175 286 175 252 Z M589 414 Q551 414 525 387 Q499 360 491 308 L675 308 Q675 354 652 384 Q629 414 589 414 Z " />
<glyph glyph-name="germandbls" unicode="&#xdf;" horiz-adv-x="570" d="M281 457 Q320 469 342 494.5 Q364 520 364 553 Q364 587 344 607.5 Q324 628 287 628 Q249 628 224 602 Q199 576 199 523 L199 0 L58 0 L58 516 Q58 574 76.5 615.5 Q95 657 126 684 Q157 711 198.5 723.5 Q240 736 287 736 Q335 736 373.5 724 Q412 712 439 690.5 Q466 669 481 639.5 Q496 610 496 575 Q496 546 487.5 523 Q479 500 465 482.5 Q451 465 434 452.5 Q417 440 399 432 L399 429 Q428 420 453.5 403 Q479 386 498.5 360.5 Q518 335 529 300.5 Q540 266 540 223 Q540 111 491.5 49.5 Q443 -12 352 -12 Q309 -12 275.5 1 Q242 14 225 29 L270 135 Q278 124 292 112.5 Q306 101 328 101 Q365 101 381.5 131 Q398 161 398 223 Q398 284 373.5 316 Q349 348 281 353 L281 457 Z " />
<glyph glyph-name="dotlessi" unicode="&#x131;" horiz-adv-x="258" d="M58 504 L200 504 L200 0 L58 0 L58 504 Z " />
<glyph glyph-name="dotlessj" unicode="&#x237;" horiz-adv-x="266" d="M-60 -114 Q-25 -107 -1 -96 Q23 -85 38 -67 Q53 -49 59.5 -22.5 Q66 4 66 43 L66 504 L208 504 L208 30 Q208 -64 175.5 -124.5 Q143 -185 63 -208 L-60 -114 Z " />
<glyph glyph-name="eth" unicode="&#xf0;" horiz-adv-x="562" d="M409 609 Q463 552 494.5 476.5 Q526 401 526 303 Q526 226 508.5 167 Q491 108 458.5 68 Q426 28 380.5 8 Q335 -12 278 -12 Q226 -12 181 5 Q136 22 103 54 Q70 86 51 131 Q32 176 32 232 Q32 289 50.5 332.5 Q69 376 99 405.5 Q129 435 167 450.5 Q205 466 245 466 Q267 466 288 460.5 Q309 455 327.5 445.5 Q346 436 360.5 423.5 Q375 411 384 398 L388 399 Q378 444 357 481 Q336 518 306 547 L203 485 L141 556 L226 608 Q201 623 175 636 Q149 649 122 660 L232 736 Q260 723 285.5 707.5 Q311 692 335 675 L419 727 L482 653 L409 609 Z M170 230 Q170 171 198.5 134 Q227 97 278 97 Q329 97 357 134 Q385 171 385 231 Q385 290 357 325 Q329 360 278 360 Q227 360 198.5 325 Q170 290 170 230 Z " />
<glyph glyph-name="dcroat" unicode="&#x111;" horiz-adv-x="590" d="M376 83 Q358 46 321.5 17 Q285 -12 228 -12 Q188 -12 152.5 6.5 Q117 25 90 59.5 Q63 94 47.5 143 Q32 192 32 252 Q32 312 47.5 361 Q63 410 90 444.5 Q117 479 152.5 497.5 Q188 516 228 516 Q256 516 279 508.5 Q302 501 319 489 Q336 477 348.5 462.5 Q361 448 369 435 L372 435 L372 548 L271 548 L271 645 L372 645 L372 724 L510 724 L510 645 L594 645 L594 548 L510 548 L510 0 L372 0 L380 83 L376 83 Z M276 101 Q324 101 350 142.5 Q376 184 376 252 Q376 320 350 361.5 Q324 403 276 403 Q227 403 201 361.5 Q175 320 175 252 Q175 184 201 142.5 Q227 101 276 101 Z " />
<glyph glyph-name="dcaron" unicode="&#x10f;" horiz-adv-x="738" d="M376 83 Q358 46 321.5 17 Q285 -12 228 -12 Q188 -12 152.5 6.5 Q117 25 90 59.5 Q63 94 47.5 143 Q32 192 32 252 Q32 312 47.5 361 Q63 410 90 444.5 Q117 479 152.5 497.5 Q188 516 228 516 Q256 516 279 508.5 Q302 501 319 489 Q336 477 348.5 462.5 Q361 448 369 435 L372 435 L372 724 L513 724 L513 0 L372 0 L380 83 L376 83 Z M276 101 Q324 101 350 142.5 Q376 184 376 252 Q376 320 350 361.5 Q324 403 276 403 Q227 403 201 361.5 Q175 320 175 252 Q175 184 201 142.5 Q227 101 276 101 Z M572 562 Q584 565 597 569 Q610 573 621.5 580 Q633 587 641 597.5 Q649 608 652 623 L645 623 Q620 623 602 637.5 Q584 652 584 679 Q584 707 602 721 Q620 735 647 735 Q680 735 701.5 711 Q723 687 723 647 Q723 602 702.5 568.5 Q682 535 651 518 L572 562 L572 562 Z " />
<glyph glyph-name="hbar" unicode="&#x127;" horiz-adv-x="570" d="M-6 645 L69 645 L69 724 L208 724 L208 645 L317 645 L317 548 L208 548 L208 535 Q208 513 207.5 493 Q207 473 206 457 Q205 439 204 421 L207 421 Q216 438 229.5 455 Q243 472 261 485.5 Q279 499 303 507.5 Q327 516 358 516 Q431 516 473.5 466.5 Q516 417 516 323 L516 0 L374 0 L374 295 Q374 346 356 371.5 Q338 397 298 397 Q258 397 234.5 370 Q211 343 211 299 L211 0 L69 0 L69 548 L-6 548 L-6 645 Z " />
<glyph glyph-name="ij" unicode="&#x133;" horiz-adv-x="516" d="M58 504 L200 504 L200 0 L58 0 L58 504 Z M190 -114 Q225 -107 249 -96 Q273 -85 288 -67 Q303 -49 309.5 -22.5 Q316 4 316 43 L316 504 L458 504 L458 30 Q458 -64 425.5 -124.5 Q393 -185 313 -208 L190 -114 Z M130 722 Q165 722 188.5 700 Q212 678 212 643 Q212 608 188.5 586 Q165 564 130 564 Q95 564 71.5 586 Q48 608 48 643 Q48 678 71.5 700 Q95 722 130 722 Z M387 722 Q422 722 445.5 700 Q469 678 469 643 Q469 608 445.5 586 Q422 564 387 564 Q352 564 328.5 586 Q305 608 305 643 Q305 678 328.5 700 Q352 722 387 722 Z " />
<glyph glyph-name="lslash" unicode="&#x142;" horiz-adv-x="403" d="M268 303 L268 0 L129 0 L129 233 L48 192 L2 288 L129 352 L129 724 L268 724 L268 422 L359 468 L405 372 L268 303 Z " />
<glyph glyph-name="ldot" unicode="&#x140;" horiz-adv-x="457" d="M58 724 L200 724 L200 0 L58 0 L58 724 Z M351 385 Q386 385 409.5 363 Q433 341 433 306 Q433 271 409.5 249 Q386 227 351 227 Q316 227 292.5 249 Q269 271 269 306 Q269 341 292.5 363 Q316 385 351 385 Z " />
<glyph glyph-name="lcaron" unicode="&#x13e;" horiz-adv-x="426" d="M58 724 L200 724 L200 0 L58 0 L58 724 Z M259 562 Q271 565 284 569 Q297 573 308.5 580 Q320 587 328 597.5 Q336 608 339 623 L332 623 Q307 623 289 637.5 Q271 652 271 679 Q271 707 289 721 Q307 735 334 735 Q367 735 388.5 711 Q410 687 410 647 Q410 602 389.5 568.5 Q369 535 338 518 L259 562 L259 562 Z " />
<glyph glyph-name="eng" unicode="&#x14b;" horiz-adv-x="559" d="M234 -116 Q268 -109 292.5 -97.5 Q317 -86 332.5 -68 Q348 -50 355 -23.5 Q362 3 362 42 L362 295 Q362 346 344 371.5 Q326 397 286 397 Q244 397 221.5 367.5 Q199 338 199 290 L199 0 L58 0 L58 504 L199 504 L192 421 L195 421 Q204 438 217.5 455 Q231 472 249 485.5 Q267 499 291 507.5 Q315 516 346 516 Q419 516 461.5 466.5 Q504 417 504 323 L504 38 Q504 -9 496.5 -48.5 Q489 -88 471 -119.5 Q453 -151 423.5 -173 Q394 -195 350 -208 L234 -116 Z " />
<glyph glyph-name="oslash" unicode="&#xf8;" horiz-adv-x="563" d="M281 -12 Q218 -12 168 14 L124 -43 L34 25 L83 88 Q61 120 49.5 161 Q38 202 38 252 Q38 313 56.5 362 Q75 411 108 445.5 Q141 480 185.5 498 Q230 516 281 516 Q342 516 394 490 L440 550 L530 482 L479 416 Q501 384 513 342.5 Q525 301 525 252 Q525 190 506.5 141.5 Q488 93 455 58.5 Q422 24 377.5 6 Q333 -12 281 -12 Z M224 104 Q246 91 281 91 Q311 91 333 103 Q355 115 369.5 136.5 Q384 158 390.5 187.5 Q397 217 397 252 Q397 292 390 320 L224 104 Z M165 252 Q165 213 172 185 L338 399 Q313 413 281 413 Q251 413 229 401 Q207 389 193 367.5 Q179 346 172 316.5 Q165 287 165 252 Z " />
<glyph glyph-name="longs" unicode="&#x17f;" horiz-adv-x="265" d="M252 630 Q226 630 213 611 Q200 592 200 559 L200 0 L58 0 L58 558 Q58 602 72 635.5 Q86 669 111 691.5 Q136 714 170.5 725 Q205 736 245 736 Q279 736 307 728 Q335 720 357.5 707 Q380 694 396.5 677.5 Q413 661 425 644 L303 569 Q301 592 289.5 611 Q278 630 252 630 Z " />
<glyph glyph-name="thorn" unicode="&#xfe;" horiz-adv-x="572" d="M199 71 L199 -196 L58 -196 L58 724 L199 724 L199 545 Q199 521 198 498.5 Q197 476 195 459 Q193 439 192 421 L195 421 Q204 439 218 456.5 Q232 474 250 487 Q268 500 291 508 Q314 516 343 516 Q383 516 419 497.5 Q455 479 482 444.5 Q509 410 524.5 361 Q540 312 540 252 Q540 192 524.5 143 Q509 94 482 59.5 Q455 25 419 6.5 Q383 -12 343 -12 Q314 -12 291.5 -4 Q269 4 252 16 Q235 28 222.5 42.5 Q210 57 201 71 L199 71 Z M195 252 Q195 184 221 142.5 Q247 101 296 101 Q345 101 371 142.5 Q397 184 397 252 Q397 320 371 361.5 Q345 403 296 403 Q247 403 221 361.5 Q195 320 195 252 Z " />
<glyph glyph-name="tcaron" unicode="&#x165;" horiz-adv-x="507" d="M357 32 Q344 20 311.5 4 Q279 -12 235 -12 Q169 -12 129.5 23.5 Q90 59 90 140 L90 396 L9 396 L9 504 L90 504 L90 606 L230 684 L230 504 L344 504 L344 396 L230 396 L230 154 Q230 125 239 113.5 Q248 102 265 102 Q281 102 290 113 Q299 124 304 134 L357 32 Z M359 545 Q371 548 384 552 Q397 556 408.5 563 Q420 570 428 580.5 Q436 591 439 606 L432 606 Q407 606 389 620.5 Q371 635 371 662 Q371 690 389 704 Q407 718 434 718 Q467 718 488.5 694 Q510 670 510 630 Q510 585 489.5 551.5 Q469 518 438 501 L359 545 L359 545 Z " />
<glyph glyph-name="tbar" unicode="&#x167;" horiz-adv-x="397" d="M24 324 L115 324 L115 400 L34 400 L34 504 L115 504 L115 606 L252 683 L252 504 L369 504 L369 400 L252 400 L252 324 L375 324 L375 227 L252 227 L252 154 Q252 125 261 113.5 Q270 102 287 102 Q303 102 312 113 Q321 124 326 134 L379 32 Q366 20 335 4 Q304 -12 260 -12 Q194 -12 154.5 23.5 Q115 59 115 140 L115 227 L24 227 L24 324 Z " />
<glyph glyph-name="eogonek" unicode="&#x119;" horiz-adv-x="528" d="M498 -136 Q478 -165 445 -186.5 Q412 -208 362 -208 Q308 -208 273.5 -182.5 Q239 -157 239 -112 Q239 -82 257.5 -56.5 Q276 -31 294 -14 L294 -11 Q289 -12 285 -12 Q281 -12 276 -12 Q223 -12 178.5 6 Q134 24 101.5 58 Q69 92 50.5 141 Q32 190 32 252 Q32 313 50.5 362 Q69 411 101.5 445.5 Q134 480 178 498 Q222 516 273 516 Q324 516 365.5 499 Q407 482 436.5 451 Q466 420 482 377 Q498 334 498 283 Q498 267 497 254.5 Q496 242 494 233 Q492 222 491 214 L165 214 Q170 152 200.5 122 Q231 92 276 92 Q316 92 341.5 115.5 Q367 139 373 175 L491 109 Q477 80 455.5 58.5 Q434 37 407 13 Q375 -13 354 -41 Q333 -69 333 -92 Q333 -109 342.5 -118 Q352 -127 368 -127 Q387 -127 398 -113.5 Q409 -100 413 -85 L498 -136 Z M273 414 Q234 414 205 387 Q176 360 168 308 L367 308 Q367 354 341 384 Q315 414 273 414 Z " />
<glyph glyph-name="uniFB00" unicode="&#xfb00;" horiz-adv-x="706" d="M629 630 Q603 630 590 611 Q577 592 577 559 L577 504 L687 504 L687 396 L577 396 L577 0 L437 0 L437 396 L370 396 L370 504 L437 504 L437 558 Q437 602 451 635.5 Q465 669 489.5 691.5 Q514 714 548 725 Q582 736 622 736 Q656 736 684 728.5 Q712 721 734.5 708 Q757 695 773.5 679 Q790 663 802 646 L680 570 Q678 593 666.5 611.5 Q655 630 629 630 Z M284 630 Q257 630 245.5 611 Q234 592 234 558 L234 504 L328 504 L328 396 L234 396 L234 0 L94 0 L94 396 L17 396 L17 504 L94 504 L94 558 Q94 602 107.5 635.5 Q121 669 145.5 691.5 Q170 714 203.5 725 Q237 736 277 736 Q305 736 328.5 730 Q352 724 370.5 714 Q389 704 403 692.5 Q417 681 427 671 L337 575 Q334 594 323 612 Q312 630 284 630 Z " />
<glyph glyph-name="fi" unicode="&#xfb01;" horiz-adv-x="584" d="M94 396 L17 396 L17 504 L94 504 L94 522 Q94 582 113 623 Q132 664 162.5 689 Q193 714 232.5 725 Q272 736 314 736 Q386 736 435.5 708.5 Q485 681 518 638 L386 556 Q375 627 313 627 Q279 627 256.5 604 Q234 581 234 522 L234 504 L334 504 L334 396 L234 396 L234 0 L94 0 L94 396 Z M383 504 L526 504 L526 0 L383 0 L383 504 Z " />
<glyph glyph-name="fl" unicode="&#xfb02;" horiz-adv-x="589" d="M389 549 Q387 591 366 609.5 Q345 628 314 628 Q275 628 254.5 606.5 Q234 585 234 535 L234 504 L334 504 L334 396 L234 396 L234 0 L94 0 L94 396 L17 396 L17 504 L94 504 L94 550 Q94 596 108 631 Q122 666 145 689.5 Q168 713 199 724.5 Q230 736 264 736 Q291 736 311.5 730.5 Q332 725 347 716 Q362 707 372.5 696.5 Q383 686 390 676 L393 676 L393 724 L532 724 L532 0 L389 0 L389 549 Z " />
<glyph glyph-name="uniFB03" unicode="&#xfb03;" horiz-adv-x="980" d="M284 630 Q257 630 245.5 611 Q234 592 234 558 L234 504 L328 504 L328 396 L234 396 L234 0 L94 0 L94 396 L17 396 L17 504 L94 504 L94 558 Q94 602 107.5 635.5 Q121 669 145.5 691.5 Q170 714 203.5 725 Q237 736 277 736 Q305 736 328.5 730 Q352 724 370.5 714 Q389 704 403 692.5 Q417 681 427 671 L337 575 Q334 594 323 612 Q312 630 284 630 Z M625 626 Q599 626 588 608 Q577 590 577 559 L577 504 L687 504 L687 396 L577 396 L577 0 L437 0 L437 396 L370 396 L370 504 L437 504 L437 558 Q437 647 486.5 691.5 Q536 736 614 736 Q659 736 692 719 Q725 702 741 684 L681 576 Q676 593 663 609.5 Q650 626 625 626 Z M780 504 L922 504 L922 0 L780 0 L780 504 Z M851 722 Q886 722 909.5 700 Q933 678 933 643 Q933 608 909.5 586 Q886 564 851 564 Q816 564 792.5 586 Q769 608 769 643 Q769 678 792.5 700 Q816 722 851 722 Z " />
<glyph glyph-name="uniFB04" unicode="&#xfb04;" horiz-adv-x="980" d="M284 630 Q257 630 245.5 611 Q234 592 234 558 L234 504 L328 504 L328 396 L234 396 L234 0 L94 0 L94 396 L17 396 L17 504 L94 504 L94 558 Q94 602 107.5 635.5 Q121 669 145.5 691.5 Q170 714 203.5 725 Q237 736 277 736 Q305 736 328.5 730 Q352 724 370.5 714 Q389 704 403 692.5 Q417 681 427 671 L337 575 Q334 594 323 612 Q312 630 284 630 Z M625 626 Q599 626 588 608 Q577 590 577 559 L577 504 L687 504 L687 396 L577 396 L577 0 L437 0 L437 396 L370 396 L370 504 L437 504 L437 558 Q437 647 486.5 691.5 Q536 736 614 736 Q659 736 692 719 Q725 702 741 684 L681 576 Q676 593 663 609.5 Q650 626 625 626 Z M780 724 L922 724 L922 0 L780 0 L780 724 Z " />
<glyph glyph-name="grave" unicode="&#x60;" horiz-adv-x="551" d="M277 551 Q256 561 232 575.5 Q208 590 185 607.5 Q162 625 141 645 Q120 665 104 687 L209 764 Q219 743 234 720 Q249 697 266.5 675 Q284 653 303.5 633 Q323 613 342 597 L277 551 Z " />
<glyph glyph-name="acute" unicode="&#xb4;" horiz-adv-x="551" d="M209 597 Q228 613 247.5 633 Q267 653 284.5 675 Q302 697 316.5 720 Q331 743 342 764 L447 687 Q431 665 410 645 Q389 625 366 607.5 Q343 590 319 575.5 Q295 561 274 551 L209 597 Z " />
<glyph glyph-name="hungarumlaut" unicode="&#x2dd;" horiz-adv-x="551" d="M118 597 Q136 613 154 633.5 Q172 654 188 676 Q204 698 218 721 Q232 744 242 765 L341 688 Q310 645 266 608.5 Q222 572 180 551 L118 597 Z M311 597 Q330 613 348.5 633.5 Q367 654 383.5 676 Q400 698 414.5 721 Q429 744 439 765 L538 688 Q506 645 461 608.5 Q416 572 374 551 L311 597 Z " />
<glyph glyph-name="dotaccent" unicode="&#x2d9;" horiz-adv-x="551" d="M276 722 Q311 722 334.5 700 Q358 678 358 643 Q358 608 334.5 586 Q311 564 276 564 Q241 564 217.5 586 Q194 608 194 643 Q194 678 217.5 700 Q241 722 276 722 Z " />
<glyph glyph-name="dieresis" unicode="&#xa8;" horiz-adv-x="551" d="M176 714 Q209 714 230.5 692.5 Q252 671 252 639 Q252 606 230.5 585 Q209 564 176 564 Q144 564 122.5 585 Q101 606 101 639 Q101 671 122.5 692.5 Q144 714 176 714 Z M375 714 Q408 714 429.5 692.5 Q451 671 451 639 Q451 606 429.5 585 Q408 564 375 564 Q343 564 321.5 585 Q300 606 300 639 Q300 671 321.5 692.5 Q343 714 375 714 Z " />
<glyph glyph-name="circumflex" unicode="&#x2c6;" horiz-adv-x="551" d="M274 628 Q253 603 223.5 580 Q194 557 159 542 L93 629 Q137 646 171 667 Q205 688 232 718 L319 718 Q346 688 380 667 Q414 646 458 629 L393 542 Q357 557 327.5 580 Q298 603 277 628 L274 628 Z " />
<glyph glyph-name="caron" unicode="&#x2c7;" horiz-adv-x="551" d="M277 650 Q298 674 327.5 697.5 Q357 721 393 736 L458 649 Q414 631 380 610.5 Q346 590 319 559 L232 559 Q205 590 171 610.5 Q137 631 93 649 L159 736 Q194 721 223.5 697.5 Q253 674 274 650 L277 650 Z " />
<glyph glyph-name="macron" unicode="&#xaf;" horiz-adv-x="551" d="M137 687 L415 687 L415 580 L137 580 L137 687 Z " />
<glyph glyph-name="tilde" unicode="&#x2dc;" horiz-adv-x="551" d="M350 560 Q326 560 307.5 568 Q289 576 273.5 585.5 Q258 595 245 603 Q232 611 219 611 Q202 611 196 596 Q190 581 188 561 L98 610 Q101 632 109.5 651.5 Q118 671 131.5 685.5 Q145 700 163 708 Q181 716 201 716 Q225 716 244 708 Q263 700 278.5 691 Q294 682 307 674 Q320 666 332 666 Q349 666 355.5 680.5 Q362 695 364 716 L454 667 Q448 621 420 590.5 Q392 560 350 560 Z " />
<glyph glyph-name="breve" unicode="&#x2d8;" horiz-adv-x="551" d="M276 554 Q213 554 168.5 588 Q124 622 114 686 L221 719 Q220 717 220 715 L220 708 Q220 681 233.5 663.5 Q247 646 276 646 Q305 646 318 663.5 Q331 681 331 708 Q331 709 330.5 711 Q330 713 330 715 L330 719 L437 686 Q428 622 383 588 Q338 554 276 554 Z " />
<glyph glyph-name="ring" unicode="&#x2da;" horiz-adv-x="551" d="M276 702 Q257 702 245.5 690 Q234 678 234 659 Q234 640 245.5 628 Q257 616 276 616 Q294 616 305.5 628 Q317 640 317 659 Q317 678 305.5 690 Q294 702 276 702 Z M276 769 Q300 769 322 761 Q344 753 360.5 738.5 Q377 724 387 704 Q397 684 397 659 Q397 634 387 614 Q377 594 360.5 579.5 Q344 565 322 557 Q300 549 276 549 Q252 549 230 557 Q208 565 191.5 579.5 Q175 594 165 614 Q155 634 155 659 Q155 684 165 704 Q175 724 191.5 738.5 Q208 753 230 761 Q252 769 276 769 Z " />
<glyph glyph-name="caronquoteleft" unicode="&#x312;" horiz-adv-x="551" d="M352 721 Q340 718 327 714 Q314 710 302.5 703 Q291 696 282.5 685.5 Q274 675 271 660 Q274 661 280 661 Q304 661 322.5 646.5 Q341 632 341 604 Q341 576 322.5 562 Q304 548 277 548 Q244 548 222.5 572.5 Q201 597 201 636 Q201 681 222 714.5 Q243 748 273 766 L352 721 L352 721 Z " />
<glyph glyph-name="caronquoteright" unicode="&#x313;" horiz-adv-x="551" d="M199 588 Q211 591 224 595 Q237 599 248.5 606 Q260 613 268 623.5 Q276 634 279 649 L272 649 Q247 649 229 663.5 Q211 678 211 705 Q211 733 229 747 Q247 761 274 761 Q307 761 328.5 737 Q350 713 350 673 Q350 628 329.5 594.5 Q309 561 278 544 L199 588 L199 588 Z " />
<glyph glyph-name="uni0326" unicode="&#x326;" horiz-adv-x="551" d="M201 -220 Q213 -217 226 -213 Q239 -209 250.5 -202 Q262 -195 270.5 -184.5 Q279 -174 282 -158 Q279 -159 274 -159 Q249 -159 231 -145 Q213 -131 213 -103 Q213 -75 231 -61 Q249 -47 277 -47 Q310 -47 331 -71 Q352 -95 352 -135 Q352 -180 331.5 -213.5 Q311 -247 280 -264 L201 -220 L201 -220 Z " />
<glyph glyph-name="cedilla" unicode="&#xb8;" horiz-adv-x="551" d="M318 9 L306 -32 Q342 -36 369.5 -57.5 Q397 -79 397 -117 Q397 -139 387 -156 Q377 -173 360.5 -184.5 Q344 -196 322.5 -202 Q301 -208 279 -208 Q241 -208 210.5 -194 Q180 -180 160 -155 L227 -106 Q236 -125 248.5 -136 Q261 -147 281 -147 Q295 -147 305.5 -139.5 Q316 -132 316 -116 Q316 -102 305.5 -94 Q295 -86 281 -86 Q271 -86 263 -90 Q259 -92 256 -93 L209 -56 L248 15 L318 9 Z " />
<glyph glyph-name="ogonek" unicode="&#x2db;" horiz-adv-x="551" d="M437 -140 Q415 -169 380 -188.5 Q345 -208 300 -208 Q246 -208 212.5 -181.5 Q179 -155 179 -112 Q179 -94 185.5 -79 Q192 -64 202.5 -51 Q213 -38 226 -27 Q239 -16 251 -8 L296 23 L382 0 L336 -28 Q313 -42 293 -60 Q273 -78 273 -97 Q273 -127 307 -127 Q324 -127 335 -116 Q346 -105 351 -88 L437 -140 Z " />
<glyph glyph-name="zero" unicode="0" horiz-adv-x="618" d="M188 348 Q188 304 194 262 Q200 220 214 187 Q228 154 251 134 Q274 114 309 114 Q344 114 367.5 134 Q391 154 405 187 Q419 220 425 262 Q431 304 431 348 Q431 392 425 433.5 Q419 475 405 507 Q391 539 367.5 558.5 Q344 578 309 578 Q274 578 251 558.5 Q228 539 214 507 Q200 475 194 433.5 Q188 392 188 348 Z M38 348 Q38 434 57.5 500.5 Q77 567 113 612 Q149 657 199 680.5 Q249 704 309 704 Q370 704 420 680.5 Q470 657 506 612 Q542 567 561.5 500.5 Q581 434 581 348 Q581 262 561.5 195 Q542 128 506 82 Q470 36 420 12 Q370 -12 309 -12 Q249 -12 199 12 Q149 36 113 82 Q77 128 57.5 195 Q38 262 38 348 Z " />
<glyph glyph-name="one" unicode="1" horiz-adv-x="385" d="M176 518 Q158 495 125.5 475.5 Q93 456 61 448 L2 571 Q65 586 120 618 Q175 650 210 692 L318 692 L318 0 L175 0 L175 413 Q175 431 175.5 450 Q176 469 177 484 Q178 502 179 518 L176 518 Z " />
<glyph glyph-name="two" unicode="2" horiz-adv-x="546" d="M48 419 Q45 428 43 439 Q38 459 38 487 Q38 538 57 578 Q76 618 108.5 646 Q141 674 185 689 Q229 704 279 704 Q328 704 371 689.5 Q414 675 445.5 647.5 Q477 620 495 580.5 Q513 541 513 492 Q513 441 494 398 Q475 355 446 320 Q417 285 382.5 256.5 Q348 228 317 205 Q286 182 263 163.5 Q240 145 234 130 L234 128 L512 128 L512 0 L58 0 Q57 4 56 10 Q55 15 55 21.5 Q55 28 55 36 Q55 87 78.5 128 Q102 169 136.5 205 Q171 241 212 273.5 Q253 306 287.5 339 Q322 372 345.5 407 Q369 442 369 483 Q369 527 344.5 553.5 Q320 580 277 580 Q229 580 202.5 547 Q176 514 176 457 Q176 422 182.5 396 Q189 370 194 353 L48 419 Z " />
<glyph glyph-name="three" unicode="3" horiz-adv-x="543" d="M271 -12 Q222 -12 181 1 Q140 14 108 36 Q76 58 53.5 88 Q31 118 21 153 L156 227 Q163 177 190.5 144.5 Q218 112 269 112 Q318 112 345 143.5 Q372 175 372 224 Q372 272 343 303 Q314 334 265 334 Q230 334 203.5 321.5 Q177 309 155 295 L106 414 L293 567 L48 567 L48 692 L494 692 L494 589 L364 486 Q350 475 334 464.5 Q318 454 304 445 Q287 434 270 425 L272 422 Q277 423 283 424 Q288 425 294 425.5 Q300 426 306 426 Q349 426 387 411.5 Q425 397 453 370 Q481 343 497 304.5 Q513 266 513 218 Q513 167 494.5 124.5 Q476 82 443.5 52 Q411 22 367 5 Q323 -12 271 -12 Z " />
<glyph glyph-name="four" unicode="4" horiz-adv-x="572" d="M57 174 L25 261 Q52 307 73.5 356 Q95 405 111 459 Q127 513 135.5 573.5 Q144 634 146 704 L281 636 Q279 579 268.5 531 Q258 483 242 441.5 Q226 400 207 364.5 Q188 329 168 297 L332 297 L332 692 L472 692 L472 297 L553 297 L553 174 L472 174 L472 0 L332 0 L332 174 L57 174 Z " />
<glyph glyph-name="five" unicode="5" horiz-adv-x="552" d="M277 -12 Q228 -12 187 1 Q146 14 114.5 36 Q83 58 61 88 Q39 118 29 153 L164 227 Q170 179 196.5 145.5 Q223 112 274 112 Q299 112 319 122.5 Q339 133 352 150.5 Q365 168 372 191.5 Q379 215 379 241 Q379 267 372 290 Q365 313 351.5 330 Q338 347 319 356.5 Q300 366 276 366 Q234 366 209.5 342 Q185 318 174 287 L50 344 L93 692 L476 692 L476 567 L208 567 L199 498 Q197 481 194.5 466.5 Q192 452 190 441 Q187 428 184 416 L185 416 Q204 438 236.5 455.5 Q269 473 316 473 Q358 473 395 457.5 Q432 442 460 412 Q488 382 504.5 339 Q521 296 521 241 Q521 184 502.5 137.5 Q484 91 451.5 57.5 Q419 24 374.5 6 Q330 -12 277 -12 Z " />
<glyph glyph-name="six" unicode="6" horiz-adv-x="572" d="M318 704 Q355 704 388.5 694 Q422 684 450 666 Q478 648 499.5 623.5 Q521 599 536 571 L408 495 Q403 533 381.5 558.5 Q360 584 318 584 Q288 584 263.5 569.5 Q239 555 220.5 529 Q202 503 190.5 466.5 Q179 430 174 385 L177 385 Q200 421 240.5 443 Q281 465 327 465 Q368 465 406.5 449.5 Q445 434 475 405 Q505 376 523.5 334 Q542 292 542 238 Q542 182 523 136 Q504 90 471 57 Q438 24 393 6 Q348 -12 296 -12 Q175 -12 106.5 72.5 Q38 157 38 322 Q38 406 56.5 476 Q75 546 110.5 597 Q146 648 198 676 Q250 704 318 704 Z M406 231 Q406 285 377 321.5 Q348 358 295 358 Q242 358 212 321.5 Q182 285 182 231 Q182 204 190 181 Q198 158 213 141 Q228 124 249 114 Q270 104 296 104 Q349 104 377.5 140.5 Q406 177 406 231 Z " />
<glyph glyph-name="seven" unicode="7" horiz-adv-x="521" d="M514 603 Q436 454 391 305 Q346 156 327 0 L166 0 Q176 76 196.5 153.5 Q217 231 243 304 Q269 377 299.5 443 Q330 509 359 564 L156 564 L156 406 L22 474 L22 692 L514 692 L514 603 Z " />
<glyph glyph-name="eight" unicode="8" horiz-adv-x="581" d="M291 -12 Q237 -12 189.5 2 Q142 16 106.5 43 Q71 70 51 108 Q31 146 31 194 Q31 235 45.5 265 Q60 295 81 316 Q102 337 126.5 350 Q151 363 171 370 L171 373 Q151 380 131 391.5 Q111 403 94.5 421 Q78 439 67.5 464 Q57 489 57 521 Q57 563 75 596.5 Q93 630 124.5 654 Q156 678 198.5 691 Q241 704 291 704 Q341 704 384 691 Q427 678 458 654 Q489 630 506.5 596.5 Q524 563 524 521 Q524 489 513.5 464 Q503 439 486.5 421 Q470 403 450 391.5 Q430 380 411 373 L411 370 Q431 363 455 350 Q479 337 500 316 Q521 295 535.5 265 Q550 235 550 194 Q550 146 530 108 Q510 70 475 43 Q440 16 392.5 2 Q345 -12 291 -12 Z M171 205 Q171 181 180.5 162 Q190 143 206.5 130 Q223 117 245 110.5 Q267 104 291 104 Q315 104 337 110.5 Q359 117 375.5 130 Q392 143 401.5 162 Q411 181 411 205 Q411 229 401.5 248 Q392 267 375.5 279.5 Q359 292 337 298.5 Q315 305 291 305 Q267 305 245 298.5 Q223 292 206.5 279.5 Q190 267 180.5 248 Q171 229 171 205 Z M187 504 Q187 465 217 442.5 Q247 420 291 420 Q334 420 364 442.5 Q394 465 394 504 Q394 543 364 565.5 Q334 588 291 588 Q247 588 217 565.5 Q187 543 187 504 Z " />
<glyph glyph-name="nine" unicode="9" horiz-adv-x="572" d="M276 -12 Q191 -12 135.5 25 Q80 62 49 128 L178 204 Q181 185 187.5 168 Q194 151 206 137.5 Q218 124 236 116 Q254 108 278 108 Q310 108 332 122 Q354 136 368 161.5 Q382 187 389 224 Q396 261 398 308 L395 309 Q372 274 331 255.5 Q290 237 244 237 Q203 237 164.5 252 Q126 267 96 295.5 Q66 324 48 366.5 Q30 409 30 464 Q30 518 49 562.5 Q68 607 101 638.5 Q134 670 179 687 Q224 704 277 704 Q398 704 466 623.5 Q534 543 534 381 Q534 292 520.5 220 Q507 148 476 96 Q445 44 396 16 Q347 -12 276 -12 Z M166 466 Q166 412 195 378 Q224 344 277 344 Q330 344 359.5 377.5 Q389 411 389 465 Q389 519 359.5 553.5 Q330 588 277 588 Q224 588 195 554 Q166 520 166 466 Z " />
<glyph glyph-name="currency" unicode="&#xa4;" horiz-adv-x="600" d="M94 353 Q94 406 123 452 L41 534 L125 614 L207 530 Q229 541 252 547.5 Q275 554 300 554 Q324 554 347.5 547.5 Q371 541 392 530 L475 614 L559 534 L477 452 Q491 429 498.5 404 Q506 379 506 353 Q506 299 476 252 L561 169 L476 89 L391 173 Q347 151 300 151 Q252 151 208 173 L124 89 L39 169 L123 252 Q109 275 101.5 300.5 Q94 326 94 353 Z M213 353 Q213 311 236 285 Q259 259 300 259 Q341 259 364 285.5 Q387 312 387 353 Q387 393 364 419 Q341 445 300 445 Q259 445 236 419 Q213 393 213 353 Z " />
<glyph glyph-name="dollar" unicode="&#x24;" horiz-adv-x="611" d="M257 5 Q215 10 178.5 26 Q142 42 113.5 66 Q85 90 64.5 122 Q44 154 34 192 L159 269 Q161 242 167.5 217 Q174 192 186.5 171.5 Q199 151 218 136.5 Q237 122 263 115 L263 294 Q223 305 185 320.5 Q147 336 117.5 359.5 Q88 383 70 416 Q52 449 52 495 Q52 534 68.5 567.5 Q85 601 113 625.5 Q141 650 178 666 Q215 682 257 687 L257 782 L373 782 L373 685 Q442 674 498 633 Q554 592 582 525 L460 449 Q458 497 434.5 532 Q411 567 367 579 L367 412 Q408 400 447.5 384 Q487 368 517.5 344.5 Q548 321 567 287.5 Q586 254 586 208 Q586 168 570 133.5 Q554 99 525.5 72 Q497 45 458 27.5 Q419 10 373 5 L373 -92 L257 -92 L257 5 Z M455 197 Q455 232 430 250 Q405 268 367 280 L367 112 Q408 118 431.5 141.5 Q455 165 455 197 Z M182 508 Q182 475 204.5 458 Q227 441 263 429 L263 579 Q225 574 203.5 554.5 Q182 535 182 508 Z " />
<glyph glyph-name="cent" unicode="&#xa2;" horiz-adv-x="578" d="M247 9 Q201 17 163.5 37 Q126 57 99 88.5 Q72 120 57.5 162 Q43 204 43 256 Q43 307 57.5 349 Q72 391 99 422.5 Q126 454 163.5 474.5 Q201 495 247 503 L247 602 L363 602 L363 503 Q435 489 482 448 Q529 407 547 354 L427 293 Q427 326 409.5 353.5 Q392 381 357 394 L357 117 Q392 130 409.5 158 Q427 186 427 219 L547 158 Q529 105 482 63.5 Q435 22 363 9 L363 -92 L247 -92 L247 9 Z M174 256 Q174 204 192.5 167.5 Q211 131 253 117 L253 395 Q211 381 192.5 344 Q174 307 174 256 Z " />
<glyph glyph-name="Euro" unicode="&#x20ac;" horiz-adv-x="650" d="M265 216 Q278 165 306.5 134.5 Q335 104 390 104 Q420 104 441 116.5 Q462 129 475 150 Q488 171 494 199 Q500 227 500 258 L632 175 Q620 137 599.5 103 Q579 69 548.5 43.5 Q518 18 478.5 3 Q439 -12 390 -12 Q292 -12 221.5 45 Q151 102 125 216 L39 216 L39 311 L113 311 Q112 319 112 328 Q112 337 112 347 L112 369 L39 369 L39 464 L124 464 Q137 523 162.5 568 Q188 613 223 643 Q258 673 300.5 688.5 Q343 704 390 704 Q437 704 476.5 690 Q516 676 546.5 651.5 Q577 627 598.5 593.5 Q620 560 632 522 L500 440 Q500 471 494 498 Q488 525 474.5 545 Q461 565 440.5 576.5 Q420 588 390 588 Q338 588 308.5 553 Q279 518 265 464 L454 464 L426 369 L253 369 L253 311 L411 311 L382 216 L265 216 Z " />
<glyph glyph-name="yen" unicode="&#xa5;" horiz-adv-x="623" d="M382 162 L382 0 L241 0 L241 162 L66 162 L66 257 L241 257 L241 261 L209 320 L66 320 L66 415 L159 415 L13 692 L171 692 L270 482 Q278 463 286 446 Q294 429 299 415 Q305 399 311 384 L314 384 Q320 399 326 415 Q331 429 338.5 446 Q346 463 355 482 L455 692 L610 692 L463 415 L556 415 L556 320 L413 320 L382 261 L382 257 L556 257 L556 162 L382 162 Z " />
<glyph glyph-name="sterling" unicode="&#xa3;" horiz-adv-x="584" d="M293 281 Q294 276 294 266 Q294 215 275.5 180 Q257 145 236 125 L555 125 L555 0 L72 0 L72 98 Q119 123 135.5 160.5 Q152 198 152 241 Q152 252 151.5 261.5 Q151 271 150 281 L39 281 L39 389 L125 389 Q117 414 112 439 Q107 464 107 495 Q107 549 126.5 588 Q146 627 178.5 653 Q211 679 252.5 691.5 Q294 704 338 704 Q419 704 483 660 Q547 616 577 538 L447 460 Q442 517 415.5 551 Q389 585 341 585 Q301 585 275.5 559.5 Q250 534 250 486 Q250 460 255 436.5 Q260 413 268 389 L451 389 L420 281 L293 281 Z " />
<glyph glyph-name="florin" unicode="&#x192;" horiz-adv-x="559" d="M313 342 L302 44 Q300 -15 283 -55.5 Q266 -96 239 -121 Q212 -146 177.5 -157 Q143 -168 106 -168 Q46 -168 0 -143 Q-46 -118 -69 -79 L54 -3 Q56 -29 68 -44 Q80 -59 105 -59 Q117 -59 127 -54.5 Q137 -50 144 -39 Q151 -28 155.5 -9 Q160 10 161 39 L173 342 L77 342 L77 450 L177 450 L179 498 Q181 558 201.5 598 Q222 638 252.5 661.5 Q283 685 319.5 694.5 Q356 704 392 704 Q455 704 505 676.5 Q555 649 582 600 L460 524 Q458 559 440 577 Q422 595 392 595 Q363 595 342.5 575 Q322 555 320 503 L318 450 L487 450 L456 342 L313 342 Z " />
<glyph glyph-name="plus" unicode="&#x2b;" horiz-adv-x="600" d="M236 267 L37 267 L37 389 L236 389 L236 603 L364 603 L364 389 L563 389 L563 267 L364 267 L364 49 L236 49 L236 267 Z " />
<glyph glyph-name="minus" unicode="&#x2212;" horiz-adv-x="600" d="M53 266 L53 390 L547 390 L547 266 L53 266 Z " />
<glyph glyph-name="multiply" unicode="&#xd7;" horiz-adv-x="600" d="M42 157 L216 324 L46 492 L135 576 L300 410 L465 576 L554 492 L384 324 L558 157 L468 72 L300 242 L132 72 L42 157 Z " />
<glyph glyph-name="divide" unicode="&#xf7;" horiz-adv-x="600" d="M53 267 L53 389 L547 389 L547 267 L53 267 Z M300 207 Q335 207 359.5 184 Q384 161 384 124 Q384 86 359.5 63 Q335 40 300 40 Q265 40 240.5 63 Q216 86 216 124 Q216 161 240.5 184 Q265 207 300 207 Z M300 616 Q335 616 359.5 593 Q384 570 384 532 Q384 495 359.5 472 Q335 449 300 449 Q265 449 240.5 472 Q216 495 216 532 Q216 570 240.5 593 Q265 616 300 616 Z " />
<glyph glyph-name="equal" unicode="&#x3d;" horiz-adv-x="600" d="M54 165 L54 282 L546 282 L546 165 L54 165 Z M54 368 L54 485 L546 485 L546 368 L54 368 Z " />
<glyph glyph-name="less" unicode="&#x3c;" horiz-adv-x="600" d="M209 328 L539 186 L490 68 L63 264 L63 391 L490 586 L539 470 L209 328 Z " />
<glyph glyph-name="greater" unicode="&#x3e;" horiz-adv-x="600" d="M391.013 328 L61.0329 186 L110.03 68 L537.004 264 L537.004 391 L110.03 586 L61.0329 470 L391.013 328 Z " />
<glyph glyph-name="plusminus" unicode="&#xb1;" horiz-adv-x="600" d="M240 398 L53 398 L53 508 L240 508 L240 666 L360 666 L360 508 L548 508 L548 398 L360 398 L360 242 L240 242 L240 398 Z M53 75 L53 187 L547 187 L547 75 L53 75 Z " />
<glyph glyph-name="lessequal" unicode="&#x2264;" horiz-adv-x="600" d="M74 362 L74 486 L501 633 L537 520 L230 425 L537 337 L501 224 L74 362 Z M67 75 L67 187 L542 187 L542 75 L67 75 Z " />
<glyph glyph-name="greaterequal" unicode="&#x2265;" horiz-adv-x="600" d="M526.005 362 L526.005 486 L99.0306 633 L63.0328 520 L370.014 425 L63.0328 337 L99.0306 224 L526.005 362 Z M533.004 75 L533.004 187 L58.0331 187 L58.0331 75 L533.004 75 Z " />
<glyph glyph-name="notequal" unicode="&#x2260;" horiz-adv-x="600" d="M279 167 L203 19 L104 65 L156 167 L50 167 L50 280 L214 280 L261 373 L50 373 L50 486 L319 486 L396 636 L496 589 L443 486 L550 486 L550 373 L385 373 L337 280 L550 280 L550 167 L279 167 Z " />
<glyph glyph-name="logicalnot" unicode="&#xac;" horiz-adv-x="600" d="M546 400 L546 119 L418 119 L418 275 L51 275 L51 400 L546 400 Z " />
<glyph glyph-name="asciicircum" unicode="&#x5e;" horiz-adv-x="600" d="M245 692 L355 692 L558 400 L449 336 L300 557 L151 336 L42 400 L245 692 Z " />
<glyph glyph-name="asciitilde" unicode="&#x7e;" horiz-adv-x="600" d="M404 224 Q374 224 347 236 Q320 248 296 263 Q272 278 250.5 290 Q229 302 210 302 Q195 302 185 295 Q175 288 168.5 277 Q162 266 158.5 252 Q155 238 154 224 L46 288 Q53 318 65 344.5 Q77 371 95.5 390.5 Q114 410 138.5 421.5 Q163 433 196 433 Q226 433 252.5 421 Q279 409 303 394 Q327 379 348.5 367 Q370 355 390 355 Q405 355 415 362 Q425 369 431.5 380 Q438 391 441.5 405 Q445 419 446 433 L554 369 Q547 339 535 312.5 Q523 286 504.5 266.5 Q486 247 461.5 235.5 Q437 224 404 224 Z " />
<glyph glyph-name="approxequal" unicode="&#x2248;" horiz-adv-x="600" d="M410 338 Q379 338 351.5 347.5 Q324 357 299 368 Q274 379 251.5 388.5 Q229 398 209 398 Q179 398 167.5 378.5 Q156 359 154 336 L46 400 Q53 424 64.5 445.5 Q76 467 93.5 483 Q111 499 134.5 508.5 Q158 518 190 518 Q221 518 248.5 508.5 Q276 499 301 488 Q326 477 348.5 467.5 Q371 458 391 458 Q421 458 432.5 477 Q444 496 446 519 L554 456 Q547 432 535.5 410.5 Q524 389 506.5 373 Q489 357 465 347.5 Q441 338 410 338 Z M410 132 Q379 132 351.5 141.5 Q324 151 299 162 Q274 173 251.5 182.5 Q229 192 209 192 Q179 192 167.5 173 Q156 154 154 131 L46 194 Q53 218 64.5 240 Q76 262 93.5 278 Q111 294 134.5 303.5 Q158 313 190 313 Q221 313 248.5 303.5 Q276 294 301 282.5 Q326 271 348.5 261.5 Q371 252 391 252 Q421 252 432.5 271.5 Q444 291 446 314 L554 250 Q547 226 535.5 204.5 Q524 183 506.5 167 Q489 151 465 141.5 Q441 132 410 132 Z " />
<glyph glyph-name="infinity" unicode="&#x221e;" horiz-adv-x="867" d="M240 529 Q301 529 349 497.5 Q397 466 432 420 L435 420 Q470 466 518 497.5 Q566 529 628 529 Q671 529 707 513.5 Q743 498 769.5 470.5 Q796 443 811 406.5 Q826 370 826 328 Q826 286 811 249.5 Q796 213 770 185.5 Q744 158 707.5 142.5 Q671 127 628 127 Q566 127 518 158 Q470 189 435 236 L432 236 Q397 189 349 158 Q301 127 240 127 Q197 127 160.5 142.5 Q124 158 98 185.5 Q72 213 57 249.5 Q42 286 42 328 Q42 370 57 406.5 Q72 443 98 470.5 Q124 498 160.5 513.5 Q197 529 240 529 Z M374 328 Q365 341 353.5 355.5 Q342 370 327 382.5 Q312 395 293.5 403 Q275 411 253 411 Q218 411 194.5 387 Q171 363 171 328 Q171 293 194.5 269 Q218 245 253 245 Q275 245 293.5 253 Q312 261 327 273.5 Q342 286 353.5 300.5 Q365 315 374 328 Z M493 328 Q502 315 514 300.5 Q526 286 540.5 273.5 Q555 261 573 253 Q591 245 614 245 Q649 245 672.5 269 Q696 293 696 328 Q696 363 672.5 387 Q649 411 614 411 Q591 411 573 403 Q555 395 540.5 382.5 Q526 370 514 355.5 Q502 341 493 328 Z " />
<glyph glyph-name="numbersign" unicode="&#x23;" horiz-adv-x="696" d="M477 692 L601 692 L570 523 L666 523 L666 413 L549 413 L526 289 L640 289 L640 179 L506 179 L473 0 L349 0 L382 179 L247 179 L214 0 L90 0 L123 179 L30 179 L30 289 L144 289 L167 413 L56 413 L56 523 L187 523 L219 692 L343 692 L311 523 L446 523 L477 692 Z M268 289 L402 289 L425 413 L291 413 L268 289 Z " />
<glyph glyph-name="radical" unicode="&#x221a;" horiz-adv-x="666" d="M25 385 L229 385 L275 178 Q280 155 284.5 129.5 Q289 104 294 82 Q299 56 304 32 L307 32 Q313 55 320 80 Q326 101 333 126.5 Q340 152 348 176 L521 748 L664 748 L396 -108 L207 -108 L121 264 L25 264 L25 385 Z " />
<glyph glyph-name="lozenge" unicode="&#x25ca;" horiz-adv-x="610" d="M233 692 L377 692 L585 349 L377 0 L233 0 L25 349 L233 692 Z M177 349 L255 214 Q266 194 275 178.5 Q284 163 290 151 Q297 137 303 126 L307 126 Q313 137 320 151 Q326 163 335 178.5 Q344 194 355 214 L433 349 L355 478 Q331 517 319 541 Q312 554 307 566 L303 566 Q297 555 290 541 Q284 529 275 513 Q266 497 255 478 L177 349 Z " />
<glyph glyph-name="Delta" unicode="&#x2206;" horiz-adv-x="652" d="M17 95 L241 692 L409 692 L634 95 L634 0 L17 0 L17 95 Z M178 126 L469 126 L353 453 Q348 467 343 483 Q338 499 334 513 Q330 529 325 544 L322 544 Q317 529 313 513 Q309 499 304 483 Q299 467 294 453 L178 126 Z " />
<glyph glyph-name="Omega" unicode="&#x2126;" horiz-adv-x="724" d="M325 0 L48 0 L48 122 L92 122 Q107 122 121 121 Q135 120 146 118 Q158 116 170 115 L171 116 Q114 164 79 231 Q44 298 44 380 Q44 458 68.5 518 Q93 578 136 619.5 Q179 661 237 682.5 Q295 704 362 704 Q429 704 487.5 682.5 Q546 661 589 619.5 Q632 578 656.5 518 Q681 458 681 380 Q681 298 645.5 231 Q610 164 553 116 L554 115 Q565 116 578 118 Q589 120 603 121 Q617 122 633 122 L677 122 L677 0 L400 0 L400 108 Q455 144 493 209.5 Q531 275 531 366 Q531 409 521 447 Q511 485 490.5 513 Q470 541 438 557.5 Q406 574 362 574 Q318 574 286.5 557.5 Q255 541 234.5 513 Q214 485 204 447 Q194 409 194 366 Q194 275 232 209.5 Q270 144 325 108 L325 0 Z " />
<glyph glyph-name="summation" unicode="&#x2211;" horiz-adv-x="532" d="M202 -24 L525 -24 L525 -147 L30 -147 L30 -49 L224 316 L30 659 L30 758 L525 758 L525 634 L202 634 L380 316 L202 -24 Z " />
<glyph glyph-name="partialdiff" unicode="&#x2202;" horiz-adv-x="570" d="M152 704 Q239 702 310 674.5 Q381 647 430.5 595.5 Q480 544 507 468 Q534 392 534 295 Q534 236 520.5 180.5 Q507 125 477 82.5 Q447 40 398 14 Q349 -12 279 -12 Q217 -12 170.5 7.5 Q124 27 93 59.5 Q62 92 47 135.5 Q32 179 32 227 Q32 282 50.5 324.5 Q69 367 99.5 396 Q130 425 168.5 440 Q207 455 247 455 Q298 455 330.5 437 Q363 419 385 398 L388 399 Q365 494 295.5 538 Q226 582 117 582 Q107 582 98.5 581.5 Q90 581 83 580 Q75 579 68 578 L152 704 Z M285 352 Q254 352 231.5 340.5 Q209 329 195 311 Q181 293 174 270 Q167 247 167 224 Q167 201 173.5 179 Q180 157 193.5 140 Q207 123 228 113 Q249 103 277 103 Q316 103 339.5 120 Q363 137 376.5 164.5 Q390 192 394.5 227.5 Q399 263 399 299 Q399 305 399 311 Q399 317 398 322 Q382 332 353.5 342 Q325 352 285 352 Z " />
<glyph glyph-name="integral" unicode="&#x222b;" horiz-adv-x="391" d="M124 595 Q124 641 137.5 673.5 Q151 706 173.5 725.5 Q196 745 226 754 Q256 763 289 763 Q305 763 317.5 762 Q330 761 339 760 L357 757 L387 638 Q380 639 372 641 Q365 643 355.5 644 Q346 645 336 645 Q301 645 284 628.5 Q267 612 267 568 L267 15 Q267 -32 253.5 -64 Q240 -96 217.5 -115.5 Q195 -135 165 -144 Q135 -153 102 -153 Q70 -153 52 -150 Q41 -148 34 -146 L4 -27 Q11 -29 19 -31 Q26 -33 35 -34 Q44 -35 55 -35 Q90 -35 107 -18.5 Q124 -2 124 42 L124 595 Z " />
<glyph glyph-name="product" unicode="&#x220f;" horiz-adv-x="668" d="M452 636 L217 636 L217 -147 L77 -147 L77 758 L592 758 L592 -147 L452 -147 L452 636 Z " />
<glyph glyph-name="pi" unicode="&#x3c0;" horiz-adv-x="640" d="M14 504 L623 504 L623 389 L505 389 L505 155 Q505 125 514 113.5 Q523 102 540 102 Q556 102 564 113 Q572 124 577 135 L633 34 Q619 21 587.5 4.5 Q556 -12 512 -12 Q480 -12 453 -3.5 Q426 5 406.5 24 Q387 43 376 72.5 Q365 102 365 143 L365 389 L235 389 L235 -1 L104 -1 L104 389 L14 389 L14 504 Z " />
<glyph glyph-name="mu" unicode="&#xb5;" horiz-adv-x="556" d="M58 504 L199 504 L199 209 Q199 158 216 132.5 Q233 107 272 107 Q314 107 335.5 136.5 Q357 166 357 214 L357 504 L498 504 L498 0 L357 0 L364 83 L361 83 Q352 66 339 49 Q326 32 308.5 18.5 Q291 5 267 -3.5 Q243 -12 212 -12 Q206 -12 200 -11.5 Q194 -11 188 -10 Q190 -30 193 -67 Q196 -104 196 -146 L196 -196 L58 -196 L58 504 Z " />
<glyph glyph-name="period" unicode="&#x2e;" horiz-adv-x="281" d="M140 161 Q177 161 202.5 137 Q228 113 228 74 Q228 36 202.5 12 Q177 -12 140 -12 Q104 -12 78.5 12 Q53 36 53 74 Q53 113 78.5 137 Q104 161 140 161 Z " />
<glyph glyph-name="comma" unicode="&#x2c;" horiz-adv-x="281" d="M133 161 Q175 161 202 130 Q229 99 229 40 Q229 -27 202 -77.5 Q175 -128 133 -154 L48 -105 Q61 -98 77.5 -88 Q94 -78 109 -64 Q124 -50 135 -32.5 Q146 -15 150 7 Q145 6 141.5 6 Q138 6 133 6 Q99 6 76 27.5 Q53 49 53 83 Q53 118 75.5 139.5 Q98 161 133 161 Z " />
<glyph glyph-name="colon" unicode="&#x3a;" horiz-adv-x="281" d="M140 511 Q177 511 202.5 487 Q228 463 228 424 Q228 386 202.5 362 Q177 338 140 338 Q104 338 78.5 362 Q53 386 53 424 Q53 463 78.5 487 Q104 511 140 511 Z M140 161 Q177 161 202.5 137 Q228 113 228 74 Q228 36 202.5 12 Q177 -12 140 -12 Q104 -12 78.5 12 Q53 36 53 74 Q53 113 78.5 137 Q104 161 140 161 Z " />
<glyph glyph-name="semicolon" unicode="&#x3b;" horiz-adv-x="281" d="M133 161 Q175 161 202 130 Q229 99 229 40 Q229 -27 202 -77.5 Q175 -128 133 -154 L48 -105 Q61 -98 77.5 -88 Q94 -78 109 -64 Q124 -50 135 -32.5 Q146 -15 150 7 Q145 6 141.5 6 Q138 6 133 6 Q99 6 76 27.5 Q53 49 53 83 Q53 118 75.5 139.5 Q98 161 133 161 Z M140 511 Q177 511 202.5 487 Q228 463 228 424 Q228 386 202.5 362 Q177 338 140 338 Q104 338 78.5 362 Q53 386 53 424 Q53 463 78.5 487 Q104 511 140 511 Z " />
<glyph glyph-name="exclam" unicode="&#x21;" horiz-adv-x="310" d="M230 621 Q230 564 226 494.5 Q222 425 217 362 Q211 289 204 215 L106 215 Q98 289 93 362 Q88 425 84 494.5 Q80 564 80 621 L80 692 L230 692 L230 621 Z M155 154 Q190 154 214.5 131.5 Q239 109 239 71 Q239 34 214.5 11 Q190 -12 155 -12 Q120 -12 95 11 Q70 34 70 71 Q70 109 95 131.5 Q120 154 155 154 Z " />
<glyph glyph-name="question" unicode="&#x3f;" horiz-adv-x="498" d="M258 589 Q208 589 176 549.5 Q144 510 137 448 L11 521 Q20 554 41 587 Q62 620 93.5 646 Q125 672 166.5 688 Q208 704 258 704 Q300 704 339 692.5 Q378 681 408 659 Q438 637 456 605 Q474 573 474 532 Q474 494 460 466 Q446 438 425 416 Q404 394 379.5 376 Q355 358 334 340.5 Q313 323 299 304 Q285 285 285 260 Q285 240 288 228 Q289 221 291 215 L192 215 Q184 225 179 237 Q174 248 170.5 262 Q167 276 167 293 Q167 326 179.5 350 Q192 374 210.5 392 Q229 410 251 425 Q273 440 291.5 454.5 Q310 469 322.5 486 Q335 503 335 525 Q335 554 312.5 571.5 Q290 589 258 589 Z M243 154 Q278 154 302.5 131.5 Q327 109 327 71 Q327 34 302.5 11 Q278 -12 243 -12 Q208 -12 183.5 11 Q159 34 159 71 Q159 109 183.5 131.5 Q208 154 243 154 Z " />
<glyph glyph-name="exclamdown" unicode="&#xa1;" horiz-adv-x="310" d="M230 -116.962 Q230 -59.9656 226 9.53018 Q222 79.0259 217 142.022 Q211 215.018 204 289.013 L106 289.013 Q98 215.018 93 142.022 Q88 79.0259 84 9.53018 Q80 -59.9656 80 -116.962 L80 -187.958 L230 -187.958 L230 -116.962 Z M155 350.009 Q190 350.009 214.5 372.508 Q239 395.007 239 433.004 Q239 470.002 214.5 493.001 Q190 515.999 155 515.999 Q120 515.999 95 493.001 Q70 470.002 70 433.004 Q70 395.007 95 372.508 Q120 350.009 155 350.009 Z " />
<glyph glyph-name="questiondown" unicode="&#xbf;" horiz-adv-x="498" d="M240.016 -85.9641 Q290.013 -85.9641 322.011 -46.4665 Q354.009 -6.96887 361.008 55.0273 L487.001 -17.9682 Q478.001 -50.9662 457.003 -83.9642 Q436.004 -116.962 404.506 -142.961 Q373.008 -168.959 331.51 -184.958 Q290.013 -200.957 240.016 -200.957 Q198.018 -200.957 159.021 -189.458 Q120.023 -177.958 90.0249 -155.96 Q60.0267 -133.961 42.0278 -101.963 Q24.0289 -69.965 24.0289 -28.9675 Q24.0289 9.03015 38.0281 37.0284 Q52.0272 65.0267 73.0259 87.0254 Q94.0247 109.024 118.523 127.023 Q143.022 145.022 164.02 162.521 Q185.019 180.02 199.018 199.019 Q213.017 218.017 213.017 243.016 Q213.017 263.015 210.018 275.014 Q209.018 282.013 207.018 288.013 L306.012 288.013 Q314.011 278.014 319.011 266.014 Q324.011 255.015 327.51 241.016 Q331.01 227.017 331.01 210.018 Q331.01 177.02 318.511 153.021 Q306.012 129.023 287.513 111.024 Q269.014 93.025 247.015 78.0259 Q225.017 63.0269 206.518 48.5277 Q188.019 34.0286 175.52 17.0297 Q163.02 0.0307007 163.02 -21.968 Q163.02 -50.9662 185.519 -68.4651 Q208.018 -85.9641 240.016 -85.9641 Z M255.015 349.009 Q220.017 349.009 195.518 371.508 Q171.02 394.007 171.02 432.004 Q171.02 469.002 195.518 492.001 Q220.017 514.999 255.015 514.999 Q290.013 514.999 314.511 492.001 Q339.01 469.002 339.01 432.004 Q339.01 394.007 314.511 371.508 Q290.013 349.009 255.015 349.009 Z " />
<glyph glyph-name="hyphen" unicode="&#x2d;" horiz-adv-x="348" d="M38 241 L38 357 L309 357 L309 241 L38 241 Z " />
<glyph glyph-name="endash" unicode="&#x2013;" horiz-adv-x="579" d="M38 241 L38 357 L540 357 L540 241 L38 241 Z " />
<glyph glyph-name="emdash" unicode="&#x2014;" horiz-adv-x="821" d="M38 241 L38 357 L782 357 L782 241 L38 241 Z " />
<glyph glyph-name="underscore" unicode="&#x5f;" horiz-adv-x="485" d="M53 -83 L53 33 L432 33 L432 -83 L53 -83 Z " />
<glyph glyph-name="bar" unicode="&#x7c;" horiz-adv-x="301" d="M80 758 L221 758 L221 -147 L80 -147 L80 758 Z " />
<glyph glyph-name="brokenbar" unicode="&#xa6;" horiz-adv-x="301" d="M80 217 L221 217 L221 -147 L80 -147 L80 217 Z M80 758 L221 758 L221 401 L80 401 L80 758 Z " />
<glyph glyph-name="dagger" unicode="&#x2020;" horiz-adv-x="538" d="M79 503 Q110 501 144 498.5 Q178 496 205 493 L209 497 Q207 516 205 540.5 Q203 565 201.5 590.5 Q200 616 198.5 641.5 Q197 667 197 689 L196 724 L343 724 L342 689 Q341 667 339.5 641.5 Q338 616 336.5 590 Q335 564 333 539.5 Q331 515 329 496 L332 493 Q360 496 393.5 498.5 Q427 501 459 503 L518 505 L518 369 L459 371 Q427 372 393.5 374.5 Q360 377 333 380 L329 377 Q332 325 336 239 Q340 153 342 40 L344 -74 L195 -74 L197 40 Q199 154 202.5 239 Q206 324 209 376 L205 380 Q177 377 144 374.5 Q111 372 79 371 L21 369 L21 505 L79 503 Z " />
<glyph glyph-name="daggerdbl" unicode="&#x2021;" horiz-adv-x="562" d="M471 137 Q439 138 405.5 140.5 Q372 143 345 146 L340 142 Q342 124 344 101.5 Q346 79 347.5 54.5 Q349 30 350.5 6 Q352 -18 353 -39 L354 -74 L209 -74 L210 -39 Q210 -18 211.5 6 Q213 30 214.5 54.5 Q216 79 218 101.5 Q220 124 222 142 L217 146 Q189 143 156 140.5 Q123 138 91 137 L33 135 L33 268 L91 266 Q122 264 155 261.5 Q188 259 215 256 L219 260 L219 399 L216 402 Q188 399 155.5 396.5 Q123 394 91 393 L33 391 L33 524 L91 522 Q122 520 155.5 517.5 Q189 515 217 512 L221 517 Q218 551 214.5 598.5 Q211 646 210 689 L209 724 L354 724 L353 689 Q351 647 347.5 599 Q344 551 341 516 L345 512 Q372 515 405.5 517.5 Q439 520 471 522 L530 524 L530 391 L471 393 Q440 394 406.5 396.5 Q373 399 346 402 L343 399 L343 260 L346 256 Q374 259 406.5 261.5 Q439 264 471 266 L530 268 L530 135 L471 137 Z " />
<glyph glyph-name="parenleft" unicode="&#x28;" horiz-adv-x="355" d="M73 309 Q73 387 87 456.5 Q101 526 124.5 585 Q148 644 177.5 691 Q207 738 239 771 L348 716 Q291 645 252.5 543.5 Q214 442 214 309 Q214 175 252.5 70.5 Q291 -34 348 -106 L239 -161 Q207 -128 177.5 -79.5 Q148 -31 124.5 29.5 Q101 90 87 160.5 Q73 231 73 309 Z " />
<glyph glyph-name="parenright" unicode="&#x29;" horiz-adv-x="355" d="M282.004 309 Q282.004 387 268.005 456.5 Q254.006 526 230.508 585 Q207.009 644 177.511 691 Q148.013 738 116.015 771 L7.02124 716 Q64.0178 645 102.515 543.5 Q141.013 442 141.013 309 Q141.013 175 102.515 70.5 Q64.0178 -34 7.02124 -106 L116.015 -161 Q148.013 -128 177.511 -79.5 Q207.009 -31 230.508 29.5 Q254.006 90 268.005 160.5 Q282.004 231 282.004 309 Z " />
<glyph glyph-name="bracketleft" unicode="&#x5b;" horiz-adv-x="369" d="M80 758 L346 758 L346 638 L215 638 L215 -28 L346 -28 L346 -147 L80 -147 L80 758 Z " />
<glyph glyph-name="bracketright" unicode="&#x5d;" horiz-adv-x="369" d="M289.005 758 L23.0211 758 L23.0211 638 L154.013 638 L154.013 -28 L23.0211 -28 L23.0211 -147 L289.005 -147 L289.005 758 Z " />
<glyph glyph-name="braceleft" unicode="&#x7b;" horiz-adv-x="408" d="M171 308 Q190 301 209 289.5 Q228 278 243.5 259.5 Q259 241 268.5 214 Q278 187 278 149 L278 42 Q278 -2 295 -18.5 Q312 -35 347 -35 Q357 -35 365.5 -34 Q374 -33 381 -31 Q389 -29 395 -27 L370 -146 Q362 -148 352 -150 Q335 -153 305 -153 Q272 -153 242.5 -144 Q213 -135 191 -115.5 Q169 -96 156 -64 Q143 -32 143 15 L143 132 Q143 164 135.5 185 Q128 206 115 219.5 Q102 233 84.5 241 Q67 249 46 254 L46 365 Q67 370 84.5 377.5 Q102 385 115 399 Q128 413 135.5 434 Q143 455 143 487 L143 595 Q143 641 156 673.5 Q169 706 191 725.5 Q213 745 242.5 754 Q272 763 305 763 Q320 763 332 762 Q344 761 352 760 Q362 758 370 757 L395 638 Q389 639 381 641 Q374 643 365.5 644 Q357 645 347 645 Q312 645 295 628.5 Q278 612 278 568 L278 470 Q278 432 268.5 405 Q259 378 243.5 359.5 Q228 341 209 329.5 Q190 318 171 311 L171 308 Z " />
<glyph glyph-name="braceright" unicode="&#x7d;" horiz-adv-x="408" d="M237.01 308 Q218.012 301 199.013 289.5 Q180.014 278 164.515 259.5 Q149.016 241 139.516 214 Q130.017 187 130.017 149 L130.017 42 Q130.017 -2 113.018 -18.5 Q96.019 -35 61.0212 -35 Q51.0218 -35 42.5223 -34 Q34.0228 -33 27.0233 -31 Q19.0237 -29 13.0241 -27 L38.0226 -146 Q46.0221 -148 56.0215 -150 Q73.0204 -153 103.019 -153 Q136.017 -153 165.515 -144 Q195.013 -135 217.012 -115.5 Q239.01 -96 252.01 -64 Q265.009 -32 265.009 15 L265.009 132 Q265.009 164 272.508 185 Q280.008 206 293.007 219.5 Q306.006 233 323.505 241 Q341.004 249 362.003 254 L362.003 365 Q341.004 370 323.505 377.5 Q306.006 385 293.007 399 Q280.008 413 272.508 434 Q265.009 455 265.009 487 L265.009 595 Q265.009 641 252.01 673.5 Q239.01 706 217.012 725.5 Q195.013 745 165.515 754 Q136.017 763 103.019 763 Q88.0195 763 76.0203 762 Q64.021 761 56.0215 760 Q46.0221 758 38.0226 757 L13.0241 638 Q19.0237 639 27.0233 641 Q34.0228 643 42.5223 644 Q51.0218 645 61.0212 645 Q96.019 645 113.018 628.5 Q130.017 612 130.017 568 L130.017 470 Q130.017 432 139.516 405 Q149.016 378 164.515 359.5 Q180.014 341 199.013 329.5 Q218.012 318 237.01 311 L237.01 308 Z " />
<glyph glyph-name="slash" unicode="&#x2f;" horiz-adv-x="411" d="M17.024 -147 L162.015 -147 L394.001 758 L250.01 758 L17.024 -147 Z " />
<glyph glyph-name="backslash" unicode="&#x5c;" horiz-adv-x="411" d="M394 -147 L249 -147 L17 758 L161 758 L394 -147 Z " />
<glyph glyph-name="quotesinglbase" unicode="&#x201a;" horiz-adv-x="281" d="M133 161 Q175 161 202 130 Q229 99 229 40 Q229 -27 202 -77.5 Q175 -128 133 -154 L48 -105 Q61 -98 77.5 -88 Q94 -78 109 -64 Q124 -50 135 -32.5 Q146 -15 150 7 Q145 6 141.5 6 Q138 6 133 6 Q99 6 76 27.5 Q53 49 53 83 Q53 118 75.5 139.5 Q98 161 133 161 Z " />
<glyph glyph-name="quotedblbase" unicode="&#x201e;" horiz-adv-x="491" d="M133 161 Q175 161 202 130 Q229 99 229 40 Q229 -27 202 -77.5 Q175 -128 133 -154 L48 -105 Q61 -98 77.5 -88 Q94 -78 109 -64 Q124 -50 135 -32.5 Q146 -15 150 7 Q145 6 141.5 6 Q138 6 133 6 Q99 6 76 27.5 Q53 49 53 83 Q53 118 75.5 139.5 Q98 161 133 161 Z M343 161 Q385 161 412 130 Q439 99 439 40 Q439 -27 412 -77.5 Q385 -128 343 -154 L258 -105 Q271 -98 287.5 -88 Q304 -78 319 -64 Q334 -50 345 -32.5 Q356 -15 360 7 Q355 6 351.5 6 Q348 6 343 6 Q309 6 286 27.5 Q263 49 263 83 Q263 118 285.5 139.5 Q308 161 343 161 Z " />
<glyph glyph-name="quoteleft" unicode="&#x2018;" horiz-adv-x="281" d="M148.008 405.01 Q106.011 405.01 79.0123 436.008 Q52.014 467.006 52.014 526.002 Q52.014 592.998 79.0123 643.495 Q106.011 693.992 148.008 719.991 L233.003 670.994 Q220.004 663.994 203.505 653.995 Q187.006 643.995 172.007 629.996 Q157.008 615.997 146.008 598.498 Q135.009 580.999 131.009 559 Q136.009 560 139.509 560 Q143.008 560 148.008 560 Q182.006 560 205.005 538.502 Q228.003 517.003 228.003 483.005 Q228.003 448.007 205.505 426.509 Q183.006 405.01 148.008 405.01 Z " />
<glyph glyph-name="quotedblleft" unicode="&#x201c;" horiz-adv-x="491" d="M148.008 405.01 Q106.011 405.01 79.0123 436.008 Q52.014 467.006 52.014 526.002 Q52.014 592.998 79.0123 643.495 Q106.011 693.992 148.008 719.991 L233.003 670.994 Q220.004 663.994 203.505 653.995 Q187.006 643.995 172.007 629.996 Q157.008 615.997 146.008 598.498 Q135.009 580.999 131.009 559 Q136.009 560 139.509 560 Q143.008 560 148.008 560 Q182.006 560 205.005 538.502 Q228.003 517.003 228.003 483.005 Q228.003 448.007 205.505 426.509 Q183.006 405.01 148.008 405.01 Z M358.008 405.01 Q316.011 405.01 289.012 436.008 Q262.014 467.006 262.014 526.002 Q262.014 592.998 289.012 643.495 Q316.011 693.992 358.008 719.991 L443.003 670.994 Q430.004 663.994 413.505 653.995 Q397.006 643.995 382.007 629.996 Q367.008 615.997 356.008 598.498 Q345.009 580.999 341.009 559 Q346.009 560 349.509 560 Q353.008 560 358.008 560 Q392.006 560 415.005 538.502 Q438.003 517.003 438.003 483.005 Q438.003 448.007 415.505 426.509 Q393.006 405.01 358.008 405.01 Z " />
<glyph glyph-name="quoteright" unicode="&#x2019;" horiz-adv-x="281" d="M133 704 Q175 704 202 673 Q229 642 229 583 Q229 516 202 465.5 Q175 415 133 389 L48 438 Q61 445 77.5 455 Q94 465 109 479 Q124 493 135 510.5 Q146 528 150 550 Q145 549 141.5 549 Q138 549 133 549 Q99 549 76 570.5 Q53 592 53 626 Q53 661 75.5 682.5 Q98 704 133 704 Z " />
<glyph glyph-name="quotedblright" unicode="&#x201d;" horiz-adv-x="491" d="M133 704 Q175 704 202 673 Q229 642 229 583 Q229 516 202 465.5 Q175 415 133 389 L48 438 Q61 445 77.5 455 Q94 465 109 479 Q124 493 135 510.5 Q146 528 150 550 Q145 549 141.5 549 Q138 549 133 549 Q99 549 76 570.5 Q53 592 53 626 Q53 661 75.5 682.5 Q98 704 133 704 Z M343 704 Q385 704 412 673 Q439 642 439 583 Q439 516 412 465.5 Q385 415 343 389 L258 438 Q271 445 287.5 455 Q304 465 319 479 Q334 493 345 510.5 Q356 528 360 550 Q355 549 351.5 549 Q348 549 343 549 Q309 549 286 570.5 Q263 592 263 626 Q263 661 285.5 682.5 Q308 704 343 704 Z " />
<glyph glyph-name="guilsinglleft" unicode="&#x2039;" horiz-adv-x="351" d="M166 272 Q182 258 201.5 240 Q221 222 241 200.5 Q261 179 280 154.5 Q299 130 315 103 L197 29 Q171 79 132 132.5 Q93 186 47 229 L47 318 Q93 362 132 414.5 Q171 467 197 518 L315 443 Q299 416 280 391.5 Q261 367 241 346 Q221 325 201.5 307 Q182 289 166 275 L166 272 Z " />
<glyph glyph-name="guilsinglright" unicode="&#x203a;" horiz-adv-x="351" d="M185.01 272 Q169.011 258 149.512 240 Q130.013 222 110.015 200.5 Q90.0159 179 71.0171 154.5 Q52.0182 130 36.0192 103 L154.012 29 Q180.01 79 219.008 132.5 Q258.006 186 304.003 229 L304.003 318 Q258.006 362 219.008 414.5 Q180.01 467 154.012 518 L36.0192 443 Q52.0182 416 71.0171 391.5 Q90.0159 367 110.015 346 Q130.013 325 149.512 307 Q169.011 289 185.01 275 L185.01 272 Z " />
<glyph glyph-name="guillemotleft" unicode="&#xab;" horiz-adv-x="565" d="M158 272 Q189 240 228 196 Q267 152 296 100 L184 29 Q159 78 124.5 132.5 Q90 187 47 229 L47 318 Q90 360 124.5 414 Q159 468 184 518 L296 447 Q267 394 228 350.5 Q189 307 158 275 L158 272 Z M387 272 Q403 258 422.5 238.5 Q442 219 462 196.5 Q482 174 500 149.5 Q518 125 532 100 L418 29 Q393 79 356.5 133 Q320 187 276 234 L276 313 Q320 361 356.5 414 Q393 467 418 518 L532 447 Q517 421 498 396 Q479 371 459.5 348.5 Q440 326 421 307.5 Q402 289 387 275 L387 272 Z " />
<glyph glyph-name="guillemotright" unicode="&#xbb;" horiz-adv-x="565" d="M407.01 272 Q376.012 240 337.014 196 Q298.016 152 269.018 100 L381.011 29 Q406.01 78 440.508 132.5 Q475.005 187 518.003 229 L518.003 318 Q475.005 360 440.508 414 Q406.01 468 381.011 518 L269.018 447 Q298.016 394 337.014 350.5 Q376.012 307 407.01 275 L407.01 272 Z M178.024 272 Q162.025 258 142.526 238.5 Q123.027 219 103.028 196.5 Q83.0294 174 65.0305 149.5 Q47.0316 125 33.0325 100 L147.026 29 Q172.024 79 208.522 133 Q245.02 187 289.017 234 L289.017 313 Q245.02 361 208.522 414 Q172.024 467 147.026 518 L33.0325 447 Q48.0316 421 67.0304 396 Q86.0292 371 105.528 348.5 Q125.027 326 144.026 307.5 Q163.025 289 178.024 275 L178.024 272 Z " />
<glyph glyph-name="quotesingle" unicode="&#x27;" horiz-adv-x="240" d="M187 613 Q185 578 182 541.5 Q179 505 176 473 Q172 436 169 401 L72 401 Q69 436 65 473 Q62 505 58.5 541.5 Q55 578 53 613 L48 692 L192 692 L187 613 Z " />
<glyph glyph-name="quotedbl" unicode="&#x22;" horiz-adv-x="456" d="M199 613 Q197 578 194 541.5 Q191 505 188 473 Q184 436 181 401 L84 401 Q81 436 77 473 Q74 505 70.5 541.5 Q67 578 65 613 L60 692 L204 692 L199 613 Z M391 613 Q389 578 386 541.5 Q383 505 380 473 Q376 436 373 401 L276 401 Q273 436 269 473 Q266 505 262.5 541.5 Q259 578 257 613 L252 692 L396 692 L391 613 Z " />
<glyph glyph-name="asterisk" unicode="&#x2a;" horiz-adv-x="497" d="M113 578 Q140 566 164.5 551 Q189 536 204 527 L207 529 Q202 546 196.5 574.5 Q191 603 189 634 L184 692 L312 692 L307 634 Q304 604 299 575.5 Q294 547 289 530 L292 527 Q306 537 330.5 551 Q355 565 383 578 L433 600 L471 484 L420 471 Q393 463 366 459 Q339 455 321 453 L319 447 Q333 436 353.5 418 Q374 400 396 378 L434 338 L333 262 L303 308 Q284 337 270 364 Q256 391 250 404 L246 404 Q241 393 227.5 366.5 Q214 340 194 308 L164 262 L63 338 L101 378 Q121 400 142 418 Q163 436 177 447 L175 453 Q157 455 130.5 459 Q104 463 76 471 L25 484 L63 600 L113 578 Z " />
<glyph glyph-name="degree" unicode="&#xb0;" horiz-adv-x="407" d="M203 704 Q237 704 267.5 693 Q298 682 321 661.5 Q344 641 358 612 Q372 583 372 547 Q372 511 358 482 Q344 453 321 432 Q298 411 267.5 400 Q237 389 203 389 Q170 389 139.5 400 Q109 411 85.5 432 Q62 453 48.5 482 Q35 511 35 547 Q35 583 48.5 612 Q62 641 85.5 661.5 Q109 682 139.5 693 Q170 704 203 704 Z M262 547 Q262 576 246.5 595 Q231 614 203 614 Q176 614 160 595 Q144 576 144 547 Q144 518 160 498.5 Q176 479 203 479 Q231 479 246.5 498.5 Q262 518 262 547 Z " />
<glyph glyph-name="bullet" unicode="&#x2022;" horiz-adv-x="348" d="M174.432 413.749 Q224.761 413.749 259.446 381.289 Q294.132 348.83 294.132 296.083 Q294.132 244.689 259.446 212.23 Q224.761 179.77 174.432 179.77 Q125.464 179.77 90.778 212.23 Q56.0922 244.689 56.0922 296.083 Q56.0922 348.83 90.778 381.289 Q125.464 413.749 174.432 413.749 Z " />
<glyph glyph-name="periodcentered" unicode="&#xb7;" horiz-adv-x="286" d="M142 384 Q179 384 204.5 360 Q230 336 230 297 Q230 259 204.5 235 Q179 211 142 211 Q106 211 80.5 235 Q55 259 55 297 Q55 336 80.5 360 Q106 384 142 384 Z " />
<glyph glyph-name="ellipsis" unicode="&#x2026;" horiz-adv-x="786" d="M142 161 Q179 161 204.5 137 Q230 113 230 74 Q230 36 204.5 12 Q179 -12 142 -12 Q106 -12 80.5 12 Q55 36 55 74 Q55 113 80.5 137 Q106 161 142 161 Z M392 161 Q429 161 454.5 137 Q480 113 480 74 Q480 36 454.5 12 Q429 -12 392 -12 Q356 -12 330.5 12 Q305 36 305 74 Q305 113 330.5 137 Q356 161 392 161 Z M642 161 Q679 161 704.5 137 Q730 113 730 74 Q730 36 704.5 12 Q679 -12 642 -12 Q606 -12 580.5 12 Q555 36 555 74 Q555 113 580.5 137 Q606 161 642 161 Z " />
<glyph glyph-name="paragraph" unicode="&#xb6;" horiz-adv-x="647" d="M426 568 L314 568 L314 -196 L186 -196 L186 313 Q110 324 68 372 Q26 420 26 501 Q26 589 78 640.5 Q130 692 225 692 L629 692 L629 568 L553 568 L553 -196 L426 -196 L426 568 Z " />
<glyph glyph-name="section" unicode="&#xa7;" horiz-adv-x="516" d="M492 297 Q492 255 466.5 224 Q441 193 401 177 L401 175 Q427 153 444 124.5 Q461 96 461 54 Q461 18 446 -11.5 Q431 -41 404.5 -62 Q378 -83 341.5 -94.5 Q305 -106 263 -106 Q189 -106 130.5 -75 Q72 -44 37 15 L153 90 Q161 49 190 22.5 Q219 -4 263 -4 Q292 -4 312 10 Q332 24 332 48 Q332 66 319.5 78 Q307 90 287 99.5 Q267 109 240 118 Q213 127 185 138 Q153 152 125 167.5 Q97 183 76.5 202.5 Q56 222 44 246 Q32 270 32 301 Q32 343 57.5 374 Q83 405 124 421 L124 423 Q98 444 82 473 Q66 502 66 544 Q66 580 81 609.5 Q96 639 122.5 660 Q149 681 185 692.5 Q221 704 263 704 Q332 704 386.5 673 Q441 642 473 584 L357 509 Q349 551 325 576.5 Q301 602 263 602 Q234 602 214.5 588 Q195 574 195 550 Q195 532 206.5 520 Q218 508 238 498.5 Q258 489 284 480 Q310 471 339 460 Q371 446 399 430.5 Q427 415 447.5 395.5 Q468 376 480 352 Q492 328 492 297 Z M232 364 Q208 372 183 385 Q170 377 162.5 365 Q155 353 155 336 Q155 315 165.5 301 Q176 287 194.5 276 Q213 265 238 255.5 Q263 246 292 234 Q304 229 316.5 223.5 Q329 218 341 212 Q353 220 360.5 232.5 Q368 245 368 262 Q368 283 357.5 297 Q347 311 329 322 Q311 333 286 342.5 Q261 352 232 364 Z " />
<glyph glyph-name="copyright" unicode="&#xa9;" horiz-adv-x="794" d="M41 346 Q41 424 68 489.5 Q95 555 142.5 603 Q190 651 255 677.5 Q320 704 397 704 Q473 704 538.5 677.5 Q604 651 652 603 Q700 555 727 489.5 Q754 424 754 346 Q754 268 727 202.5 Q700 137 652 89 Q604 41 538.5 14.5 Q473 -12 397 -12 Q320 -12 255 14.5 Q190 41 142.5 89 Q95 137 68 202.5 Q41 268 41 346 Z M397 74 Q454 74 502.5 94.5 Q551 115 586 151 Q621 187 640.5 237 Q660 287 660 346 Q660 405 640.5 455 Q621 505 586 541 Q551 577 502.5 597.5 Q454 618 397 618 Q340 618 291.5 597.5 Q243 577 208.5 541 Q174 505 154.5 455 Q135 405 135 346 Q135 287 154.5 237 Q174 187 208.5 151 Q243 115 291.5 94.5 Q340 74 397 74 Z M404 444 Q369 444 353 417.5 Q337 391 337 346 Q337 302 353 275 Q369 248 404 248 Q435 248 451 270 Q467 292 467 322 L572 276 Q564 252 548.5 231 Q533 210 511.5 193.5 Q490 177 462.5 167.5 Q435 158 404 158 Q366 158 333 170.5 Q300 183 275.5 207 Q251 231 237 266 Q223 301 223 346 Q223 391 237 426.5 Q251 462 275.5 486 Q300 510 333 522.5 Q366 535 404 535 Q435 535 462.5 525.5 Q490 516 511.5 499.5 Q533 483 548.5 461.5 Q564 440 572 417 L467 369 Q467 401 451.5 422.5 Q436 444 404 444 Z " />
<glyph glyph-name="registered" unicode="&#xae;" horiz-adv-x="794" d="M41 346 Q41 424 68 489.5 Q95 555 142.5 603 Q190 651 255 677.5 Q320 704 397 704 Q473 704 538.5 677.5 Q604 651 652 603 Q700 555 727 489.5 Q754 424 754 346 Q754 268 727 202.5 Q700 137 652 89 Q604 41 538.5 14.5 Q473 -12 397 -12 Q320 -12 255 14.5 Q190 41 142.5 89 Q95 137 68 202.5 Q41 268 41 346 Z M397 74 Q454 74 502.5 94.5 Q551 115 586 151 Q621 187 640.5 237 Q660 287 660 346 Q660 405 640.5 455 Q621 505 586 541 Q551 577 502.5 597.5 Q454 618 397 618 Q340 618 291.5 597.5 Q243 577 208.5 541 Q174 505 154.5 455 Q135 405 135 346 Q135 287 154.5 237 Q174 187 208.5 151 Q243 115 291.5 94.5 Q340 74 397 74 Z M563 411 Q563 376 546.5 350 Q530 324 500 310 L562 178 L460 178 L409 293 L357 293 L357 178 L262 178 L262 531 L416 531 Q485 531 524 498 Q563 465 563 411 Z M470 411 Q470 428 458.5 438 Q447 448 421 448 L357 448 L357 372 L421 372 Q447 372 458.5 383 Q470 394 470 411 Z " />
<glyph glyph-name="trademark" unicode="&#x2122;" horiz-adv-x="791" d="M10 692 L314 692 L314 595 L214 595 L214 380 L108 380 L108 595 L10 595 L10 692 Z M549 493 Q550 500 552 507 Q554 513 555.5 520.5 Q557 528 559 535 L606 692 L741 692 L741 380 L649 380 L649 511 Q649 525 649 537 Q649 549 650 558 Q650 569 651 577 L649 577 Q647 570 645 562 Q643 555 640.5 547 Q638 539 636 531 L590 380 L506 380 L458 531 Q453 546 449 562 Q447 570 446 577 L443 577 Q443 569 444 558 Q444 549 444.5 537 Q445 525 445 511 L445 380 L354 380 L354 692 L491 692 L538 535 Q540 527 541 520 Q542 513 544 507 Q546 500 547 493 L549 493 Z " />
<glyph glyph-name="ordfeminine" unicode="&#xaa;" horiz-adv-x="349" d="M172 624 Q150 624 134 611 Q118 598 110 572 L17 617 Q39 655 78.5 677.5 Q118 700 174 700 Q231 700 270.5 670 Q310 640 310 581 L310 466 Q310 441 311 421.5 Q312 402 317 382 L237 382 Q229 392 225 400.5 Q221 409 217 420 L215 420 Q207 406 185 390.5 Q163 375 126 375 Q84 375 54 399 Q24 423 24 466 Q24 492 35.5 509.5 Q47 527 64 538 Q81 549 102 555 Q123 561 141 565 Q173 571 190.5 577.5 Q208 584 208 599 Q208 610 197.5 617 Q187 624 172 624 Z M210 528 Q204 520 193 515.5 Q182 511 166 506 Q150 501 138.5 495 Q127 489 127 475 Q127 463 136 455.5 Q145 448 162 448 Q182 448 196 460.5 Q210 473 210 498 L210 528 Z " />
<glyph glyph-name="ordmasculine" unicode="&#xba;" horiz-adv-x="364" d="M182 374 Q149 374 119.5 384.5 Q90 395 68.5 416 Q47 437 34 467 Q21 497 21 536 Q21 575 34 605.5 Q47 636 68.5 657 Q90 678 119.5 688.5 Q149 699 182 699 Q215 699 244 688.5 Q273 678 295 657 Q317 636 330 605.5 Q343 575 343 536 Q343 497 330 467 Q317 437 295 416 Q273 395 244 384.5 Q215 374 182 374 Z M131 536 Q131 498 143 474 Q155 450 182 450 Q209 450 221.5 474 Q234 498 234 536 Q234 575 221.5 599 Q209 623 182 623 Q155 623 143 599 Q131 575 131 536 Z " />
<glyph glyph-name="uni2113" unicode="&#x2113;" horiz-adv-x="484" d="M-3 191 L110 285 L110 551 Q110 597 124 631.5 Q138 666 162 689 Q186 712 218.5 724 Q251 736 288 736 Q323 736 353.5 725.5 Q384 715 406.5 694.5 Q429 674 442 644 Q455 614 455 576 Q455 535 443.5 498.5 Q432 462 411.5 429 Q391 396 364 364.5 Q337 333 307 302 L248 242 L248 164 Q248 94 301 94 Q316 94 327 100 Q338 106 344.5 116 Q351 126 354.5 138 Q358 150 360 161 L472 92 Q461 74 445 55.5 Q429 37 406.5 22 Q384 7 355.5 -2.5 Q327 -12 292 -12 Q254 -12 221 -2 Q188 8 164 28.5 Q140 49 125.5 80 Q111 111 110 153 L56 110 L-3 191 Z M248 381 L258 392 Q296 434 319 479 Q342 524 342 568 Q342 594 331 611.5 Q320 629 296 629 Q270 629 259 606 Q248 583 248 540 L248 381 Z " />
<glyph glyph-name="uni2116" unicode="&#x2116;" horiz-adv-x="1163" d="M450 0 L257 385 Q248 402 238 426 Q228 450 219 471 Q208 496 199 521 L195 520 Q195 519 196 505 Q197 491 198 469.5 Q199 448 200 422.5 Q201 397 201 373 L201 0 L63 0 L63 692 L258 692 L452 307 Q460 289 471 265.5 Q482 242 491 221 Q502 196 512 171 L516 171 Q514 195 512 221 Q510 243 509 269 Q508 295 508 319 L508 692 L645 692 L645 0 L450 0 Z M926 324 Q882 324 845 337.5 Q808 351 780.5 375.5 Q753 400 737.5 435 Q722 470 722 514 Q722 557 737.5 592.5 Q753 628 780.5 652.5 Q808 677 845 690.5 Q882 704 926 704 Q970 704 1007.5 690.5 Q1045 677 1072.5 652.5 Q1100 628 1115.5 592.5 Q1131 557 1131 514 Q1131 470 1115.5 435 Q1100 400 1072.5 375 Q1045 350 1007.5 337 Q970 324 926 324 Z M728 142 L728 257 L1125 257 L1125 142 L728 142 Z M848 514 Q848 476 868 450 Q888 424 926 424 Q964 424 984.5 450 Q1005 476 1005 514 Q1005 552 984.5 578 Q964 604 926 604 Q888 604 868 578 Q848 552 848 514 Z " />
<glyph glyph-name="estimated" unicode="&#x212e;" horiz-adv-x="840" d="M173 135 Q173 129 176 123 Q179 117 184 112 Q229 64 290.5 36.5 Q352 9 425 9 Q502 9 566.5 40 Q631 71 679 126 L736 126 Q682 63 600.5 25.5 Q519 -12 424 -12 Q343 -12 271 16 Q199 44 145.5 92.5 Q92 141 61 206.5 Q30 272 30 346 Q30 419 61 484 Q92 549 145.5 598 Q199 647 271 675.5 Q343 704 424 704 Q506 704 577.5 675.5 Q649 647 702.5 598 Q756 549 787 484 Q818 419 818 346 L818 335 L181 335 Q173 335 173 332 L173 135 Z M670 357 Q675 357 675 363 L675 558 Q675 566 672 571 Q669 576 664 583 Q618 629 556.5 655.5 Q495 682 425 682 Q353 682 292 654.5 Q231 627 184 580 Q179 573 176 567 Q173 561 173 553 L173 363 Q173 357 181 357 L670 357 Z " />
<glyph glyph-name="uni25A0" unicode="&#x25a0;" horiz-adv-x="815" d="M63 692 L752 692 L752 0 L63 0 L63 692 Z " />
<glyph glyph-name="uni25A1" unicode="&#x25a1;" horiz-adv-x="815" d="M63 692 L752 692 L752 0 L63 0 L63 692 Z M207 133 L608 133 L608 557 L207 557 L207 133 Z " />
<glyph glyph-name="uni25FC" unicode="&#x25fc;" horiz-adv-x="614" d="M58 504 L556 504 L556 0 L58 0 L58 504 Z " />
<glyph glyph-name="uni25FB" unicode="&#x25fb;" horiz-adv-x="614" d="M58 504 L556 504 L556 0 L58 0 L58 504 Z M188 124 L426 124 L426 379 L188 379 L188 124 Z " />
<glyph glyph-name="uni25B6" unicode="&#x25b6;" horiz-adv-x="645" d="M58 565 L61 567 L637 256 L637 251 L61 -62 L58 -59 L58 565 Z " />
<glyph glyph-name="uni25B7" unicode="&#x25b7;" horiz-adv-x="645" d="M58 565 L61 567 L637 256 L637 251 L61 -62 L58 -59 L58 565 Z M188 143 L192 141 L392 252 L392 255 L192 360 L188 359 L188 143 Z " />
<glyph glyph-name="uni25C0" unicode="&#x25c0;" horiz-adv-x="645" d="M587.004 565 L584.004 567 L8.03888 256 L8.03888 251 L584.004 -62 L587.004 -59 L587.004 565 Z " />
<glyph glyph-name="uni25C1" unicode="&#x25c1;" horiz-adv-x="645" d="M587.004 565 L584.004 567 L8.03888 256 L8.03888 251 L584.004 -62 L587.004 -59 L587.004 565 Z M457.011 143 L453.012 141 L253.024 252 L253.024 255 L453.012 360 L457.011 359 L457.011 143 Z " />
<glyph glyph-name="circle" unicode="&#x25cb;" horiz-adv-x="780" d="M34 346 Q34 424 61 489.5 Q88 555 135.5 603 Q183 651 248 677.5 Q313 704 390 704 Q466 704 531.5 677.5 Q597 651 644.5 603 Q692 555 719 489.5 Q746 424 746 346 Q746 268 719 202.5 Q692 137 644.5 89 Q597 41 531.5 14.5 Q466 -12 390 -12 Q313 -12 248 14.5 Q183 41 135.5 89 Q88 137 61 202.5 Q34 268 34 346 Z M390 122 Q437 122 476.5 139 Q516 156 544.5 186 Q573 216 588.5 257 Q604 298 604 346 Q604 394 588.5 435 Q573 476 544.5 506 Q516 536 476.5 553 Q437 570 390 570 Q343 570 303.5 553 Q264 536 235.5 506 Q207 476 191.5 435 Q176 394 176 346 Q176 298 191.5 257 Q207 216 235.5 186 Q264 156 303.5 139 Q343 122 390 122 Z " />
<glyph glyph-name="H18533" unicode="&#x25cf;" horiz-adv-x="780" d="M390 704 Q466 704 531.5 677.5 Q597 651 644.5 603 Q692 555 719 489.5 Q746 424 746 346 Q746 268 719 202.5 Q692 137 644.5 89 Q597 41 531.5 14.5 Q466 -12 390 -12 Q313 -12 248 14.5 Q183 41 135.5 89 Q88 137 61 202.5 Q34 268 34 346 Q34 424 61 489.5 Q88 555 135.5 603 Q183 651 248 677.5 Q313 704 390 704 Z " />
<glyph glyph-name="arrowleft" unicode="&#x2190;" horiz-adv-x="690" d="M318.023 -5 L409.017 77 L213.029 289 L656.002 289 L656.002 416 L213.029 416 L405.017 619 L314.023 701 L7.04169 353 L318.023 -5 Z " />
<glyph glyph-name="arrowup" unicode="&#x2191;" horiz-adv-x="690" d="M685 389 L603 302 L413 473 L413 49 L277 49 L277 473 L87 302 L5 389 L345 680 L685 389 Z " />
<glyph glyph-name="arrowright" unicode="&#x2192;" horiz-adv-x="690" d="M372 -5 L281 77 L477 289 L34 289 L34 416 L477 416 L285 619 L376 701 L683 353 L372 -5 Z " />
<glyph glyph-name="arrowdown" unicode="&#x2193;" horiz-adv-x="690" d="M685 315.024 L603 402.018 L413 231.029 L413 655.003 L277 655.003 L277 231.029 L87 402.018 L5 315.024 L345 24.0415 L685 315.024 Z " />
<glyph glyph-name="uni2196" unicode="&#x2196;" horiz-adv-x="690" d="M203.03 415.018 L210.029 96.0374 L91.0366 96.0374 L91.0366 616.006 L611.005 616.006 L611.005 498.013 L294.024 505.012 L634.003 164.033 L544.009 73.0388 L203.03 415.018 Z " />
<glyph glyph-name="uni2197" unicode="&#x2197;" horiz-adv-x="690" d="M487 415.018 L480 96.0374 L599 96.0374 L599 616.006 L79 616.006 L79 498.013 L396 505.012 L56 164.033 L146 73.0388 L487 415.018 Z " />
<glyph glyph-name="uni2198" unicode="&#x2198;" horiz-adv-x="690" d="M487 294 L480 613 L599 613 L599 93 L79 93 L79 211 L396 204 L56 545 L146 636 L487 294 Z " />
<glyph glyph-name="uni2199" unicode="&#x2199;" horiz-adv-x="690" d="M203.03 294 L210.029 613 L91.0366 613 L91.0366 93 L611.005 93 L611.005 211 L294.024 204 L634.003 545 L544.009 636 L203.03 294 Z " />
<glyph glyph-name="uni2605" unicode="&#x2605;" horiz-adv-x="705" d="M350 644 L355 644 L450 403 L700 393 L702 388 L509 229 L574 -19 L569 -22 L352 120 L136 -22 L132 -19 L195 230 L3 388 L5 393 L255 403 L350 644 Z " />
<glyph glyph-name="uni2090" unicode="&#x2090;" horiz-adv-x="349" d="M172 135 Q150 135 134 122 Q118 109 110 83 L17 128 Q39 166 78.5 188.5 Q118 211 174 211 Q231 211 270.5 181 Q310 151 310 92 L310 -23 Q310 -48 311 -67.5 Q312 -87 317 -107 L237 -107 Q229 -97 225 -88.5 Q221 -80 217 -69 L215 -69 Q207 -83 185 -98.5 Q163 -114 126 -114 Q84 -114 54 -90 Q24 -66 24 -23 Q24 3 35.5 20.5 Q47 38 64 49 Q81 60 102 66 Q123 72 141 76 Q173 82 190.5 88.5 Q208 95 208 110 Q208 121 197.5 128 Q187 135 172 135 Z M210 39 Q204 31 193 26.5 Q182 22 166 17 Q150 12 138.5 6 Q127 0 127 -14 Q127 -26 136 -33.5 Q145 -41 162 -41 Q182 -41 196 -28.5 Q210 -16 210 9 L210 39 Z " />
<glyph glyph-name="uni2091" unicode="&#x2091;" horiz-adv-x="348" d="M122 20 Q125 -15 143 -28.5 Q161 -42 182 -42 Q203 -42 217 -30 Q231 -18 234 2 L324 -45 Q305 -74 269 -94 Q233 -114 182 -114 Q148 -114 118.5 -103.5 Q89 -93 67.5 -72 Q46 -51 33.5 -21 Q21 9 21 48 Q21 87 33.5 117.5 Q46 148 67.5 169 Q89 190 118 200.5 Q147 211 180 211 Q213 211 240 200.5 Q267 190 286.5 171 Q306 152 317 125.5 Q328 99 328 67 Q328 56 327 47.5 Q326 39 325 33 Q324 26 323 20 L122 20 Z M180 140 Q162 140 145.5 127.5 Q129 115 124 85 L229 85 Q229 111 214.5 125.5 Q200 140 180 140 Z " />
<glyph glyph-name="uni2095" unicode="&#x2095;" horiz-adv-x="370" d="M334 -107 L226 -107 L226 74 Q226 98 218 112 Q210 126 188 126 Q167 126 156 111.5 Q145 97 145 71 L145 -107 L37 -107 L37 340 L145 340 L145 230 Q145 215 144 201.5 Q143 188 142 177 Q141 165 140 154 L142 154 Q156 176 177.5 193.5 Q199 211 238 211 Q283 211 308.5 181 Q334 151 334 95 L334 -107 Z " />
<glyph glyph-name="uni2096" unicode="&#x2096;" horiz-adv-x="365" d="M251 82 L366 -107 L250 -107 L181 5 L145 -38 L145 -107 L37 -107 L37 340 L145 340 L145 142 Q145 127 144 113.5 Q143 100 142 89 Q141 77 140 66 L142 66 Q147 75 153 86 Q158 95 164.5 105 Q171 115 177 124 L234 204 L359 204 L251 82 Z " />
<glyph glyph-name="uni2097" unicode="&#x2097;" horiz-adv-x="183" d="M37 340 L146 340 L146 -107 L37 -107 L37 340 Z " />
<glyph glyph-name="uni2098" unicode="&#x2098;" horiz-adv-x="540" d="M37 204 L142 204 L138 154 L140 154 Q153 174 174 192.5 Q195 211 233 211 Q293 211 311 156 L314 156 Q331 179 353.5 195 Q376 211 411 211 Q456 211 480.5 182 Q505 153 505 99 L505 -107 L399 -107 L399 83 Q399 126 363 126 Q324 126 324 75 L324 -107 L218 -107 L218 88 Q216 126 182 126 Q144 126 142 78 L142 -107 L37 -107 L37 204 Z " />
<glyph glyph-name="uni2099" unicode="&#x2099;" horiz-adv-x="370" d="M334 -107 L226 -107 L226 74 Q226 98 218 112 Q210 126 188 126 Q167 126 156 111.5 Q145 97 145 71 L145 -107 L37 -107 L37 204 L145 204 L140 154 L142 154 Q156 176 177.5 193.5 Q199 211 238 211 Q283 211 308.5 181 Q334 151 334 95 L334 -107 Z " />
<glyph glyph-name="uni2092" unicode="&#x2092;" horiz-adv-x="364" d="M182 -114 Q149 -114 119.5 -103.5 Q90 -93 68.5 -72 Q47 -51 34 -21 Q21 9 21 48 Q21 87 34 117.5 Q47 148 68.5 169 Q90 190 119.5 200.5 Q149 211 182 211 Q215 211 244 200.5 Q273 190 295 169 Q317 148 330 117.5 Q343 87 343 48 Q343 9 330 -21 Q317 -51 295 -72 Q273 -93 244 -103.5 Q215 -114 182 -114 Z M131 48 Q131 10 143 -14 Q155 -38 182 -38 Q209 -38 221.5 -14 Q234 10 234 48 Q234 87 221.5 111 Q209 135 182 135 Q155 135 143 111 Q131 87 131 48 Z " />
<glyph glyph-name="uni209A" unicode="&#x209a;" horiz-adv-x="376" d="M141 154 Q156 177 177.5 194 Q199 211 234 211 Q258 211 280 199.5 Q302 188 318.5 167 Q335 146 345 116 Q355 86 355 48 Q355 10 345 -20 Q335 -50 318.5 -71 Q302 -92 280 -103 Q258 -114 234 -114 Q199 -114 178.5 -98 Q158 -82 145 -64 L145 -228 L37 -228 L37 204 L145 204 L141 154 Z M142 48 Q142 10 156 -12 Q170 -34 194 -34 Q218 -34 232 -12 Q246 10 246 48 Q246 87 232 109 Q218 131 194 131 Q170 131 156 109 Q142 87 142 48 Z " />
<glyph glyph-name="uni209B" unicode="&#x209b;" horiz-adv-x="333" d="M177 -42 Q192 -42 201 -36 Q210 -30 210 -19 Q210 -12 204 -7 Q198 -2 188 2 Q178 6 165 9 Q152 12 137 16 Q119 20 99.5 27.5 Q80 35 64 46.5 Q48 58 38 74 Q28 90 28 112 Q28 135 38.5 153.5 Q49 172 67.5 184.5 Q86 197 110.5 204 Q135 211 163 211 Q188 211 211.5 205 Q235 199 254.5 190 Q274 181 290 169 Q306 157 316 145 L225 98 Q220 115 204.5 127 Q189 139 168 139 Q153 139 144 133.5 Q135 128 135 118 Q135 104 159 99 Q183 94 220 83 Q238 77 255.5 69.5 Q273 62 286.5 51 Q300 40 308 25 Q316 10 316 -11 Q316 -36 305 -55 Q294 -74 275.5 -87 Q257 -100 232 -107 Q207 -114 180 -114 Q70 -114 11 -42 L104 6 Q115 -17 133 -29.5 Q151 -42 177 -42 Z " />
<glyph glyph-name="uni209C" unicode="&#x209c;" horiz-adv-x="246" d="M241 -89 Q233 -94 210 -104 Q187 -114 158 -114 Q110 -114 83 -90 Q56 -66 56 -15 L56 128 L7 128 L7 204 L56 204 L56 263 L164 318 L164 204 L232 204 L232 128 L164 128 L164 -5 Q164 -21 169 -27 Q174 -33 183 -33 Q192 -33 196.5 -28 Q201 -23 203 -18 L241 -89 Z " />
<glyph glyph-name="uni2093" unicode="&#x2093;" horiz-adv-x="338" d="M250 52 L334 -107 L217 -107 L191 -48 Q185 -36 181 -26.5 Q177 -17 174 -9 Q170 -1 169 6 L167 6 L161 -9 Q158 -17 154 -27 Q150 -37 145 -48 L119 -107 L4 -107 L87 52 L11 204 L126 204 L148 148 Q153 135 157 125.5 Q161 116 163 108 Q166 99 168 92 L171 92 Q173 99 176 108 Q178 116 182 126 Q186 136 191 148 L213 204 L327 204 L250 52 Z " />
<glyph glyph-name="uni2080" unicode="&#x2080;" horiz-adv-x="411" d="M138 108 Q138 83 141.5 59 Q145 35 152.5 16.5 Q160 -2 173 -13.5 Q186 -25 206 -25 Q225 -25 238 -13.5 Q251 -2 259 16.5 Q267 35 270 59 Q273 83 273 108 Q273 133 270 156.5 Q267 180 259 198 Q251 216 238 227 Q225 238 206 238 Q186 238 173 227 Q160 216 152.5 198 Q145 180 141.5 156.5 Q138 133 138 108 Z M24 108 Q24 161 37.5 202 Q51 243 75 270.5 Q99 298 132.5 312.5 Q166 327 206 327 Q246 327 279.5 312.5 Q313 298 337 270.5 Q361 243 374.5 202 Q388 161 388 108 Q388 54 374.5 13 Q361 -28 337 -56.5 Q313 -85 279.5 -99.5 Q246 -114 206 -114 Q166 -114 132.5 -99.5 Q99 -85 75 -56.5 Q51 -28 37.5 13 Q24 54 24 108 Z " />
<glyph glyph-name="uni2081" unicode="&#x2081;" horiz-adv-x="263" d="M112 198 Q101 185 82.5 174.5 Q64 164 44 159 L1 249 Q40 257 76 274.5 Q112 292 137 320 L220 320 L220 -107 L112 -107 L112 134 Q112 145 112 155.5 Q112 166 113 176 Q114 187 115 198 L112 198 Z " />
<glyph glyph-name="uni2082" unicode="&#x2082;" horiz-adv-x="361" d="M25 156 Q23 161 22 166 Q21 171 20.5 177 Q20 183 20 191 Q20 223 33.5 248 Q47 273 69.5 290.5 Q92 308 121.5 317.5 Q151 327 183 327 Q216 327 245 318 Q274 309 295.5 292 Q317 275 329.5 250 Q342 225 342 194 Q342 163 330 137.5 Q318 112 300 91 Q282 70 260.5 54 Q239 38 220.5 25 Q202 12 188.5 2.5 Q175 -7 173 -14 L173 -15 L339 -15 L339 -107 L35 -107 Q34 -104 34 -100 Q33 -96 33 -83 Q33 -50 47.5 -23 Q62 4 84.5 26.5 Q107 49 132.5 68.5 Q158 88 180.5 107 Q203 126 217.5 145.5 Q232 165 232 188 Q232 211 218.5 224.5 Q205 238 182 238 Q156 238 141 218.5 Q126 199 126 167 Q126 147 129.5 133.5 Q133 120 135 111 L25 156 Z " />
<glyph glyph-name="uni2083" unicode="&#x2083;" horiz-adv-x="359" d="M180 -114 Q116 -114 72 -86 Q28 -58 12 -15 L114 37 Q119 8 134.5 -8.5 Q150 -25 178 -25 Q205 -25 218.5 -9 Q232 7 232 33 Q232 58 216.5 74 Q201 90 174 90 Q152 90 136 83 Q120 76 106 67 L68 152 L173 231 L30 231 L30 320 L328 320 L328 247 L249 191 Q240 184 229 178 Q218 172 208 167 Q197 161 185 155 L186 153 Q188 153 192 154 Q195 154 198.5 154.5 Q202 155 206 155 Q234 155 258.5 146.5 Q283 138 301.5 121.5 Q320 105 330.5 81 Q341 57 341 27 Q341 -4 328.5 -30 Q316 -56 294.5 -74.5 Q273 -93 243.5 -103.5 Q214 -114 180 -114 Z " />
<glyph glyph-name="uni2084" unicode="&#x2084;" horiz-adv-x="380" d="M42 -5 L18 56 Q48 109 66 172.5 Q84 236 85 327 L188 279 Q186 212 167.5 166.5 Q149 121 126 82 L213 82 L213 320 L321 320 L321 82 L367 82 L367 -5 L321 -5 L321 -107 L213 -107 L213 -5 L42 -5 Z " />
<glyph glyph-name="uni2085" unicode="&#x2085;" horiz-adv-x="365" d="M183 -114 Q119 -114 76 -86 Q33 -58 17 -15 L120 37 Q124 9 138.5 -8 Q153 -25 181 -25 Q208 -25 222.5 -5.5 Q237 14 237 42 Q237 71 222.5 90 Q208 109 181 109 Q157 109 143.5 95.5 Q130 82 125 65 L30 104 L58 320 L316 320 L316 231 L146 231 L142 200 Q140 190 139 181.5 Q138 173 136 166 Q134 158 132 151 L133 150 Q144 163 164.5 173.5 Q185 184 214 184 Q241 184 264.5 174.5 Q288 165 306 147 Q324 129 334.5 102.5 Q345 76 345 42 Q345 7 333 -21.5 Q321 -50 299.5 -70.5 Q278 -91 248 -102.5 Q218 -114 183 -114 Z " />
<glyph glyph-name="uni2086" unicode="&#x2086;" horiz-adv-x="377" d="M211 327 Q259 327 297 305 Q335 283 358 248 L261 195 Q259 215 246.5 228.5 Q234 242 211 242 Q178 242 156.5 213.5 Q135 185 128 135 L130 135 Q146 156 170.5 168 Q195 180 221 180 Q246 180 271 171 Q296 162 315.5 144.5 Q335 127 347 101 Q359 75 359 41 Q359 6 346.5 -23 Q334 -52 311.5 -72 Q289 -92 259 -103 Q229 -114 195 -114 Q116 -114 70 -62 Q24 -10 24 91 Q24 145 37 188.5 Q50 232 74 262.5 Q98 293 132.5 310 Q167 327 211 327 Z M256 36 Q256 65 240 85 Q224 105 195 105 Q165 105 148.5 85 Q132 65 132 36 Q132 7 148.5 -13 Q165 -33 195 -33 Q224 -33 240 -13 Q256 7 256 36 Z " />
<glyph glyph-name="uni2087" unicode="&#x2087;" horiz-adv-x="347" d="M340 258 Q291 162 265.5 73 Q240 -16 228 -107 L105 -107 Q111 -62 123.5 -16 Q136 30 152.5 73.5 Q169 117 187 156.5 Q205 196 222 228 L117 228 L117 132 L14 180 L14 320 L340 320 L340 258 Z " />
<glyph glyph-name="uni2088" unicode="&#x2088;" horiz-adv-x="385" d="M192 -114 Q156 -114 124 -105.5 Q92 -97 69 -80.5 Q46 -64 32.5 -40.5 Q19 -17 19 13 Q19 38 28.5 57 Q38 76 52 88.5 Q66 101 81.5 109 Q97 117 109 121 L109 122 Q97 126 84 133.5 Q71 141 60 152 Q49 163 42 178 Q35 193 35 214 Q35 240 47.5 261 Q60 282 81 296.5 Q102 311 130.5 319 Q159 327 192 327 Q226 327 255 319 Q284 311 305 296.5 Q326 282 338 261 Q350 240 350 214 Q350 193 343 178 Q336 163 325 152 Q314 141 301 133.5 Q288 126 276 122 L276 121 Q288 117 303.5 109 Q319 101 333 88.5 Q347 76 356.5 57 Q366 38 366 13 Q366 -17 352.5 -40.5 Q339 -64 315.5 -80.5 Q292 -97 260.5 -105.5 Q229 -114 192 -114 Z M125 20 Q125 -6 144.5 -19.5 Q164 -33 192 -33 Q220 -33 240 -19.5 Q260 -6 260 20 Q260 47 240 60.5 Q220 74 192 74 Q164 74 144.5 60.5 Q125 47 125 20 Z M133 200 Q133 178 150.5 166.5 Q168 155 192 155 Q217 155 234.5 166.5 Q252 178 252 200 Q252 223 234.5 234.5 Q217 246 192 246 Q168 246 150.5 234.5 Q133 223 133 200 Z " />
<glyph glyph-name="uni2089" unicode="&#x2089;" horiz-adv-x="379" d="M184 -114 Q77 -114 31 -31 L128 22 Q130 2 144.5 -13.5 Q159 -29 186 -29 Q221 -29 235 -1.5 Q249 26 252 77 L249 79 Q234 58 209 48.5 Q184 39 158 39 Q132 39 107.5 47.5 Q83 56 63 73.5 Q43 91 31 117.5 Q19 144 19 179 Q19 213 32 240.5 Q45 268 67 287 Q89 306 119 316.5 Q149 327 184 327 Q263 327 309 277.5 Q355 228 355 129 Q355 73 345.5 28 Q336 -17 316 -48.5 Q296 -80 263 -97 Q230 -114 184 -114 Z M121 179 Q121 150 138 131.5 Q155 113 184 113 Q214 113 230.5 131.5 Q247 150 247 179 Q247 208 230 227 Q213 246 184 246 Q154 246 137.5 227 Q121 208 121 179 Z " />
<glyph glyph-name="uni208A" unicode="&#x208a;" horiz-adv-x="393" d="M148 52 L24 52 L24 139 L148 139 L148 267 L245 267 L245 139 L369 139 L369 52 L245 52 L245 -79 L148 -79 L148 52 Z " />
<glyph glyph-name="uni208B" unicode="&#x208b;" horiz-adv-x="393" d="M36 51 L36 140 L357 140 L357 51 L36 51 Z " />
<glyph glyph-name="uni208C" unicode="&#x208c;" horiz-adv-x="393" d="M36 -14 L36 69 L357 69 L357 -14 L36 -14 Z M36 117 L36 199 L357 199 L357 117 L36 117 Z " />
<glyph glyph-name="uni208D" unicode="&#x208d;" horiz-adv-x="246" d="M49 81 Q49 129 58 172.5 Q67 216 82 253.5 Q97 291 116 321 Q135 351 156 371 L239 331 Q204 286 180.5 224 Q157 162 157 81 Q157 1 180.5 -62.5 Q204 -126 239 -173 L156 -212 Q135 -192 116 -161.5 Q97 -131 82 -93 Q67 -55 58 -11 Q49 33 49 81 Z " />
<glyph glyph-name="uni208E" unicode="&#x208e;" horiz-adv-x="246" d="M197 81 Q197 33 188 -11 Q179 -55 164 -93 Q149 -131 129.5 -161.5 Q110 -192 90 -212 L7 -173 Q42 -126 65 -62.5 Q88 1 88 81 Q88 162 65 224 Q42 286 7 331 L90 371 Q110 351 129.5 321 Q149 291 164 253.5 Q179 216 188 172.5 Q197 129 197 81 Z " />
<glyph glyph-name="uni2071" unicode="&#x2071;" horiz-adv-x="183" d="M91 831 Q116 831 133.5 815.5 Q151 800 151 777 Q151 753 133.5 738 Q116 723 91 723 Q66 723 49 738 Q32 753 32 777 Q32 800 49 815.5 Q66 831 91 831 Z M37 692 L146 692 L146 381 L37 381 L37 692 Z " />
<glyph glyph-name="uni207F" unicode="&#x207f;" horiz-adv-x="370" d="M334 381 L226 381 L226 562 Q226 586 218 600 Q210 614 188 614 Q167 614 156 599.5 Q145 585 145 559 L145 381 L37 381 L37 692 L145 692 L140 642 L142 642 Q156 664 177.5 681.5 Q199 699 238 699 Q283 699 308.5 669 Q334 639 334 583 L334 381 Z " />
<glyph glyph-name="uni2070" unicode="&#x2070;" horiz-adv-x="411" d="M138 596 Q138 571 141.5 547 Q145 523 152.5 504.5 Q160 486 173 474.5 Q186 463 206 463 Q225 463 238 474.5 Q251 486 259 504.5 Q267 523 270 547 Q273 571 273 596 Q273 621 270 644.5 Q267 668 259 686 Q251 704 238 715 Q225 726 206 726 Q186 726 173 715 Q160 704 152.5 686 Q145 668 141.5 644.5 Q138 621 138 596 Z M24 596 Q24 649 37.5 690 Q51 731 75 758.5 Q99 786 132.5 800.5 Q166 815 206 815 Q246 815 279.5 800.5 Q313 786 337 758.5 Q361 731 374.5 690 Q388 649 388 596 Q388 542 374.5 501 Q361 460 337 431.5 Q313 403 279.5 388.5 Q246 374 206 374 Q166 374 132.5 388.5 Q99 403 75 431.5 Q51 460 37.5 501 Q24 542 24 596 Z " />
<glyph glyph-name="onesuperior" unicode="&#xb9;" horiz-adv-x="263" d="M112 686 Q101 673 82.5 662.5 Q64 652 44 647 L1 737 Q40 745 76 762.5 Q112 780 137 808 L220 808 L220 381 L112 381 L112 622 Q112 633 112 643.5 Q112 654 113 664 Q114 675 115 686 L112 686 Z " />
<glyph glyph-name="twosuperior" unicode="&#xb2;" horiz-adv-x="361" d="M25 644 Q23 649 22 654 Q21 659 20.5 665 Q20 671 20 679 Q20 711 33.5 736 Q47 761 69.5 778.5 Q92 796 121.5 805.5 Q151 815 183 815 Q216 815 245 806 Q274 797 295.5 780 Q317 763 329.5 738 Q342 713 342 682 Q342 651 330 625.5 Q318 600 300 579 Q282 558 260.5 542 Q239 526 220.5 513 Q202 500 188.5 490.5 Q175 481 173 474 L173 473 L339 473 L339 381 L35 381 Q34 384 34 388 Q33 392 33 405 Q33 438 47.5 465 Q62 492 84.5 514.5 Q107 537 132.5 556.5 Q158 576 180.5 595 Q203 614 217.5 633.5 Q232 653 232 676 Q232 699 218.5 712.5 Q205 726 182 726 Q156 726 141 706.5 Q126 687 126 655 Q126 635 129.5 621.5 Q133 608 135 599 L25 644 Z " />
<glyph glyph-name="threesuperior" unicode="&#xb3;" horiz-adv-x="359" d="M180 374 Q116 374 72 402 Q28 430 12 473 L114 525 Q119 496 134.5 479.5 Q150 463 178 463 Q205 463 218.5 479 Q232 495 232 521 Q232 546 216.5 562 Q201 578 174 578 Q152 578 136 571 Q120 564 106 555 L68 640 L173 719 L30 719 L30 808 L328 808 L328 735 L249 679 Q240 672 229 666 Q218 660 208 655 Q197 649 185 643 L186 641 Q188 641 192 642 Q195 642 198.5 642.5 Q202 643 206 643 Q234 643 258.5 634.5 Q283 626 301.5 609.5 Q320 593 330.5 569 Q341 545 341 515 Q341 484 328.5 458 Q316 432 294.5 413.5 Q273 395 243.5 384.5 Q214 374 180 374 Z " />
<glyph glyph-name="uni2074" unicode="&#x2074;" horiz-adv-x="380" d="M42 483 L18 544 Q48 597 66 660.5 Q84 724 85 815 L188 767 Q186 700 167.5 654.5 Q149 609 126 570 L213 570 L213 808 L321 808 L321 570 L367 570 L367 483 L321 483 L321 381 L213 381 L213 483 L42 483 Z " />
<glyph glyph-name="uni2075" unicode="&#x2075;" horiz-adv-x="365" d="M183 374 Q119 374 76 402 Q33 430 17 473 L120 525 Q124 497 138.5 480 Q153 463 181 463 Q208 463 222.5 482.5 Q237 502 237 530 Q237 559 222.5 578 Q208 597 181 597 Q157 597 143.5 583.5 Q130 570 125 553 L30 592 L58 808 L316 808 L316 719 L146 719 L142 688 Q140 678 139 669.5 Q138 661 136 654 Q134 646 132 639 L133 638 Q144 651 164.5 661.5 Q185 672 214 672 Q241 672 264.5 662.5 Q288 653 306 635 Q324 617 334.5 590.5 Q345 564 345 530 Q345 495 333 466.5 Q321 438 299.5 417.5 Q278 397 248 385.5 Q218 374 183 374 Z " />
<glyph glyph-name="uni2076" unicode="&#x2076;" horiz-adv-x="377" d="M211 815 Q259 815 297 793 Q335 771 358 736 L261 683 Q259 703 246.5 716.5 Q234 730 211 730 Q178 730 156.5 701.5 Q135 673 128 623 L130 623 Q146 644 170.5 656 Q195 668 221 668 Q246 668 271 659 Q296 650 315.5 632.5 Q335 615 347 589 Q359 563 359 529 Q359 494 346.5 465 Q334 436 311.5 416 Q289 396 259 385 Q229 374 195 374 Q116 374 70 426 Q24 478 24 579 Q24 633 37 676.5 Q50 720 74 750.5 Q98 781 132.5 798 Q167 815 211 815 Z M256 524 Q256 553 240 573 Q224 593 195 593 Q165 593 148.5 573 Q132 553 132 524 Q132 495 148.5 475 Q165 455 195 455 Q224 455 240 475 Q256 495 256 524 Z " />
<glyph glyph-name="uni2077" unicode="&#x2077;" horiz-adv-x="347" d="M340 746 Q291 650 265.5 561 Q240 472 228 381 L105 381 Q111 426 123.5 472 Q136 518 152.5 561.5 Q169 605 187 644.5 Q205 684 222 716 L117 716 L117 620 L14 668 L14 808 L340 808 L340 746 Z " />
<glyph glyph-name="uni2078" unicode="&#x2078;" horiz-adv-x="385" d="M192 374 Q156 374 124 382.5 Q92 391 69 407.5 Q46 424 32.5 447.5 Q19 471 19 501 Q19 526 28.5 545 Q38 564 52 576.5 Q66 589 81.5 597 Q97 605 109 609 L109 610 Q97 614 84 621.5 Q71 629 60 640 Q49 651 42 666 Q35 681 35 702 Q35 728 47.5 749 Q60 770 81 784.5 Q102 799 130.5 807 Q159 815 192 815 Q226 815 255 807 Q284 799 305 784.5 Q326 770 338 749 Q350 728 350 702 Q350 681 343 666 Q336 651 325 640 Q314 629 301 621.5 Q288 614 276 610 L276 609 Q288 605 303.5 597 Q319 589 333 576.5 Q347 564 356.5 545 Q366 526 366 501 Q366 471 352.5 447.5 Q339 424 315.5 407.5 Q292 391 260.5 382.5 Q229 374 192 374 Z M125 508 Q125 482 144.5 468.5 Q164 455 192 455 Q220 455 240 468.5 Q260 482 260 508 Q260 535 240 548.5 Q220 562 192 562 Q164 562 144.5 548.5 Q125 535 125 508 Z M133 688 Q133 666 150.5 654.5 Q168 643 192 643 Q217 643 234.5 654.5 Q252 666 252 688 Q252 711 234.5 722.5 Q217 734 192 734 Q168 734 150.5 722.5 Q133 711 133 688 Z " />
<glyph glyph-name="uni2079" unicode="&#x2079;" horiz-adv-x="379" d="M184 374 Q77 374 31 457 L128 510 Q130 490 144.5 474.5 Q159 459 186 459 Q221 459 235 486.5 Q249 514 252 565 L249 567 Q234 546 209 536.5 Q184 527 158 527 Q132 527 107.5 535.5 Q83 544 63 561.5 Q43 579 31 605.5 Q19 632 19 667 Q19 701 32 728.5 Q45 756 67 775 Q89 794 119 804.5 Q149 815 184 815 Q263 815 309 765.5 Q355 716 355 617 Q355 561 345.5 516 Q336 471 316 439.5 Q296 408 263 391 Q230 374 184 374 Z M121 667 Q121 638 138 619.5 Q155 601 184 601 Q214 601 230.5 619.5 Q247 638 247 667 Q247 696 230 715 Q213 734 184 734 Q154 734 137.5 715 Q121 696 121 667 Z " />
<glyph glyph-name="uni207A" unicode="&#x207a;" horiz-adv-x="393" d="M148 540 L24 540 L24 627 L148 627 L148 755 L245 755 L245 627 L369 627 L369 540 L245 540 L245 409 L148 409 L148 540 Z " />
<glyph glyph-name="uni207B" unicode="&#x207b;" horiz-adv-x="393" d="M36 539 L36 628 L357 628 L357 539 L36 539 Z " />
<glyph glyph-name="uni207C" unicode="&#x207c;" horiz-adv-x="393" d="M36 474 L36 557 L357 557 L357 474 L36 474 Z M36 605 L36 687 L357 687 L357 605 L36 605 Z " />
<glyph glyph-name="uni207D" unicode="&#x207d;" horiz-adv-x="246" d="M49 569 Q49 617 58 660.5 Q67 704 82 741.5 Q97 779 116 809 Q135 839 156 859 L239 819 Q204 774 180.5 712 Q157 650 157 569 Q157 489 180.5 425.5 Q204 362 239 315 L156 276 Q135 296 116 326.5 Q97 357 82 395 Q67 433 58 477 Q49 521 49 569 Z " />
<glyph glyph-name="uni207E" unicode="&#x207e;" horiz-adv-x="246" d="M197 569 Q197 521 188 477 Q179 433 164 395 Q149 357 129.5 326.5 Q110 296 90 276 L7 315 Q42 362 65 425.5 Q88 489 88 569 Q88 650 65 712 Q42 774 7 819 L90 859 Q110 839 129.5 809 Q149 779 164 741.5 Q179 704 188 660.5 Q197 617 197 569 Z " />
<glyph glyph-name="fraction" unicode="&#x2044;" horiz-adv-x="210" d="M306 709 L394 655 L-81 -17 L-169 37 L306 709 Z " />
<glyph glyph-name="percent" unicode="&#x25;" horiz-adv-x="909" d="M876 178 Q876 136 862.5 101 Q849 66 825 41 Q801 16 767.5 2 Q734 -12 695 -12 Q656 -12 622.5 2 Q589 16 565 41 Q541 66 527.5 101 Q514 136 514 178 Q514 220 527.5 254.5 Q541 289 565 314 Q589 339 622.5 353 Q656 367 695 367 Q734 367 767.5 353 Q801 339 825 314 Q849 289 862.5 254.5 Q876 220 876 178 Z M395 514 Q395 472 381.5 437.5 Q368 403 344 378 Q320 353 286.5 339 Q253 325 214 325 Q175 325 141.5 339 Q108 353 84 378 Q60 403 46.5 437.5 Q33 472 33 514 Q33 556 46.5 591 Q60 626 84 651 Q108 676 141.5 690 Q175 704 214 704 Q253 704 286.5 690 Q320 676 344 651 Q368 626 381.5 591 Q395 556 395 514 Z M647 709 L735 655 L261 -17 L173 37 L647 709 Z M214 613 Q177 613 160.5 584 Q144 555 144 514 Q144 474 160.5 445 Q177 416 214 416 Q252 416 268 445 Q284 474 284 514 Q284 534 280 552 Q276 570 267.5 583.5 Q259 597 246 605 Q233 613 214 613 Z M695 276 Q658 276 641.5 247 Q625 218 625 178 Q625 137 641.5 108 Q658 79 695 79 Q732 79 748.5 108 Q765 137 765 178 Q765 218 749 247 Q733 276 695 276 Z " />
<glyph glyph-name="perthousand" unicode="&#x2030;" horiz-adv-x="1316" d="M876 178 Q876 136 862.5 101 Q849 66 825 41 Q801 16 767.5 2 Q734 -12 695 -12 Q656 -12 622.5 2 Q589 16 565 41 Q541 66 527.5 101 Q514 136 514 178 Q514 220 527.5 254.5 Q541 289 565 314 Q589 339 622.5 353 Q656 367 695 367 Q734 367 767.5 353 Q801 339 825 314 Q849 289 862.5 254.5 Q876 220 876 178 Z M395 514 Q395 472 381.5 437.5 Q368 403 344 378 Q320 353 286.5 339 Q253 325 214 325 Q175 325 141.5 339 Q108 353 84 378 Q60 403 46.5 437.5 Q33 472 33 514 Q33 556 46.5 591 Q60 626 84 651 Q108 676 141.5 690 Q175 704 214 704 Q253 704 286.5 690 Q320 676 344 651 Q368 626 381.5 591 Q395 556 395 514 Z M1283 178 Q1283 136 1269.5 101 Q1256 66 1232 41 Q1208 16 1174.5 2 Q1141 -12 1102 -12 Q1063 -12 1029.5 2 Q996 16 972 41 Q948 66 934.5 101 Q921 136 921 178 Q921 220 934.5 254.5 Q948 289 972 314 Q996 339 1029.5 353 Q1063 367 1102 367 Q1141 367 1174.5 353 Q1208 339 1232 314 Q1256 289 1269.5 254.5 Q1283 220 1283 178 Z M647 709 L735 655 L261 -17 L173 37 L647 709 Z M214 613 Q177 613 160.5 584 Q144 555 144 514 Q144 474 160.5 445 Q177 416 214 416 Q252 416 268 445 Q284 474 284 514 Q284 534 280 552 Q276 570 267.5 583.5 Q259 597 246 605 Q233 613 214 613 Z M1102 276 Q1065 276 1048.5 247 Q1032 218 1032 178 Q1032 137 1048.5 108 Q1065 79 1102 79 Q1139 79 1155.5 108 Q1172 137 1172 178 Q1172 218 1156 247 Q1140 276 1102 276 Z M695 276 Q658 276 641.5 247 Q625 218 625 178 Q625 137 641.5 108 Q658 79 695 79 Q732 79 748.5 108 Q765 137 765 178 Q765 218 749 247 Q733 276 695 276 Z " />
<glyph glyph-name="onehalf" unicode="&#xbd;" horiz-adv-x="876" d="M600 709 L688 655 L213 -17 L125 37 L600 709 Z M122 582 Q111 569 92.5 558.5 Q74 548 54 543 L11 633 Q50 641 86 658.5 Q122 676 147 704 L230 704 L230 277 L122 277 L122 518 Q122 529 122 539.5 Q122 550 123 560 Q124 571 125 582 L122 582 Z M528 263 Q526 268 525 273 Q524 278 523.5 284 Q523 290 523 298 Q523 330 536.5 355 Q550 380 572.5 397.5 Q595 415 624.5 424.5 Q654 434 686 434 Q719 434 748 425 Q777 416 798.5 399 Q820 382 832.5 357 Q845 332 845 301 Q845 270 833 244.5 Q821 219 803 198 Q785 177 763.5 161 Q742 145 723.5 132 Q705 119 691.5 109.5 Q678 100 676 93 L676 92 L842 92 L842 0 L538 0 Q537 3 537 7 Q536 11 536 24 Q536 57 550.5 84 Q565 111 587.5 133.5 Q610 156 635.5 175.5 Q661 195 683.5 214 Q706 233 720.5 252.5 Q735 272 735 295 Q735 318 721.5 331.5 Q708 345 685 345 Q659 345 644 325.5 Q629 306 629 274 Q629 254 632.5 240.5 Q636 227 638 218 L528 263 Z " />
<glyph glyph-name="onethird" unicode="&#x2153;" horiz-adv-x="911" d="M600 709 L688 655 L213 -17 L125 37 L600 709 Z M122 582 Q111 569 92.5 558.5 Q74 548 54 543 L11 633 Q50 641 86 658.5 Q122 676 147 704 L230 704 L230 277 L122 277 L122 518 Q122 529 122 539.5 Q122 550 123 560 Q124 571 125 582 L122 582 Z M712 -7 Q648 -7 604 21 Q560 49 544 92 L646 144 Q651 115 666.5 98.5 Q682 82 710 82 Q737 82 750.5 98 Q764 114 764 140 Q764 165 748.5 181 Q733 197 706 197 Q684 197 668 190 Q652 183 638 174 L600 259 L705 338 L562 338 L562 427 L860 427 L860 354 L781 298 Q772 291 761 285 Q750 279 740 274 Q729 268 717 262 L718 260 Q720 260 724 261 Q727 261 730.5 261.5 Q734 262 738 262 Q766 262 790.5 253.5 Q815 245 833.5 228.5 Q852 212 862.5 188 Q873 164 873 134 Q873 103 860.5 77 Q848 51 826.5 32.5 Q805 14 775.5 3.5 Q746 -7 712 -7 Z " />
<glyph glyph-name="twothirds" unicode="&#x2154;" horiz-adv-x="1000" d="M691 709 L779 655 L304 -17 L216 37 L691 709 Z M29 540 Q27 545 26 550 Q25 555 24.5 561 Q24 567 24 575 Q24 607 37.5 632 Q51 657 73.5 674.5 Q96 692 125.5 701.5 Q155 711 187 711 Q220 711 249 702 Q278 693 299.5 676 Q321 659 333.5 634 Q346 609 346 578 Q346 547 334 521.5 Q322 496 304 475 Q286 454 264.5 438 Q243 422 224.5 409 Q206 396 192.5 386.5 Q179 377 177 370 L177 369 L343 369 L343 277 L39 277 Q38 280 38 284 Q37 288 37 301 Q37 334 51.5 361 Q66 388 88.5 410.5 Q111 433 136.5 452.5 Q162 472 184.5 491 Q207 510 221.5 529.5 Q236 549 236 572 Q236 595 222.5 608.5 Q209 622 186 622 Q160 622 145 602.5 Q130 583 130 551 Q130 531 133.5 517.5 Q137 504 139 495 L29 540 Z M801 -7 Q737 -7 693 21 Q649 49 633 92 L735 144 Q740 115 755.5 98.5 Q771 82 799 82 Q826 82 839.5 98 Q853 114 853 140 Q853 165 837.5 181 Q822 197 795 197 Q773 197 757 190 Q741 183 727 174 L689 259 L794 338 L651 338 L651 427 L949 427 L949 354 L870 298 Q861 291 850 285 Q839 279 829 274 Q818 268 806 262 L807 260 Q809 260 813 261 Q816 261 819.5 261.5 Q823 262 827 262 Q855 262 879.5 253.5 Q904 245 922.5 228.5 Q941 212 951.5 188 Q962 164 962 134 Q962 103 949.5 77 Q937 51 915.5 32.5 Q894 14 864.5 3.5 Q835 -7 801 -7 Z " />
<glyph glyph-name="onequarter" unicode="&#xbc;" horiz-adv-x="896" d="M600 709 L688 655 L213 -17 L125 37 L600 709 Z M122 582 Q111 569 92.5 558.5 Q74 548 54 543 L11 633 Q50 641 86 658.5 Q122 676 147 704 L230 704 L230 277 L122 277 L122 518 Q122 529 122 539.5 Q122 550 123 560 Q124 571 125 582 L122 582 Z M542 102 L518 163 Q548 216 566 279.5 Q584 343 585 434 L688 386 Q686 319 667.5 273.5 Q649 228 626 189 L713 189 L713 427 L821 427 L821 189 L867 189 L867 102 L821 102 L821 0 L713 0 L713 102 L542 102 Z " />
<glyph glyph-name="threequarters" unicode="&#xbe;" horiz-adv-x="967" d="M671 709 L759 655 L284 -17 L196 37 L671 709 Z M613 102 L589 163 Q619 216 637 279.5 Q655 343 656 434 L759 386 Q757 319 738.5 273.5 Q720 228 697 189 L784 189 L784 427 L892 427 L892 189 L938 189 L938 102 L892 102 L892 0 L784 0 L784 102 L613 102 Z M186 270 Q122 270 78 298 Q34 326 18 369 L120 421 Q125 392 140.5 375.5 Q156 359 184 359 Q211 359 224.5 375 Q238 391 238 417 Q238 442 222.5 458 Q207 474 180 474 Q158 474 142 467 Q126 460 112 451 L74 536 L179 615 L36 615 L36 704 L334 704 L334 631 L255 575 Q246 568 235 562 Q224 556 214 551 Q203 545 191 539 L192 537 Q194 537 198 538 Q201 538 204.5 538.5 Q208 539 212 539 Q240 539 264.5 530.5 Q289 522 307.5 505.5 Q326 489 336.5 465 Q347 441 347 411 Q347 380 334.5 354 Q322 328 300.5 309.5 Q279 291 249.5 280.5 Q220 270 186 270 Z " />
<glyph glyph-name="uni2155" unicode="&#x2155;" horiz-adv-x="891" d="M600 709 L688 655 L213 -17 L125 37 L600 709 Z M122 582 Q111 569 92.5 558.5 Q74 548 54 543 L11 633 Q50 641 86 658.5 Q122 676 147 704 L230 704 L230 277 L122 277 L122 518 Q122 529 122 539.5 Q122 550 123 560 Q124 571 125 582 L122 582 Z M695 -7 Q631 -7 588 21 Q545 49 529 92 L632 144 Q636 116 650.5 99 Q665 82 693 82 Q720 82 734.5 101.5 Q749 121 749 149 Q749 178 734.5 197 Q720 216 693 216 Q669 216 655.5 202.5 Q642 189 637 172 L542 211 L570 427 L828 427 L828 338 L658 338 L654 307 Q652 297 651 288.5 Q650 280 648 273 Q646 265 644 258 L645 257 Q656 270 676.5 280.5 Q697 291 726 291 Q753 291 776.5 281.5 Q800 272 818 254 Q836 236 846.5 209.5 Q857 183 857 149 Q857 114 845 85.5 Q833 57 811.5 36.5 Q790 16 760 4.5 Q730 -7 695 -7 Z " />
<glyph glyph-name="uni2156" unicode="&#x2156;" horiz-adv-x="982" d="M691 709 L779 655 L304 -17 L216 37 L691 709 Z M29 540 Q27 545 26 550 Q25 555 24.5 561 Q24 567 24 575 Q24 607 37.5 632 Q51 657 73.5 674.5 Q96 692 125.5 701.5 Q155 711 187 711 Q220 711 249 702 Q278 693 299.5 676 Q321 659 333.5 634 Q346 609 346 578 Q346 547 334 521.5 Q322 496 304 475 Q286 454 264.5 438 Q243 422 224.5 409 Q206 396 192.5 386.5 Q179 377 177 370 L177 369 L343 369 L343 277 L39 277 Q38 280 38 284 Q37 288 37 301 Q37 334 51.5 361 Q66 388 88.5 410.5 Q111 433 136.5 452.5 Q162 472 184.5 491 Q207 510 221.5 529.5 Q236 549 236 572 Q236 595 222.5 608.5 Q209 622 186 622 Q160 622 145 602.5 Q130 583 130 551 Q130 531 133.5 517.5 Q137 504 139 495 L29 540 Z M787 -7 Q723 -7 680 21 Q637 49 621 92 L724 144 Q728 116 742.5 99 Q757 82 785 82 Q812 82 826.5 101.5 Q841 121 841 149 Q841 178 826.5 197 Q812 216 785 216 Q761 216 747.5 202.5 Q734 189 729 172 L634 211 L662 427 L920 427 L920 338 L750 338 L746 307 Q744 297 743 288.5 Q742 280 740 273 Q738 265 736 258 L737 257 Q748 270 768.5 280.5 Q789 291 818 291 Q845 291 868.5 281.5 Q892 272 910 254 Q928 236 938.5 209.5 Q949 183 949 149 Q949 114 937 85.5 Q925 57 903.5 36.5 Q882 16 852 4.5 Q822 -7 787 -7 Z " />
<glyph glyph-name="uni2157" unicode="&#x2157;" horiz-adv-x="966" d="M671 709 L759 655 L284 -17 L196 37 L671 709 Z M771 -7 Q707 -7 664 21 Q621 49 605 92 L708 144 Q712 116 726.5 99 Q741 82 769 82 Q796 82 810.5 101.5 Q825 121 825 149 Q825 178 810.5 197 Q796 216 769 216 Q745 216 731.5 202.5 Q718 189 713 172 L618 211 L646 427 L904 427 L904 338 L734 338 L730 307 Q728 297 727 288.5 Q726 280 724 273 Q722 265 720 258 L721 257 Q732 270 752.5 280.5 Q773 291 802 291 Q829 291 852.5 281.5 Q876 272 894 254 Q912 236 922.5 209.5 Q933 183 933 149 Q933 114 921 85.5 Q909 57 887.5 36.5 Q866 16 836 4.5 Q806 -7 771 -7 Z M186 270 Q122 270 78 298 Q34 326 18 369 L120 421 Q125 392 140.5 375.5 Q156 359 184 359 Q211 359 224.5 375 Q238 391 238 417 Q238 442 222.5 458 Q207 474 180 474 Q158 474 142 467 Q126 460 112 451 L74 536 L179 615 L36 615 L36 704 L334 704 L334 631 L255 575 Q246 568 235 562 Q224 556 214 551 Q203 545 191 539 L192 537 Q194 537 198 538 Q201 538 204.5 538.5 Q208 539 212 539 Q240 539 264.5 530.5 Q289 522 307.5 505.5 Q326 489 336.5 465 Q347 441 347 411 Q347 380 334.5 354 Q322 328 300.5 309.5 Q279 291 249.5 280.5 Q220 270 186 270 Z " />
<glyph glyph-name="uni2158" unicode="&#x2158;" horiz-adv-x="988" d="M697 709 L785 655 L310 -17 L222 37 L697 709 Z M793 -7 Q729 -7 686 21 Q643 49 627 92 L730 144 Q734 116 748.5 99 Q763 82 791 82 Q818 82 832.5 101.5 Q847 121 847 149 Q847 178 832.5 197 Q818 216 791 216 Q767 216 753.5 202.5 Q740 189 735 172 L640 211 L668 427 L926 427 L926 338 L756 338 L752 307 Q750 297 749 288.5 Q748 280 746 273 Q744 265 742 258 L743 257 Q754 270 774.5 280.5 Q795 291 824 291 Q851 291 874.5 281.5 Q898 272 916 254 Q934 236 944.5 209.5 Q955 183 955 149 Q955 114 943 85.5 Q931 57 909.5 36.5 Q888 16 858 4.5 Q828 -7 793 -7 Z M48 379 L24 440 Q54 493 72 556.5 Q90 620 91 711 L194 663 Q192 596 173.5 550.5 Q155 505 132 466 L219 466 L219 704 L327 704 L327 466 L373 466 L373 379 L327 379 L327 277 L219 277 L219 379 L48 379 Z " />
<glyph glyph-name="uni2159" unicode="&#x2159;" horiz-adv-x="882" d="M600 709 L688 655 L213 -17 L125 37 L600 709 Z M122 582 Q111 569 92.5 558.5 Q74 548 54 543 L11 633 Q50 641 86 658.5 Q122 676 147 704 L230 704 L230 277 L122 277 L122 518 Q122 529 122 539.5 Q122 550 123 560 Q124 571 125 582 L122 582 Z M689 434 Q737 434 775 412 Q813 390 836 355 L739 302 Q737 322 724.5 335.5 Q712 349 689 349 Q656 349 634.5 320.5 Q613 292 606 242 L608 242 Q624 263 648.5 275 Q673 287 699 287 Q724 287 749 278 Q774 269 793.5 251.5 Q813 234 825 208 Q837 182 837 148 Q837 113 824.5 84 Q812 55 789.5 35 Q767 15 737 4 Q707 -7 673 -7 Q594 -7 548 45 Q502 97 502 198 Q502 252 515 295.5 Q528 339 552 369.5 Q576 400 610.5 417 Q645 434 689 434 Z M734 143 Q734 172 718 192 Q702 212 673 212 Q643 212 626.5 192 Q610 172 610 143 Q610 114 626.5 94 Q643 74 673 74 Q702 74 718 94 Q734 114 734 143 Z " />
<glyph glyph-name="uni215A" unicode="&#x215a;" horiz-adv-x="954" d="M671 709 L759 655 L284 -17 L196 37 L671 709 Z M762 434 Q810 434 848 412 Q886 390 909 355 L812 302 Q810 322 797.5 335.5 Q785 349 762 349 Q729 349 707.5 320.5 Q686 292 679 242 L681 242 Q697 263 721.5 275 Q746 287 772 287 Q797 287 822 278 Q847 269 866.5 251.5 Q886 234 898 208 Q910 182 910 148 Q910 113 897.5 84 Q885 55 862.5 35 Q840 15 810 4 Q780 -7 746 -7 Q667 -7 621 45 Q575 97 575 198 Q575 252 588 295.5 Q601 339 625 369.5 Q649 400 683.5 417 Q718 434 762 434 Z M807 143 Q807 172 791 192 Q775 212 746 212 Q716 212 699.5 192 Q683 172 683 143 Q683 114 699.5 94 Q716 74 746 74 Q775 74 791 94 Q807 114 807 143 Z M188 270 Q124 270 81 298 Q38 326 22 369 L125 421 Q129 393 143.5 376 Q158 359 186 359 Q213 359 227.5 378.5 Q242 398 242 426 Q242 455 227.5 474 Q213 493 186 493 Q162 493 148.5 479.5 Q135 466 130 449 L35 488 L63 704 L321 704 L321 615 L151 615 L147 584 Q145 574 144 565.5 Q143 557 141 550 Q139 542 137 535 L138 534 Q149 547 169.5 557.5 Q190 568 219 568 Q246 568 269.5 558.5 Q293 549 311 531 Q329 513 339.5 486.5 Q350 460 350 426 Q350 391 338 362.5 Q326 334 304.5 313.5 Q283 293 253 281.5 Q223 270 188 270 Z " />
<glyph glyph-name="oneeighth" unicode="&#x215b;" horiz-adv-x="906" d="M600 709 L688 655 L213 -17 L125 37 L600 709 Z M122 582 Q111 569 92.5 558.5 Q74 548 54 543 L11 633 Q50 641 86 658.5 Q122 676 147 704 L230 704 L230 277 L122 277 L122 518 Q122 529 122 539.5 Q122 550 123 560 Q124 571 125 582 L122 582 Z M696 -7 Q660 -7 628 1.5 Q596 10 573 26.5 Q550 43 536.5 66.5 Q523 90 523 120 Q523 145 532.5 164 Q542 183 556 195.5 Q570 208 585.5 216 Q601 224 613 228 L613 229 Q601 233 588 240.5 Q575 248 564 259 Q553 270 546 285 Q539 300 539 321 Q539 347 551.5 368 Q564 389 585 403.5 Q606 418 634.5 426 Q663 434 696 434 Q730 434 759 426 Q788 418 809 403.5 Q830 389 842 368 Q854 347 854 321 Q854 300 847 285 Q840 270 829 259 Q818 248 805 240.5 Q792 233 780 229 L780 228 Q792 224 807.5 216 Q823 208 837 195.5 Q851 183 860.5 164 Q870 145 870 120 Q870 90 856.5 66.5 Q843 43 819.5 26.5 Q796 10 764.5 1.5 Q733 -7 696 -7 Z M629 127 Q629 101 648.5 87.5 Q668 74 696 74 Q724 74 744 87.5 Q764 101 764 127 Q764 154 744 167.5 Q724 181 696 181 Q668 181 648.5 167.5 Q629 154 629 127 Z M637 307 Q637 285 654.5 273.5 Q672 262 696 262 Q721 262 738.5 273.5 Q756 285 756 307 Q756 330 738.5 341.5 Q721 353 696 353 Q672 353 654.5 341.5 Q637 330 637 307 Z " />
<glyph glyph-name="threeeighths" unicode="&#x215c;" horiz-adv-x="976" d="M671 709 L759 655 L284 -17 L196 37 L671 709 Z M766 -7 Q730 -7 698 1.5 Q666 10 643 26.5 Q620 43 606.5 66.5 Q593 90 593 120 Q593 145 602.5 164 Q612 183 626 195.5 Q640 208 655.5 216 Q671 224 683 228 L683 229 Q671 233 658 240.5 Q645 248 634 259 Q623 270 616 285 Q609 300 609 321 Q609 347 621.5 368 Q634 389 655 403.5 Q676 418 704.5 426 Q733 434 766 434 Q800 434 829 426 Q858 418 879 403.5 Q900 389 912 368 Q924 347 924 321 Q924 300 917 285 Q910 270 899 259 Q888 248 875 240.5 Q862 233 850 229 L850 228 Q862 224 877.5 216 Q893 208 907 195.5 Q921 183 930.5 164 Q940 145 940 120 Q940 90 926.5 66.5 Q913 43 889.5 26.5 Q866 10 834.5 1.5 Q803 -7 766 -7 Z M699 127 Q699 101 718.5 87.5 Q738 74 766 74 Q794 74 814 87.5 Q834 101 834 127 Q834 154 814 167.5 Q794 181 766 181 Q738 181 718.5 167.5 Q699 154 699 127 Z M707 307 Q707 285 724.5 273.5 Q742 262 766 262 Q791 262 808.5 273.5 Q826 285 826 307 Q826 330 808.5 341.5 Q791 353 766 353 Q742 353 724.5 341.5 Q707 330 707 307 Z M186 270 Q122 270 78 298 Q34 326 18 369 L120 421 Q125 392 140.5 375.5 Q156 359 184 359 Q211 359 224.5 375 Q238 391 238 417 Q238 442 222.5 458 Q207 474 180 474 Q158 474 142 467 Q126 460 112 451 L74 536 L179 615 L36 615 L36 704 L334 704 L334 631 L255 575 Q246 568 235 562 Q224 556 214 551 Q203 545 191 539 L192 537 Q194 537 198 538 Q201 538 204.5 538.5 Q208 539 212 539 Q240 539 264.5 530.5 Q289 522 307.5 505.5 Q326 489 336.5 465 Q347 441 347 411 Q347 380 334.5 354 Q322 328 300.5 309.5 Q279 291 249.5 280.5 Q220 270 186 270 Z " />
<glyph glyph-name="fiveeighths" unicode="&#x215d;" horiz-adv-x="977" d="M671 709 L759 655 L284 -17 L196 37 L671 709 Z M188 270 Q124 270 81 298 Q38 326 22 369 L125 421 Q129 393 143.5 376 Q158 359 186 359 Q213 359 227.5 378.5 Q242 398 242 426 Q242 455 227.5 474 Q213 493 186 493 Q162 493 148.5 479.5 Q135 466 130 449 L35 488 L63 704 L321 704 L321 615 L151 615 L147 584 Q145 574 144 565.5 Q143 557 141 550 Q139 542 137 535 L138 534 Q149 547 169.5 557.5 Q190 568 219 568 Q246 568 269.5 558.5 Q293 549 311 531 Q329 513 339.5 486.5 Q350 460 350 426 Q350 391 338 362.5 Q326 334 304.5 313.5 Q283 293 253 281.5 Q223 270 188 270 Z M767 -7 Q731 -7 699 1.5 Q667 10 644 26.5 Q621 43 607.5 66.5 Q594 90 594 120 Q594 145 603.5 164 Q613 183 627 195.5 Q641 208 656.5 216 Q672 224 684 228 L684 229 Q672 233 659 240.5 Q646 248 635 259 Q624 270 617 285 Q610 300 610 321 Q610 347 622.5 368 Q635 389 656 403.5 Q677 418 705.5 426 Q734 434 767 434 Q801 434 830 426 Q859 418 880 403.5 Q901 389 913 368 Q925 347 925 321 Q925 300 918 285 Q911 270 900 259 Q889 248 876 240.5 Q863 233 851 229 L851 228 Q863 224 878.5 216 Q894 208 908 195.5 Q922 183 931.5 164 Q941 145 941 120 Q941 90 927.5 66.5 Q914 43 890.5 26.5 Q867 10 835.5 1.5 Q804 -7 767 -7 Z M700 127 Q700 101 719.5 87.5 Q739 74 767 74 Q795 74 815 87.5 Q835 101 835 127 Q835 154 815 167.5 Q795 181 767 181 Q739 181 719.5 167.5 Q700 154 700 127 Z M708 307 Q708 285 725.5 273.5 Q743 262 767 262 Q792 262 809.5 273.5 Q827 285 827 307 Q827 330 809.5 341.5 Q792 353 767 353 Q743 353 725.5 341.5 Q708 330 708 307 Z " />
<glyph glyph-name="seveneighths" unicode="&#x215e;" horiz-adv-x="945" d="M635 709 L723 655 L248 -17 L160 37 L635 709 Z M735 -7 Q699 -7 667 1.5 Q635 10 612 26.5 Q589 43 575.5 66.5 Q562 90 562 120 Q562 145 571.5 164 Q581 183 595 195.5 Q609 208 624.5 216 Q640 224 652 228 L652 229 Q640 233 627 240.5 Q614 248 603 259 Q592 270 585 285 Q578 300 578 321 Q578 347 590.5 368 Q603 389 624 403.5 Q645 418 673.5 426 Q702 434 735 434 Q769 434 798 426 Q827 418 848 403.5 Q869 389 881 368 Q893 347 893 321 Q893 300 886 285 Q879 270 868 259 Q857 248 844 240.5 Q831 233 819 229 L819 228 Q831 224 846.5 216 Q862 208 876 195.5 Q890 183 899.5 164 Q909 145 909 120 Q909 90 895.5 66.5 Q882 43 858.5 26.5 Q835 10 803.5 1.5 Q772 -7 735 -7 Z M668 127 Q668 101 687.5 87.5 Q707 74 735 74 Q763 74 783 87.5 Q803 101 803 127 Q803 154 783 167.5 Q763 181 735 181 Q707 181 687.5 167.5 Q668 154 668 127 Z M676 307 Q676 285 693.5 273.5 Q711 262 735 262 Q760 262 777.5 273.5 Q795 285 795 307 Q795 330 777.5 341.5 Q760 353 735 353 Q711 353 693.5 341.5 Q676 330 676 307 Z M342 642 Q293 546 267.5 457 Q242 368 230 277 L107 277 Q113 322 125.5 368 Q138 414 154.5 457.5 Q171 501 189 540.5 Q207 580 224 612 L119 612 L119 516 L16 564 L16 704 L342 704 L342 642 Z " />
<glyph glyph-name="uni03A9" unicode="&#x3a9;" horiz-adv-x="724" d="M325 0 L48 0 L48 122 L92 122 Q107 122 121 121 Q135 120 146 118 Q158 116 170 115 L171 116 Q114 164 79 231 Q44 298 44 380 Q44 458 68.5 518 Q93 578 136 619.5 Q179 661 237 682.5 Q295 704 362 704 Q429 704 487.5 682.5 Q546 661 589 619.5 Q632 578 656.5 518 Q681 458 681 380 Q681 298 645.5 231 Q610 164 553 116 L554 115 Q565 116 578 118 Q589 120 603 121 Q617 122 633 122 L677 122 L677 0 L400 0 L400 108 Q455 144 493 209.5 Q531 275 531 366 Q531 409 521 447 Q511 485 490.5 513 Q470 541 438 557.5 Q406 574 362 574 Q318 574 286.5 557.5 Q255 541 234.5 513 Q214 485 204 447 Q194 409 194 366 Q194 275 232 209.5 Q270 144 325 108 L325 0 Z " />
<glyph glyph-name="uni0394" unicode="&#x394;" horiz-adv-x="652" d="M17 95 L241 692 L409 692 L634 95 L634 0 L17 0 L17 95 Z M178 126 L469 126 L353 453 Q348 467 343 483 Q338 499 334 513 Q330 529 325 544 L322 544 Q317 529 313 513 Q309 499 304 483 Q299 467 294 453 L178 126 Z " />
<glyph glyph-name="uni03BC" unicode="&#x3bc;" horiz-adv-x="556" d="M58 504 L199 504 L199 209 Q199 158 216 132.5 Q233 107 272 107 Q314 107 335.5 136.5 Q357 166 357 214 L357 504 L498 504 L498 0 L357 0 L364 83 L361 83 Q352 66 339 49 Q326 32 308.5 18.5 Q291 5 267 -3.5 Q243 -12 212 -12 Q206 -12 200 -11.5 Q194 -11 188 -10 Q190 -30 193 -67 Q196 -104 196 -146 L196 -196 L58 -196 L58 504 Z " />
<glyph glyph-name="uni00AD" unicode="&#xad;" horiz-adv-x="348" d="M38 241 L38 357 L309 357 L309 241 L38 241 Z " />
<glyph glyph-name="uni2219" unicode="&#x2219;" horiz-adv-x="280" d="M66 395 L221 395 L221 248 L66 248 L66 395 Z " />
<glyph glyph-name="uni02C9" unicode="&#x2c9;" horiz-adv-x="551" d="M137 687 L415 687 L415 580 L137 580 L137 687 Z " />
<glyph glyph-name="uni2215" unicode="&#x2215;" horiz-adv-x="210" d="M306 709 L394 655 L-81 -17 L-169 37 L306 709 Z " />
<glyph glyph-name="AEacute" unicode="&#x1fc;" horiz-adv-x="886" d="M430 161 L227 161 L147 0 L-11 0 L345 692 L846 692 L846 569 L572 569 L572 413 L828 413 L828 292 L572 292 L572 123 L854 123 L854 0 L430 0 L430 161 Z M286 279 L430 279 L430 569 L427 569 Q421 556 416 543 Q411 532 405 518 Q399 504 392 491 L286 279 Z M433 777 Q452 793 471.5 813 Q491 833 508.5 855 Q526 877 540.5 900 Q555 923 566 944 L671 867 Q655 845 634 825 Q613 805 590 787.5 Q567 770 543 755.5 Q519 741 498 731 L433 777 Z " />
<glyph glyph-name="Agrave" unicode="&#xc0;" horiz-adv-x="670" d="M460 158 L204 158 L151 0 L5 0 L246 692 L424 692 L665 0 L513 0 L460 158 Z M244 279 L420 279 L360 461 Q355 475 350.5 491 Q346 507 342 521 Q338 537 334 552 L331 552 Q327 537 323 521 Q319 507 314.5 491 Q310 475 305 461 L244 279 Z M336 731 Q315 741 291 755.5 Q267 770 244 787.5 Q221 805 200 825 Q179 845 163 867 L268 944 Q278 923 293 900 Q308 877 325.5 855 Q343 833 362.5 813 Q382 793 401 777 L336 731 Z " />
<glyph glyph-name="Aacute" unicode="&#xc1;" horiz-adv-x="670" d="M460 158 L204 158 L151 0 L5 0 L246 692 L424 692 L665 0 L513 0 L460 158 Z M244 279 L420 279 L360 461 Q355 475 350.5 491 Q346 507 342 521 Q338 537 334 552 L331 552 Q327 537 323 521 Q319 507 314.5 491 Q310 475 305 461 L244 279 Z M268 777 Q287 793 306.5 813 Q326 833 343.5 855 Q361 877 375.5 900 Q390 923 401 944 L506 867 Q490 845 469 825 Q448 805 425 787.5 Q402 770 378 755.5 Q354 741 333 731 L268 777 Z " />
<glyph glyph-name="Adieresis" unicode="&#xc4;" horiz-adv-x="670" d="M460 158 L204 158 L151 0 L5 0 L246 692 L424 692 L665 0 L513 0 L460 158 Z M244 279 L420 279 L360 461 Q355 475 350.5 491 Q346 507 342 521 Q338 537 334 552 L331 552 Q327 537 323 521 Q319 507 314.5 491 Q310 475 305 461 L244 279 Z M235 894 Q268 894 289.5 872.5 Q311 851 311 819 Q311 786 289.5 765 Q268 744 235 744 Q203 744 181.5 765 Q160 786 160 819 Q160 851 181.5 872.5 Q203 894 235 894 Z M434 894 Q467 894 488.5 872.5 Q510 851 510 819 Q510 786 488.5 765 Q467 744 434 744 Q402 744 380.5 765 Q359 786 359 819 Q359 851 380.5 872.5 Q402 894 434 894 Z " />
<glyph glyph-name="Acircumflex" unicode="&#xc2;" horiz-adv-x="670" d="M460 158 L204 158 L151 0 L5 0 L246 692 L424 692 L665 0 L513 0 L460 158 Z M244 279 L420 279 L360 461 Q355 475 350.5 491 Q346 507 342 521 Q338 537 334 552 L331 552 Q327 537 323 521 Q319 507 314.5 491 Q310 475 305 461 L244 279 Z M333 808 Q312 783 282.5 760 Q253 737 218 722 L152 809 Q196 826 230 847 Q264 868 291 898 L378 898 Q405 868 439 847 Q473 826 517 809 L452 722 Q416 737 386.5 760 Q357 783 336 808 L333 808 Z " />
<glyph glyph-name="Amacron" unicode="&#x100;" horiz-adv-x="670" d="M460 158 L204 158 L151 0 L5 0 L246 692 L424 692 L665 0 L513 0 L460 158 Z M244 279 L420 279 L360 461 Q355 475 350.5 491 Q346 507 342 521 Q338 537 334 552 L331 552 Q327 537 323 521 Q319 507 314.5 491 Q310 475 305 461 L244 279 Z M196 867 L474 867 L474 760 L196 760 L196 867 Z " />
<glyph glyph-name="Atilde" unicode="&#xc3;" horiz-adv-x="670" d="M460 158 L204 158 L151 0 L5 0 L246 692 L424 692 L665 0 L513 0 L460 158 Z M244 279 L420 279 L360 461 Q355 475 350.5 491 Q346 507 342 521 Q338 537 334 552 L331 552 Q327 537 323 521 Q319 507 314.5 491 Q310 475 305 461 L244 279 Z M409 740 Q385 740 366.5 748 Q348 756 332.5 765.5 Q317 775 304 783 Q291 791 278 791 Q261 791 255 776 Q249 761 247 741 L157 790 Q160 812 168.5 831.5 Q177 851 190.5 865.5 Q204 880 222 888 Q240 896 260 896 Q284 896 303 888 Q322 880 337.5 871 Q353 862 366 854 Q379 846 391 846 Q408 846 414.5 860.5 Q421 875 423 896 L513 847 Q507 801 479 770.5 Q451 740 409 740 Z " />
<glyph glyph-name="Aring" unicode="&#xc5;" horiz-adv-x="670" d="M460 158 L204 158 L151 0 L5 0 L246 692 L424 692 L665 0 L513 0 L460 158 Z M244 279 L420 279 L360 461 Q355 475 350.5 491 Q346 507 342 521 Q338 537 334 552 L331 552 Q327 537 323 521 Q319 507 314.5 491 Q310 475 305 461 L244 279 Z M335 882 Q316 882 304.5 870 Q293 858 293 839 Q293 820 304.5 808 Q316 796 335 796 Q353 796 364.5 808 Q376 820 376 839 Q376 858 364.5 870 Q353 882 335 882 Z M335 949 Q359 949 381 941 Q403 933 419.5 918.5 Q436 904 446 884 Q456 864 456 839 Q456 814 446 794 Q436 774 419.5 759.5 Q403 745 381 737 Q359 729 335 729 Q311 729 289 737 Q267 745 250.5 759.5 Q234 774 224 794 Q214 814 214 839 Q214 864 224 884 Q234 904 250.5 918.5 Q267 933 289 941 Q311 949 335 949 Z " />
<glyph glyph-name="Abreve" unicode="&#x102;" horiz-adv-x="670" d="M460 158 L204 158 L151 0 L5 0 L246 692 L424 692 L665 0 L513 0 L460 158 Z M244 279 L420 279 L360 461 Q355 475 350.5 491 Q346 507 342 521 Q338 537 334 552 L331 552 Q327 537 323 521 Q319 507 314.5 491 Q310 475 305 461 L244 279 Z M335 734 Q272 734 227.5 768 Q183 802 173 866 L280 899 Q279 897 279 895 L279 888 Q279 861 292.5 843.5 Q306 826 335 826 Q364 826 377 843.5 Q390 861 390 888 Q390 889 389.5 891 Q389 893 389 895 L389 899 L496 866 Q487 802 442 768 Q397 734 335 734 Z " />
<glyph glyph-name="Aogonek" unicode="&#x104;" horiz-adv-x="670" d="M703 -140 Q682 -169 647 -188.5 Q612 -208 567 -208 Q513 -208 479.5 -181.5 Q446 -155 446 -112 Q446 -77 465 -51.5 Q484 -26 507 -6 L515 0 L463 156 L204 156 L152 0 L5 0 L246 692 L424 692 L665 0 Q647 -4 625 -13 Q603 -22 584 -35 Q565 -48 552.5 -63.5 Q540 -79 540 -97 Q540 -127 574 -127 Q591 -127 602 -116 Q613 -105 618 -88 L703 -140 Z M244 277 L423 277 L361 463 Q356 477 351.5 493 Q347 509 343 523 Q339 539 335 555 L332 555 Q327 539 323 523 Q319 509 315 493 Q311 477 306 463 L244 277 Z " />
<glyph glyph-name="Cacute" unicode="&#x106;" horiz-adv-x="658" d="M351 -12 Q285 -12 227 12.5 Q169 37 126 83.5 Q83 130 58.5 197 Q34 264 34 348 Q34 432 58.5 498 Q83 564 126 610 Q169 656 227 680 Q285 704 351 704 Q406 704 454 686 Q502 668 539.5 637.5 Q577 607 602 568 Q627 529 637 487 L500 401 Q498 436 488.5 467.5 Q479 499 460.5 522.5 Q442 546 414.5 560 Q387 574 351 574 Q308 574 276.5 556.5 Q245 539 224.5 508.5 Q204 478 194 436.5 Q184 395 184 348 Q184 301 194 259 Q204 217 224.5 185.5 Q245 154 276.5 136 Q308 118 351 118 Q387 118 414.5 132.5 Q442 147 460.5 171.5 Q479 196 488.5 228 Q498 260 500 295 L637 209 Q627 167 602 127 Q577 87 539.5 56.5 Q502 26 454 7 Q406 -12 351 -12 Z M285 777 Q304 793 323.5 813 Q343 833 360.5 855 Q378 877 392.5 900 Q407 923 418 944 L523 867 Q507 845 486 825 Q465 805 442 787.5 Q419 770 395 755.5 Q371 741 350 731 L285 777 Z " />
<glyph glyph-name="Cdotaccent" unicode="&#x10a;" horiz-adv-x="658" d="M351 -12 Q285 -12 227 12.5 Q169 37 126 83.5 Q83 130 58.5 197 Q34 264 34 348 Q34 432 58.5 498 Q83 564 126 610 Q169 656 227 680 Q285 704 351 704 Q406 704 454 686 Q502 668 539.5 637.5 Q577 607 602 568 Q627 529 637 487 L500 401 Q498 436 488.5 467.5 Q479 499 460.5 522.5 Q442 546 414.5 560 Q387 574 351 574 Q308 574 276.5 556.5 Q245 539 224.5 508.5 Q204 478 194 436.5 Q184 395 184 348 Q184 301 194 259 Q204 217 224.5 185.5 Q245 154 276.5 136 Q308 118 351 118 Q387 118 414.5 132.5 Q442 147 460.5 171.5 Q479 196 488.5 228 Q498 260 500 295 L637 209 Q627 167 602 127 Q577 87 539.5 56.5 Q502 26 454 7 Q406 -12 351 -12 Z M352 902 Q387 902 410.5 880 Q434 858 434 823 Q434 788 410.5 766 Q387 744 352 744 Q317 744 293.5 766 Q270 788 270 823 Q270 858 293.5 880 Q317 902 352 902 Z " />
<glyph glyph-name="Ccircumflex" unicode="&#x108;" horiz-adv-x="658" d="M351 -12 Q285 -12 227 12.5 Q169 37 126 83.5 Q83 130 58.5 197 Q34 264 34 348 Q34 432 58.5 498 Q83 564 126 610 Q169 656 227 680 Q285 704 351 704 Q406 704 454 686 Q502 668 539.5 637.5 Q577 607 602 568 Q627 529 637 487 L500 401 Q498 436 488.5 467.5 Q479 499 460.5 522.5 Q442 546 414.5 560 Q387 574 351 574 Q308 574 276.5 556.5 Q245 539 224.5 508.5 Q204 478 194 436.5 Q184 395 184 348 Q184 301 194 259 Q204 217 224.5 185.5 Q245 154 276.5 136 Q308 118 351 118 Q387 118 414.5 132.5 Q442 147 460.5 171.5 Q479 196 488.5 228 Q498 260 500 295 L637 209 Q627 167 602 127 Q577 87 539.5 56.5 Q502 26 454 7 Q406 -12 351 -12 Z M350 808 Q329 783 299.5 760 Q270 737 235 722 L169 809 Q213 826 247 847 Q281 868 308 898 L395 898 Q422 868 456 847 Q490 826 534 809 L469 722 Q433 737 403.5 760 Q374 783 353 808 L350 808 Z " />
<glyph glyph-name="Ccaron" unicode="&#x10c;" horiz-adv-x="658" d="M351 -12 Q285 -12 227 12.5 Q169 37 126 83.5 Q83 130 58.5 197 Q34 264 34 348 Q34 432 58.5 498 Q83 564 126 610 Q169 656 227 680 Q285 704 351 704 Q406 704 454 686 Q502 668 539.5 637.5 Q577 607 602 568 Q627 529 637 487 L500 401 Q498 436 488.5 467.5 Q479 499 460.5 522.5 Q442 546 414.5 560 Q387 574 351 574 Q308 574 276.5 556.5 Q245 539 224.5 508.5 Q204 478 194 436.5 Q184 395 184 348 Q184 301 194 259 Q204 217 224.5 185.5 Q245 154 276.5 136 Q308 118 351 118 Q387 118 414.5 132.5 Q442 147 460.5 171.5 Q479 196 488.5 228 Q498 260 500 295 L637 209 Q627 167 602 127 Q577 87 539.5 56.5 Q502 26 454 7 Q406 -12 351 -12 Z M353 830 Q374 854 403.5 877.5 Q433 901 469 916 L534 829 Q490 811 456 790.5 Q422 770 395 739 L308 739 Q281 770 247 790.5 Q213 811 169 829 L235 916 Q270 901 299.5 877.5 Q329 854 350 830 L353 830 Z " />
<glyph glyph-name="Ccedilla" unicode="&#xc7;" horiz-adv-x="658" d="M351 -12 Q285 -12 227 12.5 Q169 37 126 83.5 Q83 130 58.5 197 Q34 264 34 348 Q34 432 58.5 498 Q83 564 126 610 Q169 656 227 680 Q285 704 351 704 Q406 704 454 686 Q502 668 539.5 637.5 Q577 607 602 568 Q627 529 637 487 L500 401 Q498 436 488.5 467.5 Q479 499 460.5 522.5 Q442 546 414.5 560 Q387 574 351 574 Q308 574 276.5 556.5 Q245 539 224.5 508.5 Q204 478 194 436.5 Q184 395 184 348 Q184 301 194 259 Q204 217 224.5 185.5 Q245 154 276.5 136 Q308 118 351 118 Q387 118 414.5 132.5 Q442 147 460.5 171.5 Q479 196 488.5 228 Q498 260 500 295 L637 209 Q627 167 602 127 Q577 87 539.5 56.5 Q502 26 454 7 Q406 -12 351 -12 Z M394 9 L382 -32 Q418 -36 445.5 -57.5 Q473 -79 473 -117 Q473 -139 463 -156 Q453 -173 436.5 -184.5 Q420 -196 398.5 -202 Q377 -208 355 -208 Q317 -208 286.5 -194 Q256 -180 236 -155 L303 -106 Q312 -125 324.5 -136 Q337 -147 357 -147 Q371 -147 381.5 -139.5 Q392 -132 392 -116 Q392 -102 381.5 -94 Q371 -86 357 -86 Q347 -86 339 -90 Q335 -92 332 -93 L285 -56 L324 15 L394 9 Z " />
<glyph glyph-name="Dcaron" unicode="&#x10e;" horiz-adv-x="693" d="M323 692 Q397 692 459 669 Q521 646 565.5 602 Q610 558 635 494 Q660 430 660 348 Q660 266 635 201.5 Q610 137 565.5 92 Q521 47 459 23.5 Q397 0 323 0 L63 0 L63 692 L323 692 Z M510 348 Q510 392 499.5 431.5 Q489 471 468 500.5 Q447 530 415 547.5 Q383 565 339 565 L210 565 L210 127 L339 127 Q383 127 415 144.5 Q447 162 468 192 Q489 222 499.5 262.5 Q510 303 510 348 Z M331 830 Q352 854 381.5 877.5 Q411 901 447 916 L512 829 Q468 811 434 790.5 Q400 770 373 739 L286 739 Q259 770 225 790.5 Q191 811 147 829 L213 916 Q248 901 277.5 877.5 Q307 854 328 830 L331 830 Z " />
<glyph glyph-name="Egrave" unicode="&#xc8;" horiz-adv-x="574" d="M63 692 L534 692 L534 566 L209 566 L209 415 L516 415 L516 291 L209 291 L209 126 L542 126 L542 0 L63 0 L63 692 Z M302 731 Q281 741 257 755.5 Q233 770 210 787.5 Q187 805 166 825 Q145 845 129 867 L234 944 Q244 923 259 900 Q274 877 291.5 855 Q309 833 328.5 813 Q348 793 367 777 L302 731 Z " />
<glyph glyph-name="Eacute" unicode="&#xc9;" horiz-adv-x="574" d="M63 692 L534 692 L534 566 L209 566 L209 415 L516 415 L516 291 L209 291 L209 126 L542 126 L542 0 L63 0 L63 692 Z M234 777 Q253 793 272.5 813 Q292 833 309.5 855 Q327 877 341.5 900 Q356 923 367 944 L472 867 Q456 845 435 825 Q414 805 391 787.5 Q368 770 344 755.5 Q320 741 299 731 L234 777 Z " />
<glyph glyph-name="Edotaccent" unicode="&#x116;" horiz-adv-x="574" d="M63 692 L534 692 L534 566 L209 566 L209 415 L516 415 L516 291 L209 291 L209 126 L542 126 L542 0 L63 0 L63 692 Z M301 902 Q336 902 359.5 880 Q383 858 383 823 Q383 788 359.5 766 Q336 744 301 744 Q266 744 242.5 766 Q219 788 219 823 Q219 858 242.5 880 Q266 902 301 902 Z " />
<glyph glyph-name="Edieresis" unicode="&#xcb;" horiz-adv-x="574" d="M63 692 L534 692 L534 566 L209 566 L209 415 L516 415 L516 291 L209 291 L209 126 L542 126 L542 0 L63 0 L63 692 Z M201 894 Q234 894 255.5 872.5 Q277 851 277 819 Q277 786 255.5 765 Q234 744 201 744 Q169 744 147.5 765 Q126 786 126 819 Q126 851 147.5 872.5 Q169 894 201 894 Z M400 894 Q433 894 454.5 872.5 Q476 851 476 819 Q476 786 454.5 765 Q433 744 400 744 Q368 744 346.5 765 Q325 786 325 819 Q325 851 346.5 872.5 Q368 894 400 894 Z " />
<glyph glyph-name="Ecircumflex" unicode="&#xca;" horiz-adv-x="574" d="M63 692 L534 692 L534 566 L209 566 L209 415 L516 415 L516 291 L209 291 L209 126 L542 126 L542 0 L63 0 L63 692 Z M299 808 Q278 783 248.5 760 Q219 737 184 722 L118 809 Q162 826 196 847 Q230 868 257 898 L344 898 Q371 868 405 847 Q439 826 483 809 L418 722 Q382 737 352.5 760 Q323 783 302 808 L299 808 Z " />
<glyph glyph-name="Ecaron" unicode="&#x11a;" horiz-adv-x="574" d="M63 692 L534 692 L534 566 L209 566 L209 415 L516 415 L516 291 L209 291 L209 126 L542 126 L542 0 L63 0 L63 692 Z M302 830 Q323 854 352.5 877.5 Q382 901 418 916 L483 829 Q439 811 405 790.5 Q371 770 344 739 L257 739 Q230 770 196 790.5 Q162 811 118 829 L184 916 Q219 901 248.5 877.5 Q278 854 299 830 L302 830 Z " />
<glyph glyph-name="Emacron" unicode="&#x112;" horiz-adv-x="574" d="M63 692 L534 692 L534 566 L209 566 L209 415 L516 415 L516 291 L209 291 L209 126 L542 126 L542 0 L63 0 L63 692 Z M162 867 L440 867 L440 760 L162 760 L162 867 Z " />
<glyph glyph-name="Ebreve" unicode="&#x114;" horiz-adv-x="574" d="M63 692 L534 692 L534 566 L209 566 L209 415 L516 415 L516 291 L209 291 L209 126 L542 126 L542 0 L63 0 L63 692 Z M301 734 Q238 734 193.5 768 Q149 802 139 866 L246 899 Q245 897 245 895 L245 888 Q245 861 258.5 843.5 Q272 826 301 826 Q330 826 343 843.5 Q356 861 356 888 Q356 889 355.5 891 Q355 893 355 895 L355 899 L462 866 Q453 802 408 768 Q363 734 301 734 Z " />
<glyph glyph-name="Eogonek" unicode="&#x118;" horiz-adv-x="574" d="M63 692 L534 692 L534 566 L209 566 L209 415 L516 415 L516 291 L209 291 L209 126 L542 126 L542 0 L63 0 L63 692 Z M597 -140 Q575 -169 540 -188.5 Q505 -208 460 -208 Q406 -208 372.5 -181.5 Q339 -155 339 -112 Q339 -94 345.5 -79 Q352 -64 362.5 -51 Q373 -38 386 -27 Q399 -16 411 -8 L456 23 L542 0 L496 -28 Q473 -42 453 -60 Q433 -78 433 -97 Q433 -127 467 -127 Q484 -127 495 -116 Q506 -105 511 -88 L597 -140 Z " />
<glyph glyph-name="Gdotaccent" unicode="&#x120;" horiz-adv-x="693" d="M357 575 Q313 575 280 557 Q247 539 225.5 508.5 Q204 478 193 436.5 Q182 395 182 348 Q182 301 192.5 258.5 Q203 216 224.5 184 Q246 152 278.5 133 Q311 114 355 114 Q391 114 418 127.5 Q445 141 463 163.5 Q481 186 490.5 214 Q500 242 500 272 L500 273 L302 273 L302 395 L637 395 L637 0 L507 0 L517 91 L514 91 Q503 72 486.5 53.5 Q470 35 446.5 20.5 Q423 6 393 -3 Q363 -12 324 -12 Q262 -12 209 12.5 Q156 37 117 83.5 Q78 130 56 197 Q34 264 34 348 Q34 432 59.5 498 Q85 564 128.5 610 Q172 656 231 680 Q290 704 357 704 Q410 704 455.5 691 Q501 678 538 654.5 Q575 631 602 598 Q629 565 646 525 L509 439 Q506 467 494 492 Q482 517 462.5 535.5 Q443 554 416.5 564.5 Q390 575 357 575 Z M357 902 Q392 902 415.5 880 Q439 858 439 823 Q439 788 415.5 766 Q392 744 357 744 Q322 744 298.5 766 Q275 788 275 823 Q275 858 298.5 880 Q322 902 357 902 Z " />
<glyph glyph-name="Gcircumflex" unicode="&#x11c;" horiz-adv-x="693" d="M357 575 Q313 575 280 557 Q247 539 225.5 508.5 Q204 478 193 436.5 Q182 395 182 348 Q182 301 192.5 258.5 Q203 216 224.5 184 Q246 152 278.5 133 Q311 114 355 114 Q391 114 418 127.5 Q445 141 463 163.5 Q481 186 490.5 214 Q500 242 500 272 L500 273 L302 273 L302 395 L637 395 L637 0 L507 0 L517 91 L514 91 Q503 72 486.5 53.5 Q470 35 446.5 20.5 Q423 6 393 -3 Q363 -12 324 -12 Q262 -12 209 12.5 Q156 37 117 83.5 Q78 130 56 197 Q34 264 34 348 Q34 432 59.5 498 Q85 564 128.5 610 Q172 656 231 680 Q290 704 357 704 Q410 704 455.5 691 Q501 678 538 654.5 Q575 631 602 598 Q629 565 646 525 L509 439 Q506 467 494 492 Q482 517 462.5 535.5 Q443 554 416.5 564.5 Q390 575 357 575 Z M355 808 Q334 783 304.5 760 Q275 737 240 722 L174 809 Q218 826 252 847 Q286 868 313 898 L400 898 Q427 868 461 847 Q495 826 539 809 L474 722 Q438 737 408.5 760 Q379 783 358 808 L355 808 Z " />
<glyph glyph-name="Gbreve" unicode="&#x11e;" horiz-adv-x="693" d="M357 575 Q313 575 280 557 Q247 539 225.5 508.5 Q204 478 193 436.5 Q182 395 182 348 Q182 301 192.5 258.5 Q203 216 224.5 184 Q246 152 278.5 133 Q311 114 355 114 Q391 114 418 127.5 Q445 141 463 163.5 Q481 186 490.5 214 Q500 242 500 272 L500 273 L302 273 L302 395 L637 395 L637 0 L507 0 L517 91 L514 91 Q503 72 486.5 53.5 Q470 35 446.5 20.5 Q423 6 393 -3 Q363 -12 324 -12 Q262 -12 209 12.5 Q156 37 117 83.5 Q78 130 56 197 Q34 264 34 348 Q34 432 59.5 498 Q85 564 128.5 610 Q172 656 231 680 Q290 704 357 704 Q410 704 455.5 691 Q501 678 538 654.5 Q575 631 602 598 Q629 565 646 525 L509 439 Q506 467 494 492 Q482 517 462.5 535.5 Q443 554 416.5 564.5 Q390 575 357 575 Z M357 734 Q294 734 249.5 768 Q205 802 195 866 L302 899 Q301 897 301 895 L301 888 Q301 861 314.5 843.5 Q328 826 357 826 Q386 826 399 843.5 Q412 861 412 888 Q412 889 411.5 891 Q411 893 411 895 L411 899 L518 866 Q509 802 464 768 Q419 734 357 734 Z " />
<glyph glyph-name="uni0122" unicode="&#x122;" horiz-adv-x="693" d="M357 575 Q313 575 280 557 Q247 539 225.5 508.5 Q204 478 193 436.5 Q182 395 182 348 Q182 301 192.5 258.5 Q203 216 224.5 184 Q246 152 278.5 133 Q311 114 355 114 Q391 114 418 127.5 Q445 141 463 163.5 Q481 186 490.5 214 Q500 242 500 272 L500 273 L302 273 L302 395 L637 395 L637 0 L507 0 L517 91 L514 91 Q503 72 486.5 53.5 Q470 35 446.5 20.5 Q423 6 393 -3 Q363 -12 324 -12 Q262 -12 209 12.5 Q156 37 117 83.5 Q78 130 56 197 Q34 264 34 348 Q34 432 59.5 498 Q85 564 128.5 610 Q172 656 231 680 Q290 704 357 704 Q410 704 455.5 691 Q501 678 538 654.5 Q575 631 602 598 Q629 565 646 525 L509 439 Q506 467 494 492 Q482 517 462.5 535.5 Q443 554 416.5 564.5 Q390 575 357 575 Z M270 -220 Q282 -217 295 -213 Q308 -209 319.5 -202 Q331 -195 339.5 -184.5 Q348 -174 351 -158 Q348 -159 343 -159 Q318 -159 300 -145 Q282 -131 282 -103 Q282 -75 300 -61 Q318 -47 346 -47 Q379 -47 400 -71 Q421 -95 421 -135 Q421 -180 400.5 -213.5 Q380 -247 349 -264 L270 -220 L270 -220 Z " />
<glyph glyph-name="Hcircumflex" unicode="&#x124;" horiz-adv-x="696" d="M486 287 L210 287 L210 0 L63 0 L63 692 L210 692 L210 418 L486 418 L486 692 L633 692 L633 0 L486 0 L486 287 Z M346 808 Q325 783 295.5 760 Q266 737 231 722 L165 809 Q209 826 243 847 Q277 868 304 898 L391 898 Q418 868 452 847 Q486 826 530 809 L465 722 Q429 737 399.5 760 Q370 783 349 808 L346 808 Z " />
<glyph glyph-name="Igrave" unicode="&#xcc;" horiz-adv-x="275" d="M63 692 L212 692 L212 0 L63 0 L63 692 Z M140 731 Q119 741 95 755.5 Q71 770 48 787.5 Q25 805 4 825 Q-17 845 -33 867 L72 944 Q82 923 97 900 Q112 877 129.5 855 Q147 833 166.5 813 Q186 793 205 777 L140 731 Z " />
<glyph glyph-name="Iacute" unicode="&#xcd;" horiz-adv-x="275" d="M63 692 L212 692 L212 0 L63 0 L63 692 Z M72 777 Q91 793 110.5 813 Q130 833 147.5 855 Q165 877 179.5 900 Q194 923 205 944 L310 867 Q294 845 273 825 Q252 805 229 787.5 Q206 770 182 755.5 Q158 741 137 731 L72 777 Z " />
<glyph glyph-name="Idotaccent" unicode="&#x130;" horiz-adv-x="275" d="M63 692 L212 692 L212 0 L63 0 L63 692 Z M139 902 Q174 902 197.5 880 Q221 858 221 823 Q221 788 197.5 766 Q174 744 139 744 Q104 744 80.5 766 Q57 788 57 823 Q57 858 80.5 880 Q104 902 139 902 Z " />
<glyph glyph-name="Idieresis" unicode="&#xcf;" horiz-adv-x="275" d="M63 692 L212 692 L212 0 L63 0 L63 692 Z M39 894 Q72 894 93.5 872.5 Q115 851 115 819 Q115 786 93.5 765 Q72 744 39 744 Q7 744 -14.5 765 Q-36 786 -36 819 Q-36 851 -14.5 872.5 Q7 894 39 894 Z M238 894 Q271 894 292.5 872.5 Q314 851 314 819 Q314 786 292.5 765 Q271 744 238 744 Q206 744 184.5 765 Q163 786 163 819 Q163 851 184.5 872.5 Q206 894 238 894 Z " />
<glyph glyph-name="Icircumflex" unicode="&#xce;" horiz-adv-x="275" d="M63 692 L212 692 L212 0 L63 0 L63 692 Z M137 808 Q116 783 86.5 760 Q57 737 22 722 L-44 809 Q0 826 34 847 Q68 868 95 898 L182 898 Q209 868 243 847 Q277 826 321 809 L256 722 Q220 737 190.5 760 Q161 783 140 808 L137 808 Z " />
<glyph glyph-name="Imacron" unicode="&#x12a;" horiz-adv-x="275" d="M63 692 L212 692 L212 0 L63 0 L63 692 Z M0 867 L278 867 L278 760 L0 760 L0 867 Z " />
<glyph glyph-name="Itilde" unicode="&#x128;" horiz-adv-x="275" d="M63 692 L212 692 L212 0 L63 0 L63 692 Z M213 740 Q189 740 170.5 748 Q152 756 136.5 765.5 Q121 775 108 783 Q95 791 82 791 Q65 791 59 776 Q53 761 51 741 L-39 790 Q-36 812 -27.5 831.5 Q-19 851 -5.5 865.5 Q8 880 26 888 Q44 896 64 896 Q88 896 107 888 Q126 880 141.5 871 Q157 862 170 854 Q183 846 195 846 Q212 846 218.5 860.5 Q225 875 227 896 L317 847 Q311 801 283 770.5 Q255 740 213 740 Z " />
<glyph glyph-name="Ibreve" unicode="&#x12c;" horiz-adv-x="275" d="M63 692 L212 692 L212 0 L63 0 L63 692 Z M139 734 Q76 734 31.5 768 Q-13 802 -23 866 L84 899 Q83 897 83 895 L83 888 Q83 861 96.5 843.5 Q110 826 139 826 Q168 826 181 843.5 Q194 861 194 888 Q194 889 193.5 891 Q193 893 193 895 L193 899 L300 866 Q291 802 246 768 Q201 734 139 734 Z " />
<glyph glyph-name="Iogonek" unicode="&#x12e;" horiz-adv-x="276" d="M251 -140 Q230 -169 194.5 -188.5 Q159 -208 114 -208 Q60 -208 26.5 -181.5 Q-7 -155 -7 -112 Q-7 -77 13.5 -51 Q34 -25 57 -5 L64 1 L64 692 L213 692 L213 0 Q195 -4 173 -13 Q151 -22 132 -35 Q113 -48 100.5 -63.5 Q88 -79 88 -97 Q88 -111 97 -119 Q106 -127 121 -127 Q138 -127 149.5 -116 Q161 -105 166 -88 L251 -140 Z " />
<glyph glyph-name="Jcircumflex" unicode="&#x134;" horiz-adv-x="572" d="M515 692 L515 274 Q515 199 497.5 144.5 Q480 90 448.5 55.5 Q417 21 372 4.5 Q327 -12 273 -12 Q218 -12 173.5 4.5 Q129 21 97 53 Q65 85 47.5 132 Q30 179 30 240 Q30 248 30 253 Q30 258 31 263 L180 356 Q178 339 177 322 Q175 307 174.5 290 Q174 273 174 257 Q174 194 197.5 156 Q221 118 272 118 Q323 118 345.5 156 Q368 194 368 263 L368 692 L515 692 Z M441 808 Q420 783 390.5 760 Q361 737 326 722 L260 809 Q304 826 338 847 Q372 868 399 898 L486 898 Q513 868 547 847 Q581 826 625 809 L560 722 Q524 737 494.5 760 Q465 783 444 808 L441 808 Z " />
<glyph glyph-name="uni0136" unicode="&#x136;" horiz-adv-x="646" d="M63 692 L209 692 L209 480 Q209 456 208.5 432.5 Q208 409 207 390 Q206 368 205 348 L208 348 Q218 367 231 387 Q242 404 257 426.5 Q272 449 290 473 L456 692 L627 692 L409 416 L652 0 L488 0 L313 299 L209 165 L209 0 L63 0 L63 692 Z M271 -220 Q283 -217 296 -213 Q309 -209 320.5 -202 Q332 -195 340.5 -184.5 Q349 -174 352 -158 Q349 -159 344 -159 Q319 -159 301 -145 Q283 -131 283 -103 Q283 -75 301 -61 Q319 -47 347 -47 Q380 -47 401 -71 Q422 -95 422 -135 Q422 -180 401.5 -213.5 Q381 -247 350 -264 L271 -220 L271 -220 Z " />
<glyph glyph-name="Lacute" unicode="&#x139;" horiz-adv-x="528" d="M63 692 L211 692 L211 131 L513 131 L513 0 L63 0 L63 692 Z M70 777 Q89 793 108.5 813 Q128 833 145.5 855 Q163 877 177.5 900 Q192 923 203 944 L308 867 Q292 845 271 825 Q250 805 227 787.5 Q204 770 180 755.5 Q156 741 135 731 L70 777 Z " />
<glyph glyph-name="uni013B" unicode="&#x13b;" horiz-adv-x="528" d="M63 692 L211 692 L211 131 L513 131 L513 0 L63 0 L63 692 Z M212 -220 Q224 -217 237 -213 Q250 -209 261.5 -202 Q273 -195 281.5 -184.5 Q290 -174 293 -158 Q290 -159 285 -159 Q260 -159 242 -145 Q224 -131 224 -103 Q224 -75 242 -61 Q260 -47 288 -47 Q321 -47 342 -71 Q363 -95 363 -135 Q363 -180 342.5 -213.5 Q322 -247 291 -264 L212 -220 L212 -220 Z " />
<glyph glyph-name="Nacute" unicode="&#x143;" horiz-adv-x="709" d="M450 0 L257 385 Q248 402 238 426 Q228 450 219 471 Q208 496 199 521 L195 520 Q195 519 196 505 Q197 491 198 469.5 Q199 448 200 422.5 Q201 397 201 373 L201 0 L63 0 L63 692 L258 692 L452 307 Q460 289 471 265.5 Q482 242 491 221 Q502 196 512 171 L516 171 Q514 195 512 221 Q510 243 509 269 Q508 295 508 319 L508 692 L645 692 L645 0 L450 0 Z M287 777 Q306 793 325.5 813 Q345 833 362.5 855 Q380 877 394.5 900 Q409 923 420 944 L525 867 Q509 845 488 825 Q467 805 444 787.5 Q421 770 397 755.5 Q373 741 352 731 L287 777 Z " />
<glyph glyph-name="Ncaron" unicode="&#x147;" horiz-adv-x="709" d="M450 0 L257 385 Q248 402 238 426 Q228 450 219 471 Q208 496 199 521 L195 520 Q195 519 196 505 Q197 491 198 469.5 Q199 448 200 422.5 Q201 397 201 373 L201 0 L63 0 L63 692 L258 692 L452 307 Q460 289 471 265.5 Q482 242 491 221 Q502 196 512 171 L516 171 Q514 195 512 221 Q510 243 509 269 Q508 295 508 319 L508 692 L645 692 L645 0 L450 0 Z M355 830 Q376 854 405.5 877.5 Q435 901 471 916 L536 829 Q492 811 458 790.5 Q424 770 397 739 L310 739 Q283 770 249 790.5 Q215 811 171 829 L237 916 Q272 901 301.5 877.5 Q331 854 352 830 L355 830 Z " />
<glyph glyph-name="Ntilde" unicode="&#xd1;" horiz-adv-x="709" d="M450 0 L257 385 Q248 402 238 426 Q228 450 219 471 Q208 496 199 521 L195 520 Q195 519 196 505 Q197 491 198 469.5 Q199 448 200 422.5 Q201 397 201 373 L201 0 L63 0 L63 692 L258 692 L452 307 Q460 289 471 265.5 Q482 242 491 221 Q502 196 512 171 L516 171 Q514 195 512 221 Q510 243 509 269 Q508 295 508 319 L508 692 L645 692 L645 0 L450 0 Z M428 740 Q404 740 385.5 748 Q367 756 351.5 765.5 Q336 775 323 783 Q310 791 297 791 Q280 791 274 776 Q268 761 266 741 L176 790 Q179 812 187.5 831.5 Q196 851 209.5 865.5 Q223 880 241 888 Q259 896 279 896 Q303 896 322 888 Q341 880 356.5 871 Q372 862 385 854 Q398 846 410 846 Q427 846 433.5 860.5 Q440 875 442 896 L532 847 Q526 801 498 770.5 Q470 740 428 740 Z " />
<glyph glyph-name="uni0145" unicode="&#x145;" horiz-adv-x="709" d="M450 0 L257 385 Q248 402 238 426 Q228 450 219 471 Q208 496 199 521 L195 520 Q195 519 196 505 Q197 491 198 469.5 Q199 448 200 422.5 Q201 397 201 373 L201 0 L63 0 L63 692 L258 692 L452 307 Q460 289 471 265.5 Q482 242 491 221 Q502 196 512 171 L516 171 Q514 195 512 221 Q510 243 509 269 Q508 295 508 319 L508 692 L645 692 L645 0 L450 0 Z M278 -220 Q290 -217 303 -213 Q316 -209 327.5 -202 Q339 -195 347.5 -184.5 Q356 -174 359 -158 Q356 -159 351 -159 Q326 -159 308 -145 Q290 -131 290 -103 Q290 -75 308 -61 Q326 -47 354 -47 Q387 -47 408 -71 Q429 -95 429 -135 Q429 -180 408.5 -213.5 Q388 -247 357 -264 L278 -220 L278 -220 Z " />
<glyph glyph-name="Ograve" unicode="&#xd2;" horiz-adv-x="710" d="M355 -12 Q288 -12 229.5 12.5 Q171 37 127.5 83.5 Q84 130 59 197 Q34 264 34 348 Q34 432 59 498 Q84 564 127.5 610 Q171 656 229.5 680 Q288 704 355 704 Q422 704 480.5 680 Q539 656 582.5 610 Q626 564 651 498 Q676 432 676 348 Q676 264 651 197 Q626 130 582.5 83.5 Q539 37 480.5 12.5 Q422 -12 355 -12 Z M526 348 Q526 395 515.5 436.5 Q505 478 484 508.5 Q463 539 430.5 556.5 Q398 574 355 574 Q311 574 279 556.5 Q247 539 226 508.5 Q205 478 194.5 436.5 Q184 395 184 348 Q184 301 194.5 259 Q205 217 226 185.5 Q247 154 279 136 Q311 118 355 118 Q398 118 430.5 136 Q463 154 484 185.5 Q505 217 515.5 259 Q526 301 526 348 Z M356 731 Q335 741 311 755.5 Q287 770 264 787.5 Q241 805 220 825 Q199 845 183 867 L288 944 Q298 923 313 900 Q328 877 345.5 855 Q363 833 382.5 813 Q402 793 421 777 L356 731 Z " />
<glyph glyph-name="Oacute" unicode="&#xd3;" horiz-adv-x="710" d="M355 -12 Q288 -12 229.5 12.5 Q171 37 127.5 83.5 Q84 130 59 197 Q34 264 34 348 Q34 432 59 498 Q84 564 127.5 610 Q171 656 229.5 680 Q288 704 355 704 Q422 704 480.5 680 Q539 656 582.5 610 Q626 564 651 498 Q676 432 676 348 Q676 264 651 197 Q626 130 582.5 83.5 Q539 37 480.5 12.5 Q422 -12 355 -12 Z M526 348 Q526 395 515.5 436.5 Q505 478 484 508.5 Q463 539 430.5 556.5 Q398 574 355 574 Q311 574 279 556.5 Q247 539 226 508.5 Q205 478 194.5 436.5 Q184 395 184 348 Q184 301 194.5 259 Q205 217 226 185.5 Q247 154 279 136 Q311 118 355 118 Q398 118 430.5 136 Q463 154 484 185.5 Q505 217 515.5 259 Q526 301 526 348 Z M288 777 Q307 793 326.5 813 Q346 833 363.5 855 Q381 877 395.5 900 Q410 923 421 944 L526 867 Q510 845 489 825 Q468 805 445 787.5 Q422 770 398 755.5 Q374 741 353 731 L288 777 Z " />
<glyph glyph-name="Ohungarumlaut" unicode="&#x150;" horiz-adv-x="710" d="M355 -12 Q288 -12 229.5 12.5 Q171 37 127.5 83.5 Q84 130 59 197 Q34 264 34 348 Q34 432 59 498 Q84 564 127.5 610 Q171 656 229.5 680 Q288 704 355 704 Q422 704 480.5 680 Q539 656 582.5 610 Q626 564 651 498 Q676 432 676 348 Q676 264 651 197 Q626 130 582.5 83.5 Q539 37 480.5 12.5 Q422 -12 355 -12 Z M526 348 Q526 395 515.5 436.5 Q505 478 484 508.5 Q463 539 430.5 556.5 Q398 574 355 574 Q311 574 279 556.5 Q247 539 226 508.5 Q205 478 194.5 436.5 Q184 395 184 348 Q184 301 194.5 259 Q205 217 226 185.5 Q247 154 279 136 Q311 118 355 118 Q398 118 430.5 136 Q463 154 484 185.5 Q505 217 515.5 259 Q526 301 526 348 Z M197 777 Q215 793 233 813.5 Q251 834 267 856 Q283 878 297 901 Q311 924 321 945 L420 868 Q389 825 345 788.5 Q301 752 259 731 L197 777 Z M390 777 Q409 793 427.5 813.5 Q446 834 462.5 856 Q479 878 493.5 901 Q508 924 518 945 L617 868 Q585 825 540 788.5 Q495 752 453 731 L390 777 Z " />
<glyph glyph-name="Odieresis" unicode="&#xd6;" horiz-adv-x="710" d="M355 -12 Q288 -12 229.5 12.5 Q171 37 127.5 83.5 Q84 130 59 197 Q34 264 34 348 Q34 432 59 498 Q84 564 127.5 610 Q171 656 229.5 680 Q288 704 355 704 Q422 704 480.5 680 Q539 656 582.5 610 Q626 564 651 498 Q676 432 676 348 Q676 264 651 197 Q626 130 582.5 83.5 Q539 37 480.5 12.5 Q422 -12 355 -12 Z M526 348 Q526 395 515.5 436.5 Q505 478 484 508.5 Q463 539 430.5 556.5 Q398 574 355 574 Q311 574 279 556.5 Q247 539 226 508.5 Q205 478 194.5 436.5 Q184 395 184 348 Q184 301 194.5 259 Q205 217 226 185.5 Q247 154 279 136 Q311 118 355 118 Q398 118 430.5 136 Q463 154 484 185.5 Q505 217 515.5 259 Q526 301 526 348 Z M255 894 Q288 894 309.5 872.5 Q331 851 331 819 Q331 786 309.5 765 Q288 744 255 744 Q223 744 201.5 765 Q180 786 180 819 Q180 851 201.5 872.5 Q223 894 255 894 Z M454 894 Q487 894 508.5 872.5 Q530 851 530 819 Q530 786 508.5 765 Q487 744 454 744 Q422 744 400.5 765 Q379 786 379 819 Q379 851 400.5 872.5 Q422 894 454 894 Z " />
<glyph glyph-name="Ocircumflex" unicode="&#xd4;" horiz-adv-x="710" d="M355 -12 Q288 -12 229.5 12.5 Q171 37 127.5 83.5 Q84 130 59 197 Q34 264 34 348 Q34 432 59 498 Q84 564 127.5 610 Q171 656 229.5 680 Q288 704 355 704 Q422 704 480.5 680 Q539 656 582.5 610 Q626 564 651 498 Q676 432 676 348 Q676 264 651 197 Q626 130 582.5 83.5 Q539 37 480.5 12.5 Q422 -12 355 -12 Z M526 348 Q526 395 515.5 436.5 Q505 478 484 508.5 Q463 539 430.5 556.5 Q398 574 355 574 Q311 574 279 556.5 Q247 539 226 508.5 Q205 478 194.5 436.5 Q184 395 184 348 Q184 301 194.5 259 Q205 217 226 185.5 Q247 154 279 136 Q311 118 355 118 Q398 118 430.5 136 Q463 154 484 185.5 Q505 217 515.5 259 Q526 301 526 348 Z M353 808 Q332 783 302.5 760 Q273 737 238 722 L172 809 Q216 826 250 847 Q284 868 311 898 L398 898 Q425 868 459 847 Q493 826 537 809 L472 722 Q436 737 406.5 760 Q377 783 356 808 L353 808 Z " />
<glyph glyph-name="Omacron" unicode="&#x14c;" horiz-adv-x="710" d="M355 -12 Q288 -12 229.5 12.5 Q171 37 127.5 83.5 Q84 130 59 197 Q34 264 34 348 Q34 432 59 498 Q84 564 127.5 610 Q171 656 229.5 680 Q288 704 355 704 Q422 704 480.5 680 Q539 656 582.5 610 Q626 564 651 498 Q676 432 676 348 Q676 264 651 197 Q626 130 582.5 83.5 Q539 37 480.5 12.5 Q422 -12 355 -12 Z M526 348 Q526 395 515.5 436.5 Q505 478 484 508.5 Q463 539 430.5 556.5 Q398 574 355 574 Q311 574 279 556.5 Q247 539 226 508.5 Q205 478 194.5 436.5 Q184 395 184 348 Q184 301 194.5 259 Q205 217 226 185.5 Q247 154 279 136 Q311 118 355 118 Q398 118 430.5 136 Q463 154 484 185.5 Q505 217 515.5 259 Q526 301 526 348 Z M216 867 L494 867 L494 760 L216 760 L216 867 Z " />
<glyph glyph-name="Obreve" unicode="&#x14e;" horiz-adv-x="710" d="M355 -12 Q288 -12 229.5 12.5 Q171 37 127.5 83.5 Q84 130 59 197 Q34 264 34 348 Q34 432 59 498 Q84 564 127.5 610 Q171 656 229.5 680 Q288 704 355 704 Q422 704 480.5 680 Q539 656 582.5 610 Q626 564 651 498 Q676 432 676 348 Q676 264 651 197 Q626 130 582.5 83.5 Q539 37 480.5 12.5 Q422 -12 355 -12 Z M526 348 Q526 395 515.5 436.5 Q505 478 484 508.5 Q463 539 430.5 556.5 Q398 574 355 574 Q311 574 279 556.5 Q247 539 226 508.5 Q205 478 194.5 436.5 Q184 395 184 348 Q184 301 194.5 259 Q205 217 226 185.5 Q247 154 279 136 Q311 118 355 118 Q398 118 430.5 136 Q463 154 484 185.5 Q505 217 515.5 259 Q526 301 526 348 Z M355 734 Q292 734 247.5 768 Q203 802 193 866 L300 899 Q299 897 299 895 L299 888 Q299 861 312.5 843.5 Q326 826 355 826 Q384 826 397 843.5 Q410 861 410 888 Q410 889 409.5 891 Q409 893 409 895 L409 899 L516 866 Q507 802 462 768 Q417 734 355 734 Z " />
<glyph glyph-name="Otilde" unicode="&#xd5;" horiz-adv-x="710" d="M355 -12 Q288 -12 229.5 12.5 Q171 37 127.5 83.5 Q84 130 59 197 Q34 264 34 348 Q34 432 59 498 Q84 564 127.5 610 Q171 656 229.5 680 Q288 704 355 704 Q422 704 480.5 680 Q539 656 582.5 610 Q626 564 651 498 Q676 432 676 348 Q676 264 651 197 Q626 130 582.5 83.5 Q539 37 480.5 12.5 Q422 -12 355 -12 Z M526 348 Q526 395 515.5 436.5 Q505 478 484 508.5 Q463 539 430.5 556.5 Q398 574 355 574 Q311 574 279 556.5 Q247 539 226 508.5 Q205 478 194.5 436.5 Q184 395 184 348 Q184 301 194.5 259 Q205 217 226 185.5 Q247 154 279 136 Q311 118 355 118 Q398 118 430.5 136 Q463 154 484 185.5 Q505 217 515.5 259 Q526 301 526 348 Z M429 740 Q405 740 386.5 748 Q368 756 352.5 765.5 Q337 775 324 783 Q311 791 298 791 Q281 791 275 776 Q269 761 267 741 L177 790 Q180 812 188.5 831.5 Q197 851 210.5 865.5 Q224 880 242 888 Q260 896 280 896 Q304 896 323 888 Q342 880 357.5 871 Q373 862 386 854 Q399 846 411 846 Q428 846 434.5 860.5 Q441 875 443 896 L533 847 Q527 801 499 770.5 Q471 740 429 740 Z " />
<glyph glyph-name="Oslashacute" unicode="&#x1fe;" horiz-adv-x="725" d="M362 -12 Q274 -12 200 33 L139 -47 L42 28 L110 118 Q78 163 59.5 221 Q41 279 41 348 Q41 432 66 498 Q91 564 134.5 610 Q178 656 236.5 680 Q295 704 362 704 Q406 704 446.5 692.5 Q487 681 522 660 L586 744 L683 669 L614 577 Q647 532 665.5 474.5 Q684 417 684 348 Q684 264 659 197 Q634 130 590.5 83.5 Q547 37 488 12.5 Q429 -12 362 -12 Z M541 348 Q541 415 521 469 L271 135 Q308 110 362 110 Q407 110 441 129 Q475 148 497 181 Q519 214 530 257 Q541 300 541 348 Z M452 558 Q433 569 410.5 575.5 Q388 582 362 582 Q317 582 283.5 563.5 Q250 545 228 513 Q206 481 195 438.5 Q184 396 184 348 Q184 279 203 226 L452 558 Z M296 777 Q315 793 334.5 813 Q354 833 371.5 855 Q389 877 403.5 900 Q418 923 429 944 L534 867 Q518 845 497 825 Q476 805 453 787.5 Q430 770 406 755.5 Q382 741 361 731 L296 777 Z " />
<glyph glyph-name="Racute" unicode="&#x154;" horiz-adv-x="641" d="M63 692 L358 692 Q475 692 543 637.5 Q611 583 611 482 Q611 410 573 361 Q535 312 472 289 L626 0 L470 0 L328 270 L209 270 L209 0 L63 0 L63 692 Z M464 482 Q464 524 437.5 546.5 Q411 569 359 569 L209 569 L209 391 L359 391 Q411 391 437.5 415.5 Q464 440 464 482 Z M242 777 Q261 793 280.5 813 Q300 833 317.5 855 Q335 877 349.5 900 Q364 923 375 944 L480 867 Q464 845 443 825 Q422 805 399 787.5 Q376 770 352 755.5 Q328 741 307 731 L242 777 Z " />
<glyph glyph-name="Rcaron" unicode="&#x158;" horiz-adv-x="641" d="M63 692 L358 692 Q475 692 543 637.5 Q611 583 611 482 Q611 410 573 361 Q535 312 472 289 L626 0 L470 0 L328 270 L209 270 L209 0 L63 0 L63 692 Z M464 482 Q464 524 437.5 546.5 Q411 569 359 569 L209 569 L209 391 L359 391 Q411 391 437.5 415.5 Q464 440 464 482 Z M310 830 Q331 854 360.5 877.5 Q390 901 426 916 L491 829 Q447 811 413 790.5 Q379 770 352 739 L265 739 Q238 770 204 790.5 Q170 811 126 829 L192 916 Q227 901 256.5 877.5 Q286 854 307 830 L310 830 Z " />
<glyph glyph-name="uni0156" unicode="&#x156;" horiz-adv-x="641" d="M63 692 L358 692 Q475 692 543 637.5 Q611 583 611 482 Q611 410 573 361 Q535 312 472 289 L626 0 L470 0 L328 270 L209 270 L209 0 L63 0 L63 692 Z M464 482 Q464 524 437.5 546.5 Q411 569 359 569 L209 569 L209 391 L359 391 Q411 391 437.5 415.5 Q464 440 464 482 Z M262 -220 Q274 -217 287 -213 Q300 -209 311.5 -202 Q323 -195 331.5 -184.5 Q340 -174 343 -158 Q340 -159 335 -159 Q310 -159 292 -145 Q274 -131 274 -103 Q274 -75 292 -61 Q310 -47 338 -47 Q371 -47 392 -71 Q413 -95 413 -135 Q413 -180 392.5 -213.5 Q372 -247 341 -264 L262 -220 L262 -220 Z " />
<glyph glyph-name="Sacute" unicode="&#x15a;" horiz-adv-x="614" d="M248 306 Q209 318 173.5 332.5 Q138 347 110 369.5 Q82 392 65.5 423 Q49 454 49 499 Q49 542 66.5 579.5 Q84 617 116.5 645 Q149 673 194.5 688.5 Q240 704 296 704 Q341 704 384 693 Q427 682 465 660.5 Q503 639 533.5 608 Q564 577 584 537 L454 455 Q443 515 398 549 Q353 583 292 583 Q249 583 221 563.5 Q193 544 193 512 Q193 489 208.5 474.5 Q224 460 249.5 450 Q275 440 308 431.5 Q341 423 376 412 Q417 400 456 384 Q495 368 525.5 344.5 Q556 321 574.5 287 Q593 253 593 204 Q593 157 574 117.5 Q555 78 520 49 Q485 20 436.5 4 Q388 -12 330 -12 Q224 -12 141.5 38.5 Q59 89 21 183 L154 267 Q161 233 176 204 Q191 175 213.5 154 Q236 133 266.5 121 Q297 109 335 109 Q388 109 418.5 132 Q449 155 449 193 Q449 221 431.5 238 Q414 255 386 266 Q358 277 321.5 286 Q285 295 248 306 Z M235 777 Q254 793 273.5 813 Q293 833 310.5 855 Q328 877 342.5 900 Q357 923 368 944 L473 867 Q457 845 436 825 Q415 805 392 787.5 Q369 770 345 755.5 Q321 741 300 731 L235 777 Z " />
<glyph glyph-name="Scaron" unicode="&#x160;" horiz-adv-x="614" d="M248 306 Q209 318 173.5 332.5 Q138 347 110 369.5 Q82 392 65.5 423 Q49 454 49 499 Q49 542 66.5 579.5 Q84 617 116.5 645 Q149 673 194.5 688.5 Q240 704 296 704 Q341 704 384 693 Q427 682 465 660.5 Q503 639 533.5 608 Q564 577 584 537 L454 455 Q443 515 398 549 Q353 583 292 583 Q249 583 221 563.5 Q193 544 193 512 Q193 489 208.5 474.5 Q224 460 249.5 450 Q275 440 308 431.5 Q341 423 376 412 Q417 400 456 384 Q495 368 525.5 344.5 Q556 321 574.5 287 Q593 253 593 204 Q593 157 574 117.5 Q555 78 520 49 Q485 20 436.5 4 Q388 -12 330 -12 Q224 -12 141.5 38.5 Q59 89 21 183 L154 267 Q161 233 176 204 Q191 175 213.5 154 Q236 133 266.5 121 Q297 109 335 109 Q388 109 418.5 132 Q449 155 449 193 Q449 221 431.5 238 Q414 255 386 266 Q358 277 321.5 286 Q285 295 248 306 Z M303 830 Q324 854 353.5 877.5 Q383 901 419 916 L484 829 Q440 811 406 790.5 Q372 770 345 739 L258 739 Q231 770 197 790.5 Q163 811 119 829 L185 916 Q220 901 249.5 877.5 Q279 854 300 830 L303 830 Z " />
<glyph glyph-name="Scircumflex" unicode="&#x15c;" horiz-adv-x="614" d="M248 306 Q209 318 173.5 332.5 Q138 347 110 369.5 Q82 392 65.5 423 Q49 454 49 499 Q49 542 66.5 579.5 Q84 617 116.5 645 Q149 673 194.5 688.5 Q240 704 296 704 Q341 704 384 693 Q427 682 465 660.5 Q503 639 533.5 608 Q564 577 584 537 L454 455 Q443 515 398 549 Q353 583 292 583 Q249 583 221 563.5 Q193 544 193 512 Q193 489 208.5 474.5 Q224 460 249.5 450 Q275 440 308 431.5 Q341 423 376 412 Q417 400 456 384 Q495 368 525.5 344.5 Q556 321 574.5 287 Q593 253 593 204 Q593 157 574 117.5 Q555 78 520 49 Q485 20 436.5 4 Q388 -12 330 -12 Q224 -12 141.5 38.5 Q59 89 21 183 L154 267 Q161 233 176 204 Q191 175 213.5 154 Q236 133 266.5 121 Q297 109 335 109 Q388 109 418.5 132 Q449 155 449 193 Q449 221 431.5 238 Q414 255 386 266 Q358 277 321.5 286 Q285 295 248 306 Z M300 808 Q279 783 249.5 760 Q220 737 185 722 L119 809 Q163 826 197 847 Q231 868 258 898 L345 898 Q372 868 406 847 Q440 826 484 809 L419 722 Q383 737 353.5 760 Q324 783 303 808 L300 808 Z " />
<glyph glyph-name="uni0218" unicode="&#x218;" horiz-adv-x="614" d="M248 306 Q209 318 173.5 332.5 Q138 347 110 369.5 Q82 392 65.5 423 Q49 454 49 499 Q49 542 66.5 579.5 Q84 617 116.5 645 Q149 673 194.5 688.5 Q240 704 296 704 Q341 704 384 693 Q427 682 465 660.5 Q503 639 533.5 608 Q564 577 584 537 L454 455 Q443 515 398 549 Q353 583 292 583 Q249 583 221 563.5 Q193 544 193 512 Q193 489 208.5 474.5 Q224 460 249.5 450 Q275 440 308 431.5 Q341 423 376 412 Q417 400 456 384 Q495 368 525.5 344.5 Q556 321 574.5 287 Q593 253 593 204 Q593 157 574 117.5 Q555 78 520 49 Q485 20 436.5 4 Q388 -12 330 -12 Q224 -12 141.5 38.5 Q59 89 21 183 L154 267 Q161 233 176 204 Q191 175 213.5 154 Q236 133 266.5 121 Q297 109 335 109 Q388 109 418.5 132 Q449 155 449 193 Q449 221 431.5 238 Q414 255 386 266 Q358 277 321.5 286 Q285 295 248 306 Z M246 -220 Q258 -217 271 -213 Q284 -209 295.5 -202 Q307 -195 315.5 -184.5 Q324 -174 327 -158 Q324 -159 319 -159 Q294 -159 276 -145 Q258 -131 258 -103 Q258 -75 276 -61 Q294 -47 322 -47 Q355 -47 376 -71 Q397 -95 397 -135 Q397 -180 376.5 -213.5 Q356 -247 325 -264 L246 -220 L246 -220 Z " />
<glyph glyph-name="uni015E" unicode="&#x15e;" horiz-adv-x="614" d="M248 306 Q209 318 173.5 332.5 Q138 347 110 369.5 Q82 392 65.5 423 Q49 454 49 499 Q49 542 66.5 579.5 Q84 617 116.5 645 Q149 673 194.5 688.5 Q240 704 296 704 Q341 704 384 693 Q427 682 465 660.5 Q503 639 533.5 608 Q564 577 584 537 L454 455 Q443 515 398 549 Q353 583 292 583 Q249 583 221 563.5 Q193 544 193 512 Q193 489 208.5 474.5 Q224 460 249.5 450 Q275 440 308 431.5 Q341 423 376 412 Q417 400 456 384 Q495 368 525.5 344.5 Q556 321 574.5 287 Q593 253 593 204 Q593 157 574 117.5 Q555 78 520 49 Q485 20 436.5 4 Q388 -12 330 -12 Q224 -12 141.5 38.5 Q59 89 21 183 L154 267 Q161 233 176 204 Q191 175 213.5 154 Q236 133 266.5 121 Q297 109 335 109 Q388 109 418.5 132 Q449 155 449 193 Q449 221 431.5 238 Q414 255 386 266 Q358 277 321.5 286 Q285 295 248 306 Z M363 9 L351 -32 Q387 -36 414.5 -57.5 Q442 -79 442 -117 Q442 -139 432 -156 Q422 -173 405.5 -184.5 Q389 -196 367.5 -202 Q346 -208 324 -208 Q286 -208 255.5 -194 Q225 -180 205 -155 L272 -106 Q281 -125 293.5 -136 Q306 -147 326 -147 Q340 -147 350.5 -139.5 Q361 -132 361 -116 Q361 -102 350.5 -94 Q340 -86 326 -86 Q316 -86 308 -90 Q304 -92 301 -93 L254 -56 L293 15 L363 9 Z " />
<glyph glyph-name="Tcaron" unicode="&#x164;" horiz-adv-x="564" d="M6 692 L558 692 L558 561 L356 561 L356 0 L208 0 L208 561 L6 561 L6 692 Z M283 830 Q304 854 333.5 877.5 Q363 901 399 916 L464 829 Q420 811 386 790.5 Q352 770 325 739 L238 739 Q211 770 177 790.5 Q143 811 99 829 L165 916 Q200 901 229.5 877.5 Q259 854 280 830 L283 830 Z " />
<glyph glyph-name="uni021A" unicode="&#x21a;" horiz-adv-x="564" d="M6 692 L558 692 L558 561 L356 561 L356 0 L208 0 L208 561 L6 561 L6 692 Z M194 -220 Q206 -217 219 -213 Q232 -209 243.5 -202 Q255 -195 263.5 -184.5 Q272 -174 275 -158 Q272 -159 267 -159 Q242 -159 224 -145 Q206 -131 206 -103 Q206 -75 224 -61 Q242 -47 270 -47 Q303 -47 324 -71 Q345 -95 345 -135 Q345 -180 324.5 -213.5 Q304 -247 273 -264 L194 -220 L194 -220 Z " />
<glyph glyph-name="uni0162" unicode="&#x162;" horiz-adv-x="564" d="M6 692 L558 692 L558 561 L356 561 L356 0 L208 0 L208 561 L6 561 L6 692 Z M311 9 L299 -32 Q335 -36 362.5 -57.5 Q390 -79 390 -117 Q390 -139 380 -156 Q370 -173 353.5 -184.5 Q337 -196 315.5 -202 Q294 -208 272 -208 Q234 -208 203.5 -194 Q173 -180 153 -155 L220 -106 Q229 -125 241.5 -136 Q254 -147 274 -147 Q288 -147 298.5 -139.5 Q309 -132 309 -116 Q309 -102 298.5 -94 Q288 -86 274 -86 Q264 -86 256 -90 Q252 -92 249 -93 L202 -56 L241 15 L311 9 Z " />
<glyph glyph-name="Ugrave" unicode="&#xd9;" horiz-adv-x="679" d="M339 -12 Q278 -12 226.5 4.5 Q175 21 137.5 57 Q100 93 79 149 Q58 205 58 284 L58 692 L204 692 L204 275 Q204 199 237 158.5 Q270 118 339 118 Q408 118 441 158.5 Q474 199 474 275 L474 692 L621 692 L621 284 Q621 205 599.5 149 Q578 93 540.5 57 Q503 21 451.5 4.5 Q400 -12 339 -12 Z M340 731 Q319 741 295 755.5 Q271 770 248 787.5 Q225 805 204 825 Q183 845 167 867 L272 944 Q282 923 297 900 Q312 877 329.5 855 Q347 833 366.5 813 Q386 793 405 777 L340 731 Z " />
<glyph glyph-name="Uacute" unicode="&#xda;" horiz-adv-x="679" d="M339 -12 Q278 -12 226.5 4.5 Q175 21 137.5 57 Q100 93 79 149 Q58 205 58 284 L58 692 L204 692 L204 275 Q204 199 237 158.5 Q270 118 339 118 Q408 118 441 158.5 Q474 199 474 275 L474 692 L621 692 L621 284 Q621 205 599.5 149 Q578 93 540.5 57 Q503 21 451.5 4.5 Q400 -12 339 -12 Z M272 777 Q291 793 310.5 813 Q330 833 347.5 855 Q365 877 379.5 900 Q394 923 405 944 L510 867 Q494 845 473 825 Q452 805 429 787.5 Q406 770 382 755.5 Q358 741 337 731 L272 777 Z " />
<glyph glyph-name="Uhungarumlaut" unicode="&#x170;" horiz-adv-x="679" d="M339 -12 Q278 -12 226.5 4.5 Q175 21 137.5 57 Q100 93 79 149 Q58 205 58 284 L58 692 L204 692 L204 275 Q204 199 237 158.5 Q270 118 339 118 Q408 118 441 158.5 Q474 199 474 275 L474 692 L621 692 L621 284 Q621 205 599.5 149 Q578 93 540.5 57 Q503 21 451.5 4.5 Q400 -12 339 -12 Z M181 777 Q199 793 217 813.5 Q235 834 251 856 Q267 878 281 901 Q295 924 305 945 L404 868 Q373 825 329 788.5 Q285 752 243 731 L181 777 Z M374 777 Q393 793 411.5 813.5 Q430 834 446.5 856 Q463 878 477.5 901 Q492 924 502 945 L601 868 Q569 825 524 788.5 Q479 752 437 731 L374 777 Z " />
<glyph glyph-name="Udieresis" unicode="&#xdc;" horiz-adv-x="679" d="M339 -12 Q278 -12 226.5 4.5 Q175 21 137.5 57 Q100 93 79 149 Q58 205 58 284 L58 692 L204 692 L204 275 Q204 199 237 158.5 Q270 118 339 118 Q408 118 441 158.5 Q474 199 474 275 L474 692 L621 692 L621 284 Q621 205 599.5 149 Q578 93 540.5 57 Q503 21 451.5 4.5 Q400 -12 339 -12 Z M239 894 Q272 894 293.5 872.5 Q315 851 315 819 Q315 786 293.5 765 Q272 744 239 744 Q207 744 185.5 765 Q164 786 164 819 Q164 851 185.5 872.5 Q207 894 239 894 Z M438 894 Q471 894 492.5 872.5 Q514 851 514 819 Q514 786 492.5 765 Q471 744 438 744 Q406 744 384.5 765 Q363 786 363 819 Q363 851 384.5 872.5 Q406 894 438 894 Z " />
<glyph glyph-name="Ucircumflex" unicode="&#xdb;" horiz-adv-x="679" d="M339 -12 Q278 -12 226.5 4.5 Q175 21 137.5 57 Q100 93 79 149 Q58 205 58 284 L58 692 L204 692 L204 275 Q204 199 237 158.5 Q270 118 339 118 Q408 118 441 158.5 Q474 199 474 275 L474 692 L621 692 L621 284 Q621 205 599.5 149 Q578 93 540.5 57 Q503 21 451.5 4.5 Q400 -12 339 -12 Z M337 808 Q316 783 286.5 760 Q257 737 222 722 L156 809 Q200 826 234 847 Q268 868 295 898 L382 898 Q409 868 443 847 Q477 826 521 809 L456 722 Q420 737 390.5 760 Q361 783 340 808 L337 808 Z " />
<glyph glyph-name="Umacron" unicode="&#x16a;" horiz-adv-x="679" d="M339 -12 Q278 -12 226.5 4.5 Q175 21 137.5 57 Q100 93 79 149 Q58 205 58 284 L58 692 L204 692 L204 275 Q204 199 237 158.5 Q270 118 339 118 Q408 118 441 158.5 Q474 199 474 275 L474 692 L621 692 L621 284 Q621 205 599.5 149 Q578 93 540.5 57 Q503 21 451.5 4.5 Q400 -12 339 -12 Z M200 867 L478 867 L478 760 L200 760 L200 867 Z " />
<glyph glyph-name="Utilde" unicode="&#x168;" horiz-adv-x="679" d="M339 -12 Q278 -12 226.5 4.5 Q175 21 137.5 57 Q100 93 79 149 Q58 205 58 284 L58 692 L204 692 L204 275 Q204 199 237 158.5 Q270 118 339 118 Q408 118 441 158.5 Q474 199 474 275 L474 692 L621 692 L621 284 Q621 205 599.5 149 Q578 93 540.5 57 Q503 21 451.5 4.5 Q400 -12 339 -12 Z M413 740 Q389 740 370.5 748 Q352 756 336.5 765.5 Q321 775 308 783 Q295 791 282 791 Q265 791 259 776 Q253 761 251 741 L161 790 Q164 812 172.5 831.5 Q181 851 194.5 865.5 Q208 880 226 888 Q244 896 264 896 Q288 896 307 888 Q326 880 341.5 871 Q357 862 370 854 Q383 846 395 846 Q412 846 418.5 860.5 Q425 875 427 896 L517 847 Q511 801 483 770.5 Q455 740 413 740 Z " />
<glyph glyph-name="Ubreve" unicode="&#x16c;" horiz-adv-x="679" d="M339 -12 Q278 -12 226.5 4.5 Q175 21 137.5 57 Q100 93 79 149 Q58 205 58 284 L58 692 L204 692 L204 275 Q204 199 237 158.5 Q270 118 339 118 Q408 118 441 158.5 Q474 199 474 275 L474 692 L621 692 L621 284 Q621 205 599.5 149 Q578 93 540.5 57 Q503 21 451.5 4.5 Q400 -12 339 -12 Z M339 734 Q276 734 231.5 768 Q187 802 177 866 L284 899 Q283 897 283 895 L283 888 Q283 861 296.5 843.5 Q310 826 339 826 Q368 826 381 843.5 Q394 861 394 888 Q394 889 393.5 891 Q393 893 393 895 L393 899 L500 866 Q491 802 446 768 Q401 734 339 734 Z " />
<glyph glyph-name="Uring" unicode="&#x16e;" horiz-adv-x="679" d="M339 -12 Q278 -12 226.5 4.5 Q175 21 137.5 57 Q100 93 79 149 Q58 205 58 284 L58 692 L204 692 L204 275 Q204 199 237 158.5 Q270 118 339 118 Q408 118 441 158.5 Q474 199 474 275 L474 692 L621 692 L621 284 Q621 205 599.5 149 Q578 93 540.5 57 Q503 21 451.5 4.5 Q400 -12 339 -12 Z M339 882 Q320 882 308.5 870 Q297 858 297 839 Q297 820 308.5 808 Q320 796 339 796 Q357 796 368.5 808 Q380 820 380 839 Q380 858 368.5 870 Q357 882 339 882 Z M339 949 Q363 949 385 941 Q407 933 423.5 918.5 Q440 904 450 884 Q460 864 460 839 Q460 814 450 794 Q440 774 423.5 759.5 Q407 745 385 737 Q363 729 339 729 Q315 729 293 737 Q271 745 254.5 759.5 Q238 774 228 794 Q218 814 218 839 Q218 864 228 884 Q238 904 254.5 918.5 Q271 933 293 941 Q315 949 339 949 Z " />
<glyph glyph-name="Wgrave" unicode="&#x1e80;" horiz-adv-x="857" d="M594 270 Q597 254 600 234.5 Q603 215 606 197 Q609 176 612 154 L615 154 Q616 173 618 192 Q620 208 622 226.5 Q624 245 626 261 L691 692 L845 692 L715 0 L534 0 L449 397 Q444 418 440.5 439.5 Q437 461 435 478 Q432 498 430 518 L427 518 Q424 498 421 478 Q418 461 415 439.5 Q412 418 407 397 L323 0 L142 0 L13 692 L168 692 L233 261 Q235 245 237 226.5 Q239 208 241 192 Q243 173 244 154 L247 154 Q249 176 253 197 Q255 215 258.5 234.5 Q262 254 265 270 L352 692 L507 692 L594 270 Z M430 731 Q409 741 385 755.5 Q361 770 338 787.5 Q315 805 294 825 Q273 845 257 867 L362 944 Q372 923 387 900 Q402 877 419.5 855 Q437 833 456.5 813 Q476 793 495 777 L430 731 Z " />
<glyph glyph-name="Wacute" unicode="&#x1e82;" horiz-adv-x="857" d="M594 270 Q597 254 600 234.5 Q603 215 606 197 Q609 176 612 154 L615 154 Q616 173 618 192 Q620 208 622 226.5 Q624 245 626 261 L691 692 L845 692 L715 0 L534 0 L449 397 Q444 418 440.5 439.5 Q437 461 435 478 Q432 498 430 518 L427 518 Q424 498 421 478 Q418 461 415 439.5 Q412 418 407 397 L323 0 L142 0 L13 692 L168 692 L233 261 Q235 245 237 226.5 Q239 208 241 192 Q243 173 244 154 L247 154 Q249 176 253 197 Q255 215 258.5 234.5 Q262 254 265 270 L352 692 L507 692 L594 270 Z M362 777 Q381 793 400.5 813 Q420 833 437.5 855 Q455 877 469.5 900 Q484 923 495 944 L600 867 Q584 845 563 825 Q542 805 519 787.5 Q496 770 472 755.5 Q448 741 427 731 L362 777 Z " />
<glyph glyph-name="Wdieresis" unicode="&#x1e84;" horiz-adv-x="857" d="M594 270 Q597 254 600 234.5 Q603 215 606 197 Q609 176 612 154 L615 154 Q616 173 618 192 Q620 208 622 226.5 Q624 245 626 261 L691 692 L845 692 L715 0 L534 0 L449 397 Q444 418 440.5 439.5 Q437 461 435 478 Q432 498 430 518 L427 518 Q424 498 421 478 Q418 461 415 439.5 Q412 418 407 397 L323 0 L142 0 L13 692 L168 692 L233 261 Q235 245 237 226.5 Q239 208 241 192 Q243 173 244 154 L247 154 Q249 176 253 197 Q255 215 258.5 234.5 Q262 254 265 270 L352 692 L507 692 L594 270 Z M329 894 Q362 894 383.5 872.5 Q405 851 405 819 Q405 786 383.5 765 Q362 744 329 744 Q297 744 275.5 765 Q254 786 254 819 Q254 851 275.5 872.5 Q297 894 329 894 Z M528 894 Q561 894 582.5 872.5 Q604 851 604 819 Q604 786 582.5 765 Q561 744 528 744 Q496 744 474.5 765 Q453 786 453 819 Q453 851 474.5 872.5 Q496 894 528 894 Z " />
<glyph glyph-name="Wcircumflex" unicode="&#x174;" horiz-adv-x="857" d="M594 270 Q597 254 600 234.5 Q603 215 606 197 Q609 176 612 154 L615 154 Q616 173 618 192 Q620 208 622 226.5 Q624 245 626 261 L691 692 L845 692 L715 0 L534 0 L449 397 Q444 418 440.5 439.5 Q437 461 435 478 Q432 498 430 518 L427 518 Q424 498 421 478 Q418 461 415 439.5 Q412 418 407 397 L323 0 L142 0 L13 692 L168 692 L233 261 Q235 245 237 226.5 Q239 208 241 192 Q243 173 244 154 L247 154 Q249 176 253 197 Q255 215 258.5 234.5 Q262 254 265 270 L352 692 L507 692 L594 270 Z M427 808 Q406 783 376.5 760 Q347 737 312 722 L246 809 Q290 826 324 847 Q358 868 385 898 L472 898 Q499 868 533 847 Q567 826 611 809 L546 722 Q510 737 480.5 760 Q451 783 430 808 L427 808 Z " />
<glyph glyph-name="Ygrave" unicode="&#x1ef2;" horiz-adv-x="608" d="M229 256 L-5 692 L155 692 L265 474 Q274 457 281 440.5 Q288 424 293 411 Q299 396 304 383 L307 383 Q312 396 318 411 Q323 424 330 440.5 Q337 457 346 474 L457 692 L612 692 L377 258 L377 0 L229 0 L229 256 Z M306 731 Q285 741 261 755.5 Q237 770 214 787.5 Q191 805 170 825 Q149 845 133 867 L238 944 Q248 923 263 900 Q278 877 295.5 855 Q313 833 332.5 813 Q352 793 371 777 L306 731 Z " />
<glyph glyph-name="Yacute" unicode="&#xdd;" horiz-adv-x="608" d="M229 256 L-5 692 L155 692 L265 474 Q274 457 281 440.5 Q288 424 293 411 Q299 396 304 383 L307 383 Q312 396 318 411 Q323 424 330 440.5 Q337 457 346 474 L457 692 L612 692 L377 258 L377 0 L229 0 L229 256 Z M238 777 Q257 793 276.5 813 Q296 833 313.5 855 Q331 877 345.5 900 Q360 923 371 944 L476 867 Q460 845 439 825 Q418 805 395 787.5 Q372 770 348 755.5 Q324 741 303 731 L238 777 Z " />
<glyph glyph-name="Ydieresis" unicode="&#x178;" horiz-adv-x="608" d="M229 256 L-5 692 L155 692 L265 474 Q274 457 281 440.5 Q288 424 293 411 Q299 396 304 383 L307 383 Q312 396 318 411 Q323 424 330 440.5 Q337 457 346 474 L457 692 L612 692 L377 258 L377 0 L229 0 L229 256 Z M205 894 Q238 894 259.5 872.5 Q281 851 281 819 Q281 786 259.5 765 Q238 744 205 744 Q173 744 151.5 765 Q130 786 130 819 Q130 851 151.5 872.5 Q173 894 205 894 Z M404 894 Q437 894 458.5 872.5 Q480 851 480 819 Q480 786 458.5 765 Q437 744 404 744 Q372 744 350.5 765 Q329 786 329 819 Q329 851 350.5 872.5 Q372 894 404 894 Z " />
<glyph glyph-name="Ycircumflex" unicode="&#x176;" horiz-adv-x="608" d="M229 256 L-5 692 L155 692 L265 474 Q274 457 281 440.5 Q288 424 293 411 Q299 396 304 383 L307 383 Q312 396 318 411 Q323 424 330 440.5 Q337 457 346 474 L457 692 L612 692 L377 258 L377 0 L229 0 L229 256 Z M303 808 Q282 783 252.5 760 Q223 737 188 722 L122 809 Q166 826 200 847 Q234 868 261 898 L348 898 Q375 868 409 847 Q443 826 487 809 L422 722 Q386 737 356.5 760 Q327 783 306 808 L303 808 Z " />
<glyph glyph-name="Zacute" unicode="&#x179;" horiz-adv-x="575" d="M26 90 L355 562 L33 562 L33 692 L546 692 L546 596 L221 130 L554 130 L554 0 L26 0 L26 90 Z M217 777 Q236 793 255.5 813 Q275 833 292.5 855 Q310 877 324.5 900 Q339 923 350 944 L455 867 Q439 845 418 825 Q397 805 374 787.5 Q351 770 327 755.5 Q303 741 282 731 L217 777 Z " />
<glyph glyph-name="Zdotaccent" unicode="&#x17b;" horiz-adv-x="575" d="M26 90 L355 562 L33 562 L33 692 L546 692 L546 596 L221 130 L554 130 L554 0 L26 0 L26 90 Z M284 902 Q319 902 342.5 880 Q366 858 366 823 Q366 788 342.5 766 Q319 744 284 744 Q249 744 225.5 766 Q202 788 202 823 Q202 858 225.5 880 Q249 902 284 902 Z " />
<glyph glyph-name="Zcaron" unicode="&#x17d;" horiz-adv-x="575" d="M26 90 L355 562 L33 562 L33 692 L546 692 L546 596 L221 130 L554 130 L554 0 L26 0 L26 90 Z M285 830 Q306 854 335.5 877.5 Q365 901 401 916 L466 829 Q422 811 388 790.5 Q354 770 327 739 L240 739 Q213 770 179 790.5 Q145 811 101 829 L167 916 Q202 901 231.5 877.5 Q261 854 282 830 L285 830 Z " />
<glyph glyph-name="aeacute" unicode="&#x1fd;" horiz-adv-x="804" d="M257 408 Q215 408 187.5 381 Q160 354 150 309 L26 375 Q55 437 115 476.5 Q175 516 257 516 Q304 516 342.5 500 Q381 484 407 452 Q437 483 476 499.5 Q515 516 561 516 Q610 516 649 499 Q688 482 716 451 Q744 420 759 377 Q774 334 774 283 Q774 267 773 254.5 Q772 242 770 233 Q768 222 767 214 L456 214 Q460 152 488 122 Q516 92 560 92 Q598 92 620.5 115.5 Q643 139 649 175 L768 108 Q755 84 735.5 62 Q716 40 690 23.5 Q664 7 631.5 -2.5 Q599 -12 560 -12 Q505 -12 460.5 9 Q416 30 386 71 Q363 38 319 13 Q275 -12 212 -12 Q176 -12 144 -2 Q112 8 88.5 27 Q65 46 51.5 73.5 Q38 101 38 136 Q38 178 55.5 206 Q73 234 99.5 251.5 Q126 269 158 278.5 Q190 288 220 294 Q271 305 297 316 Q323 327 323 353 Q323 378 304.5 393 Q286 408 257 408 Z M556 414 Q518 414 492 387 Q466 360 458 308 L643 308 Q643 354 620 384 Q597 414 556 414 Z M327 245 Q318 234 298.5 225.5 Q279 217 251 209 Q236 205 222 200.5 Q208 196 197 189 Q186 182 179.5 172 Q173 162 173 147 Q173 124 190 109 Q207 94 239 94 Q274 94 300.5 119 Q327 144 327 191 L327 245 Z M339 597 Q358 613 377.5 633 Q397 653 414.5 675 Q432 697 446.5 720 Q461 743 472 764 L577 687 Q561 665 540 645 Q519 625 496 607.5 Q473 590 449 575.5 Q425 561 404 551 L339 597 Z " />
<glyph glyph-name="agrave" unicode="&#xe0;" horiz-adv-x="523" d="M262 408 Q218 408 189.5 380.5 Q161 353 150 308 L26 374 Q55 437 117.5 476.5 Q180 516 264 516 Q307 516 344 504.5 Q381 493 408.5 469.5 Q436 446 452 410.5 Q468 375 468 328 L468 127 Q468 87 470 58 Q472 29 480 0 L374 0 Q362 17 356.5 31 Q351 45 346 63 L343 63 Q335 51 323 38 Q311 25 293 14 Q275 3 252 -4.5 Q229 -12 200 -12 Q167 -12 138 -2 Q109 8 87.5 27 Q66 46 53.5 73.5 Q41 101 41 136 Q41 178 58.5 206 Q76 234 103 251.5 Q130 269 163 278.5 Q196 288 226 294 Q278 305 306 316 Q334 327 334 353 Q334 378 313.5 393 Q293 408 262 408 Z M338 247 Q327 233 307.5 224.5 Q288 216 259 208 Q243 204 228 199.5 Q213 195 202 188 Q191 181 184 171 Q177 161 177 146 Q177 123 193.5 108.5 Q210 94 243 94 Q281 94 309.5 118.5 Q338 143 338 190 L338 247 Z M259 551 Q238 561 214 575.5 Q190 590 167 607.5 Q144 625 123 645 Q102 665 86 687 L191 764 Q201 743 216 720 Q231 697 248.5 675 Q266 653 285.5 633 Q305 613 324 597 L259 551 Z " />
<glyph glyph-name="aacute" unicode="&#xe1;" horiz-adv-x="523" d="M262 408 Q218 408 189.5 380.5 Q161 353 150 308 L26 374 Q55 437 117.5 476.5 Q180 516 264 516 Q307 516 344 504.5 Q381 493 408.5 469.5 Q436 446 452 410.5 Q468 375 468 328 L468 127 Q468 87 470 58 Q472 29 480 0 L374 0 Q362 17 356.5 31 Q351 45 346 63 L343 63 Q335 51 323 38 Q311 25 293 14 Q275 3 252 -4.5 Q229 -12 200 -12 Q167 -12 138 -2 Q109 8 87.5 27 Q66 46 53.5 73.5 Q41 101 41 136 Q41 178 58.5 206 Q76 234 103 251.5 Q130 269 163 278.5 Q196 288 226 294 Q278 305 306 316 Q334 327 334 353 Q334 378 313.5 393 Q293 408 262 408 Z M338 247 Q327 233 307.5 224.5 Q288 216 259 208 Q243 204 228 199.5 Q213 195 202 188 Q191 181 184 171 Q177 161 177 146 Q177 123 193.5 108.5 Q210 94 243 94 Q281 94 309.5 118.5 Q338 143 338 190 L338 247 Z M191 597 Q210 613 229.5 633 Q249 653 266.5 675 Q284 697 298.5 720 Q313 743 324 764 L429 687 Q413 665 392 645 Q371 625 348 607.5 Q325 590 301 575.5 Q277 561 256 551 L191 597 Z " />
<glyph glyph-name="adieresis" unicode="&#xe4;" horiz-adv-x="523" d="M262 408 Q218 408 189.5 380.5 Q161 353 150 308 L26 374 Q55 437 117.5 476.5 Q180 516 264 516 Q307 516 344 504.5 Q381 493 408.5 469.5 Q436 446 452 410.5 Q468 375 468 328 L468 127 Q468 87 470 58 Q472 29 480 0 L374 0 Q362 17 356.5 31 Q351 45 346 63 L343 63 Q335 51 323 38 Q311 25 293 14 Q275 3 252 -4.5 Q229 -12 200 -12 Q167 -12 138 -2 Q109 8 87.5 27 Q66 46 53.5 73.5 Q41 101 41 136 Q41 178 58.5 206 Q76 234 103 251.5 Q130 269 163 278.5 Q196 288 226 294 Q278 305 306 316 Q334 327 334 353 Q334 378 313.5 393 Q293 408 262 408 Z M338 247 Q327 233 307.5 224.5 Q288 216 259 208 Q243 204 228 199.5 Q213 195 202 188 Q191 181 184 171 Q177 161 177 146 Q177 123 193.5 108.5 Q210 94 243 94 Q281 94 309.5 118.5 Q338 143 338 190 L338 247 Z M158 714 Q191 714 212.5 692.5 Q234 671 234 639 Q234 606 212.5 585 Q191 564 158 564 Q126 564 104.5 585 Q83 606 83 639 Q83 671 104.5 692.5 Q126 714 158 714 Z M357 714 Q390 714 411.5 692.5 Q433 671 433 639 Q433 606 411.5 585 Q390 564 357 564 Q325 564 303.5 585 Q282 606 282 639 Q282 671 303.5 692.5 Q325 714 357 714 Z " />
<glyph glyph-name="acircumflex" unicode="&#xe2;" horiz-adv-x="523" d="M262 408 Q218 408 189.5 380.5 Q161 353 150 308 L26 374 Q55 437 117.5 476.5 Q180 516 264 516 Q307 516 344 504.5 Q381 493 408.5 469.5 Q436 446 452 410.5 Q468 375 468 328 L468 127 Q468 87 470 58 Q472 29 480 0 L374 0 Q362 17 356.5 31 Q351 45 346 63 L343 63 Q335 51 323 38 Q311 25 293 14 Q275 3 252 -4.5 Q229 -12 200 -12 Q167 -12 138 -2 Q109 8 87.5 27 Q66 46 53.5 73.5 Q41 101 41 136 Q41 178 58.5 206 Q76 234 103 251.5 Q130 269 163 278.5 Q196 288 226 294 Q278 305 306 316 Q334 327 334 353 Q334 378 313.5 393 Q293 408 262 408 Z M338 247 Q327 233 307.5 224.5 Q288 216 259 208 Q243 204 228 199.5 Q213 195 202 188 Q191 181 184 171 Q177 161 177 146 Q177 123 193.5 108.5 Q210 94 243 94 Q281 94 309.5 118.5 Q338 143 338 190 L338 247 Z M256 628 Q235 603 205.5 580 Q176 557 141 542 L75 629 Q119 646 153 667 Q187 688 214 718 L301 718 Q328 688 362 667 Q396 646 440 629 L375 542 Q339 557 309.5 580 Q280 603 259 628 L256 628 Z " />
<glyph glyph-name="amacron" unicode="&#x101;" horiz-adv-x="523" d="M262 408 Q218 408 189.5 380.5 Q161 353 150 308 L26 374 Q55 437 117.5 476.5 Q180 516 264 516 Q307 516 344 504.5 Q381 493 408.5 469.5 Q436 446 452 410.5 Q468 375 468 328 L468 127 Q468 87 470 58 Q472 29 480 0 L374 0 Q362 17 356.5 31 Q351 45 346 63 L343 63 Q335 51 323 38 Q311 25 293 14 Q275 3 252 -4.5 Q229 -12 200 -12 Q167 -12 138 -2 Q109 8 87.5 27 Q66 46 53.5 73.5 Q41 101 41 136 Q41 178 58.5 206 Q76 234 103 251.5 Q130 269 163 278.5 Q196 288 226 294 Q278 305 306 316 Q334 327 334 353 Q334 378 313.5 393 Q293 408 262 408 Z M338 247 Q327 233 307.5 224.5 Q288 216 259 208 Q243 204 228 199.5 Q213 195 202 188 Q191 181 184 171 Q177 161 177 146 Q177 123 193.5 108.5 Q210 94 243 94 Q281 94 309.5 118.5 Q338 143 338 190 L338 247 Z M119 687 L397 687 L397 580 L119 580 L119 687 Z " />
<glyph glyph-name="atilde" unicode="&#xe3;" horiz-adv-x="523" d="M262 408 Q218 408 189.5 380.5 Q161 353 150 308 L26 374 Q55 437 117.5 476.5 Q180 516 264 516 Q307 516 344 504.5 Q381 493 408.5 469.5 Q436 446 452 410.5 Q468 375 468 328 L468 127 Q468 87 470 58 Q472 29 480 0 L374 0 Q362 17 356.5 31 Q351 45 346 63 L343 63 Q335 51 323 38 Q311 25 293 14 Q275 3 252 -4.5 Q229 -12 200 -12 Q167 -12 138 -2 Q109 8 87.5 27 Q66 46 53.5 73.5 Q41 101 41 136 Q41 178 58.5 206 Q76 234 103 251.5 Q130 269 163 278.5 Q196 288 226 294 Q278 305 306 316 Q334 327 334 353 Q334 378 313.5 393 Q293 408 262 408 Z M338 247 Q327 233 307.5 224.5 Q288 216 259 208 Q243 204 228 199.5 Q213 195 202 188 Q191 181 184 171 Q177 161 177 146 Q177 123 193.5 108.5 Q210 94 243 94 Q281 94 309.5 118.5 Q338 143 338 190 L338 247 Z M332 560 Q308 560 289.5 568 Q271 576 255.5 585.5 Q240 595 227 603 Q214 611 201 611 Q184 611 178 596 Q172 581 170 561 L80 610 Q83 632 91.5 651.5 Q100 671 113.5 685.5 Q127 700 145 708 Q163 716 183 716 Q207 716 226 708 Q245 700 260.5 691 Q276 682 289 674 Q302 666 314 666 Q331 666 337.5 680.5 Q344 695 346 716 L436 667 Q430 621 402 590.5 Q374 560 332 560 Z " />
</font>
</svg>
