<svg xmlns="http://www.w3.org/2000/svg" width="24" height="24" viewBox="0 0 24 24">
  <g fill="none" fill-rule="evenodd">
    <rect width="24" height="24"/>
    <path fill="currentColor" d="M18,17 L17.9979804,16.7558191 C17.9833667,15.9139527 17.8879896,15.4218583 17.6646404,15.0002122 L6.33535963,15.0002122 C6.11201041,15.4218583 6.01663331,15.9139527 6.00201962,16.7558191 L6,17 L18,17 Z M13,19 L11,19 C11,19.5522847 11.4477153,20 12,20 C12.5128358,20 12.9355072,19.6139598 12.9932723,19.1166211 L13,19 Z M12,4 C9.85780461,4 8.10892112,5.68396847 8.00489531,7.80035966 L8,8 L8,11 C8,11.8477633 7.90415086,12.4637614 7.68639343,13.0010331 L16.3136066,13.0010331 C16.1200444,12.5234582 16.0228048,11.9836799 16.0035857,11.2742138 L16,11 L16,8 C16,5.790861 14.209139,4 12,4 Z M5.10694542,13.2598351 L5.34224316,12.981365 C5.82827783,12.4172177 5.98002707,12.0960662 5.99810015,11.2009041 L6,11 L6,8 C6,4.6862915 8.6862915,2 12,2 C15.2383969,2 17.8775718,4.56557489 17.9958615,7.77506174 L18,8 L18.0018998,11.2009041 C18.0185827,12.0272076 18.1491671,12.3644132 18.5514377,12.8551189 L18.8930546,13.2598351 C19.6250507,14.1656907 19.9597186,15.0653552 19.9965584,16.6872527 L20,17 L20,19 L15,19 C15,20.6568542 13.6568542,22 12,22 C10.4023191,22 9.09633912,20.75108 9.00509269,19.1762728 L9,19 L4,19 L4,17 C4,15.1777891 4.32919956,14.2223067 5.10694542,13.2598351 Z"/>
  </g>
</svg>
