<svg xmlns="http://www.w3.org/2000/svg" width="24" height="24" viewBox="0 0 24 24">
  <g fill="none" fill-rule="evenodd">
    <polygon points="0 0 24 0 24 12.5 24 24 0 24"/>
    <path fill="currentColor" d="M19.7928932,2.79289322 L21.2071068,4.20710678 L4.70710678,20.7071068 L3.29289322,19.2928932 L19.7928932,2.79289322 Z M23,6.61257411 L23,17.3874259 L16.982106,15.3808383 C16.7967196,17.3436598 15.1929782,18.8935986 13.2067896,18.994747 L13,19 L8.534,19 L10.534,16.9998932 L13,17 C14.0543618,17 14.9181651,16.1841222 14.9945143,15.1492623 L15,15 L15,12.5338932 L19.882,7.65189322 L23,6.61257411 Z M13,5 C13.7102553,5 14.3772744,5.18511636 14.9554417,5.50973352 L13.4206712,7.04431765 C13.3302485,7.02496097 13.2375592,7.01171646 13.1430568,7.00503753 L13,7 L5,7 C3.9456382,7 3.08183488,7.81587779 3.00548574,8.85073766 L3,9 L3,15 C3,15.6711977 3.33063342,16.2651719 3.83791438,16.6279366 L2.41396305,18.0517332 C1.60663868,17.3669263 1.07460088,16.3674964 1.00725061,15.2428445 L1,15 L1,9 C1,6.85780461 2.68396847,5.10892112 4.80035966,5.00489531 L5,5 L13,5 Z M21,9.387 L17,10.72 L17,13.279 L21,14.612 L21,9.387 Z M6,9 C6.55228475,9 7,9.44771525 7,10 C7,10.5522847 6.55228475,11 6,11 C5.44771525,11 5,10.5522847 5,10 C5,9.44771525 5.44771525,9 6,9 Z"/>
  </g>
</svg>
