<svg xmlns="http://www.w3.org/2000/svg" width="24" height="24" viewBox="0 0 24 24">
  <g fill="none" fill-rule="evenodd">
    <polygon points="0 0 24 0 24 12.5 24 24 0 24"/>
    <path fill="currentColor" d="M13,5 C15.0806888,5 16.790327,6.58865673 16.982106,8.6191617 L23,6.61257411 L23,17.3874259 L16.982106,15.3808383 C16.7967196,17.3436598 15.1929782,18.8935986 13.2067896,18.994747 L13,19 L5,19 C2.85780461,19 1.10892112,17.3160315 1.00489531,15.1996403 L1,15 L1,9 C1,6.85780461 2.68396847,5.10892112 4.80035966,5.00489531 L5,5 L13,5 Z M13,7 L5,7 C3.9456382,7 3.08183488,7.81587779 3.00548574,8.85073766 L3,9 L3,15 C3,16.0543618 3.81587779,16.9181651 4.85073766,16.9945143 L5,17 L13,17 C14.0543618,17 14.9181651,16.1841222 14.9945143,15.1492623 L15,15 L15,9 C15,7.9456382 14.1841222,7.08183488 13.1492623,7.00548574 L13,7 Z M21,9.387 L17,10.72 L17,13.279 L21,14.612 L21,9.387 Z M6,9 C6.55228475,9 7,9.44771525 7,10 C7,10.5522847 6.55228475,11 6,11 C5.44771525,11 5,10.5522847 5,10 C5,9.44771525 5.44771525,9 6,9 Z"/>
  </g>
</svg>
