<svg xmlns="http://www.w3.org/2000/svg" width="24" height="24" viewBox="0 0 24 24">
  <g fill="none" fill-rule="evenodd">
    <rect width="24" height="24"/>
    <path fill="currentColor" d="M15,2.5 L15,21.5 L9.273,17 L6,17 C3.23857625,17 1,14.7614237 1,12 C1,9.28538004 3.16333539,7.07603414 5.86004758,7.0019209 L9.273,7 L15,2.5 Z M13,6.8115 L10,8.926 L10,15.073 L13,17.188 L13,6.8115 Z M21,8 L21,11 L24,11 L24,13 L21,13 L21,16 L19,16 L19,13 L16,13 L16,11 L19,11 L19,8 L21,8 Z M8,9 L6.02744815,8.99981164 L5.91499246,9.00116602 C4.29498194,9.04568847 3,10.3746044 3,12 C3,13.6191985 4.28278744,14.9387859 5.88753087,14.9979308 L6,15 L8,15 L8,9 Z"/>
  </g>
</svg>
