<svg width="512" height="512" xmlns="http://www.w3.org/2000/svg"><style>.r{fill:#fff}.l{fill:#000}@media (prefers-color-scheme:dark){.r{fill:#000}.l{fill:#fff}}</style><path d="M0 0h512v512H0z" class="r"/><g class="l"><path d="M263.257 359.925c9.847-9.805 22.942-15.205 36.867-15.205h139.39c32.356 0 58.683-26.023 58.683-58.008v-141.87H13.803v141.87c0 31.985 26.163 58.008 58.322 58.008h139.751c13.925 0 27.017 5.4 36.863 15.203l7.261 7.235 7.257-7.233Zm221.135-201.29v128.077c0 24.38-20.133 44.214-44.878 44.214h-139.39c-16.457 0-31.992 5.966-44.124 16.875-12.13-10.907-27.669-16.875-44.124-16.875H72.126c-24.549 0-44.52-19.834-44.52-44.214V158.635h456.786Z"/><path d="M120.825 277.266h13.803v-64.94h-13.803v25.713H94.91v-25.714H81.107v64.941H94.91v-26.935h25.915v26.935Zm67.414-20.084h-30.612c.565 7.699 4.882 11.45 10.424 11.45 4.975 0 8.358-3.285 9.107-7.79l11.175 6.289c-3.287 6.007-10.423 11.261-20.282 11.261-13.24 0-22.913-9.196-22.913-24.775 0-15.391 9.86-24.776 22.63-24.776 12.679 0 21.129 9.01 21.129 21.867 0 3.847-.658 6.474-.658 6.474Zm-20.47-18.768c-4.882 0-8.828 3.472-9.86 9.947h18.685c0-5.723-3.662-9.947-8.826-9.947Zm45.253-28.625h-13.334v54.43c0 4.882 1.048 8.435 3.147 10.653 2.097 2.223 5.43 3.331 10 3.331 1.564 0 3.16-.17 4.79-.515 1.625-.345 2.94-.828 3.941-1.455l1.129-8.916c-1.066.377-1.99.643-2.771.798-.783.158-1.705.235-2.77.235-1.753 0-2.487-.436-3.147-1.313-.656-.876-.985-2.44-.985-4.694V209.79Zm43.776 54.34c0-3.756-5.26-4.6-11.361-6.288-7.137-1.878-16.057-5.445-16.057-14.454 0-8.914 8.544-14.546 18.685-14.546 9.39 0 18.03 4.504 21.691 10.793l-11.363 6.382c-1.126-4.224-4.693-7.508-9.859-7.508-3.38 0-6.197 1.5-6.197 4.223 0 3.565 6.197 3.942 13.24 6.194 7.42 2.345 14.18 5.725 14.18 14.357 0 9.48-8.828 15.11-19.063 15.11-11.079 0-19.813-4.69-23.664-12.2l11.552-6.474c1.502 5.16 5.633 9.01 11.925 9.01 3.662 0 6.29-1.597 6.29-4.6Zm24.09 13.137h13.333v-47.297h-13.334v47.297Zm14.367-60.344c0 4.317-3.382 7.415-7.702 7.415-4.319 0-7.699-3.098-7.699-7.415s3.38-7.413 7.7-7.413c4.319 0 7.7 3.096 7.7 7.413Zm54.753 30.031c0-11.732-5.728-18.112-14.836-18.112-7.793 0-11.832 4.599-14.178 8.916h-.282l.657-7.788H308.13v47.297h13.24v-28.06c0-5.442 3.192-9.197 8.17-9.197 4.974 0 7.134 3.286 7.134 9.571v27.686h13.334v-30.313Zm41.646 1.783 17.374 28.53h-14.463l-11.641-18.956-6.29 7.977v10.979h-13.241v-67.945h13.24v31.345c0 5.819-.66 11.637-.66 11.637h.283s3.097-5.161 5.728-8.821l10.141-13.513h15.494l-15.965 18.767Zm25.761 28.53h13.334v-47.297h-13.334v47.297Zm14.367-60.344c0 4.317-3.381 7.415-7.7 7.415-4.319 0-7.7-3.098-7.7-7.415s3.381-7.413 7.7-7.413c4.319 0 7.7 3.096 7.7 7.413Z"/></g></svg>
