<svg xmlns="http://www.w3.org/2000/svg" xmlns:xlink="http://www.w3.org/1999/xlink"><symbol id="discord" viewBox="0 0 24 24"><g fill="none" fill-rule="evenodd"><path d="M0 0h24v24H0z"/><path d="M19.071 3a1.93 1.93 0 011.923 1.778l.006.15v14.143a1.93 1.93 0 01-1.778 1.923l-.15.006H4.928a1.93 1.93 0 01-1.923-1.778L3 19.072V4.928a1.93 1.93 0 011.778-1.923L4.928 3h14.143zm-5.429 5l-.144.165.223.07c1.595.53 2.338 1.236 2.338 1.236a8.385 8.385 0 00-5.173-.967l-.088.007-.087.014-.285.034a8.05 8.05 0 00-1.815.514l-.235.1-.326.155-.28.143.08-.07c.232-.191.93-.708 2.153-1.129l.235-.077.236-.071L10.371 8l-.146.005-.074.005c-.425.037-1.414.202-2.471.927l-.199.143-.122.24-.146.313c-.408.91-1.145 2.852-1.209 5.13L6 15.078l.059.088.033.047c.264.352 1.11 1.28 2.798 1.414l.247.014.69-.854-.2-.065c-.9-.319-1.369-.836-1.532-1.05l-.069-.098.131.083.157.092.017.015.117.067.256.134a8.634 8.634 0 002.006.658 7.205 7.205 0 002.665.01c.29-.05.584-.12.883-.217l.302-.104.527-.209a5.88 5.88 0 00.712-.362l.25-.157-.036.052-.03.041c-.165.215-.65.75-1.588 1.067l-.208.064.68.833.246-.014c2.09-.166 2.9-1.55 2.9-1.55 0-3.311-1.48-5.996-1.48-5.996-1.064-.797-2.09-1.007-2.584-1.061l-.16-.014L13.642 8zm-3.559 3.837c.587 0 1.06.514 1.05 1.141 0 .628-.463 1.142-1.05 1.142-.576 0-1.049-.514-1.049-1.142 0-.627.463-1.141 1.05-1.141zm3.755 0c.586 0 1.049.514 1.049 1.141 0 .628-.463 1.142-1.05 1.142-.575 0-1.048-.514-1.048-1.142 0-.627.462-1.141 1.049-1.141z" fill="currentColor"/></g></symbol><use xlink:href="#discord" width="24" height="24"/><view id="discord-view" viewBox="0 0 24 24"/><symbol id="facebook" viewBox="0 0 24 24"><g fill="none" fill-rule="evenodd"><path d="M0 0h24v24H0z"/><path d="M19 3a2 2 0 012 2v14a2 2 0 01-2 2h-3.356v-7.12h2.435l.35-2.716h-2.785V9.43c0-.788.217-1.322 1.346-1.322h1.439V5.68l-.35-.036-.341-.025c-.38-.026-.873-.048-1.407-.048-2.073 0-3.495 1.266-3.495 3.592v2.005h-2.443v2.716h2.447L12.839 21H5a2 2 0 01-2-2V5a2 2 0 012-2h14z" fill="currentColor"/></g></symbol><use xlink:href="#facebook" y="24" width="24" height="24"/><view id="facebook-view" viewBox="0 24 24 24"/><symbol id="google" viewBox="0 0 24 24"><g fill="none" fill-rule="evenodd"><path d="M0 0h24v24H0z"/><path d="M19.071 3a1.93 1.93 0 011.923 1.778l.006.15v14.143a1.93 1.93 0 01-1.778 1.923l-.15.006H4.928a1.93 1.93 0 01-1.923-1.778L3 19.072V4.928a1.93 1.93 0 011.778-1.923L4.928 3h14.143zm-7.103 2c-3.873 0-7 3.127-7 7s3.127 7 7 7c4.039 0 6.774-2.842 6.774-6.836a5.9 5.9 0 00-.074-.954l-.036-.215h-6.664v2.408h3.974c-.164 1.03-1.202 3.017-3.974 3.017-2.388 0-4.339-1.978-4.339-4.42 0-3.864 4.471-5.676 6.992-3.461l.135.125 1.906-1.832C15.44 5.692 13.853 5 11.968 5z" fill="currentColor"/></g></symbol><use xlink:href="#google" y="48" width="24" height="24"/><view id="google-view" viewBox="0 48 24 24"/><symbol id="instagram" viewBox="0 0 24 24"><g fill="none" fill-rule="evenodd"><path d="M0 0h24v24H0z"/><path d="M19.071 3a1.93 1.93 0 011.923 1.778l.006.15v14.143a1.93 1.93 0 01-1.778 1.923l-.15.006H4.928a1.93 1.93 0 01-1.923-1.778L3 19.072V4.928a1.93 1.93 0 011.778-1.923L4.928 3h14.143zM9.113 5.05C7.994 5.101 7 5.357 6.18 6.176c-.822.818-1.075 1.811-1.13 2.932l-.02.437c-.046 1.423-.04 4.304.02 5.338.052 1.122.308 2.115 1.13 2.933.821.818 1.811 1.074 2.933 1.13l.436.02c1.423.046 4.304.04 5.338-.02 1.122-.052 2.115-.309 2.933-1.13.818-.818 1.075-1.811 1.13-2.933l.02-.436c.046-1.422.04-4.301-.02-5.335-.052-1.122-.308-2.115-1.13-2.933-.818-.818-1.811-1.075-2.933-1.13l-.436-.02c-1.423-.046-4.304-.04-5.338.02zm2.889 1.211l1.018-.007c1.077-.005 2.434.022 3.107.288a2.362 2.362 0 011.33 1.33c.366.922.282 3.108.282 4.126l.008 1.319c-.002 1.018-.045 2.195-.29 2.807a2.362 2.362 0 01-1.33 1.33c-.921.366-3.107.282-4.125.282l-1.019.007c-1.077.005-2.434-.023-3.107-.288a2.362 2.362 0 01-1.33-1.33c-.366-.922-.282-3.108-.282-4.127l-.007-1.018c-.005-1.077.023-2.434.288-3.107a2.362 2.362 0 011.33-1.33c.922-.366 3.108-.282 4.127-.282zm0 2.149a3.583 3.583 0 00-3.59 3.588 3.583 3.583 0 003.59 3.59 3.583 3.583 0 003.588-3.59 3.583 3.583 0 00-3.588-3.588zm0 1.255a2.335 2.335 0 012.333 2.333 2.337 2.337 0 01-2.333 2.334 2.337 2.337 0 01-2.334-2.334 2.335 2.335 0 012.334-2.333zm3.735-2.239a.837.837 0 100 1.674.837.837 0 000-1.674z" fill="currentColor"/></g></symbol><use xlink:href="#instagram" y="72" width="24" height="24"/><view id="instagram-view" viewBox="0 72 24 24"/><symbol id="linkedin" viewBox="0 0 24 24"><g fill="none" fill-rule="evenodd"><path d="M0 0h24v24H0z"/><path d="M19.071 3H4.93A1.93 1.93 0 003 4.929V19.07A1.93 1.93 0 004.929 21H19.07A1.93 1.93 0 0021 19.071V4.93A1.93 1.93 0 0019.071 3zM5.772 18.429v-8.59h2.672v8.59H5.772zM5.56 7.119a1.548 1.548 0 113.095 0 1.548 1.548 0 01-3.095 0zm10.214 11.31V14.25c0-.996-.02-2.278-1.386-2.278-1.39 0-1.604 1.085-1.604 2.206v4.25h-2.667v-8.59h2.559v1.174h.036c.358-.675 1.23-1.387 2.527-1.387 2.7 0 3.203 1.78 3.203 4.095v4.709h-2.668z" fill="currentColor"/></g></symbol><use xlink:href="#linkedin" y="96" width="24" height="24"/><view id="linkedin-view" viewBox="0 96 24 24"/><symbol id="snapchat" viewBox="0 0 24 24"><g fill="none" fill-rule="evenodd"><path d="M0 0h24v24H0z"/><path d="M19.071 3H4.93A1.93 1.93 0 003 4.929V19.07A1.93 1.93 0 004.929 21H19.07A1.93 1.93 0 0021 19.071V4.93A1.93 1.93 0 0019.071 3zm-.26 12.652c-.141.326-.728.563-1.8.731-.057.077-.101.394-.174.64-.044.148-.148.236-.325.236h-.008c-.25 0-.514-.116-1.037-.116-.707 0-.952.16-1.502.55-.583.414-1.141.768-1.977.732-.844.064-1.55-.45-1.949-.732-.554-.39-.795-.55-1.502-.55-.503 0-.82.124-1.037.124-.217 0-.301-.132-.333-.24-.073-.246-.117-.567-.173-.644-.555-.084-1.8-.3-1.828-.86a.284.284 0 01.237-.297c1.86-.305 2.696-2.214 2.732-2.294 0-.004.004-.008.008-.012.1-.2.12-.37.064-.502-.136-.318-.72-.43-.964-.53-.635-.25-.723-.539-.683-.736.064-.341.578-.554.88-.414.237.113.45.17.63.17a.563.563 0 00.266-.057c-.057-.96-.19-2.33.152-3.098.904-2.02 2.817-2.182 3.38-2.182l.269-.004c1.394 0 2.732.716 3.387 2.182.341.768.209 2.134.152 3.098a.505.505 0 00.23.056c.172-.008.369-.064.59-.169a.734.734 0 01.546 0c.254.093.414.274.418.479.004.26-.229.486-.69.666-.057.025-.125.045-.198.069-.26.084-.659.209-.763.462-.056.132-.032.301.064.502.004.004.004.008.008.012.036.08.872 1.989 2.732 2.294.161.04.286.221.197.434z" fill="currentColor"/></g></symbol><use xlink:href="#snapchat" y="120" width="24" height="24"/><view id="snapchat-view" viewBox="0 120 24 24"/><symbol id="tiktok" viewBox="0 0 24 24"><g fill="none" fill-rule="evenodd"><path d="M0 0h24v24H0z"/><path d="M19.071 3H4.93A1.93 1.93 0 003 4.929V19.07A1.93 1.93 0 004.929 21H19.07A1.93 1.93 0 0021 19.071V4.93A1.93 1.93 0 0019.071 3zm-1.926 7.853a3.21 3.21 0 01-2.982-1.437v4.944a3.654 3.654 0 11-3.654-3.654c.076 0 .15.007.225.011v1.801c-.075-.009-.148-.023-.225-.023a1.865 1.865 0 000 3.73c1.03 0 1.94-.811 1.94-1.841l.018-8.398h1.723a3.21 3.21 0 002.957 2.865v2.002" fill="currentColor"/></g></symbol><use xlink:href="#tiktok" y="144" width="24" height="24"/><view id="tiktok-view" viewBox="0 144 24 24"/><symbol id="twitch" viewBox="0 0 24 24"><g fill="none" fill-rule="evenodd"><path d="M0 0h24v24H0z"/><path d="M19.071 3a1.93 1.93 0 011.923 1.778l.006.15v14.143a1.93 1.93 0 01-1.778 1.923l-.15.006H4.928a1.93 1.93 0 01-1.923-1.778L3 19.072V4.928a1.93 1.93 0 011.778-1.923L4.928 3h14.143zM19 5H8.708L6 7.708v9.75h3.25v2.709l2.708-2.709h2.167L19 12.583V5zm-1.083 1.083v5.959l-2.167 2.166h-2.167l-1.896 1.896v-1.896H9.25V6.083h8.667zM16.292 7.98h-1.084v3.25h1.084V7.98zm-2.98 0H12.23v3.25h1.084V7.98z" fill="currentColor"/></g></symbol><use xlink:href="#twitch" y="168" width="24" height="24"/><view id="twitch-view" viewBox="0 168 24 24"/><symbol id="twitter" viewBox="0 0 24 24"><g fill="none" fill-rule="evenodd"><path d="M0 0h24v24H0z"/><path d="M19.071 3a1.93 1.93 0 011.923 1.778l.006.15v14.143a1.93 1.93 0 01-1.778 1.923l-.15.006H4.928a1.93 1.93 0 01-1.923-1.778L3 19.072V4.928a1.93 1.93 0 011.778-1.923L4.928 3h14.143zm-4.38 3.437a2.868 2.868 0 00-2.869 2.869c0 .222.027.444.071.657a8.156 8.156 0 01-5.916-3.002c-.249.426-.39.915-.39 1.448a2.87 2.87 0 001.278 2.39 2.888 2.888 0 01-1.13-.279l-.167-.086v.036a2.87 2.87 0 002.301 2.816 3.04 3.04 0 01-.755.097c-.186 0-.364-.018-.542-.044a2.874 2.874 0 002.683 1.99 5.746 5.746 0 01-3.562 1.226c-.24 0-.462-.01-.693-.036a8.108 8.108 0 004.406 1.288c5.277 0 8.164-4.37 8.164-8.164 0-.124 0-.248-.01-.373A6.168 6.168 0 0019 7.787a5.752 5.752 0 01-1.652.444 2.862 2.862 0 001.261-1.581 5.65 5.65 0 01-1.821.693 2.862 2.862 0 00-2.096-.906z" fill="currentColor"/></g></symbol><use xlink:href="#twitter" y="192" width="24" height="24"/><view id="twitter-view" viewBox="0 192 24 24"/><symbol id="vimeo" viewBox="0 0 24 24"><g fill="none" fill-rule="evenodd"><path d="M0 0h24v24H0z"/><path d="M19.071 3H4.93A1.93 1.93 0 003 4.929V19.07A1.93 1.93 0 004.929 21H19.07A1.93 1.93 0 0021 19.071V4.93A1.93 1.93 0 0019.071 3zm-.65 6.01c-.057 1.25-.933 2.966-2.624 5.14-1.748 2.27-3.226 3.407-4.436 3.407-.751 0-1.382-.691-1.9-2.074-1.013-3.708-1.443-5.882-2.278-5.882-.097 0-.434.201-1.009.607l-.603-.78C7.054 8.128 8.468 6.68 9.352 6.6c1-.096 1.615.587 1.848 2.053.824 5.207 1.19 5.995 2.684 3.636.539-.851.828-1.494.864-1.94.137-1.318-1.028-1.23-1.816-.892.63-2.07 1.84-3.074 3.62-3.018 1.322.04 1.945.9 1.869 2.572z" fill="currentColor"/></g></symbol><use xlink:href="#vimeo" y="216" width="24" height="24"/><view id="vimeo-view" viewBox="0 216 24 24"/><symbol id="yle" viewBox="0 0 24 24"><g fill="none" fill-rule="evenodd"><path d="M0 0h24v24H0z"/><path d="M19.071 3H4.93A1.93 1.93 0 003 4.929V19.07A1.93 1.93 0 004.929 21H19.07A1.93 1.93 0 0021 19.071V4.93A1.93 1.93 0 0019.071 3zM5.781 9.207h-.347l-.089.005C5.122 9.241 5 9.383 5 9.62c0 .14.032.337.1.616l.038.147.986 3.516.04.136c.176.523.49.771 1.025.806l.138.005h.396l-.106.522a4.166 4.166 0 01-.081.326c-.181.562-.461.681-.943.681-.285 0-.5-.016-.668-.033l-.183-.02c-.114-.013-.206-.024-.29-.024-.198 0-.322.105-.35.29l-.006.085v.232l.006.091c.024.161.11.236.208.286l.06.027c.235.107.53.165 1.416.165.888 0 1.548-.476 1.763-1.276l.278-1.08 1.207-4.967c.036-.155.084-.393.084-.53 0-.22-.125-.372-.325-.407l-.09-.007h-.328l-.08.004c-.204.024-.315.147-.398.441l-.03.119-.928 4.034h-.207l-.08-.002c-.228-.014-.346-.096-.44-.396l-.035-.123-.962-3.644c-.057-.207-.13-.388-.346-.426l-.088-.007zm10.879-.155c-1.742 0-2.52.95-2.52 3.08 0 2.077.725 2.849 2.675 2.849.87 0 1.441-.12 1.664-.22.122-.053.242-.12.27-.315l.006-.092v-.212l-.006-.085c-.028-.186-.152-.29-.35-.29a.951.951 0 00-.167.017l-.337.062c-.193.03-.458.056-.849.056-1.404 0-1.629-.243-1.681-1.331l-.006-.14h2.763l.135-.005c.56-.038.743-.317.743-.721l-.004-.23c-.039-1.095-.394-2.423-2.336-2.423zM12.138 6.25h-.83c-.137 0-.479 0-.54.296l-.01.098v.368l.003.04c.012.142.098.335.466.369l.119.005h.204v6.909l.002.096c.013.277.092.438.37.468l.1.005h.271l.095-.006c.261-.032.34-.206.355-.463l.003-.1V7.05c-.01-.418-.087-.8-.608-.8zm4.543 3.725c.803 0 1.152.447 1.211 1.312l.008.168-2.52.002.011-.177c.077-.912.474-1.305 1.29-1.305z" fill="currentColor"/></g></symbol><use xlink:href="#yle" y="240" width="24" height="24"/><view id="yle-view" viewBox="0 240 24 24"/><symbol id="youtube" viewBox="0 0 24 24"><g fill="none" fill-rule="evenodd"><path d="M0 0h24v24H0z"/><path d="M19.071 3a1.93 1.93 0 011.923 1.778l.006.15v14.143a1.93 1.93 0 01-1.778 1.923l-.15.006H4.928a1.93 1.93 0 01-1.923-1.778L3 19.072V4.928a1.93 1.93 0 011.778-1.923L4.928 3h14.143zm-6.605 4.002L11.708 7c-.997.006-4.258.045-5.179.292a1.755 1.755 0 00-1.238 1.24c-.226.848-.278 2.41-.289 3.07v.615c.011.66.063 2.222.29 3.07a1.73 1.73 0 001.237 1.22c.834.224 3.586.277 4.839.29h1.263c1.253-.013 4.004-.066 4.839-.29a1.73 1.73 0 001.237-1.22c.164-.613.236-1.599.268-2.347L19 11.817c-.003-.438-.034-2.322-.292-3.284a1.755 1.755 0 00-1.237-1.24c-.873-.235-3.846-.282-5.004-.291zM10.6 9.799l3.5 2.1-3.5 2.1V9.8z" fill="currentColor"/></g></symbol><use xlink:href="#youtube" y="264" width="24" height="24"/><view id="youtube-view" viewBox="0 264 24 24"/><symbol id="alert-circle" viewBox="0 0 24 24"><g fill="none" fill-rule="evenodd"><path d="M0 0h24v24H0z"/><path d="M12 2c5.523 0 10 4.477 10 10s-4.477 10-10 10S2 17.523 2 12 6.477 2 12 2zm0 2a8 8 0 100 16 8 8 0 000-16zm1 12v2h-2v-2h2zm0-10v8h-2V6h2z" fill="currentColor"/></g></symbol><use xlink:href="#alert-circle" y="288" width="24" height="24"/><view id="alert-circle-view" viewBox="0 288 24 24"/><symbol id="angle-down" viewBox="0 0 24 24"><g fill="none" fill-rule="evenodd"><path d="M0 0h24v24H0z"/><path fill="currentColor" d="M12 13.5l5-5 1.5 1.5-6.5 6.5L5.5 10 7 8.5z"/></g></symbol><use xlink:href="#angle-down" y="312" width="24" height="24"/><view id="angle-down-view" viewBox="0 312 24 24"/><symbol id="angle-left" viewBox="0 0 24 24"><g fill="none" fill-rule="evenodd"><path d="M24 0v24H0V0z"/><path fill="currentColor" d="M10.5 12l5 5-1.5 1.5L7.5 12 14 5.5 15.5 7z"/></g></symbol><use xlink:href="#angle-left" y="336" width="24" height="24"/><view id="angle-left-view" viewBox="0 336 24 24"/><symbol id="angle-right" viewBox="0 0 24 24"><g fill="none" fill-rule="evenodd"><path d="M0 24V0h24v24z"/><path fill="currentColor" d="M13 12.5l-5-5L9.5 6l6.5 6.5L9.5 19 8 17.5z"/></g></symbol><use xlink:href="#angle-right" y="360" width="24" height="24"/><view id="angle-right-view" viewBox="0 360 24 24"/><symbol id="angle-up" viewBox="0 0 24 24"><g fill="none" fill-rule="evenodd"><path d="M0 24h24V0H0z"/><path fill="currentColor" d="M12 11.5l5 5 1.5-1.5L12 8.5 5.5 15 7 16.5z"/></g></symbol><use xlink:href="#angle-up" y="384" width="24" height="24"/><view id="angle-up-view" viewBox="0 384 24 24"/><symbol id="arrow-down" viewBox="0 0 24 24"><g fill="none" fill-rule="evenodd"><path d="M0 0h24v24H0z"/><path fill="currentColor" d="M13 4v12.5l4-4 1.5 1.5-6.5 6.5L5.5 14 7 12.5l4 4V4z"/></g></symbol><use xlink:href="#arrow-down" y="408" width="24" height="24"/><view id="arrow-down-view" viewBox="0 408 24 24"/><symbol id="arrow-left" viewBox="0 0 24 24"><g fill="none" fill-rule="evenodd"><path d="M0 0h24v24H0z"/><path fill="currentColor" d="M10 5.636l1.414 1.414L7.465 11H20v2H7.464l3.95 3.95L10 18.364 3.636 12z"/></g></symbol><use xlink:href="#arrow-left" y="432" width="24" height="24"/><view id="arrow-left-view" viewBox="0 432 24 24"/><symbol id="arrow-redo" viewBox="0 0 24 24"><g fill="none" fill-rule="evenodd"><path d="M0 0h24v24H0z"/><path d="M13.914 3.293L19.621 9l-5.707 5.707-1.414-1.414L15.793 10h-5.83l-.123.002C7.71 10.068 6 11.83 6 14s1.71 3.932 3.84 3.998l.124.002h3.781v2H9.964l-.152-.002C6.587 19.918 4 17.261 4 14s2.587-5.917 5.812-5.998L9.964 8h5.829L12.5 4.707l1.414-1.414z" fill="currentColor"/></g></symbol><use xlink:href="#arrow-redo" y="456" width="24" height="24"/><view id="arrow-redo-view" viewBox="0 456 24 24"/><symbol id="arrow-right" viewBox="0 0 24 24"><g fill="none" fill-rule="evenodd"><path d="M0 0h24v24H0z"/><path fill="currentColor" d="M12.586 7.05L14 5.636 20.364 12 14 18.364l-1.414-1.414 3.95-3.95H4v-2h12.535z"/></g></symbol><use xlink:href="#arrow-right" y="480" width="24" height="24"/><view id="arrow-right-view" viewBox="0 480 24 24"/><symbol id="arrow-undo" viewBox="0 0 24 24"><g fill="none" fill-rule="evenodd"><path d="M0 0h24v24H0z"/><path d="M9.707 3.293L4 9l5.707 5.707 1.414-1.414L7.83 10h5.829l.123.002c2.13.066 3.84 1.829 3.84 3.998 0 2.17-1.71 3.932-3.84 3.998l-.123.002H9.876v2h3.782l.151-.002c3.225-.08 5.812-2.737 5.812-5.998s-2.587-5.917-5.812-5.998L13.658 8h-5.83l3.293-3.293-1.414-1.414z" fill="currentColor"/></g></symbol><use xlink:href="#arrow-undo" y="504" width="24" height="24"/><view id="arrow-undo-view" viewBox="0 504 24 24"/><symbol id="arrow-up" viewBox="0 0 24 24"><g fill="none" fill-rule="evenodd"><path d="M0 0h24v24H0z"/><path fill="currentColor" d="M12 3.636L18.364 10l-1.414 1.414L13 7.464V20h-2V7.465l-3.95 3.95L5.636 10z"/></g></symbol><use xlink:href="#arrow-up" y="528" width="24" height="24"/><view id="arrow-up-view" viewBox="0 528 24 24"/><symbol id="bell-crossed" viewBox="0 0 24 24"><g fill="none" fill-rule="evenodd"><path d="M0 0h24v24H0z"/><path d="M18 9.534V11l.002.2c.017.827.147 1.164.55 1.655l.341.405c.732.906 1.067 1.805 1.104 3.427L20 17v2h-5a3 3 0 01-5.995.176L9 19h-.466l2-2H18l-.002-.244c-.015-.842-.11-1.334-.333-1.756h-5.131l2-2 1.78.001c-.17-.42-.267-.889-.3-1.48L18 9.535zm1.793-6.741l1.414 1.414-16.5 16.5-1.414-1.414 16.5-16.5zM13 19h-2a1 1 0 001.993.117L13 19zM12 2c1.776 0 3.371.771 4.47 1.997l-1.418 1.417A4 4 0 008.005 7.8L8 8v3c0 .677-.061 1.205-.196 1.665L4.01 16.453c.063-1.476.4-2.332 1.096-3.193l.235-.279c.486-.564.638-.885.656-1.78L6 8a6 6 0 016-6z" fill="currentColor"/></g></symbol><use xlink:href="#bell-crossed" y="552" width="24" height="24"/><view id="bell-crossed-view" viewBox="0 552 24 24"/><symbol id="bell" viewBox="0 0 24 24"><g fill="none" fill-rule="evenodd"><path d="M0 0h24v24H0z"/><path d="M18 17l-.002-.244c-.015-.842-.11-1.334-.333-1.756H6.335c-.223.422-.318.914-.333 1.756L6 17h12zm-5 2h-2a1 1 0 001.993.117L13 19zM12 4a4 4 0 00-3.995 3.8L8 8v3c0 .848-.096 1.464-.314 2.001h8.628c-.194-.478-.291-1.017-.31-1.727L16 11V8a4 4 0 00-4-4zm-6.893 9.26l.235-.279c.486-.564.638-.885.656-1.78L6 11V8a6 6 0 0111.996-.225L18 8l.002 3.2c.017.827.147 1.164.55 1.655l.341.405c.732.906 1.067 1.805 1.104 3.427L20 17v2h-5a3 3 0 01-5.995.176L9 19H4v-2c0-1.822.33-2.778 1.107-3.74z" fill="currentColor"/></g></symbol><use xlink:href="#bell" y="576" width="24" height="24"/><view id="bell-view" viewBox="0 576 24 24"/><symbol id="calendar-clock" viewBox="0 0 24 24"><g fill="none" fill-rule="evenodd"><path d="M0 0h24v24H0z"/><path d="M17 12a6 6 0 110 12 6 6 0 010-12zm0 2a4 4 0 100 8 4 4 0 000-8zm0-12a1 1 0 011 1v1h4l.002 9.103A7.018 7.018 0 0020 11.674V11H4v8l6.071.001a6.95 6.95 0 00.603 2L2 21V4h4V3a1 1 0 112 0v1h8V3a1 1 0 011-1zm.5 13v2.94l1.53 1.53-1.06 1.06L16 18.56V15h1.5zM20 6H4v3h16V6z" fill="currentColor"/></g></symbol><use xlink:href="#calendar-clock" y="600" width="24" height="24"/><view id="calendar-clock-view" viewBox="0 600 24 24"/><symbol id="calendar-cross" viewBox="0 0 24 24"><g fill="none" fill-rule="evenodd"><path d="M0 0h24v24H0z"/><path d="M17 2a1 1 0 011 1v1h4v9h-2v-2H4v8h9.5v2H2V4h4V3a1 1 0 112 0v1h8V3a1 1 0 011-1zm3 4H4v3h16V6zm2.536 10.414l-2.122 2.122 2.122 2.12-1.415 1.415L19 19.95l-2.121 2.121-1.415-1.414 2.122-2.121-2.122-2.122L16.88 15 19 17.121 21.121 15l1.415 1.414z" fill="currentColor"/></g></symbol><use xlink:href="#calendar-cross" y="624" width="24" height="24"/><view id="calendar-cross-view" viewBox="0 624 24 24"/><symbol id="calendar-plus" viewBox="0 0 24 24"><g fill="none" fill-rule="evenodd"><path d="M0 0h24v24H0z"/><path d="M20 14v3h3v2h-3v3h-2v-3h-3v-2h3v-3h2zM17 2a1 1 0 011 1v1h4v8h-2v-1H4v8h9v2H2V4h4V3a1 1 0 112 0v1h8V3a1 1 0 011-1zm3 4H4v3h16V6z" fill="currentColor"/></g></symbol><use xlink:href="#calendar-plus" y="648" width="24" height="24"/><view id="calendar-plus-view" viewBox="0 648 24 24"/><symbol id="calendar" viewBox="0 0 24 24"><g fill="none" fill-rule="evenodd"><path d="M0 0h24v24H0z"/><path d="M17 2a1 1 0 011 1v1h4v17H2V4h4V3a1 1 0 112 0v1h8V3a1 1 0 011-1zm3 9H4v8h16v-8zm0-5H4v3h16V6z" fill="currentColor"/></g></symbol><use xlink:href="#calendar" y="672" width="24" height="24"/><view id="calendar-view" viewBox="0 672 24 24"/><symbol id="camera" viewBox="0 0 24 24"><g fill="none" fill-rule="evenodd"><path d="M0 0h24v24H0z"/><path d="M14 3c1.093 0 1.707.327 2.538 1.127l.297.292c.442.43.661.558 1.045.578L18 5h1a4 4 0 013.995 3.8L23 9v7a4 4 0 01-3.8 3.995L19 20H5a4 4 0 01-3.995-3.8L1 16V9a4 4 0 013.8-3.995L5 5h1c.462 0 .68-.109 1.165-.581l.297-.292c.776-.747 1.362-1.081 2.326-1.123L10 3h4zm0 2h-4c-.462 0-.68.109-1.165.581l-.297.292c-.776.747-1.362 1.081-2.326 1.123L6 7H5a2 2 0 00-1.995 1.85L3 9v7a2 2 0 001.85 1.995L5 18h14a2 2 0 001.995-1.85L21 16V9a2 2 0 00-1.85-1.995L19 7h-1c-1.093 0-1.707-.327-2.538-1.127l-.297-.292c-.442-.43-.661-.558-1.045-.578L14 5zm-2 2a5 5 0 110 10 5 5 0 010-10zm0 2a3 3 0 100 6 3 3 0 000-6zm7-1a1 1 0 110 2 1 1 0 010-2z" fill="currentColor"/></g></symbol><use xlink:href="#camera" y="696" width="24" height="24"/><view id="camera-view" viewBox="0 696 24 24"/><symbol id="check" viewBox="0 0 24 24"><g fill="none" fill-rule="evenodd"><path d="M0 0h24v24H0z"/><path fill="currentColor" d="M20.763 7.414L10 18l-5.5-5.5 1.25-1.25 4.25 4L19.35 6z"/></g></symbol><use xlink:href="#check" y="720" width="24" height="24"/><view id="check-view" viewBox="0 720 24 24"/><symbol id="clock-cross" viewBox="0 0 24 24"><g fill="none" fill-rule="evenodd"><path d="M0 0h24v24H0z"/><path d="M12 2c5.523 0 10 4.477 10 10 0 .168-.004.335-.012.501h-2.003A8 8 0 1013 19.938v2.012c-.33.032-.663.049-1.001.049-5.523 0-10-4.477-10-10S6.477 2 12 2zm8.621 12.464l1.415 1.415L19.914 18l2.122 2.121-1.415 1.415-2.121-2.122-2.121 2.122-1.415-1.415L17.086 18l-2.122-2.121 1.415-1.415 2.121 2.122 2.121-2.122zM13 6v6.414l-.295.292.002.001-3.535 3.536-1.415-1.415L11 11.584V6h2z" fill="currentColor"/></g></symbol><use xlink:href="#clock-cross" y="744" width="24" height="24"/><view id="clock-cross-view" viewBox="0 744 24 24"/><symbol id="clock-plus" viewBox="0 0 24 24"><g fill="none" fill-rule="evenodd"><path d="M0 0h24v24H0z"/><path d="M12 2c5.523 0 10 4.477 10 10 0 .338-.017.672-.05 1.001h-2.012a8 8 0 10-6.937 6.937v2.013c-.33.032-.663.049-1.001.049-5.523 0-10-4.477-10-10S6.477 2 12 2zm7 12v3h3v2h-3v3h-2v-3h-3v-2h3v-3h2zm-6-8v6.414l-.295.292.002.001-3.535 3.536-1.415-1.415L11 11.584V6h2z" fill="currentColor"/></g></symbol><use xlink:href="#clock-plus" y="768" width="24" height="24"/><view id="clock-plus-view" viewBox="0 768 24 24"/><symbol id="clock" viewBox="0 0 24 24"><g fill="none" fill-rule="evenodd"><path d="M0 0h24v24H0z"/><path d="M12 2c5.523 0 10 4.477 10 10s-4.477 10-10 10S2 17.523 2 12 6.477 2 12 2zm0 2a8 8 0 100 16 8 8 0 000-16zm1 2v5.584l3.243 3.244-1.415 1.415-3.535-3.536.002-.001-.294-.292L11 6h2z" fill="currentColor"/></g></symbol><use xlink:href="#clock" y="792" width="24" height="24"/><view id="clock-view" viewBox="0 792 24 24"/><symbol id="cogwheel" viewBox="0 0 24 24"><g fill="none" fill-rule="evenodd"><path d="M0 0h24v24H0z"/><path d="M11.727 2c.964 0 1.783.502 2.146 1.335l.06.15.372 1.003c.041.167.163.29.329.331a.829.829 0 00.505-.013l.1-.042.826-.295c.831-.419 1.762-.381 2.408.14.864.62 1.184 1.676.856 2.678l-.057.157-.428.923a.567.567 0 000 .54c.07.14.162.232.32.324l.103.057 1.093.366c.826.277 1.47.965 1.602 1.756.19 1.02-.337 2-1.28 2.446l-.137.06-1.233.434a.446.446 0 00-.33.332.844.844 0 00.007.495l.038.09.425.855c.39.785.381 1.657-.048 2.3l-.091.124c-.637.899-1.706 1.243-2.66.872l-.142-.061-.993-.376a.557.557 0 00-.536 0c-.17.086-.288.197-.347.333l-.03.085-.308 1.056c-.312.815-1.001 1.397-1.865 1.52l-.164.019-.177.006a2.329 2.329 0 01-2.084-1.341l-.061-.145-.372-1.002a.446.446 0 00-.33-.331.826.826 0 00-.498.01l-.933.401c-.83.419-1.762.381-2.408-.14-.864-.62-1.183-1.676-.858-2.674l.057-.157.43-.988a.567.567 0 000-.54.735.735 0 00-.32-.324l-.102-.057-.911-.305a2.528 2.528 0 01-1.663-1.819c-.187-1.07.331-2.056 1.274-2.504l.138-.06.995-.374a.446.446 0 00.33-.332.844.844 0 00-.013-.509l-.042-.1-.29-.824c-.419-.774-.382-1.716.135-2.431.638-.899 1.707-1.243 2.67-.868l1.125.494a.557.557 0 00.537 0c.17-.086.287-.197.347-.333l.029-.085.307-1.05a2.372 2.372 0 011.959-1.594L11.727 2zm.002 1.75c-.23 0-.444.13-.546.361l-.032.092-.304 1.038a2.382 2.382 0 01-1.28 1.41 2.878 2.878 0 01-1.643.05l-.206-.061-.936-.474c-.304-.102-.583-.01-.68.099l-.025.036-.063.076c-.162.123-.228.349-.153.605l.035.098.486.98c.28.635.315 1.296.06 1.873-.238.54-.64.973-1.16 1.248l-.16.078-.924.371c-.273.079-.448.363-.448.643 0 .198.104.42.35.542l.1.04 1.03.306a2.37 2.37 0 011.393 1.27c.241.547.263 1.15.063 1.715l-.067.167-.477.96a.656.656 0 00.136.734c.175.177.374.253.63.13l.087-.049.98-.493a2.693 2.693 0 011.043-.197c.225 0 .396.032.79.132.526.177.97.61 1.262 1.183l.076.16.364.978c.06.184.162.29.3.347a.83.83 0 00.34.052c.23 0 .444-.13.546-.361l.033-.092.303-1.038a2.376 2.376 0 011.26-1.403 2.253 2.253 0 011.695-.067l.165.066.973.43c.196.099.367.072.563-.046l.155-.103.043-.062c.134-.21.17-.408.083-.622l-.532-1.072c-.255-.578-.306-1.177-.128-1.7l.06-.154c.176-.53.606-.978 1.175-1.272l.159-.076 1.134-.42c.298-.129.413-.32.413-.592a.525.525 0 00-.307-.494l-1.234-.394a2.37 2.37 0 01-1.392-1.27 2.301 2.301 0 01-.066-1.707l.065-.165.421-.97a.656.656 0 00-.135-.734c-.176-.176-.374-.252-.63-.13l-.088.05-.972.489c-.573.256-1.168.308-1.688.129l-.153-.061c-.525-.176-.97-.61-1.26-1.18l-.075-.158-.355-.894a.748.748 0 00-.652-.427zM12 8c2.2 0 4 1.8 4 4s-1.8 4-4 4-4-1.8-4-4 1.8-4 4-4zm0 1.75A2.257 2.257 0 009.75 12 2.257 2.257 0 0012 14.25 2.257 2.257 0 0014.25 12 2.257 2.257 0 0012 9.75z" fill="currentColor"/></g></symbol><use xlink:href="#cogwheel" y="816" width="24" height="24"/><view id="cogwheel-view" viewBox="0 816 24 24"/><symbol id="cross-circle" viewBox="0 0 24 24"><g fill="none" fill-rule="evenodd"><path d="M0 0h24v24H0z"/><path d="M12 2c5.523 0 10 4.477 10 10s-4.477 10-10 10S2 17.523 2 12 6.477 2 12 2zm0 2a8 8 0 100 16 8 8 0 000-16zm2.828 3.757l1.415 1.415L13.413 12l2.83 2.828-1.415 1.415L12 13.413l-2.828 2.83-1.415-1.415L10.586 12 7.757 9.172l1.415-1.415L12 10.586l2.828-2.829z" fill="currentColor"/></g></symbol><use xlink:href="#cross-circle" y="840" width="24" height="24"/><view id="cross-circle-view" viewBox="0 840 24 24"/><symbol id="cross" viewBox="0 0 24 24"><g fill="none" fill-rule="evenodd"><path d="M0 0h24v24H0z"/><path fill="currentColor" d="M17.657 7.757L13.414 12l4.243 4.243-1.414 1.414L12 13.414l-4.243 4.243-1.414-1.414L10.586 12 6.343 7.757l1.414-1.414L12 10.586l4.243-4.243z"/></g></symbol><use xlink:href="#cross" y="864" width="24" height="24"/><view id="cross-view" viewBox="0 864 24 24"/><symbol id="display" viewBox="0 0 24 24"><g fill="none" fill-rule="evenodd"><path d="M0 0h24v24H0z"/><path d="M6 18a4 4 0 01-3.995-3.8L2 14V7a4 4 0 013.8-3.995L6 3h12a4 4 0 013.995 3.8L22 7v7a4 4 0 01-3.8 3.995L18 18h-5a2 2 0 002 2h3.5v2h-13v-2H9a2 2 0 002-2H6zM18 5H6a2 2 0 00-1.995 1.85L4 7v7a2 2 0 001.85 1.995L6 16h12a2 2 0 001.995-1.85L20 14V7a2 2 0 00-1.85-1.995L18 5z" fill="currentColor"/></g></symbol><use xlink:href="#display" y="888" width="24" height="24"/><view id="display-view" viewBox="0 888 24 24"/><symbol id="download-cloud" viewBox="0 0 24 24"><g fill="none" fill-rule="evenodd"><path d="M0 0h24v24H0z"/><path d="M13 9v10.876l2.182-2.18 1.06 1.061L12 23l-4.243-4.243 1.061-1.06L11 19.878V9h2zm-1.5-8c2.557 0 4.867 1.552 5.736 3.93l.047.136.132.021c2.63.448 4.517 2.532 4.583 5.263l.002.15c0 3.141-2.2 5.427-5.3 5.498L15.5 16v-2h1.05c2.066 0 3.45-1.406 3.45-3.5 0-1.962-1.398-3.381-3.4-3.495L16.471 7l-.795-.023-.157-.78C15.14 4.296 13.434 3 11.5 3 9.263 3 7.622 4.559 7.507 6.75l-.005.13-.014 1.112-1.157.01C4.84 8.043 3.6 9.452 3.6 11.1a2.9 2.9 0 002.789 2.898L6.5 14h2v2h-2a4.9 4.9 0 01-4.9-4.9c0-2.41 1.652-4.535 3.895-5.004l.07-.014.022-.145c.468-2.84 2.777-4.867 5.758-4.935L11.5 1z" fill="currentColor"/></g></symbol><use xlink:href="#download-cloud" y="912" width="24" height="24"/><view id="download-cloud-view" viewBox="0 912 24 24"/><symbol id="download" viewBox="0 0 24 24"><g fill="none" fill-rule="evenodd"><path d="M0 0h24v24H0z"/><path d="M5 15v5h14v-5h2v7H3v-7h2zm8-13v12.24L16.243 11l1.414 1.414L12 18.071l-5.657-5.657L7.757 11 11 14.242V2h2z" fill="currentColor"/></g></symbol><use xlink:href="#download" y="936" width="24" height="24"/><view id="download-view" viewBox="0 936 24 24"/><symbol id="envelope" viewBox="0 0 24 24"><g fill="none" fill-rule="evenodd"><path d="M0 0h24v24H0z"/><path d="M22 4v16H2V4h20zm-7.862 9.436L12 15.338l-2.14-1.902L4.536 18h14.927l-5.325-4.564zM20 8.226l-4.353 3.869L20 15.826v-7.6zM4 8.227v7.598l4.352-3.73L4 8.227zM19.493 6H4.505L12 12.661 19.493 6z" fill="currentColor"/></g></symbol><use xlink:href="#envelope" y="960" width="24" height="24"/><view id="envelope-view" viewBox="0 960 24 24"/><symbol id="error" viewBox="0 0 24 24"><g fill="none" fill-rule="evenodd"><path d="M0 0h24v24H0z"/><path d="M11.128 2.51a1 1 0 011.7-.07l.044.07 9.562 17a1 1 0 01-.796 1.487l-.076.003H2.438a1 1 0 01-.906-1.423l.035-.067 9.562-17zM12 5.04L4.147 19h15.705L12 5.04zM13 16v2h-2v-2h2zm0-6.5v5h-2v-5h2z" fill="currentColor"/></g></symbol><use xlink:href="#error" y="984" width="24" height="24"/><view id="error-view" viewBox="0 984 24 24"/><symbol id="eye-crossed" viewBox="0 0 24 24"><g fill="none" fill-rule="evenodd"><path d="M0 0h24v24H0z"/><path d="M19.793 2.793l1.414 1.414-16.5 16.5-1.414-1.414 16.5-16.5zm-.147 5.095C20.806 8.99 21.923 10.36 23 12c-3.283 5-6.95 7.5-11 7.5a9.59 9.59 0 01-3.359-.605l1.602-1.602a7.53 7.53 0 001.59.205L12 17.5c2.951 0 5.75-1.704 8.425-5.302L20.57 12l-.145-.198A19.084 19.084 0 0018.233 9.3l1.413-1.412zM12 4.5c1.15 0 2.27.202 3.359.605l-1.601 1.602a7.53 7.53 0 00-1.591-.205L12 6.5c-2.951 0-5.75 1.704-8.425 5.302L3.43 12l.145.198c.722.97 1.452 1.803 2.192 2.502l-1.413 1.412C3.194 15.01 2.077 13.64 1 12c3.283-5 6.95-7.5 11-7.5zm3.976 7.06a4 4 0 01-4.417 4.417l4.417-4.418zM12 8c.149 0 .296.008.44.024l-4.416 4.417A4 4 0 0112 8z" fill="currentColor"/></g></symbol><use xlink:href="#eye-crossed" y="1008" width="24" height="24"/><view id="eye-crossed-view" viewBox="0 1008 24 24"/><symbol id="eye" viewBox="0 0 24 24"><g fill="none" fill-rule="evenodd"><path d="M0 0h24v24H0z"/><path d="M12 4.5c4.05 0 7.717 2.5 11 7.5-3.283 5-6.95 7.5-11 7.5S4.283 17 1 12c3.283-5 6.95-7.5 11-7.5zm0 2c-2.951 0-5.75 1.704-8.425 5.302L3.43 12l.145.198c2.624 3.53 5.368 5.237 8.258 5.3L12 17.5c2.951 0 5.75-1.704 8.425-5.302L20.57 12l-.145-.198c-2.624-3.53-5.368-5.237-8.258-5.3L12 6.5zM12 8a4 4 0 110 8 4 4 0 010-8zm0 2a2 2 0 100 4 2 2 0 000-4z" fill="currentColor"/></g></symbol><use xlink:href="#eye" y="1032" width="24" height="24"/><view id="eye-view" viewBox="0 1032 24 24"/><symbol id="face-neutral" viewBox="0 0 24 24"><g fill="none" fill-rule="evenodd"><path d="M0 0h24v24H0z"/><path d="M12 2c5.523 0 10 4.477 10 10s-4.477 10-10 10S2 17.523 2 12 6.477 2 12 2zm0 2a8 8 0 100 16 8 8 0 000-16zm4 10v2H8v-2h8zM8.5 8a1.5 1.5 0 110 3 1.5 1.5 0 010-3zm7 0a1.5 1.5 0 110 3 1.5 1.5 0 010-3z" fill="currentColor"/></g></symbol><use xlink:href="#face-neutral" y="1056" width="24" height="24"/><view id="face-neutral-view" viewBox="0 1056 24 24"/><symbol id="face-sad" viewBox="0 0 24 24"><g fill="none" fill-rule="evenodd"><path d="M0 0h24v24H0z"/><path d="M12 2c5.523 0 10 4.477 10 10s-4.477 10-10 10S2 17.523 2 12 6.477 2 12 2zm0 2a8 8 0 100 16 8 8 0 000-16zm.005 9a5.46 5.46 0 014.78 2.822l.11.21-1.79.893-.062-.12A3.461 3.461 0 0012.005 15a3.461 3.461 0 00-3.011 1.759l-.097.183-1.794-.884.07-.138A5.462 5.462 0 0112.005 13zM8.5 8a1.5 1.5 0 110 3 1.5 1.5 0 010-3zm7 0a1.5 1.5 0 110 3 1.5 1.5 0 010-3z" fill="currentColor"/></g></symbol><use xlink:href="#face-sad" y="1080" width="24" height="24"/><view id="face-sad-view" viewBox="0 1080 24 24"/><symbol id="face-smile" viewBox="0 0 24 24"><g fill="none" fill-rule="evenodd"><path d="M0 0h24v24H0z"/><path d="M12 2c5.523 0 10 4.477 10 10s-4.477 10-10 10S2 17.523 2 12 6.477 2 12 2zm0 2a8 8 0 100 16 8 8 0 000-16zm-3.103 9.558a3.463 3.463 0 003.108 1.942c1.28 0 2.434-.703 3.038-1.805l.062-.12 1.79.893a5.463 5.463 0 01-4.89 3.032 5.462 5.462 0 01-4.832-2.92l-.07-.138 1.794-.884zM8.5 8a1.5 1.5 0 110 3 1.5 1.5 0 010-3zm7 0a1.5 1.5 0 110 3 1.5 1.5 0 010-3z" fill="currentColor"/></g></symbol><use xlink:href="#face-smile" y="1104" width="24" height="24"/><view id="face-smile-view" viewBox="0 1104 24 24"/><symbol id="globe" viewBox="0 0 24 24"><g fill="none" fill-rule="evenodd"><path d="M0 0h24v24H0z"/><path d="M12 2c5.523 0 10 4.477 10 10s-4.477 10-10 10S2 17.523 2 12 6.477 2 12 2zM7.345 17.04c-.666.07-1.33.157-1.991.258a8.509 8.509 0 003.898 2.748 12.433 12.433 0 01-1.907-3.005zm9.311.009a12.437 12.437 0 01-1.9 2.995 8.519 8.519 0 003.883-2.735l-.697-.103a43.226 43.226 0 00-1.286-.157zm-3.906-.245v3.18a11.16 11.16 0 002.317-3.076c-.77-.056-1.543-.09-2.317-.104zm-1.5-.001c-.737.012-1.474.042-2.209.091l-.105.008a11.137 11.137 0 002.314 3.077v-3.176zm9.217-4.053h-2.759c-.058.98-.23 1.935-.51 2.853.783.091 1.562.203 2.336.335a8.437 8.437 0 00.933-3.188zM4.46 15.926l.05-.008a44.627 44.627 0 012.296-.324 12.278 12.278 0 01-.508-2.844H3.533c.1 1.138.423 2.212.926 3.176zm8.291-3.176v2.556c.977.017 1.954.065 2.927.146.29-.866.47-1.771.534-2.702H12.75zm-1.5 0H7.795c.063.928.243 1.832.532 2.696.972-.08 1.947-.126 2.923-.142V12.75zm8.284-4.689l-.316.054c-.67.11-1.344.204-2.02.283.28.917.452 1.872.51 2.852h2.76a8.446 8.446 0 00-.934-3.189zM4.46 8.074l-.017.033a8.446 8.446 0 00-.91 3.143h2.765c.059-.977.23-1.93.508-2.845-.786-.089-1.568-.2-2.346-.33zm11.218.474l-.47.037a46.8 46.8 0 01-2.457.11v2.554h3.461a10.803 10.803 0 00-.534-2.7zm-7.35.007l-.039.116a10.808 10.808 0 00-.493 2.579h3.455V8.695a45.328 45.328 0 01-2.923-.141zm2.923-4.533a11.137 11.137 0 00-2.315 3.077c.77.053 1.543.086 2.315.099V4.022zm1.5-.005v3.18a43.965 43.965 0 002.317-.103 11.127 11.127 0 00-2.316-3.077zm-3.497-.064l-.027.01a8.517 8.517 0 00-3.873 2.74 42.72 42.72 0 001.993.257 12.43 12.43 0 011.907-3.007zm5.504.004l.142.169a12.424 12.424 0 011.758 2.825c.663-.07 1.324-.157 1.982-.259a8.51 8.51 0 00-3.882-2.735z" fill="currentColor"/></g></symbol><use xlink:href="#globe" y="1128" width="24" height="24"/><view id="globe-view" viewBox="0 1128 24 24"/><symbol id="group" viewBox="0 0 24 24"><g fill="none" fill-rule="evenodd"><path d="M0 0h24v24H0z"/><path d="M14.5 16a3.5 3.5 0 013.498 3.38l.002.12V22h-2v-2.5a1.5 1.5 0 00-1.412-1.497L14.5 18h-5a1.5 1.5 0 00-1.497 1.412L8 19.5V22H6v-2.5a3.5 3.5 0 013.38-3.498L9.5 16h5zm2.4-6.001l3.6.001.12.002a3.5 3.5 0 013.375 3.31L24 13.5V16h-2v-2.5l-.003-.088a1.5 1.5 0 00-1.358-1.406L20.5 12l-3.6.001a5.023 5.023 0 000-2.002zm-9.8 0A5.023 5.023 0 007.1 12H3.5a1.5 1.5 0 00-1.497 1.412L2 13.5V16H0v-2.5a3.5 3.5 0 013.38-3.498L3.5 10l3.6-.001zM12 7a4 4 0 110 8 4 4 0 010-8zm0 2a2 2 0 100 4 2 2 0 000-4zM5.5 2a3.5 3.5 0 110 7 3.5 3.5 0 010-7zm13 0a3.5 3.5 0 110 7 3.5 3.5 0 010-7zm-13 2a1.5 1.5 0 100 3 1.5 1.5 0 000-3zm13 0a1.5 1.5 0 100 3 1.5 1.5 0 000-3z" fill="currentColor"/></g></symbol><use xlink:href="#group" y="1152" width="24" height="24"/><view id="group-view" viewBox="0 1152 24 24"/><symbol id="heart-fill" viewBox="0 0 24 24"><g fill="none" fill-rule="evenodd"><path d="M0 0h24v24H0z"/><path d="M16.842 2c-2.91 0-4.376 1.806-4.84 2.518C11.536 3.806 10.071 2 7.16 2h-.004A6.057 6.057 0 002.8 3.842 6.317 6.317 0 001 8.29a6.32 6.32 0 001.801 4.448c1.266 1.292 2.426 2.336 3.548 3.345 1.581 1.423 3.075 2.767 4.64 4.612.18.211.858 1.103.865 1.112L12 22l.146-.193c.007-.01.684-.9.864-1.112 1.566-1.845 3.06-3.189 4.641-4.612 1.122-1.01 2.282-2.053 3.547-3.345A6.314 6.314 0 0023 8.29c0-1.682-.64-3.261-1.802-4.448A6.054 6.054 0 0016.842 2z" fill="currentColor"/></g></symbol><use xlink:href="#heart-fill" y="1176" width="24" height="24"/><view id="heart-fill-view" viewBox="0 1176 24 24"/><symbol id="heart" viewBox="0 0 24 24"><g fill="none" fill-rule="evenodd"><path d="M0 0h24v24H0z"/><path d="M19.732 11.542c-1.185 1.206-2.282 2.191-3.344 3.144C14.9 16.02 13.492 17.284 12 19c-1.492-1.715-2.9-2.979-4.389-4.315-1.061-.952-2.159-1.937-3.343-3.143A4.43 4.43 0 013 8.418a4.43 4.43 0 011.268-3.124A4.273 4.273 0 017.34 4c3.073 0 4.099 2.71 4.662 3.725C12.566 6.71 13.591 4 16.664 4c1.159 0 2.248.46 3.068 1.294A4.43 4.43 0 0121 8.418a4.43 4.43 0 01-1.268 3.124M16.842 2c-2.91 0-4.376 1.806-4.84 2.518C11.536 3.806 10.071 2 7.16 2h-.004A6.057 6.057 0 002.8 3.842 6.317 6.317 0 001 8.29a6.32 6.32 0 001.801 4.448c1.266 1.292 2.426 2.336 3.548 3.345 1.581 1.423 3.075 2.767 4.64 4.612.18.211.858 1.103.865 1.112L12 22l.146-.193c.007-.01.684-.9.864-1.112 1.566-1.845 3.06-3.189 4.641-4.612 1.122-1.01 2.282-2.053 3.547-3.345A6.314 6.314 0 0023 8.29c0-1.682-.64-3.261-1.802-4.448A6.054 6.054 0 0016.842 2z" fill="currentColor"/></g></symbol><use xlink:href="#heart" y="1200" width="24" height="24"/><view id="heart-view" viewBox="0 1200 24 24"/><symbol id="home-smoke" viewBox="0 0 24 24"><g fill="none" fill-rule="evenodd"><path d="M0 0h24v24H0z"/><path d="M12 4l11 11-1.5 1.5L20 15v8H4v-8l-1.5 1.5L1 15 12 4zm0 3l-6 6v8l2.999-.001L9 14h6l-.001 6.999L18 21v-8l-6-6zm1 9h-2l-.001 4.999h2L13 16zm7-15c0 .901-.237 1.406-.833 2.123l-.098.115c-.456.533-.569.752-.569 1.262 0 .478.099.7.488 1.166l.081.096c.635.74.904 1.238.929 2.099L20 8h-1.5c0-.478-.099-.7-.488-1.166l-.081-.096C17.262 5.958 17 5.448 17 4.5c0-.901.237-1.406.833-2.123l.098-.115c.428-.5.554-.723.568-1.17L18.5 1H20z" fill="currentColor"/></g></symbol><use xlink:href="#home-smoke" y="1224" width="24" height="24"/><view id="home-smoke-view" viewBox="0 1224 24 24"/><symbol id="home" viewBox="0 0 24 24"><g fill="none" fill-rule="evenodd"><path d="M0 0h24v24H0z"/><path d="M1 13L12 2l11 11-1.5 1.5L20 13v8H4v-8l-1.5 1.5L1 13zm11-8l-6 6v8l2.999-.001L9 12h6l-.001 6.999L18 19v-8l-6-6zm1 9h-2l-.001 4.999h2L13 14z" fill="currentColor"/></g></symbol><use xlink:href="#home" y="1248" width="24" height="24"/><view id="home-view" viewBox="0 1248 24 24"/><symbol id="info-circle" viewBox="0 0 24 24"><g fill="none" fill-rule="evenodd"><path d="M0 0h24v24H0z"/><path d="M12 2c5.523 0 10 4.477 10 10s-4.477 10-10 10S2 17.523 2 12 6.477 2 12 2zm0 2a8 8 0 100 16 8 8 0 000-16zm1 6v6.5h2V18H9v-1.5h2v-5H9V10h4zm-1.187-4a1.312 1.312 0 110 2.625 1.312 1.312 0 010-2.625z" fill="currentColor"/></g></symbol><use xlink:href="#info-circle" y="1272" width="24" height="24"/><view id="info-circle-view" viewBox="0 1272 24 24"/><symbol id="link-external" viewBox="0 0 24 24"><g fill="none" fill-rule="evenodd"><path d="M0 0h24v24H0z"/><path d="M10 3v2H5v14h14v-5h2v7H3V3h7zm11 0v8h-2V6.413l-7 7.001L10.586 12l6.999-7H13V3h8z" fill="currentColor"/></g></symbol><use xlink:href="#link-external" y="1296" width="24" height="24"/><view id="link-external-view" viewBox="0 1296 24 24"/><symbol id="link" viewBox="0 0 24 24"><g fill="none" fill-rule="evenodd"><path d="M0 0h24v24H0z"/><path d="M11.489 6.42l2.074-2.055A4.575 4.575 0 0116.698 3a4.142 4.142 0 013.072 1.21 4.157 4.157 0 011.229 3.071 4.565 4.565 0 01-1.255 3.023l-.109.112-3.432 3.432a4.575 4.575 0 01-3.135 1.364 4.142 4.142 0 01-3.071-1.21l.2-.195c.353-.348.997-.993 1.235-1.24.84.86 2.36.848 3.3-.002l.087-.082 3.394-3.45c.95-.95.988-2.483.084-3.387-.84-.86-2.36-.848-3.3.002l-.087.082-2.055 2.055-1.366-1.365zm-7.201 7.202L7.6 10.327c1.685-1.704 4.422-1.72 6.106-.035l-.567.576c-.343.343-.71.708-.818.81-.88-.88-2.324-.899-3.247-.062l-.085.08-3.314 3.314c-.917.917-.926 2.425-.019 3.332.88.88 2.324.898 3.248.062l.085-.08 1.984-2.004 1.37 1.389-1.985 1.984a4.38 4.38 0 01-3.06 1.283 4.282 4.282 0 01-3.046-1.248C2.6 18.094 2.583 15.43 4.19 13.721l.097-.1z" fill="currentColor"/></g></symbol><use xlink:href="#link" y="1320" width="24" height="24"/><view id="link-view" viewBox="0 1320 24 24"/><symbol id="locate" viewBox="0 0 24 24"><g fill="none" fill-rule="evenodd"><path d="M0 0h24v24H0z"/><path d="M13 2l.001 2.062A8.004 8.004 0 0119.938 11H22v2l-2.062.001a8.004 8.004 0 01-6.937 6.937L13 22h-2v-2.062a8.004 8.004 0 01-6.938-6.937L2 13v-2h2.062A8.004 8.004 0 0111 4.062V2h2zm-1 4a6 6 0 100 12 6 6 0 000-12zm0 2.5a3.5 3.5 0 110 7 3.5 3.5 0 010-7zm0 2a1.5 1.5 0 100 3 1.5 1.5 0 000-3z" fill="currentColor"/></g></symbol><use xlink:href="#locate" y="1344" width="24" height="24"/><view id="locate-view" viewBox="0 1344 24 24"/><symbol id="location" viewBox="0 0 24 24"><g fill="none" fill-rule="evenodd"><path d="M0 0h24v24H0z"/><path d="M11.967 1.5c2.06 0 4.12.778 5.69 2.334 3.143 3.111 2.93 7.96 0 11.268l-.622.709c-2.612 2.991-4.066 4.96-5.068 6.937-1.073-2.13-2.682-4.249-5.689-7.646-2.93-3.308-3.143-8.157 0-11.268A8.06 8.06 0 0111.967 1.5zm.032 2a6.072 6.072 0 00-4.3 1.762A5.606 5.606 0 006.002 9.41c.02 1.573.648 3.134 1.766 4.398l.66.752c1.59 1.823 2.717 3.239 3.573 4.503.975-1.437 2.292-3.063 4.233-5.255C17.352 12.544 17.98 10.983 18 9.41a5.616 5.616 0 00-1.698-4.15 6.077 6.077 0 00-4.303-1.76zM12 6a3.5 3.5 0 110 6.999A3.5 3.5 0 0112 6zm0 2c-.827 0-1.5.673-1.5 1.5S11.173 11 12 11s1.5-.673 1.5-1.5S12.827 8 12 8z" fill="currentColor"/></g></symbol><use xlink:href="#location" y="1368" width="24" height="24"/><view id="location-view" viewBox="0 1368 24 24"/><symbol id="lock-open" viewBox="0 0 24 24"><g fill="none" fill-rule="evenodd"><path d="M0 0h24v24H0z"/><path d="M17 2a5 5 0 014.998 4.86L22 7v2h-2V7a3 3 0 00-5.998-.112L14 7v2h2v13H2V9h10V7a5 5 0 015-5zm-3 9H4v9h10v-9zm-4 2v5H8v-5h2z" fill="currentColor"/></g></symbol><use xlink:href="#lock-open" y="1392" width="24" height="24"/><view id="lock-open-view" viewBox="0 1392 24 24"/><symbol id="lock" viewBox="0 0 24 24"><g fill="none" fill-rule="evenodd"><path d="M0 0h24v24H0z"/><path d="M12 2a5 5 0 014.998 4.86L17 7v2h2v13H5V9h2V7a5 5 0 015-5zm5 9H7v9h10v-9zm-4 2v5h-2v-5h2zm-1-9a3 3 0 00-2.998 2.888L9 7v2h6V7a3 3 0 00-3-3z" fill="currentColor"/></g></symbol><use xlink:href="#lock" y="1416" width="24" height="24"/><view id="lock-view" viewBox="0 1416 24 24"/><symbol id="map" viewBox="0 0 24 24"><g fill="none" fill-rule="evenodd"><path d="M0 0h24v24H0z"/><path d="M22 4.113V17.72l-7 2.333-6-2-7 2.333V6.78l7-2.333 6 2 7-2.333zM8 6.887L4 8.22v9.392l4-1.333V6.887zm2 0v9.392l4 1.333V8.22l-4-1.334zm10 0l-4 1.334v9.39l4-1.332V6.887z" fill="currentColor"/></g></symbol><use xlink:href="#map" y="1440" width="24" height="24"/><view id="map-view" viewBox="0 1440 24 24"/><symbol id="menu-dots" viewBox="0 0 24 24"><g fill="none" fill-rule="evenodd"><path d="M0 0h24v24H0z"/><path d="M12 10a2 2 0 110 4 2 2 0 010-4zm7 0a2 2 0 110 4 2 2 0 010-4zM5 10a2 2 0 110 4 2 2 0 010-4z" fill="currentColor"/></g></symbol><use xlink:href="#menu-dots" y="1464" width="24" height="24"/><view id="menu-dots-view" viewBox="0 1464 24 24"/><symbol id="menu-hamburger" viewBox="0 0 24 24"><g fill="none" fill-rule="evenodd"><path d="M0 0h24v24H0z"/><path d="M22 17v2H2v-2h20zm0-6v2H2v-2h20zm0-6v2H2V5h20z" fill="currentColor"/></g></symbol><use xlink:href="#menu-hamburger" y="1488" width="24" height="24"/><view id="menu-hamburger-view" viewBox="0 1488 24 24"/><symbol id="microphone-crossed" viewBox="0 0 24 24"><g fill="none" fill-rule="evenodd"><path d="M0 0h24v24H0z"/><path d="M19 11.5a7.002 7.002 0 01-5.999 6.929L13 21h3v2H8v-2h3v-2.57a6.952 6.952 0 01-1.504-.391l1.618-1.617a5 5 0 005.881-4.705L17 11.5h2zm.793-8.707l1.414 1.414-16.5 16.5-1.414-1.414 16.5-16.5zM7 11.5c0 .589.102 1.153.288 1.678L5.77 14.695a6.963 6.963 0 01-.766-2.954L5 11.5h2zM12 1a4.003 4.003 0 013.967 3.499L14 6.464V5.029l-.003-.147A2 2 0 0012 3a1.999 1.999 0 00-1.98 1.7l-.015.153L10 5l-.001 5.465-1.792 1.794a4.062 4.062 0 01-.185-.848l-.016-.206L8 11V4.971l.007-.205A4 4 0 0112 1z" fill="currentColor"/></g></symbol><use xlink:href="#microphone-crossed" y="1512" width="24" height="24"/><view id="microphone-crossed-view" viewBox="0 1512 24 24"/><symbol id="microphone" viewBox="0 0 24 24"><g fill="none" fill-rule="evenodd"><path d="M0 0h24v24H0z"/><path d="M8 23v-2h3v-2.57a7.002 7.002 0 01-5.996-6.69L5 11.5h2a5 5 0 009.995.217L17 11.5h2a7.002 7.002 0 01-5.999 6.929L13 21h3v2H8zm4-22a4.004 4.004 0 013.978 3.59l.016.205L16 5v6a4 4 0 01-4 4 4.004 4.004 0 01-3.978-3.59l-.016-.205L8 11V4.971l.007-.205A4 4 0 0112 1zm0 2a1.999 1.999 0 00-1.98 1.7l-.015.153L10 5v5.971l.003.147a2 2 0 003.992.031L14 11V5.029l-.003-.147A2 2 0 0012 3z" fill="currentColor"/></g></symbol><use xlink:href="#microphone" y="1536" width="24" height="24"/><view id="microphone-view" viewBox="0 1536 24 24"/><symbol id="minus-circle" viewBox="0 0 24 24"><g fill="none" fill-rule="evenodd"><path d="M0 0h24v24H0z"/><path fill="currentColor" d="M12 2c5.523 0 10 4.477 10 10s-4.477 10-10 10S2 17.523 2 12 6.477 2 12 2zm0 2a8 8 0 100 16 8 8 0 000-16zm5 7v2H7v-2h10z"/></g></symbol><use xlink:href="#minus-circle" y="1560" width="24" height="24"/><view id="minus-circle-view" viewBox="0 1560 24 24"/><symbol id="minus" viewBox="0 0 24 24"><g fill="none" fill-rule="evenodd"><path d="M0 0h24v24H0z"/><path fill="currentColor" d="M6 11h12v2H6z"/></g></symbol><use xlink:href="#minus" y="1584" width="24" height="24"/><view id="minus-view" viewBox="0 1584 24 24"/><symbol id="mobile" viewBox="0 0 24 24"><g fill="none" fill-rule="evenodd"><path d="M0 0h24v24H0z"/><path d="M15 2a4 4 0 013.995 3.8L19 6v12a4 4 0 01-3.8 3.995L15 22H9a4 4 0 01-3.995-3.8L5 18V6a4 4 0 013.8-3.995L9 2h6zm0 2H9a2 2 0 00-1.995 1.85L7 6v12a2 2 0 001.85 1.995L9 20h6a2 2 0 001.995-1.85L17 18V6a2 2 0 00-1.85-1.995L15 4zm-3 11.5a1.5 1.5 0 110 3 1.5 1.5 0 010-3z" fill="currentColor"/></g></symbol><use xlink:href="#mobile" y="1608" width="24" height="24"/><view id="mobile-view" viewBox="0 1608 24 24"/><symbol id="paperclip" viewBox="0 0 24 24"><g fill="none" fill-rule="evenodd"><path d="M0 0h24v24H0z"/><path d="M16 7h2v9a6 6 0 01-11.996.225L6 16V6.5a4.5 4.5 0 018.995-.212L15 6.5V15a3 3 0 01-5.995.176L9 15V7h2v8a1 1 0 001.993.117L13 15V6.5a2.5 2.5 0 00-4.995-.164L8 6.5V16a4 4 0 007.995.2L16 16V7z" fill="currentColor"/></g></symbol><use xlink:href="#paperclip" y="1632" width="24" height="24"/><view id="paperclip-view" viewBox="0 1632 24 24"/><symbol id="pen-line" viewBox="0 0 24 24"><g fill="none" fill-rule="evenodd"><path d="M0 0h24v24H0z"/><path d="M20.5 20v2h-17v-2h17zM14.25 2.5L19 7.25 8.25 18l-4.736-.014L3.5 13.25 14.25 2.5zm0 2.75L5.5 14l.007 1.994L7.5 16l8.75-8.75-2-2z" fill="currentColor"/></g></symbol><use xlink:href="#pen-line" y="1656" width="24" height="24"/><view id="pen-line-view" viewBox="0 1656 24 24"/><symbol id="pen" viewBox="0 0 24 24"><g fill="none" fill-rule="evenodd"><path d="M0 0h24v24H0z"/><path d="M16.75 3L4.5 15.25l.014 4.736L9.25 20 21.5 7.75 16.75 3zM6.5 16L16.75 5.75l2 2L8.5 18l-1.993-.006L6.5 16z" fill="currentColor"/></g></symbol><use xlink:href="#pen" y="1680" width="24" height="24"/><view id="pen-view" viewBox="0 1680 24 24"/><symbol id="person-female" viewBox="0 0 24 24"><g fill="none" fill-rule="evenodd"><path d="M0 0h24v24H0z"/><path d="M11 18v4h2v-4h2v6H9v-6h2zm2.048-11c1.923 0 3.125 1.175 3.588 3.005l1.833 7.25-1.938.49-1.834-7.25c-.247-.977-.71-1.457-1.547-1.493L13.048 9h-2.096c-.902 0-1.392.478-1.65 1.495l-1.833 7.25-1.938-.49 1.833-7.25c.451-1.785 1.605-2.946 3.445-3.003L10.952 7h2.096zM12 0a3 3 0 110 6 3 3 0 010-6zm0 2a1 1 0 100 2 1 1 0 000-2z" fill="currentColor"/></g></symbol><use xlink:href="#person-female" y="1704" width="24" height="24"/><view id="person-female-view" viewBox="0 1704 24 24"/><symbol id="person-male" viewBox="0 0 24 24"><g fill="none" fill-rule="evenodd"><path d="M0 0h24v24H0z"/><path d="M11 16v6h2v-6h2v8H9v-8h2zm3.5-9a3.5 3.5 0 013.498 3.38l.002.12V16h-2v-5.5a1.5 1.5 0 00-1.412-1.497L14.5 9h-5a1.5 1.5 0 00-1.497 1.412L8 10.5V16H6v-5.5a3.5 3.5 0 013.38-3.498L9.5 7h5zM12 0a3 3 0 110 6 3 3 0 010-6zm0 2a1 1 0 100 2 1 1 0 000-2z" fill="currentColor"/></g></symbol><use xlink:href="#person-male" y="1728" width="24" height="24"/><view id="person-male-view" viewBox="0 1728 24 24"/><symbol id="person-wheelchair" viewBox="0 0 24 24"><g fill="none" fill-rule="evenodd"><path d="M0 0h24v24H0z"/><path d="M8 9.498v2.26a4.5 4.5 0 105.587 7.017l.095-.093 1.414 1.414A6.5 6.5 0 118 9.498zM11 1a3 3 0 011 5.83L11.999 9H16v2h-4.001l.001.791c0 .528.205 1.032.586 1.413.541.541.93.688 1.88.752l.289.017c1.617.077 2.46.324 3.488 1.352.93.931 1.222 1.71 1.325 3.053l.027.435c.053 1.116.166 1.539.694 2.092l.075.077-1.414 1.414c-.99-.99-1.256-1.807-1.343-3.311l-.01-.177c-.055-1.166-.176-1.576-.769-2.169-.567-.567-.966-.702-2.02-.761l-.148-.008c-1.618-.077-2.46-.325-3.488-1.352a3.989 3.989 0 01-1.17-2.675L10 6.829A3.001 3.001 0 0111 1zm0 2a1 1 0 100 2 1 1 0 000-2z" fill="currentColor"/></g></symbol><use xlink:href="#person-wheelchair" y="1752" width="24" height="24"/><view id="person-wheelchair-view" viewBox="0 1752 24 24"/><symbol id="phone" viewBox="0 0 24 24"><g fill="none" fill-rule="evenodd"><path d="M0 0h24v24H0z"/><path fill="currentColor" d="M4.885 2.506L3.043 4.348l-.034.035C.572 7.07 2.784 12.452 7.191 16.818c4.445 4.404 9.751 6.6 12.426 4.173l1.877-1.876c.678-.678.655-1.563.058-2.272l-.058-.063-4.144-4.144c-.678-.678-1.564-.656-2.273-.058l-.063.058-1.046 1.046-.037-.008c-.585-.144-1.241-.602-2.123-1.484l-.123-.124c-.8-.819-1.222-1.44-1.359-1.997l-.008-.038 1.046-1.045.058-.063c.598-.71.62-1.595-.058-2.273L7.22 2.506l-.063-.058c-.709-.597-1.594-.62-2.272.058zm1.167 1.66l3.652 3.652-1.428 1.428v.414c0 1.355.687 2.513 2.118 3.945 1.432 1.431 2.591 2.12 3.946 2.12h.414l1.428-1.428 3.651 3.65-1.595 1.596c-1.525 1.382-5.878-.42-9.64-4.146l-.152-.152c-3.57-3.607-5.315-7.847-4.012-9.452l.047-.056 1.571-1.57z"/></g></symbol><use xlink:href="#phone" y="1776" width="24" height="24"/><view id="phone-view" viewBox="0 1776 24 24"/><symbol id="photo-plus" viewBox="0 0 24 24"><g fill="none" fill-rule="evenodd"><path d="M0 0h24v24H0z"/><path d="M12 2v2H6l.001 9.44c.502.243.928.59 1.51 1.159l.196.194C8.661 15.747 9.083 16 10 16c.86 0 1.284-.222 2.12-1.036l.173-.171C13.589 13.497 14.417 13 16 13c.81 0 1.422.13 2 .43V11h2v11H4V2h8zm4 13c-.86 0-1.284.222-2.12 1.036l-.173.171C12.411 17.503 11.583 18 10 18c-1.5 0-2.322-.446-3.506-1.595L6 15.92V20h12v-4.078l-.042-.04C17.226 15.193 16.803 15 16 15zm-6-9a3 3 0 110 6 3 3 0 010-6zm0 2a1 1 0 100 2 1 1 0 000-2zm9-7v3h3v2h-3v3h-2V6h-3V4h3V1h2z" fill="currentColor"/></g></symbol><use xlink:href="#photo-plus" y="1800" width="24" height="24"/><view id="photo-plus-view" viewBox="0 1800 24 24"/><symbol id="photo" viewBox="0 0 24 24"><g fill="none" fill-rule="evenodd"><path d="M0 0h24v24H0z"/><path d="M20 2v20H4V2h16zm-4 13c-.86 0-1.284.222-2.12 1.036l-.173.171C12.411 17.503 11.583 18 10 18c-1.5 0-2.322-.446-3.506-1.595L6 15.92V20h12v-4.078l-.042-.04C17.226 15.193 16.803 15 16 15zm2-11H6l.001 9.44c.502.243.928.59 1.51 1.159l.196.194C8.661 15.747 9.083 16 10 16c.86 0 1.284-.222 2.12-1.036l.173-.171C13.589 13.497 14.417 13 16 13c.81 0 1.422.13 2 .43V4zm-8 2a3 3 0 110 6 3 3 0 010-6zm0 2a1 1 0 100 2 1 1 0 000-2z" fill="currentColor"/></g></symbol><use xlink:href="#photo" y="1824" width="24" height="24"/><view id="photo-view" viewBox="0 1824 24 24"/><symbol id="plus-circle" viewBox="0 0 24 24"><g fill="none" fill-rule="evenodd"><path d="M0 0h24v24H0z"/><path d="M12 2c5.523 0 10 4.477 10 10s-4.477 10-10 10S2 17.523 2 12 6.477 2 12 2zm0 2a8 8 0 100 16 8 8 0 000-16zm1 3v4h4v2h-4v4h-2v-4H7v-2h4V7h2z" fill="currentColor"/></g></symbol><use xlink:href="#plus-circle" y="1848" width="24" height="24"/><view id="plus-circle-view" viewBox="0 1848 24 24"/><symbol id="plus" viewBox="0 0 24 24"><g fill="none" fill-rule="evenodd"><path d="M0 0h24v24H0z"/><path fill="currentColor" d="M13 6v5h5v2h-5v5h-2v-5H6v-2h5V6z"/></g></symbol><use xlink:href="#plus" y="1872" width="24" height="24"/><view id="plus-view" viewBox="0 1872 24 24"/><symbol id="question-circle" viewBox="0 0 24 24"><g fill="none" fill-rule="evenodd"><path d="M0 0h24v24H0z"/><path d="M12 2c5.523 0 10 4.477 10 10s-4.477 10-10 10S2 17.523 2 12 6.477 2 12 2zm0 2a8 8 0 100 16 8 8 0 000-16zm1 12v2h-2v-2h2zm-.956-10.25c1.99 0 3.673 1.545 3.673 3.674 0 1.357-.47 2.065-1.556 2.882l-.242.178c-.744.545-.963.852-.98 1.658l-.002.108h-2c0-1.575.522-2.412 1.677-3.288l.248-.182c.706-.517.855-.726.855-1.356 0-.985-.75-1.674-1.673-1.674-.853 0-1.565.59-1.662 1.458l-.009.098-1.996-.114c.115-2.019 1.757-3.442 3.667-3.442z" fill="currentColor"/></g></symbol><use xlink:href="#question-circle" y="1896" width="24" height="24"/><view id="question-circle-view" viewBox="0 1896 24 24"/><symbol id="search" viewBox="0 0 24 24"><g fill="none" fill-rule="evenodd"><path d="M0 0h24v24H0z"/><path d="M15 1a8 8 0 11-4.798 14.402l-6.401 6.4-1.591-1.59 6.398-6.4A8 8 0 0115 1zm0 2a6 6 0 100 12 6 6 0 000-12z" fill="currentColor"/></g></symbol><use xlink:href="#search" y="1920" width="24" height="24"/><view id="search-view" viewBox="0 1920 24 24"/><symbol id="share" viewBox="0 0 24 24"><g fill="none" fill-rule="evenodd"><path d="M0 0h24v24H0z"/><path d="M18.5 2.25a3.5 3.5 0 11-2.615 5.827L8.97 11.534a3.532 3.532 0 010 .932l6.916 3.457a3.5 3.5 0 11-.862 1.923l-6.95-3.474a3.5 3.5 0 110-4.743l6.95-3.475A3.5 3.5 0 0118.5 2.25zm0 14.5a1.5 1.5 0 100 3 1.5 1.5 0 000-3zm-13-6.25a1.5 1.5 0 100 3 1.5 1.5 0 000-3zm13-6.25a1.5 1.5 0 100 3 1.5 1.5 0 000-3z" fill="currentColor"/></g></symbol><use xlink:href="#share" y="1944" width="24" height="24"/><view id="share-view" viewBox="0 1944 24 24"/><symbol id="signin" viewBox="0 0 24 24"><g fill="none" fill-rule="evenodd"><path d="M0 0h24v24H0z"/><path d="M21 2v20H8v-5h2v3h9V4h-9v3H8V2h13zm-8.5 5l5 5-5 5-1.5-1.5 2.5-2.501L2 13v-2l11.499-.001L11 8.5 12.5 7z" fill="currentColor"/></g></symbol><use xlink:href="#signin" y="1968" width="24" height="24"/><view id="signin-view" viewBox="0 1968 24 24"/><symbol id="signout" viewBox="0 0 24 24"><g fill="none" fill-rule="evenodd"><path d="M0 0h24v24H0z"/><path d="M16 2v5h-2V4H5v16h9v-3h2v5H3V2h13zm2 5l5 5-5 5-1.5-1.5 2.5-2.501L8 13v-2l10.999-.001L16.5 8.5 18 7z" fill="currentColor"/></g></symbol><use xlink:href="#signout" y="1992" width="24" height="24"/><view id="signout-view" viewBox="0 1992 24 24"/><symbol id="speechbubble-text" viewBox="0 0 24 24"><g fill="none" fill-rule="evenodd"><path d="M0 0h24v24H0z"/><path d="M19 4a4 4 0 013.995 3.8L23 8v8a4 4 0 01-3.8 3.995L19 20h-1c-.988 0-1.846.338-2.617 1.039l-.176.168-.707.707-.707-.707c-.757-.757-1.6-1.149-2.567-1.201L11 20H5a4 4 0 01-3.995-3.8L1 16V8a4 4 0 013.8-3.995L5 4h14zm0 2H5a2 2 0 00-1.995 1.85L3 8v8a2 2 0 001.85 1.995L5 18h6a5.68 5.68 0 013.5 1.175 5.67 5.67 0 013.036-1.158l.28-.014L18 18h1a2 2 0 001.995-1.85L21 16V8a2 2 0 00-1.85-1.995L19 6zm-1 7v2H6v-2h12zm0-4v2H6V9h12z" fill="currentColor"/></g></symbol><use xlink:href="#speechbubble-text" y="2016" width="24" height="24"/><view id="speechbubble-text-view" viewBox="0 2016 24 24"/><symbol id="speechbubble" viewBox="0 0 24 24"><g fill="none" fill-rule="evenodd"><path d="M0 0h24v24H0z"/><path d="M19 4H5a4 4 0 00-4 4v8a4 4 0 004 4h6c1.064 0 1.977.392 2.793 1.207l.707.707.707-.707C16.023 20.392 16.937 20 18 20h1a4 4 0 004-4V8a4 4 0 00-4-4zM5 6h14a2 2 0 012 2v8a2 2 0 01-2 2h-1l-.184.003a5.675 5.675 0 00-3.316 1.172A5.68 5.68 0 0011 18H5a2 2 0 01-2-2V8a2 2 0 012-2z" fill="currentColor"/></g></symbol><use xlink:href="#speechbubble" y="2040" width="24" height="24"/><view id="speechbubble-view" viewBox="0 2040 24 24"/><symbol id="star-fill" viewBox="0 0 24 24"><g fill="none" fill-rule="evenodd"><path d="M0 0h24v24H0z"/><path fill="currentColor" d="M5.202 22.231l.217-1.728.737-5.847-3.973-4.278L1 9.115l1.69-.331 5.712-1.079 2.777-5.173L12 1l.821 1.532 2.777 5.173 5.712 1.079 1.69.33-1.183 1.264-3.985 4.29.737 5.835.229 1.728-1.558-.748L12 18.971l-5.24 2.512-1.558.748z"/></g></symbol><use xlink:href="#star-fill" y="2064" width="24" height="24"/><view id="star-fill-view" viewBox="0 2064 24 24"/><symbol id="star" viewBox="0 0 24 24"><g fill="none" fill-rule="evenodd"><path d="M0 0h24v24H0z"/><path d="M5.202 22.231l.217-1.728.737-5.847-3.973-4.278L1 9.115l1.69-.331 5.712-1.079 2.777-5.173L12 1l.821 1.532 2.777 5.173 5.712 1.079 1.69.33-1.183 1.264-3.985 4.29.737 5.835.229 1.728-1.558-.748L12 18.971l-5.24 2.512-1.558.748zm2.294-3.211l4.106-1.974.398-.184.398.184 4.094 1.974-.58-4.56-.06-.454.314-.319 3.103-3.346-4.444-.846-.446-.086-.206-.404L12 4.959 9.827 9.005l-.218.404-.434.086-4.444.846 3.103 3.346.302.319-.048.454-.592 4.56z" fill="currentColor"/></g></symbol><use xlink:href="#star" y="2088" width="24" height="24"/><view id="star-view" viewBox="0 2088 24 24"/><symbol id="ticket" viewBox="0 0 24 24"><g fill="none" fill-rule="evenodd"><path d="M0 0h24v24H0z"/><path d="M14.5 2l3.125 3.125L17 5.75a.884.884 0 001.173 1.319L18.25 7l.625-.625L22 9.5 9.5 22l-3.125-3.125L7 18.25a.884.884 0 00-1.173-1.319L5.75 17l-.625.625L2 14.5 14.5 2zm0 2.5l-3 3a1 1 0 11-.991 1.127L10.5 8.5l-6 6 .731.731.169-.073.173-.06a2.656 2.656 0 012.26.312l.166.118.138.115.113.107.138.149c.613.714.785 1.676.515 2.53l-.065.18-.07.16.732.731 6.002-6a1 1 0 11.99-1.126l.008.128 3-3.002-.732-.732-.168.074-.173.06a2.656 2.656 0 01-2.26-.312L16 8.472l-.138-.115-.113-.107-.138-.149a2.652 2.652 0 01-.515-2.53l.065-.18.07-.16L14.5 4.5zm-1.707 5.293a1 1 0 111.414 1.414 1 1 0 01-1.414-1.414z" fill="currentColor"/></g></symbol><use xlink:href="#ticket" y="2112" width="24" height="24"/><view id="ticket-view" viewBox="0 2112 24 24"/><symbol id="trash" viewBox="0 0 24 24"><g fill="none" fill-rule="evenodd"><path d="M0 0h24v24H0z"/><path d="M18 9H6l1.087 13h9.826L18 9zm-2.095 2l-.818 9H8.912l-.818-9h7.811zM12 2a2.97 2.97 0 012.995 2.82L15 5v1h3v2H6V6h3V5c0-1.688 1.331-3 3-3zm0 2c-.53 0-.938.365-.994.879L11 5v1h2V5c0-.577-.43-1-1-1z" fill="currentColor"/></g></symbol><use xlink:href="#trash" y="2136" width="24" height="24"/><view id="trash-view" viewBox="0 2136 24 24"/><symbol id="upload-cloud" viewBox="0 0 24 24"><g fill="none" fill-rule="evenodd"><path d="M0 0h24v24H0z"/><path d="M7.757 12.243L12 8l4.243 4.243-1.061 1.06L13 11.123V22h-2V11.121l-2.182 2.182-1.06-1.06zM11.5 2c2.557 0 4.867 1.552 5.736 3.93l.047.136.132.021c2.63.448 4.517 2.532 4.583 5.263l.002.15c0 3.141-2.2 5.427-5.3 5.498l-.15.002H15.5v-2h1.05c2.066 0 3.45-1.406 3.45-3.5 0-1.962-1.398-3.381-3.4-3.495L16.471 8l-.795-.023-.157-.78C15.14 5.296 13.434 4 11.5 4 9.263 4 7.622 5.559 7.507 7.75l-.005.13-.014 1.112-1.157.01C4.84 9.043 3.6 10.452 3.6 12.1a2.9 2.9 0 002.789 2.898L6.5 15h2v2h-2a4.9 4.9 0 01-4.9-4.9c0-2.41 1.652-4.535 3.895-5.004l.07-.014.022-.145c.468-2.84 2.777-4.867 5.758-4.935L11.5 2z" fill="currentColor"/></g></symbol><use xlink:href="#upload-cloud" y="2160" width="24" height="24"/><view id="upload-cloud-view" viewBox="0 2160 24 24"/><symbol id="upload" viewBox="0 0 24 24"><g fill="none" fill-rule="evenodd"><path d="M0 0h24v24H0z"/><path d="M12 1.636l5.657 5.657-1.414 1.414L13 5.465V18h-2V5.465L7.757 8.707 6.343 7.293 12 1.636zM5 15v5h14v-5h2v7H3v-7h2z" fill="currentColor"/></g></symbol><use xlink:href="#upload" y="2184" width="24" height="24"/><view id="upload-view" viewBox="0 2184 24 24"/><symbol id="user" viewBox="0 0 24 24"><g fill="none" fill-rule="evenodd"><path d="M0 0h24v24H0z"/><path d="M16.267 13a4.733 4.733 0 014.728 4.517l.005.216V22H3v-4.267a4.733 4.733 0 014.517-4.728L7.733 13h8.534zm-8.534 2a2.733 2.733 0 00-2.728 2.567L5 17.733V20h14v-2.267c0-1.416-1.107-2.636-2.46-2.726l-.163-.005L7.733 15zM12 2a5 5 0 110 10 5 5 0 010-10zm0 2a3 3 0 100 6 3 3 0 000-6z" fill="currentColor"/></g></symbol><use xlink:href="#user" y="2208" width="24" height="24"/><view id="user-view" viewBox="0 2208 24 24"/><symbol id="videocamera-crossed" viewBox="0 0 24 24"><g fill="none" fill-rule="evenodd"><path d="M0 0h24v24H0z"/><path d="M19.793 2.793l1.414 1.414-16.5 16.5-1.414-1.414 16.5-16.5zM23 6.613v10.774l-6.018-2.006a4 4 0 01-3.775 3.614L13 19H8.534l2-2H13a2 2 0 001.995-1.85L15 15v-2.466l4.882-4.882L23 6.612zM13 5c.71 0 1.377.185 1.955.51l-1.534 1.534a1.999 1.999 0 00-.278-.039L13 7H5a2 2 0 00-1.995 1.85L3 9v6c0 .671.33 1.265.838 1.628l-1.424 1.424a3.992 3.992 0 01-1.407-2.81L1 15V9a4 4 0 013.8-3.995L5 5h8zm8 4.387l-4 1.333v2.559l4 1.333V9.387zM6 9a1 1 0 110 2 1 1 0 010-2z" fill="currentColor"/></g></symbol><use xlink:href="#videocamera-crossed" y="2232" width="24" height="24"/><view id="videocamera-crossed-view" viewBox="0 2232 24 24"/><symbol id="videocamera" viewBox="0 0 24 24"><g fill="none" fill-rule="evenodd"><path d="M0 0h24v24H0z"/><path d="M13 5a4 4 0 013.982 3.62L23 6.612v10.774l-6.018-2.006a4 4 0 01-3.775 3.614L13 19H5a4 4 0 01-3.995-3.8L1 15V9a4 4 0 013.8-3.995L5 5h8zm0 2H5a2 2 0 00-1.995 1.85L3 9v6a2 2 0 001.85 1.995L5 17h8a2 2 0 001.995-1.85L15 15V9a2 2 0 00-1.85-1.995L13 7zm8 2.387l-4 1.333v2.559l4 1.333V9.387zM6 9a1 1 0 110 2 1 1 0 010-2z" fill="currentColor"/></g></symbol><use xlink:href="#videocamera" y="2256" width="24" height="24"/><view id="videocamera-view" viewBox="0 2256 24 24"/><symbol id="volume-high" viewBox="0 0 24 24"><g fill="none" fill-rule="evenodd"><path d="M0 0h24v24H0z"/><path d="M15 2.5v19L9.273 17H6a5 5 0 01-.14-9.998L9.273 7 15 2.5zm5.745 3.03c3.67 3.67 3.714 9.591.128 13.305l-.118.12-1.414-1.414c2.886-2.886 2.918-7.547.1-10.484l-.11-.112 1.414-1.415zM13 6.811l-3 2.115v6.147l3 2.115V6.811zm4.826 1.081c2.121 2.122 2.075 5.595-.049 7.825l-.103.105-1.414-1.414c1.428-1.428 1.508-3.65.233-5.017l-.082-.085 1.415-1.414zM8 9H5.915a3 3 0 00-.027 5.997L6 15h2V9z" fill="currentColor"/></g></symbol><use xlink:href="#volume-high" y="2280" width="24" height="24"/><view id="volume-high-view" viewBox="0 2280 24 24"/><symbol id="volume-low" viewBox="0 0 24 24"><g fill="none" fill-rule="evenodd"><path d="M0 0h24v24H0z"/><path d="M15 2.5v19L9.273 17H6a5 5 0 01-.14-9.998L9.273 7 15 2.5zm-2 4.311l-3 2.115v6.147l3 2.115V6.811zm4.826 1.081c2.121 2.122 2.075 5.595-.049 7.825l-.103.105-1.414-1.414c1.428-1.428 1.508-3.65.233-5.017l-.082-.085 1.415-1.414zM8 9H5.915a3 3 0 00-.027 5.997L6 15h2V9z" fill="currentColor"/></g></symbol><use xlink:href="#volume-low" y="2304" width="24" height="24"/><view id="volume-low-view" viewBox="0 2304 24 24"/><symbol id="volume-minus" viewBox="0 0 24 24"><g fill="none" fill-rule="evenodd"><path d="M0 0h24v24H0z"/><path d="M15 2.5v19L9.273 17H6a5 5 0 01-.14-9.998L9.273 7 15 2.5zm-2 4.311l-3 2.115v6.147l3 2.115V6.811zM8 9H5.915a3 3 0 00-.027 5.997L6 15h2V9zm16 2v2h-7v-2h7z" fill="currentColor"/></g></symbol><use xlink:href="#volume-minus" y="2328" width="24" height="24"/><view id="volume-minus-view" viewBox="0 2328 24 24"/><symbol id="volume-mute" viewBox="0 0 24 24"><g fill="none" fill-rule="evenodd"><path d="M0 0h24v24H0z"/><path fill="currentColor" d="M15 2.5v19L9.273 17H6a5 5 0 01-.14-9.998L9.273 7 15 2.5zm-2 4.311l-3 2.115v6.147l3 2.115V6.811zM22.5 8.5L24 10l-2 2 2 2-1.5 1.5-2-2-2 2L17 14l2-2-2-2 1.5-1.5 2 2 2-2zM8 9H5.915a3 3 0 00-.027 5.997L6 15h2V9z"/></g></symbol><use xlink:href="#volume-mute" y="2352" width="24" height="24"/><view id="volume-mute-view" viewBox="0 2352 24 24"/><symbol id="volume-plus" viewBox="0 0 24 24"><g fill="none" fill-rule="evenodd"><path d="M0 0h24v24H0z"/><path d="M15 2.5v19L9.273 17H6a5 5 0 01-.14-9.998L9.273 7 15 2.5zm-2 4.311l-3 2.115v6.147l3 2.115V6.811zM21 8v3h3v2h-3v3h-2v-3h-3v-2h3V8h2zM8 9H5.915a3 3 0 00-.027 5.997L6 15h2V9z" fill="currentColor"/></g></symbol><use xlink:href="#volume-plus" y="2376" width="24" height="24"/><view id="volume-plus-view" viewBox="0 2376 24 24"/><symbol id="wifi-crossed" viewBox="0 0 24 24"><g fill="none" fill-rule="evenodd"><path d="M0 0h24v24H0z"/><path d="M19.793 2.793l1.414 1.414-16.5 16.5-1.414-1.414 16.5-16.5zM12 17.533a1.5 1.5 0 110 3 1.5 1.5 0 010-3zm1.525-3.525a6.389 6.389 0 012.615 1.515l.112.109-1.415 1.414a4.335 4.335 0 00-3.06-1.29l1.748-1.748zm-2.56-4.507L7.99 12.475a8.44 8.44 0 00-1.81 1.33l-.116.114-1.414-1.414A10.398 10.398 0 0110.965 9.5zm5.924 1.145c.85.449 1.652 1.024 2.377 1.725l.124.122-1.414 1.415a8.379 8.379 0 00-2.585-1.764l1.498-1.498zm3.241-3.24a14.947 14.947 0 012.223 1.777l.175.172-1.414 1.414a12.9 12.9 0 00-2.435-1.912l1.451-1.45zM15.135 5.33l-1.743 1.745a12.845 12.845 0 00-10.326 3.546l-.152.15L1.5 9.354c3.702-3.702 8.87-5.044 13.635-4.026z" fill="currentColor"/></g></symbol><use xlink:href="#wifi-crossed" y="2400" width="24" height="24"/><view id="wifi-crossed-view" viewBox="0 2400 24 24"/><symbol id="wifi" viewBox="0 0 24 24"><g fill="none" fill-rule="evenodd"><path d="M0 0h24v24H0z"/><path d="M12 17.534a1.5 1.5 0 110 3 1.5 1.5 0 010-3zm4.14-2.011l.112.109-1.415 1.414c-1.628-1.629-4.166-1.717-5.727-.253l-.087.085-1.414-1.414c2.312-2.313 6.1-2.26 8.531.059zm3.126-3.152l.124.122-1.414 1.415c-3.248-3.248-8.495-3.281-11.796-.102l-.116.113-1.414-1.414c4.032-4.032 10.54-4.079 14.616-.134zm3.087-3.188l.175.172-1.414 1.414C16.138 5.794 8.103 5.744 3.066 10.62l-.152.15L1.5 9.354c5.749-5.749 15.033-5.806 20.853-.172z" fill="currentColor"/></g></symbol><use xlink:href="#wifi" y="2424" width="24" height="24"/><view id="wifi-view" viewBox="0 2424 24 24"/><symbol id="zoom-in" viewBox="0 0 24 24"><g fill="none" fill-rule="evenodd"><path d="M0 0h24v24H0z"/><path d="M14 2a8 8 0 11-4.953 14.283l-5.633 5.631L2 20.5l5.642-5.644A8 8 0 0114 2zm0 2a6 6 0 100 12 6 6 0 000-12zm1 2v3h3v2h-3v3h-2v-3h-3V9h3V6h2z" fill="currentColor"/></g></symbol><use xlink:href="#zoom-in" y="2448" width="24" height="24"/><view id="zoom-in-view" viewBox="0 2448 24 24"/><symbol id="zoom-out" viewBox="0 0 24 24"><g fill="none" fill-rule="evenodd"><path d="M0 0h24v24H0z"/><path d="M14 2a8 8 0 11-4.953 14.283l-5.633 5.631L2 20.5l5.642-5.644A8 8 0 0114 2zm0 2a6 6 0 100 12 6 6 0 000-12zm4 5v2h-8V9h8z" fill="currentColor"/></g></symbol><use xlink:href="#zoom-out" y="2472" width="24" height="24"/><view id="zoom-out-view" viewBox="0 2472 24 24"/><symbol id="zoom-text" viewBox="0 0 24 24"><g fill="none" fill-rule="evenodd"><path d="M0 0h24v24H0z"/><path d="M15 2a8 8 0 11-4.953 14.283l-5.633 5.631L3 20.5l5.642-5.644A8 8 0 0115 2zm0 2a6 6 0 100 12 6 6 0 000-12zm1.065 2.5L18.25 13h-1.8l-.395-1.24H13.86L13.476 13H11.75l2.185-6.5h2.13zM4.65 7.5L6.5 13H4.976l-.333-1.05H2.786L2.46 13H1l1.85-5.5h1.8zm-.913 1.415h-.032l-.054.244c-.014.058-.03.122-.05.19l-.062.21-.373 1.184H4.27l-.373-1.184c-.103-.318-.159-.644-.159-.644zm11.248-.743h-.038l-.075.33a7.427 7.427 0 01-.054.207l-.068.224-.44 1.4h1.303l-.44-1.4a6.223 6.223 0 01-.188-.761z" fill="currentColor"/></g></symbol><use xlink:href="#zoom-text" y="2496" width="24" height="24"/><view id="zoom-text-view" viewBox="0 2496 24 24"/><symbol id="info" viewBox="0 0 24 24"><g fill="none" fill-rule="evenodd"><path d="M0 0h24v24H0z"/><path d="M12 2c5.523 0 10 4.477 10 10s-4.477 10-10 10S2 17.523 2 12 6.477 2 12 2zm0 2a8 8 0 100 16 8 8 0 000-16zm1 6v6.5h2V18H9v-1.5h2v-5H9V10h4zm-1.187-4a1.312 1.312 0 110 2.625 1.312 1.312 0 010-2.625z" fill="currentColor"/></g></symbol><use xlink:href="#info" y="2520" width="24" height="24"/><view id="info-view" viewBox="0 2520 24 24"/></svg>