<svg xmlns="http://www.w3.org/2000/svg" width="24" height="24" viewBox="0 0 24 24">
  <g fill="none" fill-rule="evenodd">
    <rect width="24" height="24"/>
    <path fill="currentColor" d="M19.0714286,3 C20.0854592,3 20.9172741,3.7835277 20.9941951,4.77790504 L21,4.92857143 L21,19.0714286 C21,20.0854592 20.2164723,20.9172741 19.222095,20.9941951 L19.0714286,21 L4.92857143,21 C3.91454082,21 3.08272595,20.2164723 3.00580487,19.222095 L3,19.0714286 L3,4.92857143 C3,3.91454082 3.7835277,3.08272595 4.77790504,3.00580487 L4.92857143,3 L19.0714286,3 Z M11.9677419,5 C8.09516129,5 4.96774194,8.12741935 4.96774194,12 C4.96774194,15.8725806 8.09516129,19 11.9677419,19 C16.0068548,19 18.7419355,16.1576613 18.7419355,12.1637097 C18.7419355,11.791129 18.7130323,11.4962258 18.6682323,11.2096323 L18.6318548,10.9951613 L11.9677419,10.9951613 L11.9677419,13.4028226 L15.9419355,13.4028226 C15.7782258,14.4330645 14.7395161,16.4201613 11.9677419,16.4201613 C9.57983871,16.4201613 7.62943548,14.4415323 7.62943548,12 C7.62943548,8.13558468 12.1000666,6.32406574 14.6209226,8.53889583 L14.7564516,8.66370968 L16.6616935,6.83185484 C15.4395161,5.69153226 13.8532258,5 11.9677419,5 Z"/>
  </g>
</svg>
