<svg xmlns="http://www.w3.org/2000/svg" width="24" height="24" viewBox="0 0 24 24">
  <g fill="none" fill-rule="evenodd">
    <rect width="24" height="24"/>
    <path fill="currentColor" d="M19.0714286,3 L4.92857143,3 C3.86383929,3 3,3.86383929 3,4.92857143 L3,19.0714286 C3,20.1361607 3.86383929,21 4.92857143,21 L19.0714286,21 C20.1361607,21 21,20.1361607 21,19.0714286 L21,4.92857143 C21,3.86383929 20.1361607,3 19.0714286,3 Z M5.77232143,18.4285714 L5.77232143,9.83839286 L8.44419643,9.83839286 L8.44419643,18.4285714 L5.77232143,18.4285714 Z M5.559375,7.11830357 C5.559375,6.26651786 6.25044643,5.57142857 7.10625,5.57142857 C7.95803571,5.57142857 8.653125,6.26651786 8.653125,7.11830357 C8.653125,7.97410714 7.96205357,8.66517857 7.10625,8.66517857 C6.25044643,8.66517857 5.559375,7.97008929 5.559375,7.11830357 Z M15.7727679,18.4285714 L15.7727679,14.25 C15.7727679,13.2535714 15.7526786,11.971875 14.3866071,11.971875 C12.9964286,11.971875 12.7834821,13.0566964 12.7834821,14.1776786 L12.7834821,18.4285714 L10.115625,18.4285714 L10.115625,9.83839286 L12.675,9.83839286 L12.675,11.0116071 L12.7111607,11.0116071 C13.06875,10.3366071 13.940625,9.62544643 15.2383929,9.62544643 C17.9383929,9.62544643 18.440625,11.4053571 18.440625,13.7196429 L18.440625,18.4285714 L15.7727679,18.4285714 Z"/>
  </g>
</svg>
