<?xml version="1.0" encoding="utf-8"?>
<!-- Generator: Adobe Illustrator 23.0.4, SVG Export Plug-In . SVG Version: 6.00 Build 0)  -->
<svg version="1.1" id="Layer_1" xmlns="http://www.w3.org/2000/svg" xmlns:xlink="http://www.w3.org/1999/xlink" x="0px" y="0px"
	 viewBox="0 0 78 28" style="enable-background:new 0 0 78 28;" xml:space="preserve" fill="currentColor">
<g>
	<path d="M26.7,16.7v-4.9h-1.5V14c0,1.5-0.4,2.5-1.6,2.8l-1.5-1.1c1.1-0.2,1.5-0.6,1.5-1.9l0-3.3h4.7v6.1H26.7z M57.4,10.7h1.6v1.6
		c0,0.5-0.1,1.2-0.1,1.2h0c0,0,0.3-0.6,0.7-1.2l1.1-1.7h1.8l-1.8,2.4l2,3.5H61l-1.2-2.2l-0.8,1v1.2h-1.6V10.7z M53.9,16.7h1.6v-6
		h-1.6v2.2h-2.2v-2.2h-1.6v6h1.6v-2.3h2.2V16.7z M38,13.7c0,1.1,0.3,1.8,1.2,1.8c0.7,0,1-0.7,1-1.4l1.5,0.8c-0.2,1-1.1,1.9-2.6,1.9
		c-1.6,0-2.8-1.2-2.8-3.1c0-1.9,1.2-3.1,2.8-3.1c1.5,0,2.4,1,2.6,1.9l-1.5,0.8c0-0.8-0.3-1.4-1-1.4C38.3,11.9,38,12.6,38,13.7
		 M19.9,13h-2.4c0.1-0.8,0.6-1.3,1.2-1.3C19.5,11.8,19.9,12.3,19.9,13 M21.5,13.3c0-1.6-1.1-2.8-2.7-2.8c-1.6,0-2.9,1.2-2.9,3.1
		c0,2,1.2,3.1,2.9,3.1c1.2,0,2.1-0.7,2.6-1.4L20,14.6c-0.1,0.6-0.5,1-1.2,1c-0.7,0-1.2-0.5-1.3-1.4h3.9
		C21.4,14.1,21.5,13.8,21.5,13.3 M11.9,13.4L11.9,13.4c0,0-0.3,0.6-0.6,1.1l-1.2,2.2H8.3l2.4-4.2l-2.2-4h1.9l1,1.9
		c0.3,0.5,0.5,1.1,0.5,1.1h0c0,0,0.3-0.6,0.6-1.1l1-1.9h1.8l-2.2,3.9l2.4,4.3h-1.9l-1.2-2.2C12.2,14,11.9,13.4,11.9,13.4 M1.7,1.7
		v16.1c0,3.1,2.5,5.6,5.6,5.6h26c2.1,0,4,0.8,5.6,2.1c1.5-1.4,3.5-2.1,5.6-2.1h26.1c3.1,0,5.7-2.5,5.7-5.6V1.7H1.7z M38.9,28
		L38,27.1c-1.2-1.2-2.9-1.9-4.7-1.9h-26c-4.1,0-7.4-3.3-7.4-7.3V0h78v17.9c0,4-3.3,7.3-7.4,7.3H44.5c-1.8,0-3.4,0.7-4.7,1.9L38.9,28
		z"/>
	<path d="M46.4,10.7l-1.3,2.8c-0.2,0.4-0.5,1.2-0.5,1.2h0c0,0,0.1-0.8,0.1-1.4v-2.6h-1.5v6H45l1.5-2.8c0.2-0.4,0.5-1.2,0.5-1.2h0
		c0,0-0.1,0.8-0.1,1.4v2.6h1.5v-6H46.4z"/>
	<path d="M67.2,10.7l-1.3,2.8c-0.2,0.4-0.5,1.2-0.5,1.2h0c0,0,0.1-0.8,0.1-1.4v-2.6H64v6h1.9l1.5-2.8c0.2-0.4,0.5-1.2,0.5-1.2h0
		c0,0-0.1,0.8-0.1,1.4v2.6h1.5v-6H67.2z"/>
	<path d="M31.6,13.9h1.2c0.2,0,0.3,0,0.4,0c0.1,0,0.3,0.1,0.4,0.1c0.1,0.1,0.2,0.1,0.2,0.2s0.1,0.2,0.1,0.4c0,0.2,0,0.3-0.1,0.4
		c-0.1,0.1-0.1,0.2-0.2,0.2c-0.1,0.1-0.2,0.1-0.3,0.1c-0.1,0-0.2,0-0.4,0h-1.3V13.9z M30,16.7h3.2c0.1,0,0.2,0,0.3,0
		c0.1,0,0.3,0,0.4-0.1c0.2,0,0.3-0.1,0.5-0.2c0.2-0.1,0.3-0.2,0.4-0.4c0.1-0.1,0.2-0.3,0.3-0.6c0.1-0.2,0.1-0.5,0.1-0.8
		c0-0.3-0.1-0.6-0.2-0.9c-0.1-0.3-0.3-0.5-0.5-0.6c-0.2-0.2-0.4-0.3-0.7-0.4c-0.3-0.1-0.6-0.1-1-0.1h-1.5v-2.2H30V16.7z"/>
</g>
</svg>
